<?xml version="1.0" standalone="no"?>
<!DOCTYPE svg PUBLIC "-//W3C//DTD SVG 1.1//EN" "http://www.w3.org/Graphics/SVG/1.1/DTD/svg11.dtd" >
<svg xmlns="http://www.w3.org/2000/svg">
<metadata></metadata>
<defs>
<font id="futioaregular" horiz-adv-x="1409" >
<font-face units-per-em="2048" ascent="1536" descent="-512" />
<missing-glyph horiz-adv-x="643" />
<glyph unicode="&#xfb01;" horiz-adv-x="1202" d="M608 745q12 -6 8 -19t-16 -15h-29q-3 0 -10.5 1t-11.5 1q-9 0 -28.5 -1t-28.5 -1q-40 0 -60 -2q-2 0 -6.5 0.5t-8.5 0.5t-7 -1q0 -68 -2 -103q-5 -45 -5 -59q-4 -16 -4 -27q-3 -16 0 -31v-194v-49q0 -6 1 -17.5t1 -17.5q0 -17 5 -94q2 -18 2 -51v-19q4 -8 4 -14 q-1 -12 -9.5 -19.5t-19.5 -5.5h-8h-6q-3 0 -8.5 -1t-8.5 -1q-4 0 -10.5 -1t-9.5 -1h-62h-90q-28 0 -33 4q-10 6 -10 29q2 17 2 96v391q-6 48 -6 49q0 29 -2 41q-4 32 -4 48v38h-25h-30q-2 0 -17 5q-10 0 -10 12v63q0 20 4 60v57v25v4q3 11 14.5 12.5t18.5 -4.5q2 0 4 -2h2 q10 0 14 2h41q0 12 -2 16q0 3 -1 9.5t-1 9.5q0 8 -2.5 49.5t0.5 50.5q0 3 1 10t1 11v20q0 6 -2 19t-2 20v33q-4 8 -4 22q0 4 -1 12.5t-1 12.5q0 14 2.5 28.5t7.5 34.5t6 27q5 36 9 45q2 5 7 17t7 20q5 17 16 41q4 23 11 35q4 6 11 18t11 18q17 17 25 27q25 25 34 31 q8 8 17 14q2 1 8 4.5t8 5.5q4 4 10.5 7.5t14.5 6.5t12 5q11 5 41 14q35 5 47 8q5 1 16.5 2t16.5 2q7 2 47 2q13 0 37 -8q18 0 29 -8h2q2 -2 8 -2q4 -2 8 -6q6 -3 6 -10q2 -2 0 -4l2 -2q6 0 6 -9t1 -28.5t1 -28.5v-27q0 -10 -4 -26v-58v-45q2 -2 2 -8q0 -12 -12 -12t-12 12 q0 2 -1 3t-3.5 2.5t-3.5 2.5q-5 0 -9 4q-2 0 -6 -1t-6 -1q-4 2 -10 2q-1 1 -4.5 1t-5.5 1q-16 6 -35 3q-45 -7 -74 -25q-20 -11 -33 -51q-6 -30 -6 -31v-37q-2 -6 -2.5 -18t-1.5 -15q-2 -4 -2 -12v-31q1 -14 1 -43t1 -43q0 -15 1 -47t1 -49q0 -6 1 -19.5t1 -19.5v-16h27h26 q1 0 12 -3t17 -3q29 0 59 6q35 4 54 2q22 -2 22 -35q-1 -10 -2 -29.5t-2 -29.5v-62q0 -30 4 -33zM1020 868q-1 -11 -2 -34t-2 -35v-101v-96q0 -64 -4 -196q-2 -35 -1.5 -96.5t-0.5 -96.5q-1 -8 -2 -24.5t-2 -24.5q-4 -29 -2 -45q2 -20 2 -66q6 0 6 -4q8 -8 8 -20 q1 -6 -4.5 -11.5t-11.5 -5.5q-18 0 -63 -6t-69 -4q-15 0 -30 6q-1 1 -6 1t-7 1h-16q-45 0 -65 4h-5q-6 1 -7.5 7.5t3.5 9.5q0 12 4 16q2 0 2 4v21q0 20 3 41q2 29 2 84v39q0 7 1 19.5t1 18.5q0 2 6 62q0 35 -2 51q0 15 -1 47t-1 47q0 11 1 31t1 36t-2 30q-4 32 -4 49 q4 28 2 43q-1 5 -1.5 19.5t-2.5 21.5q-3 21 -3 43q0 12 2 45.5t1 52.5q0 4 -1.5 11t-1.5 11v21v2q-2 2 -2 6q-3 9 2 17q8 6 31 6h45q19 0 29 2q3 0 9.5 2t10.5 2q9 2 58 2q13 3 26 0q3 0 8.5 -1t8.5 -1h20q3 0 8.5 -2t8.5 -2q1 -1 0 -2v0q7 -1 10 -8t0 -13q0 -10 1 -18.5 t1 -18.5zM1036 1364q0 -5 2 -17t2 -18q-3 -47 -34 -78q-12 -15 -35 -30q-1 -1 -13.5 -12t-19.5 -15q-12 -4 -18 -8l-19 -6q-11 -2 -33 2q-33 3 -63 18q-16 8 -27 19q0 1 -3.5 5.5t-4.5 8.5l-12 12q-12 16 -21 25q-16 16 -18 26v35v4q0 1 -1 3t-1 3q-5 9 4 27v2q0 2 2 4l2 6 q2 4 5 13t5 12q1 3 5 8t5 6q8 17 17 21q2 4 6 8q19 27 39 37q12 4 18 4q7 0 9 2h2q1 1 4 2t4 2l6 2h2q10 5 12 4q13 4 13 -6h18q51 -7 76 -35q6 -6 15.5 -19t10.5 -14q12 -12 21 -24q18 -23 18 -39zM748 891l-3 2q1 -1 2 -3z" />
<glyph unicode="&#xfb02;" horiz-adv-x="1212" d="M608 745q12 -6 8 -19t-16 -15h-29q-3 0 -10.5 1t-11.5 1q-9 0 -28.5 -1t-28.5 -1q-40 0 -60 -2q-2 0 -6.5 0.5t-8.5 0.5t-7 -1q0 -68 -2 -103q-5 -45 -5 -59q-4 -16 -4 -27q-3 -16 0 -31v-194v-49q0 -6 1 -17.5t1 -17.5q0 -17 5 -94q2 -18 2 -51v-19q4 -8 4 -14 q-1 -12 -9.5 -19.5t-19.5 -5.5h-8h-6q-3 0 -8.5 -1t-8.5 -1q-4 0 -10.5 -1t-9.5 -1h-62h-90q-28 0 -33 4q-10 6 -10 29q2 17 2 96v391q-6 48 -6 49q0 29 -2 41q-4 32 -4 48v38h-25h-30q-2 0 -17 5q-10 0 -10 12v63q0 20 4 60v57v25v4q3 11 14.5 12.5t18.5 -4.5q2 0 4 -2h2 q10 0 14 2h41q0 12 -2 16q0 3 -1 9.5t-1 9.5q0 8 -2.5 49.5t0.5 50.5q0 3 1 10t1 11v20q0 6 -2 19t-2 20v33q-4 8 -4 22q0 4 -1 12.5t-1 12.5q0 14 2.5 28.5t7.5 34.5t6 27q5 36 9 45q2 5 7 17t7 20q5 17 16 41q4 23 11 35q4 6 11 18t11 18q17 17 25 27q25 25 34 31 q8 8 17 14q2 1 8 4.5t8 5.5q4 4 10.5 7.5t14.5 6.5t12 5q11 5 41 14q35 5 47 8q5 1 16.5 2t16.5 2q7 2 47 2q13 0 37 -8q18 0 29 -8h2q2 -2 8 -2q4 -2 8 -6q6 -3 6 -10q2 -2 0 -4l2 -2q6 0 6 -9t1 -28.5t1 -28.5v-27q0 -10 -4 -26v-58v-45q2 -2 2 -8q0 -12 -12 -12t-12 12 q0 2 -1 3t-3.5 2.5t-3.5 2.5q-5 0 -9 4q-2 0 -6 -1t-6 -1q-4 2 -10 2q-1 1 -4.5 1t-5.5 1q-16 6 -35 3q-45 -7 -74 -25q-20 -11 -33 -51q-6 -30 -6 -31v-37q-2 -6 -2.5 -18t-1.5 -15q-2 -4 -2 -12v-31q1 -14 1 -43t1 -43q0 -15 1 -47t1 -49q0 -6 1 -19.5t1 -19.5v-16h27h26 q1 0 12 -3t17 -3q29 0 59 6q35 4 54 2q22 -2 22 -35q-1 -10 -2 -29.5t-2 -29.5v-62q0 -30 4 -33zM1079 618v-47q0 -31 -1 -95t-1 -95q0 -15 -1 -47t-1 -47v-260q-2 -2 -2 -4q4 -22 -10 -29q-7 -3 -12 2q-13 0 -17 -2h-10q-5 -1 -15.5 -2t-15.5 -2q-6 -2 -18 -2h-12 q-10 -2 -29 -2q-23 2 -68 2q-25 -3 -51 8q-14 5 -4 20v19q-2 5 -4 15t-2 11q-2 18 -2 58q0 8 3.5 55t-1.5 53q-1 8 -1 17.5t0.5 21t0.5 17.5q0 39 -2 57q0 7 -2.5 27.5t-1.5 31.5q2 4 2 13v6q0 4 4 12q2 4 2 14v88q0 124 2 185q0 64 -4 182q-3 47 0 90q0 47 2 72q-2 6 -2 16 q-2 20 -2 60q0 9 1 29t1 30v49v78q0 8 1 23.5t1 23.5q0 13 -4 41q-2 15 -2 90v21q-2 6 -2 20q0 1 2 15.5t4 21.5q0 6 6 6q4 4 12 4.5t19 -1t14 -1.5q6 0 18.5 -1t18.5 -1q5 0 15 1t16 1h37q3 0 14.5 1.5t17.5 0.5q13 0 37 -4h21l2 2q2 0 6 -4h6q13 -7 6 -18q4 -16 4 -27 q2 -14 2 -43v-86q0 -115 -2 -172q0 -15 -1 -43t-1 -41q4 -57 2 -84q-2 -14 -2 -39q0 -4 -1 -11t-1 -11q0 -1 0.5 -4.5t0.5 -6.5t-1 -6v-8q6 -21 6 -49q1 -9 1 -28t1 -29q0 -19 -1 -57t-1 -56q0 -16 -1 -47t-1 -47q0 -20 4 -52z" />
<glyph horiz-adv-x="0" />
<glyph horiz-adv-x="682" />
<glyph unicode=" "  horiz-adv-x="643" />
<glyph unicode="&#x09;" horiz-adv-x="643" />
<glyph unicode="&#xa0;" horiz-adv-x="643" />
<glyph unicode="!" horiz-adv-x="538" d="M401 440q14 -4 12.5 -19t-18.5 -15q-23 0 -59 4q-10 2 -62 2q-12 0 -34 1t-33 1q-21 0 -31 2q-4 1 -12 2t-12 2q-8 3 -11 11.5t4 14.5l5 5v8v16q-3 0 -3 6q-6 18 -6.5 54t-1.5 45q-2 31 -2 90q0 9 -2 26t-2 25v47q0 67 2 100q0 5 4 13v231q-2 17 -1.5 46t-0.5 46 q-2 17 -1.5 46t-0.5 48q0 10 0.5 29t0.5 34t-1 28v8q0 6 2 6q0 14 4 20q0 4 4 4q0 11 11 15q12 2 28 -4q8 -4 23 -4h61q12 0 33 -2t33 -2h41q11 15 26 4q18 -11 7 -29v-4v-43q0 -6 -0.5 -18t-0.5 -22.5t1 -19.5q4 -36 4 -53q0 -41 -2 -59q-7 -116 -7 -195q0 -34 -4 -100v-96 q0 -11 -0.5 -31t-0.5 -36t1 -30q2 -31 2 -92q0 -15 1 -47t1 -49q0 -8 -1 -24.5t-1 -24.5q3 -12 0 -21zM434 182v-35q0 -45 -8 -65q-15 -38 -37 -57q-35 -30 -79.5 -45t-84.5 -5t-67 43q-25 28 -39 60q-15 35 -15 43q-2 13 2 41q3 51 21 78q6 9 29 32q26 21 32 23q2 2 5 2 q1 1 4 3t4 3q27 15 55 12q3 7 12 -2q5 0 15.5 -1t15.5 -1q21 0 29 -4q21 -7 32 -16q12 -8 23 -25q3 -4 17.5 -22t21.5 -29q9 -15 12 -33z" />
<glyph unicode="&#x22;" horiz-adv-x="696" d="M270 1487q0 -7 -2 -22.5t-2 -22.5v-37q0 -2 -2 -7.5t-2 -8.5v-19q-4 -28 -4 -39q0 -31 -2 -47q-2 -10 -2 -33q1 -10 -8 -43q-2 -12 -2 -39q0 -29 -2 -43q-2 -12 -2 -36v-80q2 -10 -3.5 -19t-15.5 -10q-6 -2 -37 -2q-3 0 -18 -1.5t-23 -0.5h-41q-16 0 -22 12q-2 6 -2 19 q-5 25 -8 34q-9 32 -9 48q0 6 -2 17.5t-2 16.5q0 46 -6 93q-1 15 -5 45.5t-5 46.5q0 57 -2 88q-4 32 -4 49v47q-1 10 -4.5 43t-3.5 51q-4 11 8 15q1 0 3 1t3 1q10 1 29 -1t28 -1q10 0 30 1t30 1q3 0 28 -5q15 0 27 3q10 0 14 2h11q6 6 12 0q8 0 8 -11q12 -3 12 -16v-90z M623 1567q0 -27 -2 -39q0 -21 -7 -49q-4 -23 -2 -35q0 -5 0.5 -13.5t0.5 -16t-1 -13.5q-4 -28 -4 -45v-29q0 -2 -2 -7.5t-2 -6.5q0 -6 -1 -18.5t-1 -18.5q-1 -8 -2 -23.5t-2 -23.5q-6 -36 -6 -37v-39v-55v-17q0 -53 -2 -82q4 -14 -8 -20q-11 -8 -23 0h-14q-19 0 -27 -2 q-15 0 -39 -4q-27 -5 -37 10q-6 7 -8.5 16t-3.5 22t-2 19q-2 8 -1.5 21.5t-0.5 21.5q0 3 -4 17t-4 22q0 15 -4 47l-6 43q0 5 -1 14.5t-1 14.5q0 12 -3 21q-1 8 -1 23.5t-1 23.5q-5 36 -4 45q2 12 2 41q3 43 0 88q-4 28 -4 45v39v10q0 5 3.5 9t9.5 3h8q6 0 8 -2q10 4 33 4 q16 2 47 2l47 2h18q3 0 9.5 1t9.5 1q30 -3 35 -30z" />
<glyph unicode="#" horiz-adv-x="1161" d="M1110 987q0 -1 -1 -3t-1 -3q-2 0 -2 -2l-4 -4q2 -2 2 -8v-27q0 -9 -2 -26t-2 -25q0 -9 1 -26.5t1 -26.5q0 -29 -23 -35q-8 -1 -24.5 -2t-24.5 -2q-30 -4 -45 -2q-8 0 -24 4q-4 0 -12.5 1t-12.5 1q-5 0 -13.5 -0.5t-15.5 -0.5t-12 1q-3 -15 -6 -33q-4 -9 -8 -35 q-1 -6 -3.5 -17.5t-3.5 -17.5t-2 -17t-2 -17q-1 -4 -4 -16.5t-6 -18.5q-8 -21 -10 -29l-6 -18q-1 -1 -2 -3.5t-2 -3.5h12q67 5 84 5h45q28 5 41 -2q14 -11 14 -31v-45q0 -57 -2 -88v-29q4 -21 -8 -31q-6 -5 -16.5 -7.5t-16 -3t-21.5 0t-18 0.5q-9 0 -26 -1t-30.5 -1t-25.5 2 h-28q1 -12 -10 -35t-11 -24l-24 -80q-3 -17 -12.5 -45.5t-12.5 -38.5q-11 -32 -12 -41q0 -2 -1 -5.5t-1 -4.5q3 -9 -1.5 -17.5t-13.5 -11.5q0 -2 -4 -2q-7 -11 -18 0h-25q-31 -7 -53 -2q-7 1 -21.5 1t-21.5 1h-2q-15 -3 -27 0q-14 4 -18 18v13q1 2 2 5t2 5q6 18 6 20 q5 30 6 35q0 3 3.5 16.5t3.5 20.5q1 6 3 19.5t3 19.5q2 13 3 39.5t3 40.5q1 3 3 10t3 10q-2 2 -2 6q0 17 2 25l2 2q-3 -1 -8.5 -2t-7.5 -2h-62q-90 0 -108 2v-14q0 -7 -4 -22t-5 -19q-10 -38 -20 -84q-4 -13 -14 -88q0 -8 -3 -22.5t-4 -18.5q-2 -2 -2 -6q0 -9 -2 -13 q0 -4 -6 -10q-14 -10 -26 2q-5 0 -7 -2h-8q-4 -2 -8 -2h-16q-5 0 -16.5 1t-16.5 1q-5 -1 -14.5 -3t-14.5 -3h-28q-3 0 -11 -1t-12 -1q-8 0 -15.5 6t-6.5 14q0 17 6 29q8 26 13 76t7 63q8 40 17 66q8 19 10 31q1 4 2 11t2 11q-2 0 -6 -1t-6 -1q-40 0 -58 -2h-57q-2 0 -12 -1 t-16 0t-11 5q-7 4 -9 10.5t-0.5 18.5t1.5 14q0 15 -2 23q-2 10 -2 28q2 23 2 66q0 41 2 61q-2 4 4 10q5 5 10 5q4 0 6 -2q18 2 54 2q8 -1 26 -1t27 -1h51h35q0 1 1 3t1 3q4 9 8 30q1 4 6 29q0 5 1 15t1 14l6 30q1 5 2 14.5t2 14.5l7 31q1 4 2 10.5t2 9.5q0 13 6 25h-51 q-54 0 -64 2q-7 2 -19 1.5t-20 0.5q-23 9 -20 35q1 2 -0.5 8t-1.5 8q-4 10 -4 29q0 10 4 30.5t4 30.5q0 38 2 56q0 2 2 4q-7 7 0 14q4 4 12 4h4h2q11 0 27 -4q51 -5 61 -4q40 4 64 4h27q6 2 16 2v8q5 38 8 51q9 41 21 109q2 18 10 49q2 10 4 29.5t2 21.5q2 12 10 45t10 52 q0 8 9 8q4 4 8 4q1 0 39 -0.5t39 0.5q63 0 94 2q14 0 20 -2q8 -9 11 -16q4 -13 -9 -35q-3 -10 -8 -43q-4 -15 -8 -45t-8 -41q-1 -3 -2 -9.5t-2 -9.5q-4 -12 -4 -18q-1 -8 -6.5 -24t-6.5 -19l-12 -43q0 -1 -6 -41q-1 -3 -2 -9t-2 -8q0 -12 -2 -18q0 -2 -2 -2h32q8 -1 25 -1 t25 -1q32 -4 51 -4q8 0 24 1t23 1q4 8 4 14q4 20 8 60q3 19 13.5 55.5t13.5 56.5q16 103 18 113q4 17 8 51q0 2 1 8t1.5 9.5t2 8t4.5 6.5t8 3h4q2 2 10 6q10 0 29.5 0.5t35 0.5t29.5 -1q7 0 22.5 -1t22.5 -1q26 4 37 -12q5 0 6.5 -7t-4.5 -10h-2q2 -10 -4 -39q-1 -2 -12 -47 q-7 -40 -25 -100q-4 -15 -7 -31.5t-6 -37t-5 -31.5q-6 -42 -6 -47q0 -4 -2 -11.5t-2 -11.5q6 0 16 -3t12 -3q8 0 23.5 1t23.5 1q19 0 43 -8h41q5 2 13 -2q2 0 8 -6h2v-3q0 -1 1 -2t1 -2v-10zM694 780q1 4 4 11.5t4 11.5q0 -1 -52 -1l-52 1q-16 1 -49 2t-49 2v-21 q-10 -30 -11 -36q-7 -50 -14 -82q-6 -36 -6 -39q-3 -18 -6 -39q-1 -2 -4 -9t-4 -12q-2 -2 -2 -4q4 2 10 2q24 6 29 6q33 3 63 -2q8 -1 53 4q9 0 27 9q10 0 14 2l2 10q2 2 2 6q2 6 5.5 17.5t5.5 17.5q7 30 14 76q7 16 10 37z" />
<glyph unicode="$" horiz-adv-x="1017" d="M952 465q0 -7 2 -20t2 -19q0 -42 -6 -86q-4 -34 -8 -51q-2 -8 -5 -22.5t-5 -22.5q-4 -25 -14 -43q-3 -7 -13.5 -18.5t-13.5 -16.5q-22 -30 -66 -62q-35 -24 -69 -51q-33 -29 -76 -51q-4 -1 -11.5 -4t-11.5 -4q-20 -10 -24 -10h-12q-2 -2 -11 -2q0 -2 -4 -2v-5 q1 -19 2 -55t2 -55q0 -9 2 -15v-6q0 -14 -2 -20q-10 -12 -32 -12q-12 2 -39 2q-19 0 -29 -2q-2 0 -6.5 -1t-7.5 -1q-9 -2 -17 4t-8 16q-2 29 -2 86v66v12v10q-36 0 -43 2q-19 8 -33 10q-7 1 -20.5 3.5t-20.5 3.5l-37 6q-26 9 -65 26q-19 8 -29 15q-22 16 -26 18t-10.5 10.5 t-10.5 10.5q-16 12 -22 20q-9 9 -7 16l-14 21q-6 6 -8 10q-6 8 -21 23q-3 3 -12 8.5t-12 7.5q-8 8 -12 25q-12 12 -9 24q3 9 9 15q3 6 12 12l4 4l16 16q8 4 15 11q2 0 6 4l2 2q5 5 14.5 15t14.5 15l26 39q20 20 37 25q12 3 18 -6q12 -8 19 -15q12 -16 16 -20 q5 -6 18.5 -16.5t18.5 -16.5q8 -8 16 -20q6 -9 19 -17q4 -2 11 -7t11 -7q15 -4 23 -12q25 -25 41 -25q10 0 29.5 1t29.5 1q2 0 15.5 -1t22 0t14.5 5q3 1 16.5 8.5t21.5 8.5q1 1 2.5 3t2.5 3q1 3 3 5t5 4t4 3q2 2 9.5 11t12.5 12q9 11 19 55q16 80 -6 125q-5 9 -15 33 q-1 1 -2 3t-2 3h-4q-12 6 -18 12q-4 0 -4 2q-3 0 -5 2q-16 5 -38 23q-6 3 -17.5 11t-17.5 11q-5 2 -17.5 5t-17.5 5q-27 9 -41 15q-6 3 -17.5 10t-17.5 10q-6 4 -18.5 11.5t-18.5 11.5q-20 16 -30 22q-13 8 -39 29q-4 4 -13.5 11t-13.5 11q-1 1 -31 25l-37 31q-16 16 -24 35 q-2 4 -9.5 15.5t-9.5 18.5q-15 32 -22 80q-6 93 -6 94v25q4 12 4 21q0 29 2 43q1 3 2 9.5t2 10.5l6 18q6 12 15 39q7 10 20 41q14 28 20 37l13 19q8 12 12 16q19 24 27 29q6 3 20 9.5t17 8.5q7 2 18.5 9.5t15.5 9.5q32 11 41 12q11 0 15 2q7 5 20 8q7 4 21.5 8t15.5 4 q20 10 37 4q0 13 1 41t1 41v43v21q-7 3 -8 11.5t6 14.5q11 7 23.5 9.5t36.5 1t26 -1.5q30 0 35 -2q22 -8 22 -35q2 -31 2 -96v-41q4 0 6 -2q9 0 11 -2q1 -1 4 -2.5t4 -2.5q6 -1 22 -7t25 -7q34 -8 51 -16q2 0 5 -1t5 -1q-1 0 9 -4q3 0 10 -7h2q2 0 4 -2l8 -4q2 -1 7 -3t7 -3 q3 -2 9.5 -7t9.5 -7q31 -26 37 -33q20 -25 28 -29h7l12 -6q4 -2 18 -16q6 -8 2 -18t-12 -13q-4 -8 -10 -10q-4 0 -8 -8q-2 -3 -7.5 -9.5t-7.5 -9.5q-22 -30 -28 -43q-18 -36 -27 -45l-8 -8q0 -4 -4 -8v-2q0 -12 -11 -19v-2q-12 -12 -22 2q-9 3 -12 15q-15 25 -19 30 q-2 4 -6 7t-10 6.5t-8 5.5q-7 4 -19.5 12t-13.5 8q-32 13 -33 13l-37 12q-5 2 -15 5t-15 5q-3 1 -9 3.5t-7.5 2.5t-7.5 1t-9 -1l-19 -6q-2 0 -7.5 -1t-6.5 -1q-6 -3 -19.5 -7t-19.5 -7l-8 -4q-1 -1 -3 -2t-3 -2q-3 -2 -8.5 -7.5t-8.5 -7.5q-15 -25 -28 -53q-2 -4 -5 -16 t-6 -19q-2 -5 -2 -33q-2 -17 5 -43l6 -6q1 -1 2 -4t2 -4q12 -8 16 -12q3 -2 14 -13q12 -8 36 -23.5t36 -23.5q14 -12 39 -26q16 -8 37 -15q39 -15 45 -18q17 -8 35 -25q8 -8 20 -14q2 -2 8.5 -5.5t8.5 -4.5q7 -3 18.5 -12t15.5 -11q9 -6 36 -20.5t40 -24.5q7 -5 35 -28 q14 -14 23 -29q21 -32 41 -78q10 -35 12 -41q5 -12 14 -43z" />
<glyph unicode="%" horiz-adv-x="1529" d="M1485 340q2 -16 2 -49q-1 -8 -1 -23t-1 -22q-1 -6 -12 -51q-11 -42 -13 -48q-22 -53 -55 -77q-11 -6 -30.5 -25t-28.5 -25q-2 -2 -19 -8q-3 -2 -10 -3.5t-8 -2.5q-17 -12 -37 -20q-8 -3 -23 -7.5t-22 -7.5q-4 -1 -16.5 -8t-20.5 -8q-27 -2 -82 6q-3 1 -13 1t-18 1.5 t-12 5.5q-6 0 -8 2q-7 1 -18 6.5t-15 6.5q-2 0 -7 2t-7 2q-14 5 -19 8q-2 2 -6.5 7t-7.5 8t-8 5q-2 2 -4 2q-10 5 -13 5q-34 13 -45 24q-2 3 -7 9.5t-7 9.5t-5 9t-5 9q-12 12 -17 22q-20 20 -22 29q-2 8 -13.5 35.5t-13.5 44.5q-6 42 -6 45q-5 34 -4 41q3 37 16 86 q2 7 5.5 22.5t5.5 22.5l18 37q20 42 49 68q2 2 17 12q12 4 16 8q8 8 14 12h2q2 2 4 2q3 3 7.5 8t8 8.5t7.5 6.5q6 5 17.5 11t13.5 7q13 3 26 9q10 6 31 10q6 1 19.5 3t19.5 3q1 0 37 -6q6 0 17.5 1t17.5 1q2 0 17.5 -2t23.5 -4q27 -11 32 -15q2 0 2 -2q17 -5 43 -16 q4 -2 34.5 -14.5t45.5 -20.5l31 -24l4 -5q1 -1 4.5 -3.5t5.5 -4.5q9 -8 11 -16q2 -5 7.5 -17t8.5 -18q3 -7 9 -22.5t9 -22.5q18 -66 21 -86zM723 1126q0 -2 1 -5t1 -5q0 -30 -10 -63q0 -7 -4 -15q0 -4 -4 -16l-7 -25q-3 -13 -10 -28v-4q-1 -2 -2 -6.5t-2 -6.5 q-15 -35 -20 -41q-19 -24 -29 -32q-5 -4 -15.5 -13.5t-15.5 -13.5l-37 -25q-13 -9 -18 -10q-18 -6 -23 -6h-14q-4 -4 -12 -8q-6 -4 -13 -5t-15 -0.5t-13 -0.5q-6 0 -19.5 -5t-19.5 -6h-23q-3 0 -9 -1t-9 -1h-49q-18 0 -43 7q-7 3 -21.5 10t-21.5 10q-14 4 -43 20 q-44 21 -66 56q-2 3 -6 10t-6 10q-1 1 -5 6.5t-5 8.5q-2 2 -5.5 7t-5.5 7q-10 10 -12 16q-3 5 -8 19q-7 13 -8 14q-4 5 -6 12t-4 15l-3 12q-6 29 -10 86q0 31 2 47q1 8 5.5 23.5t5.5 23.5q7 49 22 80q10 15 10 23l6 18q10 17 25 29q1 1 33 20q6 4 18.5 11.5t18.5 11.5 q32 14 43 20q2 1 7 3t7 3l4 4q2 1 6 2.5t6 2.5q7 4 9 6q4 0 12 4h14q20 4 29 4h24h5q3 1 8 2t8 2h2q15 6 31 6q16 -4 26 -6q35 -3 74 -23h6q14 0 25 -14h4q5 -3 31 -14q24 -16 36 -33q2 -2 6.5 -5t6.5 -5q17 -11 30 -31q2 -3 6.5 -8t6.5 -8q1 -2 3.5 -5.5t4 -5.5t2.5 -4 q22 -46 33 -88q10 -47 8 -80zM1206 1409q1 -10 1 -12.5t-4 -11t-5 -11.5q-2 -14 -14 -37q-3 -7 -8.5 -21.5t-8.5 -21.5l-22 -43q-3 -7 -41 -80q-17 -34 -19 -41q-9 -20 -20 -40q-5 -9 -21 -32.5t-24 -37.5q-7 -13 -20.5 -41t-20.5 -41q-17 -39 -18 -41q-6 -10 -25 -39 q-2 -3 -7 -9t-7 -9q-1 -4 -2.5 -8t-4.5 -9.5t-4 -9.5q-2 -6 -7 -17.5t-7 -17.5q-7 -22 -14 -33q-6 -11 -17.5 -34l-17.5 -35q-24 -43 -39 -74q-15 -28 -44 -86t-44 -86q-20 -38 -47 -76q-43 -60 -51 -75q-32 -60 -86 -179q-16 -36 -39 -77q-8 -19 -25 -39q-5 -10 -6 -11 q2 -4 2 -10v-2q0 -9 -10 -15.5t-19 -0.5q-8 8 -12 8q-4 2 -16 6q-16 7 -29 16q-11 9 -31 17q-19 9 -24 16q-4 8 0 17q5 7 10 26l12 25q4 5 7.5 14.5t4.5 11.5q4 6 15 27q3 4 8 13.5t8 13.5q4 8 6 14l7 12q9 19 14 25q12 16 16 24q8 17 10 23q2 3 7 18q11 25 20 39 q17 34 21 41q4 6 11 18.5t11 18.5q11 21 37 84q6 13 45 80q25 40 47 86q2 5 11 18t12 21q10 24 20 41q7 14 23.5 38.5t23.5 37.5q3 7 11.5 21.5t11.5 21.5q5 16 18 32l2 2q10 14 21 41q2 4 12 22.5t14 27.5l2 4q-3 12 15 43q5 7 12 22.5t12 22.5q4 7 16.5 24t20 29t12.5 25 q7 13 18.5 40t18.5 41q20 42 41 72q4 10 11.5 31t11.5 31q14 38 43 75q5 5 7.5 15.5t6.5 15.5q4 4 8 4q4 4 9 4q6 -1 13 -6t9 -6q6 -6 10 -8q2 -1 6.5 -2t6.5 -2q7 -2 17.5 -7.5t14.5 -7.5q1 -1 17 -6q2 -2 6 -2q3 3 9 1.5t7 -7.5zM1288 250q6 20 10 59l-6 25l-6 31 q-8 20 -10 30q-4 18 -8 23q-4 6 -39 35l-21 14q-3 6 -8 6q-18 4 -37 0q-7 -1 -21.5 -2t-21.5 -2q-15 0 -35 -12q-18 -12 -32 -29q-6 -7 -15 -31q-4 -7 -12.5 -22.5t-14 -28t-7.5 -24.5q-5 -14 0 -41q0 -6 1 -13t2.5 -15t2.5 -13q9 -41 32 -74q5 -6 33 -25q1 -1 7 -5t10 -5 q3 -1 9 -2t9 -2q13 -3 23 -10q2 0 4.5 -1t3.5 -1l4 -2h2q6 2 22 2q1 0 6 1t7 1q4 2 12 5t12 5q6 6 8 10q2 1 6.5 4t6.5 4q6 3 10 7q2 2 4.5 5.5t3.5 4.5q1 2 4.5 4.5t3.5 3.5q2 2 4.5 8t4.5 8q3 9 13 30t13 34zM526 1104q1 3 1 10t1 10v23q0 23 -8 39q-2 6 -22 35 q-5 5 -15.5 16t-15.5 16q-1 1 -11.5 13.5t-17.5 17.5q-11 7 -37 14q-8 0 -14 2h-25l-12 -6q-5 -3 -15.5 -8t-15.5 -8q-4 -3 -12 -10.5t-12 -10.5q-3 -4 -11.5 -14t-11.5 -14q-2 -2 -5 -8.5t-5 -8.5q-1 -2 -4 -7t-4 -7q-3 -7 -6 -19l-4 -16q-1 -1 -2 -3t-2 -3v-14 q0 -3 -1 -10.5t-1 -10.5q-3 -21 4 -45q5 -17 16 -43q2 -6 6 -22q11 -4 25 -23t20 -24q4 -3 14.5 -7.5t14.5 -7.5q23 -9 27 -10h38q11 0 35 4q9 0 17 4q1 0 5 3t5 3l2 2q3 4 8 13.5t8 13.5q9 12 21 35q17 45 22 86z" />
<glyph unicode="&#x26;" horiz-adv-x="1437" d="M1352 37q6 -12 6 -17q0 -1 -1 -3t-1 -3q-1 -4 0 -4q-6 -6 -8 -6h-5q-5 -3 -12.5 -5t-13.5 -2t-16 0.5t-13 0.5q-8 1 -25.5 1t-25.5 1q-16 2 -49 2q-17 0 -25 2q-4 0 -11 -1t-11 -1q-11 -2 -66 -2q-5 0 -16.5 -1t-16.5 -1q-15 3 -20 10q-3 1 -8 12q-9 9 -13 11q-3 4 -9 10 t-9 10q-17 17 -20 25q-2 11 -17 22q-15 19 -22 25q-7 3 -9 8q-16 -14 -43 -33l-24 -18q-2 -2 -19 -8q-8 -5 -21 -14.5t-17 -12.5q-4 -2 -11.5 -7t-11.5 -7q-15 -10 -16 -11q-8 -8 -29 -12l-12 -4q-4 -3 -43 -14q-15 -10 -23 -10h-18q-21 -7 -23 -7h-4q-2 -2 -8 -2l-4 -4 q-2 -1 -6.5 -2t-6.5 -2q-12 -2 -38 -2q-7 0 -21.5 2t-21.5 2h-45q-6 0 -18.5 4t-18.5 4q-7 1 -21.5 5.5t-19.5 5.5q-2 1 -7.5 2t-7.5 2q-1 0 -3 1t-3 1q-16 0 -24 2q-6 4 -18 8t-13 4q-28 12 -39 25q-5 5 -14.5 15t-14.5 15q-15 19 -30 29q-17 10 -29 25q-16 24 -21 39 q-8 28 -12 36q-3 6 -10.5 18t-11.5 19t-8.5 18t-6.5 21q-8 62 -8 92q0 5 -1.5 20t-0.5 23q0 3 1 10t1 11v20q1 8 4 21t4 18l13 39q15 35 18 41q10 20 23 33q4 4 12 16q3 5 8 19q7 14 25 32q24 26 65 56q10 7 33 25.5t37 27.5q26 19 43 25q12 4 16 4q-3 3 -11 9t-11 9 q-4 4 -11.5 12.5t-11.5 12.5q-13 17 -20 30q0 1 -7 14.5t-8 20.5q-6 15 -12 27q-2 4 -12 33q0 1 -2 4t-2 4q-4 4 -4 14q-11 26 -11 45q-3 9 -8 39q0 8 -2 24.5t-2 24.5q-2 28 14 82q0 7 4 15q10 32 31 77q2 3 10.5 17.5t14.5 21.5t28 25q6 4 17.5 14t17.5 14q18 15 35 23 q23 15 41 23q2 1 14.5 4.5t18.5 7.5q1 1 35 12q12 4 41 4q6 0 18 2t18 2h43q27 0 48 -8q18 -9 38 -12q35 -10 84 -35l4 -2q1 -1 4.5 -2t4.5 -2q12 -6 14 -8q6 -12 6 -13q3 -3 10.5 -8t10.5 -8q31 -24 43 -39q6 -7 26 -47q2 -6 8 -17t7 -12q4 -10 8 -30q9 -20 16 -56 q1 -10 2 -31.5t2 -31.5q0 -33 -16 -49q-1 -8 -23 -62q-8 -23 -34 -76q-5 -10 -21 -30q-5 -8 -25 -23h-4q-3 -4 -9 -11t-9 -11q-2 -2 -8.5 -7t-9.5 -8q-6 -10 -19 -16q-20 -10 -22 -12q-23 -18 -27 -19q-2 -1 -6.5 -3.5t-8 -5t-6.5 -5.5q-2 -2 -4 -2l7 -6q9 -9 16 -23 q2 -2 5.5 -5t6 -5.5t4.5 -5.5q10 -10 35 -45q12 -21 27 -39q3 -3 8 -10.5t8 -10.5l12 -12q3 0 7 -4q31 -31 38 -37q26 -22 39 -31l7 -6q4 5 14 16t14 17q7 7 21.5 26.5t23.5 28.5q4 4 11.5 12.5t11.5 12.5q6 6 14 18q6 9 12 15v4q-1 6 5 11t12 5q15 -1 33 -21t22 -22 q2 -1 8.5 -5t9 -5.5t7.5 -5.5t7.5 -7t4.5 -7.5t2 -8.5q3 -3 8 -10t8 -10q2 -3 7.5 -8.5t7.5 -8.5q3 -2 7 -8.5t5 -7.5q2 -2 10.5 -12t9.5 -17q4 -14 -4 -22q-6 -6 -16 -6q-3 -5 -8 -15.5t-8 -15.5q-6 -10 -19.5 -31t-19.5 -31q-7 -12 -22.5 -33t-22.5 -32q-9 -9 -21 -25 l-2 -4q2 -4 10 -8q19 -19 29 -27q19 -23 23 -32q4 -5 11 -14.5t11 -14.5q13 -16 23 -33q1 -2 4.5 -8t5.5 -8q4 -6 12 -14q21 -26 27 -31q3 -3 11 -8.5t11 -8.5q19 -7 25 -16l20 -20q7 -7 11 -15q1 -2 2 -7t2 -7zM741 328q20 15 21 16q-2 0 -6 4q-3 3 -11.5 9.5t-11.5 11.5 q-2 3 -6.5 10t-7.5 10q-6 9 -23 21q-2 2 -5 7t-5 7q-1 2 -4 5t-4 5q-2 2 -5 6.5t-5 5.5q-10 10 -11 13q-3 4 -8 12t-8 12q-30 45 -35 54l-14 28q-7 13 -12 17q-19 14 -21 20l-6 12h-4q-18 9 -21 15q-2 -1 -5 -3t-5 -3q-4 -4 -15.5 -8.5t-15.5 -8.5q-6 -6 -27 -20t-28 -25 q-4 -7 -18.5 -31t-20.5 -38q-2 -6 -7.5 -19t-8 -20t-5 -18t-3.5 -21q-3 -47 12 -82q13 -32 16 -35q28 -34 29 -35t9 -10.5t14 -13.5q15 -12 34 -15q31 -8 76 -4q5 2 14.5 6t14.5 6q2 1 24 17q3 2 16 7.5t19 10.5q5 4 15.5 11.5t15.5 11.5q39 20 63 39zM518 1135 q0 -47 10 -78q9 -14 11 -21q4 -12 8 -18q0 -2 6 -8q1 -2 4 -7.5t4 -7.5t15.5 -20t21.5 -29q6 -12 8 -14l21 -21l8 9q2 2 8.5 6.5t9.5 7.5q20 17 37 37q41 52 53 80q11 29 11 49q-2 18 -2 53v14q-12 34 -29 52q-11 11 -33 22q-20 8 -31 8q-33 0 -47 -2q-14 0 -20 -2 q-1 -1 -6 -4t-8 -4q-4 -1 -10.5 -2t-10.5 -2.5t-8 -5.5q-10 -13 -17 -25q-14 -35 -14 -67z" />
<glyph unicode="'" horiz-adv-x="399" d="M317 1524q0 -7 -2 -22.5t-2 -22.5v-37q0 -2 -2 -8t-2 -9v-18q-4 -28 -4 -39q0 -31 -2 -47q-2 -10 -2 -33q1 -10 -8 -43q-2 -12 -2 -39q0 -29 -2 -43q-2 -12 -2 -37v-79q2 -10 -3.5 -19t-15.5 -10q-6 -2 -37 -2q-3 0 -18 -1.5t-23 -0.5h-40q-17 0 -23 12q-2 6 -2 18 q-5 27 -8 35q-8 28 -8 47q0 6 -2.5 18t-2.5 17q0 45 -6 92q-1 15 -5 46t-5 47q0 57 -2 88q-4 32 -4 49v47q-1 10 -4.5 43t-3.5 51q-3 10 8 14q1 0 3 1t3 1q10 1 29 -1t28 -1q10 0 30 1t30 1q8 0 28 -4q19 0 27 2q10 0 14 2h11q6 6 12 0q8 0 8 -10q12 -3 12 -16v-90z" />
<glyph unicode="(" horiz-adv-x="555" d="M485 -82q6 -11 6.5 -25t-6.5 -24q-2 -4 -9 -10.5t-9 -8.5q-7 -10 -21 -20q-43 -36 -43 -37q-9 -13 -22 -22q-3 -1 -8 -3.5t-8 -3.5q-32 -32 -48 -32q-12 1 -16.5 10t0.5 16q-9 12 -16 35q-7 21 -15 37q-4 11 -12.5 35.5t-13.5 36.5q-34 96 -45 157q-2 6 -4.5 19.5 t-4.5 19.5q-2 14 -10 37q-5 35 -6 41q-2 6 -2 14q-4 8 -4 15q-8 25 -4 78q0 11 -1 23t-2.5 26.5t-2.5 23.5q-1 19 -6.5 53.5t-6.5 43.5q-8 32 -8 49q0 7 -2 20.5t-2 20.5v96q4 63 0 94q-1 8 -1 23t-1 22q-1 8 -4 21t-4 18q0 31 2 47v43q0 26 8 47q2 6 6 17.5t6 17.5v6l-2 2 l-2.5 15t1.5 15t3 17q2 7 5.5 21.5t5.5 21.5q4 28 4 41q0 6 1 13t2.5 15t2.5 13q4 15 8 45q1 6 3 19.5t3 19.5q12 54 19 76q1 3 24 94l25 93q15 53 28 83q2 5 7.5 15.5t7.5 15.5q9 14 18 12q4 3 11 2.5t8 -6.5l2 -2q2 0 4 -2q2 0 6 -4q1 -1 6 -5t8 -5l20 -10t21 -11 q6 -4 21 -9t22 -9q11 -11 23 -14h2q4 2 12 -2v-2q4 -2 4 -9q3 -6 -0.5 -13t-9.5 -9l-2 -2q0 -1 -1 -4t-1 -4q-4 -8 -4 -11q-1 -3 -4.5 -11t-5.5 -11l-5 -10l-18 -56q-6 -20 -41 -123q-16 -39 -20 -61q-3 -10 -7.5 -32t-7.5 -33q-4 -20 -4 -33q0 -11 -4 -35q-2 -10 -2.5 -31 t-1.5 -28q-6 -24 -6 -50v-24q0 -9 -4 -25t-4 -24v-23q0 -15 -4 -43q0 -7 -1.5 -22t-1.5 -23q0 -29 -2 -45q-1 0 -1 -46l1 -46q0 -7 11 -98q10 -77 14 -93q4 -17 8 -51q4 -30 8 -43q7 -28 7 -51q0 -3 1 -10t1 -11q1 -4 4 -12t4 -12q2 -9 7 -26.5t7 -26.5q4 -40 8 -56 q2 -11 10 -31.5t9 -23.5q7 -19 19.5 -56.5t19.5 -56.5q1 -4 3 -13t3 -13q5 -18 8 -25q5 -19 16 -49z" />
<glyph unicode=")" horiz-adv-x="532" d="M459 881q1 -15 6 -46.5t6 -48.5q0 -8 -1 -23.5t-1 -23.5q0 -29 -2 -43v-24q0 -3 -1 -10.5t-1 -10.5q-1 -7 -2 -20.5t-2 -20.5t-1 -21.5t-1 -21.5q0 -6 -1 -18.5t-1 -18.5q0 -15 -5 -41.5t-6 -39.5l-6 -48q-1 -6 -2 -19.5t-2 -19.5v-30q0 -27 -2 -41q-1 -15 -7 -41.5 t-7 -36.5q-2 -16 -10 -39q-2 -7 -6 -21.5t-5 -17.5q-1 -6 -5 -17.5t-5 -17.5q-8 -24 -12 -34q-1 -2 -3 -9.5t-3 -9.5q0 -4 -4 -16l-13 -37q-6 -18 -6 -21q-1 -2 -2 -7t-2 -7q-3 -17 -10 -35q-7 -13 -18 -37.5t-15 -33.5q-10 -26 -16 -33q2 -4 2 -19q-3 -17 -21 -13.5 t-18 17.5q-11 0 -15 2q-19 0 -45 15q-10 8 -34 20q-21 14 -23 15q-10 -7 -20 6q0 1 -7 8q-8 4 -10 12q-3 13 8 17v12q1 3 4.5 8t4.5 8q5 15 6 17l18 43q5 15 14.5 42t14.5 42q4 12 8 16v14q1 6 4 19.5t4 19.5q2 6 5 20.5t5 20.5q1 4 11 35q4 16 10 45.5t10 44.5 q3 16 12.5 46t12.5 42q9 21 12 45q1 7 1 23t1 24q2 16 6 47.5t6 47.5q1 8 2 24.5t2 24.5q0 3 1.5 8t1.5 8v94q-5 30 -5 33q-2 31 -10 94q-4 36 -4 54v41q0 4 -4 20q-6 31 -10 92l-6 49q-1 7 -1 22.5t-1 22.5l-13 39q-7 21 -10 39q-6 24 -12 45q-16 37 -17 41q-5 13 -14 47 q-2 7 -4 21.5t-4 21.5q-6 31 -29 82q-5 12 -14 43l-6 17l-2 4q-1 1 -2 3t-2 3q0 13 8 16q0 7 2 11l12 12q4 3 11.5 8t11.5 8q13 9 43 35q18 18 39 33q20 16 34 8q6 -2 11 -13.5t6 -13.5q2 -6 10 -18q4 -12 6 -16t12 -33q2 -4 10 -17.5t11 -21.5q1 -3 2 -10.5t2 -10.5l6 -18 q22 -54 29 -88q4 -15 8 -49l6 -43q2 -14 10 -47l7 -43q17 -65 20 -90l6 -44v-6l2 -2v-20q2 -4 2 -10q1 -7 6.5 -33t6.5 -41q1 -7 2 -20.5t2 -20.5v-33q6 -30 6 -63z" />
<glyph unicode="*" horiz-adv-x="700" d="M645 1032q9 -18 -8 -28q0 -2 -12 -31q-2 -3 -6.5 -10.5t-6.5 -10.5t-5 -10t-5 -10q-5 -9 -16.5 -13.5t-20.5 -0.5q-13 3 -22 12l-5 4q-6 3 -10 4q-51 20 -88 47l-10 10v-20q0 -22 6 -43q1 -8 5 -23.5t5 -21.5q3 -15 3 -33q0 -24 -9 -33q-4 -4 -9 -5.5t-12 -1.5t-9 -1 q-14 -4 -45 -4q-7 0 -21.5 -1t-21.5 -1h-11q-11 -7 -22 0q-15 15 -15 33q0 5 1 13.5t1 15.5t-2 12q-1 6 -1 19.5t-1 19.5q-4 28 -4 43v4h-2q-9 -5 -39 -18.5t-45 -22.5q-28 -19 -43 -13q-11 3 -20 31q-19 38 -23 43q-2 4 -7 12.5t-7 12.5l-6 6q-4 8 -4 10q-7 6 -4 15.5 t12 11.5q0 5 6 8q5 5 14 8q2 -2 2 0q4 2 17 2q1 0 1.5 1.5t2.5 2.5h8l37 13q20 8 49 22q-4 3 -29 18q-18 15 -36 33q-4 1 -9.5 2.5t-12.5 4.5t-11 4q-16 8 -31 20q-1 1 -3.5 4t-4.5 5t-4 3q-8 4 -10 8q-8 10 2 25q9 14 10 16q1 3 3 8.5t3 8.5q3 16 12 31l2 4l4 4q1 2 3.5 5 t3.5 5l6 6q3 6 12 6q14 0 25 -8q16 -8 24 -14l25 -19q8 -4 28 -12q3 -2 9.5 -5t9.5 -5q12 -4 16 -8q9 -9 15 -13q-3 6 -3 15q0 15 -4 47q-2 16 -2 49v22q-2 4 -2 11q-2 2 -2 4q-2 2 -2 8v14q0 2 4 6q5 9 27 13q9 0 26.5 2t26.5 2q8 0 25.5 1t25.5 1q33 0 39 -17 q2 -5 2 -12.5t-1 -16t-1 -12.5q4 -36 2 -55q-1 -4 -2 -13t-2 -13q0 -15 2 -21q2 1 7 2t8 2q45 12 67 27q37 24 51 21q9 -4 15 -13q7 -10 13.5 -33t14.5 -35q10 -16 11 -18q2 -2 2 -8l4 -4q13 -26 -4 -37q-25 -19 -74 -43q-27 -16 -59 -29q12 -4 16 -10q2 -1 8 -4.5t8 -5.5 l2 -2q3 -2 10.5 -5.5t10.5 -5.5q12 -8 18 -10q38 -11 43 -14q3 -2 9 -5.5t10 -6t8.5 -6.5t7.5 -9z" />
<glyph unicode="+" horiz-adv-x="1191" d="M1087 739v-30q0 -23 -2 -33q0 -1 -1 -4.5t-1 -5.5t1 -7.5t1 -7.5q-4 -21 -20 -24q-8 -2 -25 -2q-47 5 -61 2h-37q-5 0 -15.5 -1t-15.5 -1q-21 0 -67 4q-16 -4 -23 -4q-16 -2 -47 -2h-26l-3 2q-6 0 -10 2t-6 4h-10v-23q4 -20 4 -33q0 -6 -1 -18t-1 -18q-2 -12 -2 -37v-66 q-4 -24 -4 -33v-41q0 -5 -1 -14t-1 -14q0 -21 -2 -31q-1 -3 -0.5 -23t-5.5 -22l2 -2l-5 -2q-6 -4 -20 -4q-8 -4 -12 -4q-8 -2 -22 -2.5t-19 -1.5q-21 -3 -43 0q-34 4 -47 8h-19h-20q-19 5 -19 33q1 6 -0.5 17.5t-1.5 14.5q4 66 2 97q0 7 -2 21.5t-2 21.5q4 12 4 18q2 6 2 19 q-1 9 0.5 25t1.5 20v45q1 5 1.5 18.5t2.5 20.5h-26q-35 0 -51 2q-36 0 -54 2q-10 0 -33.5 1t-40.5 0.5t-34 -3.5q-26 -3 -51 0q-14 0 -23 6q-2 0 -10 4q-3 -1 -8 -2t-8 -2q-19 0 -27 4q-10 4 -14 24q-7 17 -7 35q0 6 1 20t1 21q0 27 2 39q1 2 3 6.5t3 8t1 6.5v41 q-6 8 1.5 15t16.5 3h2q2 2 4 2q21 5 51 2q18 -2 56 -2q33 0 47 4q7 3 15 4t17.5 1t14.5 1q18 2 53 2q8 0 25.5 -1t25.5 -1q4 -1 9.5 -1t12 0.5t9.5 0.5v29q0 8 -1 24t-1 23q0 10 -2 29.5t-2 29.5q0 36 4 52q4 18 4 51v57q0 22 4 58q0 6 8 10q6 6 25 6h33q16 -4 22 -4 q12 0 33 -1t31 -1t31.5 1t33.5 1q6 0 11.5 -6t5.5 -13q0 -9 -1 -27.5t-1 -27.5v-211q0 -8 1 -25.5t1 -25.5v-41h82q19 0 54 1t54 1q37 0 53 2q18 2 56 2h26h21q18 -4 18 -22v-9q4 -16 4 -28v-31q0 -5 3 -14.5t3 -14.5z" />
<glyph unicode="," horiz-adv-x="561" d="M489 256q11 -7 -2 -16q-5 -3 -8.5 -11.5t-5.5 -11.5q-2 -4 -5 -14.5t-5 -14.5q-3 -6 -15 -28t-18 -35q-5 -10 -13.5 -32t-13.5 -32q-3 -5 -8 -15t-8 -15v-2q-3 -7 -8 -25q-1 -3 -17 -35q-6 -8 -14 -24q-12 -16 -18 -31q-4 -18 -8 -25q-2 -3 -5.5 -8t-5.5 -8q0 -1 -1 -3 t-1 -3q-8 -17 -20.5 -49.5t-20.5 -48.5q-5 -7 -13 -24t-13 -24q-2 -7 -13 -18q0 -8 -7.5 -12.5t-16.5 0.5q-2 0 -5.5 1t-6.5 1h-17q-4 1 -8.5 4t-5.5 4h-19q-4 0 -11 1t-11 1q-3 0 -9.5 2t-9.5 2q-7 1 -21.5 1t-21.5 1q-9 -1 -11.5 8t3.5 17l4 4l6 18q2 6 6 18.5t5 16.5 q1 2 2 7t2 7q1 3 2 9.5t2 9.5q12 35 12 37q2 4 4 11.5t4 10.5q3 6 6 15t9 18l4 5q4 5 4 9q9 22 16 31q1 2 7.5 14t7.5 19q0 6 4 18l6 19q5 10 14 37q14 56 21 75q3 9 16 35q2 5 5 16.5t5 16.5q5 15 15 35q1 3 4 9t4 9t2 8t2 7l2 4l2 2q6 3 13.5 4t12.5 0.5t13.5 -2.5 t11.5 -2q24 -4 35 -4q4 0 12.5 -2.5t12.5 -2.5q11 2 30 -2h13q4 -2 14 -2q4 -1 11 -3t11 -3q19 0 27 -2q2 0 4.5 -1t3.5 -1q1 -1 4 -3t4 -3z" />
<glyph unicode="-" horiz-adv-x="847" d="M739 666v-127q0 -5 -5 -10.5t-11 -6.5q-2 0 -2 -2q-2 0 -3.5 -1t-2.5 -1q-1 -2 -5 -5l-5 -3q-20 -7 -35 -4q-8 0 -42 -2.5t-42 0.5q-5 0 -16.5 1t-16.5 1q-7 0 -19.5 1t-19.5 1q-15 1 -42 -1.5t-38 -2.5h-86q-27 2 -125 2q-7 0 -21.5 -1t-21.5 -1q-25 0 -37 2 q-10 0 -12 2q-6 3 -6 4h-2q-14 5 -14 12q0 14 -5 27v22q5 23 5 52q1 10 2 29t2 28q0 8 4 12q0 1 1 3t1 3v13q0 1 -1 4.5t-1 5.5q0 11 10 14q13 4 31 0q6 -1 17.5 -2t17.5 -2h30h25q10 0 30.5 1t30.5 1q19 -2 41.5 -2t49.5 1t40 1l46 1q46 0 46 -1q3 1 9 2t8 2l4 -2 q33 4 47 0q16 -4 25 -2h30q30 6 60 6q10 1 17 -4.5t7 -13.5v-12q0 2 4 2q1 -9 -1.5 -25t-2.5 -22z" />
<glyph unicode="." horiz-adv-x="446" d="M389 168q7 -36 -2 -66q-15 -45 -20 -53q-16 -32 -37 -45q-8 -4 -24.5 -12.5t-18.5 -9.5q-24 -14 -51 -11h-19q-6 0 -8 2h-10l-2 2h-4q-7 1 -20 6.5t-19 6.5q-15 3 -37 16q-17 14 -29 35q-11 14 -18 35l-7 24q0 3 -2 9.5t-2 9.5q-4 25 2 45q4 27 11 41q4 7 12 19.5t8 13.5 q3 3 8.5 10t8.5 10l12 6q0 2 2 2q17 21 29 25q50 16 77 14h9q10 0 38 -8q15 -3 33 -14q24 -16 35 -29l8 -8q1 -2 4 -6.5t4 -6.5q7 -3 9 -8q6 -7 9.5 -15.5t6 -21.5t4.5 -18z" />
<glyph unicode="/" horiz-adv-x="905" d="M877 1634q4 -2 4 -8q-1 -6 -2 -18.5t-2 -18.5q-2 -5 -5.5 -15t-5.5 -15q-16 -46 -26 -66q-23 -43 -39 -86q-5 -12 -18.5 -41.5t-20.5 -46.5q-15 -43 -33 -90q-7 -16 -21 -44.5t-20 -41.5q-3 -8 -35 -80q-1 -2 -3 -7t-3 -7q-2 -5 -6 -16.5t-6 -16.5q-2 -6 -5 -18.5 t-5 -18.5q-14 -38 -17 -49q-2 -7 -6 -22.5t-6 -22.5q-9 -22 -16 -45q-3 -9 -7 -17q-7 -24 -22 -61q-4 -10 -14.5 -33.5t-14.5 -36.5t-11 -37.5t-11 -36.5q-4 -13 -13.5 -38.5t-13.5 -38.5q-4 -14 -35 -90q-20 -46 -26 -56v-8q0 -4 -4 -16q-8 -24 -17 -35q-24 -50 -31 -72 q-7 -23 -28 -76q-2 -5 -31 -77q0 -7 -2 -9q-2 -10 -10 -30q-4 -12 -4 -15q-3 -5 -7.5 -15t-7.5 -15q-1 -1 -2 -3.5t-2 -3.5q-1 -4 -4 -12t-4 -12q-2 -5 -8 -13.5t-8 -13.5l-13 -30q-9 -27 -14 -37l-6 -19q-2 -2 -2 -10q0 -11 -6 -23q0 -2 -4 -6q8 -8 0 -12q-2 0 -2 -2 q-3 -2 -5 -2q3 -3 3 -4q3 -6 -1.5 -13t-11.5 -6h-4q-5 -1 -8.5 3.5t-3.5 9.5q-6 0 -14 4q-3 1 -10.5 3t-10.5 3q-12 4 -18 8q-3 -2 -11 2h-4q-2 1 -5 4t-5 4q-13 4 -20 9q-1 1 -6.5 5t-8.5 5h-22q-5 0 -10 4t-5 10v4q6 11 9 13q3 28 20 55q8 12 10 20q1 3 2 9.5t2 9.5 q2 6 7.5 18.5t7.5 18.5q25 56 32 82q4 14 11.5 39.5t11.5 39.5q5 15 21.5 72t29.5 88q10 24 36 75.5t36 78.5q4 13 16 42t17 46q13 49 30 86q7 13 18.5 40.5t18.5 41.5q4 9 18 36t21 42q14 35 35 102t25 78q4 12 10 35.5t10 35.5q4 20 12 33q1 1 2 3t2 3q0 3 4 7v4 q3 17 13 30q2 4 6.5 13.5t5.5 13.5q4 22 8 35q7 21 23 57q11 46 20 74q24 83 56 141q3 5 18 35q9 22 14 29q2 7 11 20q0 6 4 14q2 6 4 19t4 20q2 5 6 16.5t6 16.5q7 14 17 19q4 8 12 8q28 0 76 -25l18 -12q3 -1 8 -4t8 -4q7 -4 22.5 -6.5t22.5 -6.5q5 -5 5 -6z" />
<glyph unicode="0" horiz-adv-x="1228" d="M1124 793q0 -8 1 -24t1 -24q0 -17 -1 -49t-1 -49t-4 -49q-2 -8 -2.5 -23t-1.5 -20q-3 -13 -10 -42t-10 -46q-3 -24 -25 -92q-15 -57 -33 -88q-2 -2 -5 -7.5t-5 -7.5q-1 -1 -2 -3t-2 -3q-2 -7 -23 -33q-1 -2 -2 -6t-2 -6q-10 -31 -14 -37q-12 -20 -20 -30 q-3 -5 -11.5 -13.5t-11.5 -13.5q-1 -1 -2.5 -4l-3 -6t-2.5 -6q-7 -14 -8 -15q-31 -19 -39 -16q-6 -6 -15 -12q-36 -28 -67 -41q-21 -7 -37 -15q-7 -6 -31 -20q-5 -7 -20 -15q-14 -6 -41 -2h-76q-7 1 -20 1t-19 1q-30 5 -35 7q-6 0 -10 4l-2 2h-12l-6 2q-2 0 -6.5 1t-6.5 1 q-4 1 -12 4t-12 4q-2 2 -8 2l-8 4h-1l-24 12l-9 4.5t-12 4.5q-3 1 -9 4t-9 4q-2 0 -4 2q-10 10 -19 16q-10 11 -30.5 33t-30.5 33q-8 8 -10 12q-1 1 -2 3t-2 3q-9 21 -21 39q-18 27 -22 35q-3 7 -10.5 20.5t-10.5 20.5q-13 20 -18 37q-2 6 -7.5 19.5t-7.5 19.5q-4 20 -4 30 q-13 22 -20 60q-4 19 -11.5 54t-11.5 54l-12 50q-1 4 -3 13t-3 13t-4 11.5t-4 11.5q-1 11 -3.5 30.5t-3.5 26.5q0 24 7 33v39q0 51 8 92q3 15 11 46t11 48q5 30 8 39q1 7 3.5 22.5t3.5 22.5q7 25 10 45q2 16 10 43q11 23 16 39q6 22 19 41q13 27 20 35q7 7 7 8l2 4q1 2 3 5 t3 5q8 16 32 45q25 25 31 29q15 15 23 31q9 18 28 33q17 14 31 22q3 1 17 8q4 2 22 2q3 0 29 13q46 22 84 22q17 0 48 2t46 2q27 0 39 -4h6q3 -2 6.5 -2t7.5 1t6 1q16 -4 25 -4q5 -1 21 -4t24 -6q15 0 39 -12q4 -2 11.5 -6.5t12.5 -8.5t9 -8l2 -2q8 0 12 -2q1 -1 4.5 -2 t5.5 -2q6 -8 19 -22.5t14 -16.5l6 -6q0 -2 6 -8l13 -19q5 -8 15 -25.5t15 -25.5q13 -18 31 -47q2 -3 6 -10.5t6 -10.5q12 -16 17 -26q15 -25 18 -29l12 -18q1 -2 4.5 -6.5t4.5 -6.5t2 -5t2 -5q12 -28 24 -84q3 -16 9.5 -45t9.5 -45q10 -38 20 -94q1 -8 2 -25.5t2 -25.5z M848 651q2 14 2 90q0 62 -4 93q-5 57 -4 69l-2 2q-2 11 -10.5 43t-10.5 51q0 17 -2 25q0 3 -2 8t-2 8q-10 35 -12 41q-6 21 -19 37q-4 8 -24 33q-30 36 -31 37q-11 11 -35 18q-3 2 -10 5.5t-10 5.5q-8 4 -15 4q-9 0 -18 6q-11 3 -21 0q-6 -2 -16 -2h-2l-12 -6q-2 -1 -12 -2 t-15 -3q-16 -4 -24 -8q-4 -3 -12.5 -10t-12.5 -10q-21 -17 -29 -29q-5 -6 -18 -37q-12 -20 -16 -30q-1 -10 -11 -39q-6 -28 -6 -29q0 -5 -2 -15t-2 -16q-1 -5 -6 -35q-1 -6 -2 -17.5t-2 -16.5q-1 -6 -2 -18.5t-2 -18.5q-15 -96 -15 -156v-49q0 -4 -0.5 -12t-0.5 -15t1 -12 q9 -64 15 -84q9 -31 20 -90l12 -49q2 -7 5.5 -21.5t5.5 -21.5q13 -44 43 -74l16 -16q9 -14 14 -17q6 -5 18 -10.5t15 -7.5q6 -3 18 -12t22 -14t20 -7q4 4 10 4l18 6q5 0 21 4q9 3 41 29q13 14 26 21q0 1 13 20q10 15 22 35q10 15 21 37q2 5 12 35q2 14 10 38t8 35q0 3 2 9.5 t2 9.5q0 12 2 20q0 2 3 17.5t4 23.5q1 15 5 44.5t5 45.5z" />
<glyph unicode="1" horiz-adv-x="706" d="M604 29h-4q0 -4 -2 -4q-4 -7 -8 -7q-12 -8 -21 -8q-10 0 -14 2q-2 0 -2 2q-4 -1 -12.5 -2t-12.5 -2q-15 0 -39 4h-40q-21 -4 -35 -2q-6 0 -8 2q-11 0 -17 2h-33q-11 -3 -22 0q-8 -6 -19 -2h-2q-6 -2 -12 3t-6 12v145q0 3 1 10t1 11q2 4 2 16q0 7 -1 21.5t-1 21.5v49 q0 7 2 21.5t2 21.5t1 21.5t1 21.5v49q0 23 -1.5 93.5t-0.5 109.5q4 66 2 98q-1 6 -1 13.5t0.5 16t0.5 13.5q0 1 1 4.5t1 4.5v28q0 3 -1 9.5t-1 9.5q-1 4 -1 11t-1 11q0 3 -1 10.5t-1 10.5v192v45q-1 9 -5 24t-6 27.5t-1 24.5q-14 2 -41 2q-46 -8 -70 -8q-4 1 -10 1t-13 -0.5 t-10 -0.5q-11 -5 -22 2l-6 6q-6 3 -6 10q0 15 2 17l2 2q2 4 2 14q0 23 -2 33q-4 28 -4 41v37l-7 36v17q0 2 2 7t2 7q0 10 7 10q10 5 12 5t5 -1t5 -1h33q6 0 19 -0.5t24.5 -0.5t21.5 1q11 2 68 2q34 -3 61 2q5 0 14.5 1t14.5 1q9 0 25 4q10 1 30 -2t29 -2q5 0 14.5 1t14.5 1 q16 3 33 0q39 0 41 -23q0 -5 -7 -12q4 -23 4 -70q-2 -27 -2 -80q1 -14 1 -41t1 -41q0 -2 3 -14.5t4 -19.5q0 -25 2 -37q2 -26 2 -162q0 -26 4 -80v-76q0 -16 1 -44t1 -42q0 -15 4 -43v-139q0 -61 4 -92q0 -4 1 -12.5t1 -12.5v-71q2 -33 2 -101v-196z" />
<glyph unicode="2" horiz-adv-x="1165" d="M975 717q-40 -62 -49 -74q-11 -11 -17 -20q4 -13 -4 -21q-22 -22 -28 -31q-3 -5 -23 -30l-6 -6q-8 -11 -19 -29l-24 -31q-4 -6 -12 -14q-9 -5 -11 -8q-2 -4 -8 -4q-12 -15 -26 -29q-8 -10 -25 -28.5t-21 -22.5q-5 -6 -18 -26.5t-22 -29.5q-21 -24 -48 -51q-4 -4 -12 -11 t-12 -11q22 -6 31 -7q18 -4 59 0h65q47 0 62 3q38 4 55 8q4 1 12.5 2t12.5 2q5 1 14 4t14 4q5 0 15.5 -1t15.5 -1q16 4 25 4q20 0 30 -2q1 0 10.5 -2t14.5 -4q14 -3 23 -12q8 -16 8 -25v-156q0 -3 0.5 -8.5t0.5 -10.5t-1 -9v-4q4 -6 4 -17v-4q0 -8 -9 -13t-16 -1q-3 0 -8 -1 t-8 -1q-4 0 -11.5 1t-11.5 1q-18 0 -26 2q-2 1 -5.5 2t-4.5 2h-7h-30q-3 0 -9.5 -1t-9.5 -1q-31 0 -47 2h-43h-47q-33 0 -49 -2q-13 0 -41 -4q-16 -2 -49 2q-14 4 -41 4q-72 -5 -88 -8q-7 -1 -47 -6h-47q-7 -1 -23.5 -1t-24.5 -1q-22 -3 -47 0q-7 0 -21.5 1t-21.5 1h-49 q-28 4 -47 4q-6 1 -20 2t-21 2q-16 -12 -25 4q-3 3 -1.5 9t4.5 9l2 2v2q0 3 4 7q9 12 33.5 46.5t39.5 53.5q7 9 20.5 27.5t20.5 27.5q6 9 19.5 26.5t19.5 26.5q73 102 115 146q10 11 30.5 32.5t30.5 32.5q10 13 30 38.5t30 37.5q28 38 53 80q29 44 55 76q8 12 33 33 q17 10 25 24q10 15 14 19q1 1 3 2t3 2q12 15 21 30l30 62q1 4 4.5 12t4.5 12q0 1 1 3.5t1 3.5q4 25 4 71q0 13 -4 37v12q0 5 -4 13q-4 23 -19 71q-1 2 -4 5.5t-4 5.5q-2 4 -10 16q-1 1 -7 12t-8 17q-4 6 -12 22q-3 3 -9 8.5t-9 8.5q-2 3 -9 7t-10 7q-12 12 -45 12 q-5 0 -16.5 -1t-16.5 -1q-18 0 -26 -2q-3 0 -5.5 -1t-6 -2.5t-5.5 -2.5q-8 -4 -24 -8q-41 -35 -64 -97q-15 -44 -16 -57l-6 -31q-2 0 -2 -4q8 -12 -6 -22h-2q-4 -8 -13 -8q-6 0 -10 2h-16q-23 0 -35 -2q-13 -1 -40 0t-40 0q-7 -1 -20.5 -2t-20.5 -2q-30 -5 -35 -5h-18 q-9 0 -11 2q-9 -3 -19 0.5t-11 12.5q0 1 -1 2t-1 2q0 10 4 14v8q0 7 4 23q1 2 2 5.5t2 4.5q-2 10 2 31q1 5 4 12.5t4 9.5q4 22 8 29q2 4 23 57q15 35 31 58q8 12 21 34t25 38.5t27 29.5q10 13 23 23q4 3 13.5 9t13.5 9q37 28 49 33q32 16 39 18q15 5 39 9q16 4 22 6 q12 3 21 6q12 2 36 10q31 9 50 4q3 0 8 -1t8 -1q4 0 11 1t11 1q23 0 93 -24q38 -11 43 -13q8 -3 34 -20q14 -5 19 -8q2 -1 5 -3.5t5 -3.5v-2q23 -7 39 -20q9 -9 23 -16v-5q20 -7 28 -20q4 -4 12.5 -11.5t12.5 -11.5q3 -2 5.5 -4.5t5 -5.5t3.5 -4l2 -2q12 -5 35 -33 q13 -17 16 -32l13 -19q2 -3 5 -11t5 -11q3 -3 4.5 -6t3 -7.5l2.5 -7.5q10 -20 12 -25q11 -42 9 -57v-6q4 -20 4 -33q8 -54 8 -76q0 -26 -2 -38q0 -1 -2 -15.5t-4 -21.5q-3 -13 -12 -38t-11 -32q-4 -19 -12 -33q-3 -8 -21 -26q-2 -2 -6 -2l-2 -2q-1 -2 -4 -6.5t-4 -6.5 q-3 -13 -8 -20z" />
<glyph unicode="3" horiz-adv-x="1159" d="M1051 438q9 -74 -4 -104q-1 -2 -3 -6.5t-3 -8t-1 -6.5q0 -4 -4 -20q-6 -18 -12 -39q-5 -17 -16 -43q-10 -20 -19 -35q0 -2 -4 -10l-12 -19q-4 -4 -6 -8l-4 -4q-16 -21 -43 -45q-8 -10 -23 -18q1 0 -0.5 -1.5l-4.5 -4.5l-3 -3q-3 -2 -8.5 -5t-8.5 -5q-12 -8 -47 -26 q-35 -20 -45 -25q-6 -3 -26 -8q-3 -3 -13 -8q-6 -2 -14 -2l-6 -2l-4 -2q-2 -1 -7.5 -2.5t-7.5 -2.5q-2 -2 -8 -2l-2 -2q-1 -1 -3 -2t-3 -2q-4 -2 -16 -6q-7 0 -11 4q-2 -2 -4 -2q-12 -4 -20 -2q-2 0 -2 2q-1 0 -3 -1t-3 -1q-9 0 -28 1t-28 1q-27 5 -28 6h-29q-14 0 -76 15 q-13 3 -28 10h-7q-16 5 -20 8q-2 1 -7 5t-7 5q-3 1 -9 1t-8 1q-14 7 -20 11q-9 3 -15 6q-12 4 -36 16q-38 15 -64 53q-5 6 -16.5 17.5t-19 22t-11.5 22.5q-4 16 -8 24q-6 12 -8 15q-2 6 -5.5 18.5t-5.5 18.5q-13 30 -16 41q-1 3 -1 9t-1 9l-6 18q-4 12 -4 21q0 6 -4 22 q0 1 -3 11t-4 16v4q-2 2 -2 6q0 6 2 8q0 6 5 8t10 -1q5 6 16 2q15 0 47 4q49 0 58 -2q23 -3 49 4q8 4 10 4l8 2q6 6 17 6q15 8 41 4q1 0 2 -1t2 -1q18 0 14 -22q1 -3 1 -12t1 -13q10 -34 16 -45l13 -25q2 -4 5 -12t5 -12q8 -17 14 -21l21 -14q22 -15 55 -33q32 -18 49 -20 q4 0 13.5 1t13.5 1h24q4 2 13 2q6 0 8 2q12 4 22 4q12 6 31 25q5 6 15.5 15.5t13.5 12.5q2 3 7 8.5t7 8.5q3 2 7 7t7 7v2q7 7 9 14q16 45 14 68q0 1 -6 76q0 13 -6.5 37t-7.5 30q-1 7 -11 31q-9 22 -14 27q-20 16 -59 39q-19 11 -33 16q-10 2 -33 2q-51 0 -68 6 q-10 3 -10 17q-3 0 -2 24l2 23v43q0 35 -2 51q0 6 -1 19t-1 20q0 16 19 20h30h27q16 4 24 8q3 1 8.5 2.5t10 3t8.5 1.5q6 0 21 10q1 1 4 3t4 3q1 0 3 1t3.5 1.5t1.5 -0.5q2 3 5 10t5 10t7.5 9.5t7.5 9.5l12 18q3 5 8 19q1 2 3.5 7.5t2.5 8.5v19q-1 15 -1 47t-1 47 q0 29 -8 41q-3 5 -10.5 14t-10.5 14q-8 13 -24 25q-3 2 -9.5 5t-9.5 5l-18 13q-15 12 -35 12q-25 0 -37 -2q-29 -4 -39 -10q-5 -3 -32 -25q-12 -10 -33 -31q-7 -5 -10 -14q-2 -3 -6.5 -8.5t-6.5 -8.5q-4 -4 -14 -24v-8q2 -4 2 -13v-4v-10q0 -27 -22 -27q-26 0 -44 5 q-2 0 -5 1t-5 1q-1 0 -2 1t-2 1h-26q-13 0 -33 -4q-5 -1 -16 -2.5t-17 -2.5q-19 -3 -37 0h-33q-3 1 -8.5 1.5t-7.5 1.5q-1 1 -3 2t-3 2q-10 -3 -10 6q-3 3 0 6v6q-2 2 -2 6q0 6 2 10v11q0 7 6 10q0 11 8 31q2 5 7 16t7 16q2 7 7 17.5t6 13.5q4 7 14.5 30t17.5 36 q12 27 37 63q12 25 19 33q12 15 24 24q3 3 9.5 7.5t11 8t8.5 7.5q5 3 15.5 10.5t15.5 10.5q11 5 32 8l31 12q3 1 9.5 2t9.5 2t8.5 2t7.5 2q24 8 33 8q4 0 12 4q6 3 29 3q4 0 10.5 1t9.5 1q29 4 45 2q33 0 88 -19q7 -2 21.5 -4t21.5 -4q20 -5 43 -18q3 -3 21 -15q2 -2 10 -6 q12 -3 22 -8q23 -10 48 -35q14 -14 18 -22q7 -11 10 -19q2 -4 6 -8l13 -19q1 -2 4 -6t4 -6q3 -4 8 -13t10 -15q35 -55 43 -76q9 -23 9 -94q0 -5 -0.5 -42t-4.5 -55q-3 -19 -10 -41q-3 -6 -7 -20.5t-7 -20.5q-3 -8 -12.5 -21t-12.5 -18q-2 -4 -8 -15.5t-10 -18.5 q-5 -11 -10 -13l-11 -10q-1 -2 -5 -5t-5 -5q-2 -2 -5 -6t-5 -6q-13 -17 -25 -27q2 -2 4 -2q12 -5 27 -16q2 -2 5.5 -5t4.5 -4q9 -6 15 -12q8 -4 12 -8q0 -6 4 -6v-2q2 0 6 -4q14 0 25 -21q7 -10 10 -20q4 -8 4 -13q3 -4 14 -26q2 -4 5.5 -12.5t5.5 -12.5q2 -5 9 -23t9 -28 q16 -49 18 -57l7 -31v-25z" />
<glyph unicode="4" horiz-adv-x="1257" d="M1153 276q4 -19 -7 -30t-30 -13q-6 0 -17.5 -2t-17.5 -2q-29 0 -43 -2h-41q-3 0 -9.5 -1t-10.5 -1v-30q2 -45 2 -138q0 -4 0.5 -12.5t0.5 -16t-1 -12.5q-6 -14 -27 -14q-17 0 -49 -4q-15 -2 -43 2h-47q-28 -8 -41 -8q-46 -5 -63 10q-9 9 -9 21q0 2 -1 7.5t-1 8.5v139 q0 8 0.5 22t0.5 26t-1 22q-12 -4 -22 -4h-17q-5 -1 -19.5 -6t-21.5 -5h-47q-8 1 -25.5 2.5t-25.5 2.5q-14 0 -22 2q-3 0 -9.5 1t-9.5 1t-10.5 -2t-11.5 -2q-2 0 -6.5 -0.5t-8 -0.5t-6.5 1q-22 0 -43 12q-20 10 -35 6q-4 -1 -13.5 -3t-17 -3t-14.5 0q-13 0 -27 -1t-30.5 -2.5 t-26.5 -2.5q-17 -4 -28 -2q-6 2 -21 2q-6 0 -18 -1t-17 -1q-28 0 -36 8q-9 12 -5 33q1 7 1 21.5t1 21.5v47q0 8 7 8v2q-4 4 -4 8v2q0 9 8 13v2q-2 6 2 14q0 2 4 6l2 4q2 2 5 6t5 6q9 9 21 25q15 19 20 31q4 6 10.5 19.5t10.5 19.5q-3 20 10 39q19 33 29 43q2 2 7.5 7t9 8.5 t7.5 8.5t6 10q7 25 19 43l14 21q4 6 12 22q0 1 8.5 20.5t10.5 29.5q11 30 22 43q5 6 13.5 19t13.5 19q20 30 24 35q19 24 23 35l18 43q2 4 17 39l18 43q7 21 19 39q15 27 53 65q32 25 33 27q6 7 20 31q4 7 21 41q15 22 22 39q20 41 33 77q2 3 5 11.5t5 11.5q2 4 8 8.5t7 5.5 q2 2 4 6t3.5 6t4.5 5t6 4q5 6 27 6q17 0 32 -6h6q1 -1 3.5 -2t3.5 -2h4q11 8 30 8q17 0 25 -2q2 -2 8 -2l2 -2h2q0 -2 4 -2h17q2 0 7.5 1t8.5 1q2 0 6 1t6 1q19 3 35 0q11 -5 13 -10q6 0 11 -5.5t5 -11.5q0 -41 -1 -121t-1 -120q0 -62 2 -93q0 -15 2 -43t2 -43v-67 q0 -9 -4 -21v-22q0 -2 -1 -8t-1 -9q0 -29 -2 -41q0 -3 -0.5 -7t-0.5 -7t1 -6q0 -17 2 -25q0 -7 1 -22.5t1 -22.5q0 -30 8 -96t8 -96q0 -8 1 -24.5t1 -24.5q-2 -6 -2 -19h9q12 2 40 2h78q9 0 15 -4t8 -12.5t2.5 -14t0 -17t-0.5 -13.5q0 -38 6 -78q1 -10 -0.5 -34t0.5 -32z M733 494q0 5 -1 15t-1 15v39q0 6 -1 19t-1 20q-2 29 -2 86l1 40q0 40 -1 40q-6 58 -10 170v74q-8 -16 -15 -37q-3 -7 -10 -20.5t-10 -20.5q-1 -2 -7 -16t-11 -21q-7 -13 -52 -76q-12 -18 -24 -39q-3 -5 -9.5 -17t-9.5 -17l-49 -80q-7 -10 -20 -41q-3 -9 -11 -17 q-9 -14 -10 -16q-3 -6 -8.5 -20t-9 -21.5t-9.5 -17.5t-12 -17q-8 -8 -8 -12q0 -6 -4 -14q0 -7 -4 -15q8 0 10 -2h8q2 0 6 -1t5 -1q6 0 18 4q27 6 59 6q46 0 58 4l22 7q23 6 35 6q43 0 55 -6q2 -1 9 -5t10 -4q3 -2 14 2v7z" />
<glyph unicode="5" horiz-adv-x="1157" d="M1053 516q0 -5 0.5 -13.5t0.5 -16t-1 -13.5v-49q0 -4 -1 -12.5t-1 -12.5l-3 -7q-4 -8 -4 -13q0 -2 -1 -4.5t-1 -3.5q-2 -2 -2 -9q-2 -17 -10 -40q-3 -7 -7 -21.5t-7 -21.5q-2 -7 -19 -41q-20 -35 -24 -41q-14 -29 -21 -37q-19 -22 -32 -33q-6 -4 -16.5 -13.5t-16.5 -13.5 q-4 -4 -8 -6q-24 -19 -31 -28q-18 -21 -35 -31q-6 -7 -21.5 -15.5t-19.5 -11.5q-2 -1 -6 -5t-6 -5l-12 -6q-17 -10 -29 -15q-33 -17 -60 -14q-20 0 -30 -2q-22 0 -27 2q-2 0 -6 4q-4 0 -11.5 -2t-11.5 -2q-10 -2 -28 -2q-3 0 -10 -1t-11 -1q-18 0 -28 -2h-29q-19 0 -27 4 q-2 2 -7 5t-7 5q-7 0 -23 4q-10 2 -31 3t-26 2q-4 1 -18 4t-21 6q-19 11 -33 16q-1 0 -6.5 2t-7.5 4q-2 1 -5 3t-5 3q-20 7 -33 17q-23 18 -31 28q-2 2 -7.5 8.5t-10.5 10.5t-10 6q-3 2 -11 14q-7 7 -10 15q-1 1 -5.5 3.5t-6.5 4.5l-10 10q-7 3 -10 11t1 16q4 4 7 4h-4 q0 2 1 4.5t1 3.5q2 3 14 39q5 20 20 41q3 5 6.5 16.5t6.5 16.5l16 32q3 17 10 35v2l4 4q0 14 11 17q8 2 24 -23q8 -12 8 -20h2q3 -6 7 -10l2 -2q6 -3 12 -9q1 -1 8.5 -10.5t11.5 -15.5q1 -1 8 -5t9 -6q8 -4 14 -10q5 -3 35 -18q3 -1 15.5 -5t19.5 -7q3 -2 11.5 -8.5 t14.5 -8.5q22 -7 33 -14q6 -2 18 -4t13 -2q0 -3 40 -1l40 1q28 0 33 2q4 2 16 6q2 0 5.5 2.5t4.5 3.5q4 3 14 4.5t13 3.5t7.5 5.5t6.5 4.5l19 7q0 2 2 2q5 3 10 11.5t10 10.5q4 0 6 2v2q4 8 15 19q2 1 5 4t5 4q7 17 16 26q2 3 8.5 9.5t8.5 9.5q5 8 10 39q4 26 8 37v41 q0 12 -2 16q0 3 -1 7.5t-1 6.5q0 5 -1 15.5t-1 15.5l-6 31q-6 18 -15 33q-2 5 -8 15t-8 15q-1 2 -3 7.5t-3 7.5l-3 5q-3 4 -5 5q-13 7 -19 18q-5 10 -8 13l-6 6q-9 6 -12 16q-3 2 -10.5 5t-10.5 5q-2 2 -6.5 10.5t-9.5 10.5q-15 11 -27 16q-6 2 -18 4t-13 2q-5 0 -32 11 q-5 1 -14.5 2t-14.5 2q-4 0 -10.5 0.5t-11.5 0.5t-9 -1h-35q-2 0 -7.5 -2t-8.5 -2q-4 -2 -16 -2q-11 0 -23 -9q-12 -16 -18 -22q-4 -3 -8 -5t-9 -4t-8 -3q-12 -9 -24 -15q-2 -1 -27 -20q-3 -1 -8 -4t-8 -4q-14 -7 -15 -7l-31 7q-5 2 -5 7t5 7q-5 10 3 29q0 4 1 12t1 12 q7 22 10 41q0 29 4 45q2 14 10 47q3 12 17 39q2 3 3 7t1.5 9.5t1.5 8.5q4 16 4 22q3 11 8 45q1 8 4 24.5t4 24.5q1 5 2 15.5t2 18.5t2 14q10 39 11 49l6 43q3 16 8 50t8 50l6 49q1 6 4 19.5t4 19.5q1 2 3 13t4 18q0 9 6 12l4 4q4 4 10 4h8q11 0 15 -2q2 0 6 -2t6 -2h39 q23 0 47 6q28 4 41 4q17 0 48 -1t48 -1q9 0 27 1.5t32 1t27 -4.5q20 -7 82 -2q31 4 45 0q32 -4 45 -4q31 0 45 2h4q7 -3 25 -8q2 -1 5 -2t5 -2q-2 -6 2 -18q0 -1 1 -3.5t1 -3.5v-26q1 -10 -0.5 -28.5t-1.5 -24.5q0 -8 1 -26t1 -26v-41q0 -10 2 -12q5 -20 4 -24 q-2 -9 -8.5 -13t-12.5 -3.5t-16.5 3t-13.5 2.5q-10 2 -35 -0.5t-32 2.5q-2 1 -6.5 4.5t-6.5 4.5h-12q-16 6 -25 2q-18 -9 -34 -9q-3 0 -33 -6q-6 -1 -13.5 -1t-15.5 0.5t-12 0.5q-11 0 -31 4q-14 2 -35 -2q-12 -4 -35 -4h-59q-1 -5 -2 -15.5t-2 -15.5q0 -6 -6 -12 q-2 -5 -5 -15.5t-5 -15.5q0 -3 -1 -8t-1 -8q0 -1 -3.5 -16.5t-3.5 -22.5q-1 -6 -2 -18.5t-2 -18.5q0 -4 -1 -9t-2.5 -11.5t-2.5 -9.5q-2 -2 -2 -7v-8q5 2 27 8q52 9 65 9q12 2 39 2t41 -4q36 -6 74 -21q3 -2 10 -6t10 -6q2 -1 17 -6q2 -1 17 -7.5t22 -11.5q12 -9 32.5 -28 t30.5 -27q30 -19 51 -66q3 -7 10.5 -20.5t10.5 -20.5q17 -33 18 -38q3 -7 12 -18t11 -17q3 -6 14 -39q9 -22 12 -41q0 -2 2 -5.5t3 -6.5t1 -6.5t-0.5 -8.5t-0.5 -8t2 -8t2 -8q0 -15 2 -23z" />
<glyph unicode="6" horiz-adv-x="1181" d="M1077 457q0 -106 -8 -144q-1 -5 -4.5 -19.5t-7.5 -24.5t-10 -19q-1 -2 -5.5 -5.5t-5.5 -4.5q0 -1 -1 -3.5t-1 -3.5q-1 -2 -4 -7t-4 -7q-24 -40 -39 -55q-12 -18 -24 -33q-3 -3 -12 -18.5t-17 -18.5q-2 -2 -4 -2q-15 -19 -27 -26q-9 -9 -29 -17q-14 -10 -28 -16l-31 -13 q-4 -1 -7.5 -3.5t-7 -6t-5.5 -4.5q-9 -4 -29 -10t-29 -10q-12 -4 -16 -4q-3 -1 -13 -6.5t-16 -6.5q-8 -2 -22.5 -1.5t-22.5 -0.5q-28 -8 -43 -6q-4 0 -11 2t-11 2h-4q-57 0 -86 6q-36 10 -41 11q-15 0 -23 2q-8 4 -14 4q-29 0 -41 4q-21 7 -35 18q-11 7 -19 10q-1 1 -4.5 6 t-7.5 7q-8 4 -14 10q-3 1 -14 12q-1 0 -4 2h-1q-2 2 -6 2q-3 0 -8.5 3t-7.5 4q-13 10 -16 24v4q-13 5 -21 21q-3 5 -12 26q-1 3 -13 21q-4 6 -12 19.5t-12 19.5q-2 2 -14 20q-18 22 -23 39q-4 8 -8 25t-4 18q-1 4 -6.5 38t-6.5 52v49v47q0 3 2.5 9.5t2.5 9.5v20q2 8 4 25 t2 18q2 4 4 12.5t4 12.5l6 18q2 6 5 20.5t5 20.5q1 8 6.5 22.5t6.5 18.5q6 21 12 39q1 2 6 15t10.5 21.5t12.5 12.5q10 35 28 64q23 39 41 61q17 17 23 27q3 4 9 14.5t9 14.5q9 7 16 24q2 4 5 8t7.5 9t6.5 8q1 2 4 6t4 6t3 5t3 5q2 1 6.5 4t6.5 4q3 4 8 11.5t9.5 14.5 t8.5 13l25 37q3 5 41 78q35 67 41 82q2 4 24 43q15 22 25 35q4 5 12.5 16.5t11.5 16.5q5 6 14 14t11 10q3 3 8 9.5t8 9.5q12 12 13 14q8 12 10 14q0 2 4 6q1 0 6 5q4 3 9 -0.5t5 -8.5q7 -4 7 -8v-2h2q0 -1 1 -2t1 -2q6 -9 20 -16q2 -1 10.5 -9t14.5 -8q4 0 8 -3t10 -10l6 -7 q7 -8 31 -23q18 -9 23 -14q1 0 5.5 -3.5t8.5 -4.5q3 -1 7.5 -1t8.5 -1t8 -4q5 -5 6.5 -13.5t-3.5 -15.5q-5 -10 -9 -14q-2 -3 -14 -15q-6 -6 -14 -18q-4 -4 -6 -8q-3 -3 -5.5 -6.5t-6 -8.5t-5.5 -8q-9 -22 -14 -29q-3 -4 -7.5 -15t-7.5 -15q-3 -5 -8 -15.5t-8 -15.5 q-14 -19 -47 -57q-4 -5 -11.5 -16.5t-11.5 -16.5q-3 -4 -12 -15t-12 -18q-31 -44 -41 -61q-22 -44 -27 -50q1 0 2 1.5t2 1.5q11 0 17 2q12 6 37 6h32q19 5 43 2q2 0 19.5 -2t25.5 -4l37 -13q4 -3 10.5 -5t14.5 -4l12 -3q18 -9 39 -18q7 -4 23.5 -12t28 -15t20.5 -16 q15 -13 35 -41q9 -3 12 -13q4 -5 12 -16t12 -16q4 -8 7 -17q1 0 2 -1t2 -1q4 -4 4 -6l2 -4q5 -6 9.5 -21.5t6.5 -19.5v-2q11 -8 15 -31q3 -7 8 -33q5 -12 8 -28q1 -5 2 -16.5t2 -16.5q4 -20 4 -29q4 -46 4 -67zM807 399q8 41 8 93v38l-2 2q-1 6 -16 41q-3 6 -9 19t-8 16 q-1 3 -24 37l-17 17q-1 1 -4 3.5t-5.5 5t-4.5 5.5q-23 26 -66 33q-18 7 -32 10q-15 0 -19 2q-15 0 -35 4q-14 0 -26 -6q-5 -2 -16.5 -6t-16.5 -6q-1 -1 -20 -7q-17 -10 -27 -20q-4 -4 -8 -4q-3 -10 -10 -17q-8 -16 -33 -45q-19 -19 -31 -43q-8 -12 -10 -18q-4 -16 -4 -25 q-1 -2 -1 -6t-1 -6t-2 -6t-2 -6v-23q0 -35 2 -53q2 -10 2 -31q1 -4 1 -11.5t1 -10.5q0 -9 4 -21q7 -14 4 -22q0 -1 2 -6t4 -7q2 -4 6 -11t6 -11q3 -3 13 -23q6 -8 19.5 -23t16.5 -18q3 -6 11 -10q0 -2 2 -2q19 -11 35 -14q30 -9 38 -14q18 -11 31 -11q11 0 17 -2h18 q3 0 10 1t10 1q3 1 9.5 2t9.5 2q23 7 37 15q8 4 22 10t19 8q2 1 7 5t7 5q2 3 14 15q34 38 43 65q15 43 21 90z" />
<glyph unicode="7" horiz-adv-x="1226" d="M1122 1411q8 -15 -6 -22q-1 0 -6 -11q-3 -10 -10 -20q-10 -13 -25 -35q-6 -9 -20 -37q-29 -60 -43 -82q-6 -8 -13.5 -23.5t-9.5 -19.5q-7 -9 -16 -35q-18 -40 -33 -84q-10 -27 -37 -79q-9 -14 -28.5 -38t-26.5 -34q-21 -34 -43 -82l-41 -82q-5 -9 -21.5 -36t-23.5 -44 q-3 -8 -15 -37t-20 -45q-4 -6 -14 -41q-5 -18 -19 -39q-8 -18 -41 -77q-10 -20 -12 -23q-2 -7 -12 -12q-12 -10 -25 -31q-14 -28 -20 -37q-18 -23 -25 -33q-32 -55 -45 -79q-3 -7 -10 -20.5t-10 -20.5q-2 -3 -5.5 -9.5t-5.5 -9.5q-2 -4 -6 -8q-1 -2 -2 -6t-2 -6 q-10 -24 -37 -62q0 -4 -2 -6h-2q-2 -3 -11.5 -24.5t-17.5 -30.5q0 -7 -4 -15q-10 -13 -32 0l-13 13q-5 3 -16 9.5t-16 8.5l-31 12l-15 7.5t-18 7.5l-31 12q-2 1 -6 4t-6 4q-3 7 -10 10q-2 1 -12 11q-6 6 -7 8q-13 6 -10 24q5 10 6 11q4 4 4 6q1 1 7 12q4 6 14 25 q4 7 13.5 26.5t15.5 28.5q2 3 12.5 26t17.5 35q8 8 8 15q5 10 5 12q2 3 6 10.5t6 10.5q3 3 7 11t7 11q9 7 17 23q2 2 8 14q13 22 16 29q3 5 8 15t8 15q5 8 15.5 26t15.5 26q0 6 6 12q2 14 6.5 28.5t12 32.5t10.5 27q4 16 8 24q12 19 13 21q13 22 22 33q3 10 16 10 q5 10 13 18l2 2q3 5 8 19q11 40 12 41l19 43q9 23 37 78q12 20 20 32q7 14 8 17q2 3 7.5 8t7.5 8q14 21 22 37q2 5 7.5 17t8.5 18q5 16 17 43t16 39q18 43 27 67h-37q-1 0 -29 7h-32q-21 0 -33 -2q-9 -2 -35 -0.5t-37 0.5q-63 -5 -74 -5q-62 -5 -73 -4q-12 1 -37 5.5 t-39 5.5q-43 0 -66 4q-16 -3 -32 0q-6 6 -13 6h-12q-14 0 -14 14q0 4 -1 12.5t-1 12.5v82q0 9 -1 26.5t-1 26.5q-5 5 -5 8q0 21 2 25v12q5 16 33 16q3 -1 8.5 -2t8.5 -2h28q12 4 23 4q6 0 8 2q8 3 16 -1t9 -11h28q27 0 41 2q7 1 20.5 4t20.5 4q12 2 39 2h23q3 0 8 1t8 1 q7 0 22 -1t23 -1q27 0 41 4q20 5 47 5h21q3 0 8 -1t8 -1q34 0 45 -3q25 -8 37 -10h80q39 0 59 -2q37 0 55 2q4 0 12.5 1t12.5 1q15 0 23 -2q0 -1 26 -1l27 1h26q12 -4 19 -4q28 7 53 4q1 0 9.5 3t13.5 3q6 0 10 -4q11 0 16 -8z" />
<glyph unicode="8" horiz-adv-x="1110" d="M1004 422q2 -6 2 -39v-37q0 -29 -11 -78q-2 -8 -5 -24.5t-5 -24.5q-2 -7 -8 -18t-8 -15q-4 -12 -8 -18q0 -4 -3 -10q-4 -12 -10 -21q-20 -25 -33 -35q-56 -45 -77 -55q-4 -2 -17.5 -7.5t-21.5 -10.5q-6 -3 -18.5 -11.5t-18.5 -11.5q-8 -4 -25 -8t-18 -4q-32 -8 -47 -8 q-26 -13 -41 -13h-62q-2 0 -7 -2t-7 -2q-6 -2 -16 -2q-17 0 -27 4h-2h-23q-18 0 -26 2q-2 0 -5 1t-5 1q-10 2 -29 2q-12 2 -29 11q-18 6 -33 12l-24 12l-31 13q-3 1 -11 4t-13 6q-6 3 -13 10q-9 5 -10 6l-18 12q-9 4 -17.5 11.5t-18 17.5t-14.5 14q-3 4 -11 10.5t-11 10.5 q-7 7 -16 25q-1 3 -1 8t-1 8l-7 14q-2 3 -8 21q-6 6 -6 8q-2 2 -2 6q-1 3 -3 8t-3 8q0 1 -1 3.5t-1 3.5q-6 12 -6 26q0 8 2 10v9q-9 27 -9 37t-2 30.5t-2 30.5v55q1 6 11 58q3 27 12 47q9 21 12 26q2 3 8 21q18 32 27 39q5 5 23 14q3 6 18 21q1 1 49 43q12 7 29 14q3 2 10 6 t10 6v2q-9 6 -24 21t-19 18q-12 9 -24 21q-23 23 -29 32q-16 20 -25 29q-4 5 -18 33q-27 56 -31 74q-8 36 -8 84q3 42 12 86q6 39 25 75q0 1 4 9q5 23 10 32l13 19q2 2 5 7t5 7q8 12 29 33q6 10 16 16q8 4 12 8q2 1 7.5 3.5t7.5 3.5q2 2 5 6t5 6q4 4 16 12q3 1 5 3t4 5t3 4 q11 14 25 17q8 8 12 10q2 1 9.5 3t9.5 3q8 8 20 4q15 15 29 8h2q22 13 35 13h16q12 4 19 4q6 0 14 1t18 2.5t15 2.5q25 8 41 6q23 -5 32 -10q9 0 17 -4q14 0 20 -2q15 -6 27 -6q36 -4 51 -9q9 -3 24.5 -12t20.5 -12q22 -8 41 -27q2 -4 16 -18q2 -2 5.5 -6t6 -6.5t5.5 -4.5 q2 -2 14 -12.5t19 -15.5q12 -6 20 -17q3 -4 8.5 -12t8.5 -12q1 -2 7 -14.5t7 -18.5l2 -2q7 -9 12 -33q1 -4 1 -10.5t1 -9.5q5 -7 8 -17q10 -23 13 -45q2 -9 2 -53v-45q-4 -49 -19 -74v-6q-4 -12 -4 -18q-1 -2 -3.5 -10t-2.5 -9l-6 -18q-3 -5 -8 -17.5t-8 -17.5 q-10 -12 -21 -31q-8 -17 -25 -30q-17 -17 -32 -27q-5 -3 -19 -8q-9 -3 -14 -8q-2 -1 -8 -5.5t-8 -5.5l24 -12q1 -1 13 -4.5t18 -7.5l26 -13q12 -9 21 -18q5 -5 15.5 -14.5t15.5 -14.5q14 -21 22 -37q18 -36 21 -49q7 -7 12 -22v-2q8 -12 8 -19q1 -6 3 -19.5t3 -19.5 q1 -5 3 -16t3 -16q0 -16 3 -31zM741 385v6q0 4 -1 13t-1 14q0 2 1 6.5t1 7.5q-4 8 -4 12q-1 4 -1 14t-1 15q-7 15 -10 25q-17 45 -18 47q-4 3 -21 20q-7 9 -27 17q-14 7 -26 22q-8 12 -17 21q-1 0 -2 1t-2 1h-4q-3 1 -8 2t-8 2q-1 0 -9.5 3t-13.5 3q-6 0 -16.5 -2t-15.5 -2 h-13q-4 -4 -16 -8h-6q-1 -1 -3 -2t-3 -2q-1 0 -3.5 -1.5t-3.5 -1.5q-12 -8 -16 -14q-1 -1 -2.5 -3.5t-3.5 -4.5q-1 -1 -3 -2t-3 -2q-4 -4 -14.5 -11.5t-14.5 -11.5q-3 -5 -11 -14t-11 -14q-21 -53 -21 -74q-1 -16 -8.5 -43.5t-9.5 -40.5v-10q0 -2 2 -2q0 -3 2 -8.5t2 -8.5 q1 -3 2 -9t2 -9q2 -6 8 -17.5t8 -17.5q1 -8 15 -35q2 -4 6 -8v-4h2q4 -2 8 -6q7 -5 14 -15q29 -19 62 -28q18 -6 20 -6q15 0 21 2q5 0 14 2t14 2q12 2 39 -2q7 -2 23 8h6q4 8 6 10q12 15 27 27q1 1 8.5 10.5t11.5 15.5q3 4 10.5 12.5t10.5 12.5q9 14 10 16q1 1 6 15 q4 20 4 32q0 5 6 23zM387 1036q-4 -11 -2 -16q2 -16 14 -53q2 -2 2 -6v-3q6 -9 9 -18q6 -12 30 -41q3 -4 12.5 -11.5t12.5 -10.5q14 -10 20 -11q14 -2 37 -10q6 -2 21 -2h18q6 0 13 1t15 2.5t13 2.5q7 2 35 21q10 6 22 26q3 6 10.5 17.5t10.5 17.5q9 15 16 41q1 6 3 17.5 t3 17.5q0 7 2.5 21.5t2.5 21.5q-2 14 -2 45t-33 72q-9 13 -31 28l-37 19q-16 13 -35 16q-8 0 -20 4q-4 -1 -12.5 -1t-12.5 -1q-6 0 -18 -4q-5 -2 -17 -2t-18 -2q0 -2 -4 -2q0 -2 -2 -2l-35 -35q-1 -2 -3 -7t-3 -7q-26 -59 -31 -82q-1 -4 -2 -11.5t-2 -11.5q0 -3 -1 -9t-1 -9 v-23z" />
<glyph unicode="9" horiz-adv-x="1204" d="M1100 952q0 -62 -2 -75q-9 -27 -11 -39q-3 -17 -10 -35v-4q-2 -2 -2 -8q-2 -6 -7.5 -19t-6.5 -20q-3 -17 -17 -31q-2 -2 -2 -6l-4 -6q-7 -7 -10 -13q-2 -3 -20 -39q-1 -4 -23 -47q-10 -16 -16 -35q-5 -9 -15 -35t-18 -40q-10 -18 -51 -76q-47 -59 -56 -74 q-12 -20 -55 -74q-2 -2 -5 -7t-5 -7q-2 -3 -10 -18.5t-13 -22.5q-6 -7 -13.5 -21t-10.5 -18q-4 -6 -13.5 -18.5t-13.5 -18.5q-4 -7 -13 -20.5t-13 -20.5q-3 -4 -8.5 -14t-8.5 -14q0 -2 -4 -6v-2q-1 -2 -10 -11q-4 -4 -12 -16q-1 0 -5 -4q-1 -3 -4 -9.5t-4 -9.5 q-2 -8 -10 -20q-4 -5 -13.5 -20.5t-15.5 -22.5l-4 -4q-1 -2 -6 -17q2 0 2 -2q0 -4 -2 -4q-3 -8 -12 -10t-17 4q-2 4 -8 10l-4 2q-3 3 -4 5q-2 1 -10.5 5t-11.5 7q-11 11 -17 20q-10 13 -22 19q-3 3 -10.5 8t-10.5 8q-4 3 -10 10.5t-10 10.5q-2 2 -7 5t-6 5q-2 4 -8 10 q-7 9 -24 16q-7 3 -7 13q-8 4 -8 12t4 10q0 4 2 4q9 9 13 11l12 6q11 11 20 26q33 55 35 58q29 57 82 127q33 48 47 65q8 9 20 30t15 26q8 13 19 28v2q-1 -1 -4.5 -2t-4.5 -2q-14 -4 -43 -4h-39q-8 0 -20 4h-14q-32 4 -45 4q-21 0 -29 6h-14q-3 2 -9.5 5.5t-9.5 5.5 q-30 4 -47 18l-25 19q-12 8 -18 14q-21 7 -35 18q-2 2 -11 12t-15 15q-37 37 -45 63q-2 6 -13 17q-2 3 -5 9t-5 9q-5 7 -10.5 21.5t-7.5 17.5l-13 43q-7 22 -14 33q-20 38 -23 88q0 15 1 46t1 48q-2 22 7 84q8 54 24 80q8 13 26.5 36t26.5 36q30 43 48 63q0 1 1 3t1 3 q8 19 18 27q9 9 27 16q0 2 4 6q16 16 20 19q17 20 41 29q9 5 27 12t24 10q5 2 24.5 10t29.5 11q39 13 94 16h20q4 0 11.5 1t11.5 1q23 0 35 2q52 7 94 -4q38 -13 86 -33q40 -17 45 -20q7 -5 19 -11l16 -8q7 -5 19.5 -16.5t15.5 -13.5q25 -20 32 -27l19 -18q10 -15 12 -17 l6 -6t7 -6.5t6.5 -6.5t5.5 -7q6 -3 10 -11q5 -3 20 -24q2 -3 4.5 -9.5t4.5 -9.5q1 -2 4 -7t4 -7q6 -15 12 -33q1 -5 5 -15.5t5 -15.5q2 -6 5.5 -17t4.5 -15q5 -27 7 -31q4 -14 4 -41q0 -6 1 -19t1 -20v-33zM827 903q0 3 1 10.5t1 10.5q-1 3 -2 9t-2 9q0 6 -2 19.5t-2 19.5 q0 29 -4 45q-5 23 -31 82q-9 26 -14 35q-3 5 -11.5 11.5t-10.5 8.5q-4 6 -13 15q-5 5 -14 8q-4 2 -33 14l-8 4l-4 4l-12 6v3h-11q-23 -3 -45 0q-12 4 -32 -3q-6 -2 -19.5 -4t-19.5 -4q-11 0 -17 -6q-3 -1 -7 -4t-7 -4l-16 -8q-3 -6 -11 -10q-4 -4 -14 -9q-3 -1 -8.5 -6 t-7.5 -6q-4 -4 -11.5 -12.5t-11.5 -12.5q-11 -27 -16 -45q-9 -36 -21 -65q-1 -5 -6 -25v-18q-1 -3 -1 -9t-1 -8q-5 -14 -2 -34v-27q4 -12 6 -16q2 -12 10 -27q14 -24 25 -41q5 -13 16 -31q4 -8 8 -12q1 -3 1.5 -8t1.5 -8q1 -1 2 -3t2 -3q3 -2 14 -13q2 -2 7 -5t7 -5 q25 -20 35 -23q32 -12 82 -12h4q1 0 3 1t3 1q15 0 23 2q4 0 37 11q51 15 75 32q21 16 29 27q15 12 21 27q4 14 12 38q2 6 5 19.5t5 19.5q4 18 8 23q0 2 4 6v6z" />
<glyph unicode=":" horiz-adv-x="509" d="M414 199q8 -54 -8.5 -106.5t-55.5 -86.5q-23 -19 -39 -26q-16 -9 -47 -9q-35 0 -51 6q-19 9 -25 11q-18 6 -22 8q-45 22 -64 53q-1 4 -4 11.5t-4 11.5q-7 3 -10 10q-3 5 -3.5 16t-2.5 15q-10 39 -2 67q3 19 12 37q1 1 23 29q4 6 16 14q10 13 23 23q6 6 18 12q2 2 7 5t7 5 q14 9 35 12h45q31 0 45 -6q19 -5 41 -20q9 -8 25 -27q2 -4 6 -11t6 -11q10 -5 14 -25q0 1 2 -2t2 -2v-2q11 -4 11 -12zM401 903q18 -24 15 -55v-31q0 -8 -4 -24q0 -27 -17 -54q-18 -28 -35 -43q-22 -19 -49 -28q-20 -4 -32 -2l-3 -2q-22 -11 -45 -5q-5 0 -8 3q-25 0 -30 2 q-22 6 -37 24q0 2 -2 2q-1 1 -4.5 3t-4.5 3l-4 4q-21 9 -32 27q-26 40 -23 96q2 18 10 49q2 3 8 18.5t11 22.5q28 44 69 58q1 0 3 1t3 1q8 4 13 4q2 0 6 1t6 1l8 4h4q4 4 9 4q4 2 12 2q15 10 43 6q30 -3 51 -14q45 -23 51 -70z" />
<glyph unicode=";" horiz-adv-x="593" d="M446 233q4 -10 -6 -40q-3 -7 -8 -20.5t-8 -20.5q-9 -26 -39 -84q-24 -40 -45 -84q-11 -21 -47 -76q-3 -10 -14 -27t-13 -22q0 -1 -4 -13t-8 -18q-13 -25 -14 -27q-6 -15 -17.5 -47t-17.5 -47l4 -4q3 -7 0 -15.5t-10 -9.5q-6 -2 -17 -2q-4 -2 -10 -2q-8 0 -24.5 1t-24.5 1 q-18 0 -39 7q-12 4 -39 4q-4 0 -8 4q-2 0 -6 4q-8 0 -11 6q-2 9 0.5 18t7 20t5.5 17q5 24 20 62q2 3 8 16t9 19q2 7 18 51q2 5 12 35q5 10 9 16q0 9 4 33q6 18 12 39q10 35 12 41q6 12 8 20q0 3 1 9t1 9q4 13 17 44l12 36q7 25 14 41q11 28 11 33q0 4 4 12q4 13 16 13 q7 0 62 -11q48 -11 59 -14q37 -10 49 -12q25 -4 33 -10q16 8 22 -5zM496 815q14 -27 8 -49q-1 -4 -4 -17.5t-6 -19.5q-15 -43 -45 -78q-43 -43 -72 -47q-8 -2 -47 -2q-31 0 -45 4q-55 16 -80 45q-11 11 -23 35q-2 6 -6 14q-2 2 -2 5h-2l-2 8q-23 48 -10 78v14q0 1 1 3t1 3 q0 12 2 18q3 13 22 41q4 6 12 22t15.5 26.5t17.5 17.5q27 16 66 16q22 3 43 0q30 -7 45 -14q28 -14 37 -20q16 -13 24 -29h3q4 -3 4 -2q4 -4 8 -6q10 -7 16 -19q3 -4 19 -47z" />
<glyph unicode="&#x3c;" horiz-adv-x="1091" d="M1020 870q4 -31 0 -47q-3 -15 -21 -10v-2q0 -1 -1 -2t-1 -2q3 -10 -12 -16q-10 -3 -14 4q-1 0 -3 -1t-3 -1q-4 -2 -13.5 -5.5t-13.5 -5.5q-50 -17 -53 -18q-8 -3 -16.5 -6.5t-18.5 -8.5l-16 -8q-25 -11 -46 -16q-6 -4 -18 -8q-20 -5 -22 -6q-30 -13 -48 -15 q-10 -1 -26.5 -8t-22.5 -8q-33 -12 -45 -14q-3 -1 -5 0t-2 3t1 3q-3 -1 -8 -3t-8 -3q-21 -11 -121 -45q-14 -7 -29 -13q-5 -2 -14 -6t-14 -6l-19 -6q10 0 19 -6q6 -2 36 -17q13 -5 31 -16l4 -2q24 -12 35 -12q22 0 37 -5q8 -2 21.5 -7.5t17.5 -6.5q26 -4 37 -8 q30 -12 34 -14q2 -1 10.5 -7.5t14.5 -7.5q3 -1 10.5 -3t10.5 -3q12 -8 20 -10l18 -12q2 -1 7.5 -2t7.5 -2q7 -2 19.5 -8t15.5 -7q14 -2 38 -10q6 -2 35.5 -16t46.5 -19q5 -1 17 -4.5t18 -3.5q17 0 23 -2q8 -4 12 -4q1 -1 4 -3t4 -3h2q9 0 11 -7l2 -4v-26q2 -10 2 -29v-149 q0 -10 -7 -21h-2q0 -10 -8 -6q-7 -7 -14 -4q-14 0 -27 10q-30 5 -39 8q-7 6 -26 13q-11 4 -31 14.5t-27 13.5q-11 5 -34 15.5t-35 15.5q-11 5 -35 15.5t-35 15.5l-37 12q-8 6 -28 10q-41 16 -60 27q-16 10 -28 12q-12 4 -17 4l-18 6q-11 0 -15 2q-4 4 -10 7l-6 6 q-20 5 -23 6l-49 12q-5 1 -39 12q-14 7 -20 11l-12 6q-8 1 -21.5 10t-15.5 10q-33 19 -80 29q-34 7 -88 29l-29 14q-6 0 -8 2q-6 0 -10 4q-6 -9 -18 -7.5t-11 13.5v2q-6 3 -6 11v4q0 9 10 12v18q0 8 -2 23.5t-2 23.5v64v59q0 16 14 13h9q15 9 34 12q10 2 30 10t28 10 q10 3 22 6.5t26 8.5t23 8q3 1 17 5.5t20 6.5q2 1 7.5 3t7.5 3q6 4 18 4q10 0 16 3q5 5 15 10q4 4 13 11t13 11q27 16 33 17h33q5 1 25.5 12.5t35.5 3.5l4 -2q1 0 3.5 1t3.5 1q12 6 36 14q22 9 33 11q9 2 74 28q7 3 32 11.5t36 15.5q6 3 18 10t18 10q5 2 16.5 6.5t16.5 6.5 q6 4 18.5 7.5t14.5 4.5q14 9 35 12q14 0 20 2q8 10 27 15q4 0 10.5 1t9.5 1q0 2 2.5 2.5t4.5 -0.5q8 4 20 8q12 6 14 6q7 0 11 2q1 0 3 1t3 1h2q2 2 8 2q2 2 6 2l4 4q3 7 8 9h2q3 2 8 -1.5t5 -7.5q5 -19 0 -28v-13v-14q0 -2 1 -6.5t1 -7.5q1 -8 1 -24.5t1 -24.5q4 -36 4 -52 z" />
<glyph unicode="=" horiz-adv-x="1196" d="M1092 293q5 -11 -6 -19t-21 -2q-3 -1 -9.5 -2t-8.5 -2q-5 -1 -11 -4l-8 -4q-20 -8 -29 -6q-5 0 -12.5 3t-9.5 3q-8 2 -18 2t-22 -1t-19 -1q-6 0 -26 1.5t-30 0.5l-92 -6q-8 0 -24.5 -2t-24.5 -2h-49q-71 0 -90 4q-13 -3 -23 0h-63h-31q-4 -1 -11.5 -2t-11.5 -2 q-26 -5 -59 -2q-28 4 -45 4q-12 -6 -25 -6q-7 1 -19.5 5t-19.5 5h-18q-7 -1 -21 -1t-20 -1q-6 -2 -20 -2q-6 -2 -19 -2q-26 -4 -39 0q-8 0 -8 6q-7 -3 -13.5 0.5t-6.5 11.5q0 10 -2.5 30t-2.5 30q-2 18 2 55q1 6 4 16t3 11q1 5 1 13.5t1 12.5q0 24 6 45q-2 6 1 11.5t9 5.5 q8 0 12 -2q12 -4 21 -4h35q6 0 16.5 1t15.5 1q4 0 9 1t11 2.5t9 2.5q29 3 62 0q40 -4 65 -4q15 0 46 1t46 1q7 0 22 -1t23 -1q22 0 43 -6q3 0 18.5 -3.5t24.5 -3.5q4 1 18.5 4t22.5 3q9 0 26 -1t30.5 -1t25.5 2q46 10 86 4q4 -1 12.5 -1t12.5 -1q3 0 10 -1t10 -1h21h16 q2 2 8.5 5t8.5 5q6 4 18 4q7 1 20.5 3t20.5 3q17 4 29 2q6 0 22 -4q28 -4 39 -4q9 0 16 -6t7 -15q0 -15 -5 -108q0 -7 -3 -22.5t-3 -22.5v-23q11 -7 13 -16zM1092 883v-25v-102q0 -9 -7 -23q-4 -4 -8 -12q0 -14 -16 -14h-4q-13 -5 -29 -5q-8 -2 -24 -2h-23q-15 3 -23 11 q-17 -4 -28 -2q-2 2 -8 2h-27q-3 0 -11 2.5t-10 3.5q-1 0 -2 1t-2 1h-12q-13 0 -45 -4q-1 0 -4.5 -1t-5.5 -1h-8q-12 -4 -17 -4q-7 -2 -45 -2h-43q-9 1 -23 4t-20 4h-96q-57 4 -86 0q-29 0 -41 4q-4 0 -12 4q-12 -2 -35 -2q-1 0 -43 -6q-9 -2 -26.5 -2.5t-22.5 -1.5 q-30 -4 -45 2q-10 4 -31 4h-4q-29 0 -43 2q-4 0 -11.5 -1t-11.5 -1q-3 0 -9 1t-9 1q-8 4 -8 12q2 35 2 107v75q0 11 2 17q0 6 8 6q13 10 43 6h49q46 -4 68 -4q79 7 131 0q18 0 28 -2q4 2 13 2q11 0 34.5 1t36.5 1q61 4 90 2q18 0 46 4h41q8 0 23 -1t22 -1h38q6 1 18.5 6 t18.5 6q31 4 45 2q30 -5 35 -4q14 2 45 2q11 -1 30.5 -2.5t35.5 -2.5t31 -1q11 0 14 -6q2 0 6 -4q6 4 12 1t6 -11t2 -12q0 -2 -2 -6.5t-2 -6.5q1 -1 3.5 -2t3.5 -2q4 -12 2 -18z" />
<glyph unicode="&#x3e;" horiz-adv-x="1064" d="M1024 561v-53q7 -9 2 -21t-18 -12h-2v-2q-2 -1 -5.5 -3t-5.5 -3q-16 -12 -26 -14q-14 -9 -19 -11q-15 -5 -16 -6q-34 -17 -49 -22q-5 -2 -22 -7t-25 -10q-34 -13 -47 -16q-32 -8 -48 -14q-5 -2 -17.5 -8.5t-20.5 -8.5q-7 -3 -21.5 -8t-21.5 -8l-44 -19q-18 -7 -47 -14 q-3 -1 -20 -4.5t-25 -7.5l-49 -19q-28 -12 -45 -14q-11 -3 -40.5 -13.5t-45.5 -13.5q-13 -4 -47 -8q-16 -2 -43 -10q-17 -6 -48.5 -13.5t-37.5 -9.5q-7 -2 -22.5 -8t-22.5 -8q-16 -4 -23 -4q-2 -2 -6 -2q0 -1 -1 -3t-1 -3q-5 -10 -12 -10q-10 -3 -17 5t-2 17q5 8 5 37 q-3 27 0 53v62q0 39 2 57q0 4 2 4q0 8 10 8q-6 9 6 13q8 4 26 5t19 1q30 4 43 10q56 16 78 29q41 17 43 18q7 2 21.5 4t21.5 4q26 4 39 8q18 6 33 15q13 5 40 17.5t40 17.5l75 30q12 5 34.5 17.5t33.5 17.5v2h-2q-6 3 -17.5 9.5t-17.5 9.5q-21 6 -39 12q-39 11 -41 12 q-18 6 -39 12q-6 2 -18.5 7.5t-18.5 7.5q-24 8 -36 14q-2 1 -17 7.5t-22 11.5q-29 17 -31 18q-23 8 -37 10q-6 2 -18.5 7.5t-18.5 7.5q-46 13 -82 26q-7 2 -18 8.5t-15 8.5q-17 3 -26 8q-32 -5 -43 4q-12 8 -12 33v96q0 12 -5 74q0 43 17 45q10 3 18 -9h4q17 -5 43 -16 q5 -3 20 -6.5t23 -7.5q9 -7 37 -15q27 -11 33 -12q29 -11 45 -20q21 -10 37 -15q50 -10 88 -28q5 -2 14.5 -6.5t14.5 -6.5q10 -2 26 -6q3 0 33 -6q10 -2 31 -2q6 -1 28 -10q4 -2 15 -2q3 -1 8 -3t8 -3q52 -26 62 -29q13 -4 36 -11.5t35 -11.5q25 -8 35 -10q12 -4 19 -4 q2 -1 8.5 -2t9.5 -2q19 -8 33 -16q26 -10 30 -17q5 -5 5 -8l7.5 -2.5t8.5 -2.5t8 -1q6 -1 19.5 -2t19.5 -2q4 -1 16.5 -5t18.5 -6q12 -3 22 -8q-2 1 0 1l4 -1q3 -1 13 -6q14 -5 14 -33q3 -22 -4 -49v-88z" />
<glyph unicode="?" horiz-adv-x="1017" d="M911 1110q4 -24 4 -41q0 -15 -4 -51q-2 -12 -10 -45q-2 -7 -5 -23.5t-5 -23.5q-3 -12 -17 -39q-11 -26 -22 -39q-1 -1 -23 -29q-9 -16 -32 -35q-16 -20 -35 -32q-3 -3 -21 -15q-3 -2 -8 -7t-8 -7q-12 -10 -37 -18l-20 -10t-25 -9q-10 -4 -29 -4q-2 -10 -2 -33 q0 -21 -4 -61q-1 -5 -2 -15.5t-2 -15.5q-2 -8 -2 -27q0 -11 -10 -16.5t-21 0.5h-18h-27q-14 -2 -47 -2q-35 0 -53 2h-2q-10 -2 -31 -2q-16 0 -22 2h-25q-12 0 -16 12q-2 6 -2 41q0 2 1 6t1 5v10q2 6 2 18q0 33 2 49q0 31 -2 45v43q-2 14 -2 43q0 21 2 29q-2 10 -2 29v22v4 q0 5 2 7q0 13 8 16q8 4 17.5 5t22 0.5t19.5 0.5q36 4 52 10q17 4 24 9q18 4 23 8q16 9 45 20q22 6 41 19q16 9 24 26q11 18 17 41q2 8 4 23.5t2 17.5v51q0 8 -3.5 22t-4.5 19q-1 2 -2.5 7t-2.5 6q-4 4 -12 16l-14 14q-11 11 -14 13q-34 17 -37 18q-14 6 -39 6h-21 q-8 -4 -12 -8q-2 -1 -7 -4t-7 -4t-6.5 -2t-6.5 -2h-7q0 1 3 2q-2 -1 -7.5 -2t-8.5 -6q-2 -2 -12 -17q-7 -10 -15 -33q-7 -39 -6 -43q2 -6 2 -14t-1 -17t-1 -14q0 -13 -12.5 -15.5t-18.5 7.5q-6 0 -22 4q-11 0 -31 -4q-2 0 -7.5 -1t-8.5 -1q-2 -1 -8.5 -1t-8.5 -1 q-20 -4 -30 -4q-5 0 -17 -4h-16q-3 0 -9.5 -1t-9.5 -1q-4 2 -12 2q-8 2 -25.5 5t-25.5 5l-2 -2q-4 0 -4 -2q-8 -2 -14 3.5t-3 12.5q0 11 2 15q-2 10 -2 30q0 1 5 21q0 10 2 14q1 6 5 17.5t5 17.5q0 1 3.5 9.5t4.5 13.5l6 18q3 9 6 21q6 10 9 20q3 6 9 19.5t9 19.5 q10 25 25 39q5 5 15 14t15 14t16.5 15.5t16.5 15.5q27 22 37 23q2 2 6 2v-2q17 13 25 16q2 1 6 2t6 2q4 4 10 4q4 1 17.5 3t23 5t16.5 7q3 1 8.5 3t8.5 3q2 2 18 2h33q6 0 18 -2t17 -2q6 0 17.5 1t17.5 1q3 0 8 -1t8 -1q8 0 16 -4q18 0 27 -9q2 0 5 -1t5 -1q13 0 19 -4h6 q2 -2 6 -2q2 -1 6 -2t6 -2q14 -5 19 -8q2 -2 5 -4t5 -4q2 0 6 -4q16 0 25 -6q23 -10 41 -39q2 -2 2 -4l2 -3l4 -2q12 -8 16 -12l10 -10q10 -5 15 -10q2 -2 5 -7.5t5 -7.5q8 -6 14 -14q2 -3 5.5 -9t5.5 -9q7 -7 10 -13q1 -2 4.5 -8t5.5 -8q4 -8 19 -33q8 -12 13 -26t9.5 -32 t7.5 -28q4 -16 4 -47zM623 215q10 -25 10 -63q0 -5 -2 -15.5t-2 -15.5q0 -7 -4 -19l-7 -14q-11 -23 -18 -31q-2 -2 -6 -7t-6 -7l-10 -10q-4 -4 -8.5 -8t-10.5 -7.5t-8 -5.5q-7 -5 -25 -16q-4 -4 -10 -4l-4 -4q-9 -6 -20 -6q-2 -1 -7.5 -3t-8 -2h-7.5q-3 0 -10 1.5t-10 1.5 q-33 0 -50 10q-1 1 -9.5 7t-10.5 11l-8 8q-12 4 -15 15q-2 0 -2 2q-14 9 -18 18v2q-17 13 -23 29q-2 5 -8 29v6q-2 6 -2 16q-1 2 -2 5t-2 5v31q1 4 2 12.5t2 12.5q3 26 21 51l8 8t8 10q1 1 10 6q1 1 2 2.5l2 3t2 1.5q5 5 11 8q8 19 36 26q3 1 11 2t10 2q18 11 31 11 q28 0 34 -2q5 -1 14.5 -2t14.5 -2q20 -2 53 -23q30 -16 41 -45q8 -18 11 -41z" />
<glyph unicode="@" horiz-adv-x="1476" d="M1434 936q4 -25 4 -72q0 -10 -1 -20.5t-2.5 -23.5t-2.5 -21q-1 -9 -3.5 -37t-4 -42t-4.5 -36.5t-7 -40.5t-10 -35q-13 -44 -35 -92q-2 -5 -9.5 -19.5t-10.5 -23.5q-3 -6 -9 -19t-8 -18q-4 -6 -12 -17.5t-12 -17.5q-2 -4 -29 -36q-16 -16 -18 -17q-14 -7 -15 -8 q-12 -9 -39 -21q-3 -1 -10 -3t-10 -3q-2 -1 -9 -1.5t-10 -2.5q-10 -6 -34 -14q-9 -5 -23 -8q-15 0 -23 2h-6q-32 -4 -55 4q-6 2 -22 6.5t-24.5 7.5t-18.5 10.5t-15 18.5q-2 4 -14 41q-1 1 -2 4t-2 4q-14 -19 -41 -33q-39 -22 -80 -37q-12 -4 -37.5 -18t-40.5 -18 q-12 -3 -51 -3q-7 1 -21.5 2.5t-21.5 2.5q-25 2 -84 28q-7 3 -21.5 10.5t-21.5 10.5q-29 17 -37 26q-37 41 -51 66q-26 59 -33 82q-2 9 -11.5 38.5t-10.5 47.5q-1 8 0.5 23t1.5 18q0 29 2 43q0 4 1 11t1 11q0 15 2 21v2q0 6 2 10q0 7 4 19q4 26 27 79q3 6 7 19.5t7 19.5 q3 8 16 39q14 28 25 37q6 3 13 13t9 12q11 5 15 12q2 2 6 8t6 8q15 10 18 11q2 1 9 8q15 15 38 28q5 2 18 8.5t21 8.5q5 2 18 8t21 8q24 12 41 12q9 0 17 -8h10q12 2 33 -2q18 0 26 -2q3 -1 12 -2t13 -2q5 -1 14.5 -4t14.5 -4q24 -9 51 -21q37 -12 53 -28q3 -2 8 -7.5 t8 -7.5q12 -6 17 -16q2 -2 5 -7t5 -7q1 -2 4 -6.5t4 -6.5q4 12 4 17q2 11 7.5 30t7.5 27q5 25 6 29q1 2 2 5.5t2 4.5l4 4q1 4 7 5.5t9 -1.5l2 2h4q10 0 13 -6q16 -4 22 -4q6 -1 13.5 -1t17 0.5t14.5 0.5q22 0 25 -16q5 -14 0 -41q-8 -29 -10 -41q-3 -12 -6 -27 q-1 -3 -2.5 -10t-2.5 -10q-3 -20 -10 -45q-6 -25 -20 -95q-6 -32 -17.5 -95.5t-17.5 -94.5q-1 -7 -3 -22.5t-3 -22.5q-1 -8 -1 -24t-1 -23q-4 -24 -2 -39q0 -3 -0.5 -10t-0.5 -13.5t1 -11.5q5 -10 18 -12h25q12 8 16 10q12 8 14 10q1 2 4.5 7.5t4.5 7.5l16 14q8 12 12 16 q2 2 7.5 6.5t7.5 6.5q4 5 11 15t11 15q33 42 45 64q12 35 12 37q1 6 2.5 21.5t2.5 21.5q6 29 14 94q4 34 2 51q0 7 2 20.5t2 20.5q0 8 -3.5 22t-4.5 19q-4 16 -4 27q-1 4 -4 13t-4 13q-5 15 -17.5 42.5t-17.5 39.5q-6 21 -15 39q-5 10 -20 35q-8 16 -23 31q-21 21 -26 24 q-5 5 -18.5 11.5t-14.5 7.5q-14 11 -35 18l-18 12l-8 4q-12 4 -17 9q-2 1 -7 4t-7 4l-21 14q-12 8 -18 10q-1 1 -16 11q-5 4 -15 8l-5 2h-1h-10q-12 4 -19 4q-14 2 -45 2q-65 0 -96 4q-3 1 -13 2t-14 2h-4q-16 -4 -22 -4h-10l-2 2q-4 -4 -15 -4q-32 -8 -49 -8q-8 0 -21 -3.5 t-18 -4.5q-10 0 -16 -4q-3 -1 -9.5 -4.5t-9.5 -4.5q-6 -3 -18.5 -8t-18.5 -8q-5 -2 -15 -8t-15 -8l-2 -2q-4 -3 -11.5 -10.5t-11.5 -10.5q-10 -10 -26 -18q-1 -1 -3.5 -4t-4 -4.5t-3.5 -2.5l-9 -12t-11 -14t-10 -10q-6 -6 -19.5 -15.5t-17.5 -13.5l-8 -8q-2 -4 -11 -13 q0 -4 -6 -10q-1 -3 -1.5 -8t-1.5 -9t-3 -7q-8 -10 -14 -23q-2 -5 -7.5 -15.5t-7.5 -15.5l-4 -6v-4q-1 -1 -2 -4t-2 -4q-2 -6 -10 -14v-2q-1 -1 -2 -3.5t-2 -3.5q-4 -16 -8 -24q-13 -22 -15 -33q-2 -16 -10 -43q-8 -60 -16 -88q0 -3 -2 -11t-2 -12v-18q0 -7 -1 -20.5 t-1 -20.5v-43q0 -6 1 -18.5t1 -18.5q0 -4 1 -12t1 -12q12 -29 12 -31q2 -14 10 -37q2 -16 10 -39q1 -2 3.5 -5t3.5 -5q19 -32 20 -33q17 -10 20 -27l5 -2q2 -1 5 -3t5 -3q3 -3 7.5 -8.5t6.5 -7.5q12 -16 17 -21q1 -3 12 -14q27 -27 37 -41q20 -25 26 -31q2 -2 8.5 -7.5 t8.5 -8.5t7 -8t7 -8q2 -1 14 -11.5t19 -15.5q25 -25 74 -43q13 -6 43 -10q3 0 45 -6q28 -4 45 -4q9 0 27 -3.5t22 -3.5t10.5 -1t9.5 -1h25q7 0 22.5 -2t22.5 -2q14 0 28.5 -1t32.5 -2.5t29 -2.5h37q8 2 23 5t22 5q59 18 78 29q3 2 14.5 11t18.5 12q23 7 41 -5q4 -2 22 -20 q4 -4 6 -4q2 -2 8.5 -5t8.5 -5q5 -2 14 -15q1 0 2 -1t2 -1l6 -6q2 -1 7 -2t7 -2q13 -5 15 -6q2 0 6 -4q2 0 6 -4q12 -3 11 -18t-13 -17l-2 -2q-5 -3 -12 -5t-11 -5q-12 -8 -24 -11q-3 -1 -13.5 -1.5t-15.5 -2.5q-4 -1 -22 -10q-79 -39 -115 -49q-6 -2 -17.5 -6t-21 -7 t-18.5 -6q-32 -8 -54 -8q-41 0 -61 2h-10q-2 -1 -7 -2t-8 -2q-6 -1 -18 -2t-18 -2q-12 -2 -37 -2q-21 -4 -33 -2q-5 0 -41 6q-4 1 -12.5 2t-12.5 2l-18 6q-20 4 -31 4q-5 1 -14 2.5t-14 2.5q-13 0 -29 8q-18 6 -21 8q-2 1 -5 3t-5 3q-1 1 -4.5 2t-5.5 2h-2q-4 0 -6 2 q-14 2 -35 15q-6 3 -15.5 8t-15.5 8q-4 1 -11.5 7t-10.5 7q-28 9 -68 33q-18 14 -29 18q-4 3 -14 7.5t-14 7.5q-2 2 -7.5 5t-7.5 5q-8 4 -10 8q-2 0 -2 2q-13 6 -27 17q-27 19 -55 47q-26 22 -51 71q-12 24 -33 88l-18 44q-1 2 -13 38q-3 7 -9 22.5t-9 22.5t-7 21.5t-7 21.5 q-17 62 -17 86q0 15 -1 31t-2.5 35.5t-2.5 30.5q0 8 1 24t1 23q2 16 2 45q2 29 19 96q1 7 4.5 28t7 34.5t8.5 25.5q2 8 7.5 21t7.5 18q9 23 22 39q37 41 49 66q16 32 19 39q1 3 7 17t11 21l12 19q2 3 6.5 8t6.5 8q17 21 26 27q24 14 29 22q17 21 31 27q5 2 15 8t15 8 q6 3 18.5 8.5t18.5 8.5q12 7 47 20q5 2 16.5 7.5t16.5 7.5q7 4 21 8q3 1 11.5 4t14.5 4q14 7 29 10q3 0 10.5 1t11.5 1q6 1 25 11q1 0 11.5 2t15.5 4q24 6 26 6q1 0 2 -1t2 -1q3 1 8.5 3t8.5 3q18 6 59 10l68 6q5 0 15 1t15 1q4 0 12.5 -1t12.5 -1t13 -2t12 -2q18 0 28 -2 q5 -2 27 -8h29q55 -8 84 -31q30 -4 43 -10q5 -1 13 -4t9 -4q6 -1 14 -4t11 -4q28 -13 43 -33q3 -4 13 -18t17 -21q6 -6 19.5 -16.5t19.5 -16.5q14 -9 17 -14l14 -21q11 -14 18 -34q6 -9 15 -15q2 -3 5 -8t6 -9t7 -7q1 -2 3.5 -5.5t4 -5.5t2.5 -4q1 0 3.5 -1.5t6.5 -3.5t5 -3 q12 -12 18 -27q5 -10 14.5 -31.5t14.5 -31.5q8 -25 10 -35q7 -18 10 -35q0 -5 3 -14.5t4 -13.5q1 -5 2 -15.5t2 -15.5zM938 727v47q-1 7 -1 21.5t-1 21.5q-10 42 -31 68q-2 0 -4 2q-4 0 -12 4q0 2 -2 2h-4q-18 4 -29 10l-12 6q-4 2 -13 2q-4 1 -13 4.5t-13 4.5 q-32 12 -51 12h-33h-29h-2q-6 -6 -26 -21q-3 0 -7 -4q-12 -6 -32 -22q-4 -4 -7 -4q-1 -2 -3 -5.5t-3 -5.5q-4 -5 -10 -15t-10 -15q-6 -6 -8 -13q-2 -4 -8 -8.5t-7 -5.5q-7 -7 -16 -29q-16 -46 -16 -71q0 -12 -3 -21v-10q0 -15 -4 -39q-4 -23 13 -65q19 -43 32 -56 q7 -7 21.5 -24t23.5 -25q6 -2 18.5 -5t18.5 -5q17 -5 37 -2l49 6q18 2 45 10q29 4 41 10q6 4 17.5 11.5t17.5 11.5q16 8 17 10q6 6 8 10q11 19 16 33q2 6 7.5 19.5t7.5 19.5q1 6 5 18.5t5 18.5q1 7 6 47q4 24 4 41z" />
<glyph unicode="A" d="M1329 51q10 -12 3 -28t-25 -9q-11 4 -29 4.5t-29.5 -0.5t-35 -4.5t-27.5 -3.5q-27 -6 -58 -2q-3 0 -13.5 1.5t-19 1.5t-12.5 -3q-12 -9 -30 4q-13 13 -13 37q-10 17 -10 33q-1 24 -22.5 75.5t-24.5 73.5v5l-6 12q-5 7 -13 22.5t-10 18.5q2 5 -1 9.5t-9 4.5 q-142 -7 -242 0q-16 1 -45.5 -4.5t-44.5 -5.5q-18 -1 -56.5 5t-61.5 3h-7v-2q-9 -6 -6 -12q-37 -106 -84 -193q-4 -4 -6 -8q-4 -22 -12 -33q-3 -24 -14 -35q-16 -13 -35 -10q2 -2 -3.5 -4.5t-11.5 -3.5l-6 -2q-13 0 -49.5 4t-56.5 2q-59 -7 -103 4q-9 0 -12.5 10t2.5 23 q4 0 4 4q-7 28 17 49q0 2 4 10q1 2 3.5 11.5t4 14t4.5 11.5t7 12t9 9h2q5 21 13 56.5t10 41.5l12.5 50t14 53.5t14.5 48t18 51.5q92 231 152 436q22 78 83.5 211.5t78.5 177.5q11 42 39 84q1 10 4 28.5t4 22.5q4 11 12 15q15 4 32 5t38 0.5t32 0.5q45 7 82 4q23 -3 37 -27 q19 -10 35.5 -42t20.5 -46q105 -246 159 -444q17 -60 69.5 -202t70.5 -226q0 -3 18 -70q8 -19 28 -54t27 -50q19 -37 39 -116t37 -114q4 -4 4 -6zM717 549q28 -6 117 -6q-14 37 -21 53q-41 116 -68 235q-18 33 -40 93q-22 -66 -65.5 -190t-61.5 -177q68 3 139 -8z" />
<glyph unicode="B" horiz-adv-x="1122" d="M948 621q54 -78 75.5 -139.5t4.5 -137.5q-33 -150 -162 -254q-20 -18 -55 -45q-7 -4 -25 -8t-24 -6q-22 -10 -88 -19q-5 -1 -14.5 -4t-14.5 -4q-35 -11 -133 -6q-74 0 -96 6q-86 -9 -111 -8q-19 1 -59 -3.5t-63.5 -5.5t-57.5 7q-7 5 -5.5 10.5t7.5 7.5v2q6 27 6 60.5 t-2.5 72.5t-1.5 62q0 29 -3 89t-3 89q0 16 -1.5 64t-1.5 71.5t0.5 62.5t2.5 71.5t6 64.5v2q-1 23 -2.5 64t-2.5 74.5t-1 62.5v170q0 13 1 52t0.5 65.5t-5.5 50.5q-18 88 6 143q-8 4 -8 10v2q3 10 12 10h2q2 0 4 -2q57 7 146 -4q8 -1 44 -7t52 -5q12 1 43.5 4.5t50.5 3.5 q58 0 87.5 -1t82.5 -10.5t86 -29.5q42 4 74 -36.5t55 -108.5q21 -32 29 -64q18 -82 16 -116q1 -19 -2.5 -43.5t-6.5 -37.5t-11.5 -46t-10.5 -39q-13 -51 -75 -113q13 -6 35 -18t28 -15q22 -13 36.5 -30.5t29.5 -46t24 -41.5zM575 242q67 17 110 58.5t40 107.5 q-5 115 -51 151q-29 26 -103 37q-12 1 -35 7.5t-34 8.5q-21 2 -61 2.5t-52 1.5q2 -34 2 -71.5t-1 -83t-1 -70.5q1 -19 2.5 -53.5t2.5 -62.5t1 -52q8 -1 21.5 -2.5t25 -2.5t21.5 -1q19 1 36.5 4.5t41.5 11t34 9.5zM395 1186q12 -87 6 -174q-1 -12 -1.5 -49.5t-2.5 -57.5 q0 -3 -3 -35.5t-3 -48.5q105 0 144 10q79 19 79 140q2 58 -20.5 118.5t-71.5 69.5q-21 4 -63.5 13.5t-63.5 13.5z" />
<glyph unicode="C" horiz-adv-x="1171" d="M1061 113q2 -10 2 -33q0 -6 -2 -8t-2 -4q-1 -7 -7 -11t-12 -2q-8 -4 -12 -2q-3 -1 -8 -4t-8 -4q-18 -6 -39 -12q-57 -18 -76 -21q-3 0 -35 -6t-49 -6h-31q-20 0 -32 -2q-54 -6 -56 -6q-5 1 -14.5 -0.5t-13.5 -1.5q-18 -4 -29 2q-6 0 -14 4q-8 -4 -17 2q-1 1 -4 3t-4 3 q-4 1 -12 2t-13 2q-21 0 -32 8q-10 7 -29 15q-11 0 -31 8q-29 8 -41 10l-30 6q-12 6 -17 11l-10 10l-4 4q-10 5 -21 16q-2 1 -6 3.5t-9 6.5t-7 5q-4 3 -11.5 10t-11.5 10q-78 67 -92 82q-40 46 -41 47q-8 12 -12 16l-6 13q-14 19 -17 26q-2 8 -10 29q-8 10 -16 27 q-15 27 -25 57q-5 15 -19.5 40t-19.5 38q-8 22 -12 90q-1 5 -2.5 15t-2.5 18t-1 14q-2 16 -2 45v51q0 6 2 17.5t2 17.5q0 3 1 9.5t1 9.5q-3 29 0 59q2 6 2 20q0 17 2 25q2 5 12 35q2 6 5.5 19.5t5.5 19.5l12 37q25 63 31 75q13 35 36 76q12 20 23 31q15 12 27 27q8 10 28 30 q9 9 21 25q0 8 2 12l4 6q1 0 0 -2q3 10 14 10q4 3 11.5 9.5t11.5 9.5q20 16 30 26q13 10 39 28t39 28q23 16 41 20q3 1 10.5 2t10.5 2q15 5 18 7q38 16 45 18q4 1 11.5 2t11.5 2q14 0 20 2q17 9 41 12q6 1 13 3t14.5 5.5t11.5 4.5q35 13 82 6q7 -2 47 -2q31 0 47 -2 q6 -1 41 -6q6 -1 17.5 -3.5t17.5 -3.5q28 -2 78 -26q48 -27 57 -37q4 2 12 -2q3 0 3 -6q4 -16 4 -29q0 -25 2 -37q2 -15 2 -86v-92q0 -29 2 -43q4 -28 4 -41q-3 -12 -12 -12q-3 -6 -11 -2q-13 7 -26 28q-18 22 -35 33q-1 1 -35 29q-2 0 -6 4h-6q-20 7 -29 22q-2 2 -10.5 10 t-14.5 11.5t-12 5.5q-8 4 -24 8h-11l-4 4q-8 0 -16 4q-2 1 -8 2.5t-8 2.5q-14 2 -39 2q-7 0 -21.5 -1t-21.5 -1v-5q-33 0 -49 -2q-51 -6 -91 -30q-19 -13 -20 -13q-4 -2 -12.5 -5t-12.5 -5q-4 0 -8 -2l-10 -10q-32 -26 -64 -70q-16 -20 -24 -35q-4 -5 -11.5 -16t-11.5 -16 q-22 -26 -28 -37q-3 -6 -8.5 -18.5t-8.5 -18.5q-6 -18 -6 -21q-2 -6 -2 -18q-3 -8 -8 -16q-1 -3 -3 -11.5t-3 -11.5q-1 -6 -11 -47q0 -6 -4 -14q1 -8 2 -23.5t2 -23.5l7 -56q3 -16 9 -47t9 -47q1 -9 12 -41q1 -4 4.5 -11t4.5 -11q3 -8 10 -19q4 -6 12 -19.5t12 -19.5 q3 -7 12.5 -19t12.5 -16q1 -1 6.5 -8t7.5 -12q4 -12 8 -16q3 -4 7 -8.5t9.5 -9t8.5 -7.5q11 -11 31 -27l30 -24q32 -18 78 -35q6 -2 36 -15.5t48 -13.5h92q7 0 11 -4h2q5 2 17.5 5t17.5 5q26 13 40 17q16 3 33 10q13 6 31 21q3 4 23 24q23 18 28 27q18 22 29 28 q9 5 17.5 1.5t11.5 -13.5l2 -2q6 -20 6 -86q0 -29 2 -43q0 -6 1 -18.5t1 -18.5q0 -51 -2 -76q0 -8 4 -32z" />
<glyph unicode="D" horiz-adv-x="1275" d="M1198 827q3 -23 0 -45v-41t-4 -51q-1 -6 -1 -19.5t-1 -19.5q0 -14 -2 -22q-2 -6 -2 -21q-2 -10 -5 -29.5t-5 -29.5q2 -2 2 -6q-1 -6 -4.5 -16t-4.5 -13q-2 -10 -28 -80q-1 -3 -4 -9t-4 -9q-3 -7 -8.5 -21.5t-8.5 -21.5q-14 -32 -20 -43l-25 -37q-2 -5 -14 -29 q-8 -12 -12 -16q-6 -12 -15 -27q-20 -38 -57 -65q-2 -1 -15.5 -10.5t-21.5 -14.5q-3 -2 -16 -7.5t-19 -10.5q-39 -26 -86 -41q-26 -7 -84 -33q-51 -25 -88 -27q-15 -2 -48 -1.5t-46 -2.5q-34 -10 -45 -8q-14 2 -33 10h-20q-5 0 -13 4h-37q-46 0 -69 4h-35q-7 -1 -18 -4 t-15 -4q-32 -5 -69 -2q-6 1 -19 2t-20 2q-5 -8 -17 -8q-19 0 -22 21q-3 6 0 12q-1 0 -1 37l1 37q0 14 -2 38.5t-2 38.5v88v46q0 5 -1 16t-1 16v170q0 12 1 37t1 37q0 6 -2 18.5t-2 18.5q-2 12 -2 37v190q0 17 4 49q2 14 2 43q-4 62 -4 95q0 35 -7 86q0 7 -2 22.5t-2 22.5v47 v100q0 35 2 51v33q-3 4 -0.5 12t9.5 9h2q2 2 6 2q25 4 37 2q7 0 20 -3t19 -3q29 0 51 -5q3 -1 9.5 -2t10.5 -2q15 0 23 2q17 0 78 9q29 4 86 4q39 3 77 0q33 -4 93 -17.5t71 -15.5q30 -7 76 -25q1 0 3 -1t3 -1q9 4 25 -8q8 -5 24.5 -12.5t24.5 -12.5q4 -2 43 -36l8 -4 q23 -14 47 -35q39 -28 45 -33q19 -15 37 -37q17 -17 21 -27q16 -16 26 -22q16 -8 19 -21l2 -4v-4q2 -2 6 -10l6 -12q11 -20 18 -43q2 -4 5.5 -13.5t5.5 -13.5q14 -16 24 -37q15 -31 21 -63q7 -33 10 -60v-24q0 -5 4 -17zM918 709q0 8 -1.5 24.5t-1.5 24.5q-1 8 -1 23t-1 22 q0 43 -12 90q-13 40 -14 41l-19 43q-11 29 -20 45q-3 5 -8 10.5t-12.5 11.5t-10.5 9q-24 30 -26 32q-3 2 -8 6t-7 5q-6 2 -18 10q-4 4 -17 8q-1 0 -8 2t-12 4q-4 2 -39 25q-11 6 -43 20q-23 9 -31 17q-8 4 -24 8q-2 1 -6 2t-5 2q-2 2 -8 2q-2 0 -2 -2q-12 -12 -31 0l-12 4 q-3 0 -9.5 1t-10.5 1t-12 0.5t-15 0.5t-12 -1q-14 -2 -45 -2q-17 0 -25 2v-12q0 -11 4 -27q1 -9 1 -27t1 -26q8 -44 4 -107q0 -33 1 -97t1 -97v-98q0 -56 5 -95q2 -16 2 -47q0 -6 2 -18.5t2 -18.5v-96q0 -65 2 -98q0 -20 -4 -70q7 2 20 -2q30 -6 33 -6q5 0 11.5 3t14 8 t11.5 7q5 3 19 3t20 2q12 0 18 2q16 4 23 4q19 0 34 6q27 15 43 20q6 2 19 4.5t18 4.5q8 4 22 10t19 8q14 7 15 8q2 2 6 7t6 7q5 6 35 31q3 2 14 12t18 15q22 19 37 43l13 26q5 10 14 37q4 8 7.5 25t4.5 20q11 33 11 39v99z" />
<glyph unicode="E" horiz-adv-x="948" d="M858 180q-2 -1 -1 -39t1 -39q0 -29 -2 -43q0 -6 -1 -19.5t-1 -19.5q0 -11 -11.5 -13.5t-17.5 5.5q-5 -3 -9.5 -3.5t-12.5 0.5t-12 1l-3 2q-6 -2 -16 -2h-70h-32q-4 0 -10.5 -1t-10.5 -1h-16q-18 -6 -35 -6q-8 0 -14 2q-2 0 -6.5 -1t-6.5 -1q-1 0 -13 1.5t-13 -1.5 q-4 -2 -8 2q-12 -2 -41 -2h-86q-7 0 -22 -1t-23 -1h-43q-32 0 -46 -2q-24 -3 -45 -6q-8 0 -24.5 1t-24.5 1q-2 0 -19.5 2t-25.5 4q-9 3 -6 10q-12 4 -12 13q-3 14 -3 39t-3 38q-4 16 -4 23q0 14 2 20q1 6 1 19.5t1 19.5q0 7 2 20t2 19v41q4 12 4 37q2 12 2 41q0 70 2 84 q0 6 1 17.5t1 17.5v39q6 81 6 84q0 26 -4 88q-2 33 -2 98q-1 17 -2 49.5t-2 48.5q-10 82 -10 99v51v43q-1 4 -4 21t-3 26v43q0 17 1.5 48t1.5 48q0 63 4 94q1 6 2 18.5t2 18.5v23l-2 2v4q-5 7 0 16q0 13 12 13q14 0 23 -9l2 -2q12 -4 16 -4q1 0 17 3t24 3q12 2 37 2 q20 -4 26 -4q0 -1 40 -1l40 1h43q5 0 16 -2t17 -2q1 1 4 3t4 3q6 2 21 2q11 0 26 3q9 2 37 -3h33q16 1 42 -4t34 -6q21 -3 39 0q2 0 12 3t16 3q22 12 43 15q7 0 20.5 -1t20.5 -1q8 0 23 -2t22 -2h2l2 2q9 6 20.5 -2.5t8.5 -20.5q-4 -4 -4 -8q0 -6 -2 -8q0 -4 1 -11t1 -10 q0 -12 -1 -33t-1 -32q0 -5 -1 -15.5t-1 -15.5q0 -4 4 -12v-17q0 -20 2 -28q2 -10 2 -31q4 -8 -2 -14q-11 -18 -45 -9q-3 0 -10 2t-10 2q-13 3 -25 0q-35 0 -53 -2q-23 0 -47 7q-82 10 -101 10q-4 0 -13.5 1t-14.5 1q-7 0 -9 -2q-4 0 -11.5 -1t-10.5 -1q-13 0 -19 -2 q-6 -4 -22 -4h-12q-1 0 -7 -2q-3 -1 -6.5 -1t-7.5 0.5t-6 0.5h-20v-43q0 -83 -3 -111q-4 -36 -4 -57q0 -40 -2 -60v-22q5 -1 13 -4.5t10 -4.5h22q16 -4 27 -4q17 -2 49 2q18 2 103 2q38 0 47 -4h4q10 4 33 4q14 -2 45 -2h53q19 3 26 -18q5 0 9 -8q0 -4 2 -12t2 -11 q2 -8 2 -24q-2 -16 -2 -49v-97q0 -10 -8 -14q-5 -8 -13 -10t-16 2h-2h-12h-23q-9 0 -25 4q-8 4 -16 4q-5 0 -13.5 0.5t-16 0.5t-13.5 -1q-28 -8 -41 -8q-29 0 -43 2q-29 0 -45 2q-9 0 -33 -4h-20q-24 -6 -29 -6q-29 -4 -51 2q-2 2 -6 2h-2q-4 -2 -15 -2q-2 -2 -4 -2 q0 -8 1 -25t1 -25q4 -82 4 -122q5 -102 5 -125v-64q0 -1 1 -4t1 -4q1 0 4 -1t4 -1q3 0 7.5 1t6.5 1q5 0 19.5 -1t25 -0.5t19.5 3.5q14 7 28 4q5 0 14.5 -1t14.5 -1q18 0 22 2q15 4 23 -2h29q3 0 14.5 -1.5t17.5 -0.5q35 3 66 0h35h28q36 8 54 6q8 0 8 -8q9 -7 11.5 -20 t0.5 -34zM418 631q2 0 -2 -2q2 0 2 2z" />
<glyph unicode="F" horiz-adv-x="892" d="M823 1434q12 1 15.5 -11t-4.5 -20v-2q-3 -6 -3 -8v-88q0 -33 3 -60q0 -10 -3.5 -29.5t-3.5 -29.5q0 -5 -4.5 -10t-11.5 -5q-4 0 -10.5 2.5t-9.5 2.5q-6 -1 -15.5 0.5t-11.5 1.5q-8 1 -28 -0.5t-29 0.5q-21 4 -62 0h-29q-20 -4 -28 -4q-12 0 -33 -2.5t-31 -2.5t-30.5 -2 t-30.5 -2q-9 0 -27.5 1t-27.5 1q-4 2 -13 2q2 -18 2 -51l6 -110q0 -19 2.5 -57.5t2.5 -57.5q-2 -8 -2 -25h2q5 0 15 1t15 1q3 0 9.5 -2t9.5 -2h28q4 0 13.5 -1t13.5 -1q9 0 29 8h26q5 -1 13.5 0.5t11.5 1.5q15 3 33 3h57q16 0 31 -3q3 0 10 -1t10 -1q4 0 12.5 1t12.5 1 q2 0 5.5 -1t4.5 -1t2 -1t2 -1q4 11 18 7.5t15 -15.5q0 -46 -2 -69q0 -5 -1 -14.5t-1 -14.5v-82v-29q0 -15 -10 -18q-15 -4 -46 4q-16 2 -55 2q-20 -2 -59 -2q-9 0 -26.5 2t-26.5 2q-10 1 -28 -3.5t-26 -4.5q-35 0 -51 2q-35 0 -51 -4q-6 -4 -23 -4q7 -55 7 -144v-123 q0 -5 2 -14t2 -14q2 -14 2 -84v-80q1 -13 2 -38.5t2 -39.5v-53q0 -4 -2 -8q5 -4 3 -11t-9 -10h-5l-4 -4q-8 -8 -22 -8q-7 0 -19 -4q-20 -4 -32 -4q-7 0 -23 -4q-4 0 -12 2t-12 2q-2 0 -7.5 1t-7.5 1q-5 5 -8 2q-22 -6 -41 2h-31q-3 0 -10 1t-10 1h-2q0 -2 -4 -2 q-6 -5 -16.5 -3.5t-14.5 9.5q-6 9 -6 21q0 8 -2 12q-2 7 -2 43q0 30 8 88q4 29 4 88v14q0 6 -2 8v95q0 17 4 45q2 32 -2 96q-4 66 -4 98v92q0 7 -2 21.5t-2 21.5q2 14 2 46q0 15 1 46t1 46v49q0 14 2 20v4q0 3 -3 20t-3 25v50q1 16 2 50t2 50q0 32 -4 94v90q0 8 1 25.5 t1 25.5v23q2 2 2 8q1 0 3 2h1v4q1 2 8 9q7 1 19 -2.5t18 -2.5h47q22 -3 43 0q30 5 39 5q19 0 54 -2t64 -2t54 4q7 1 21.5 4t21.5 4q31 0 45 2q13 0 39 -2t39 -2h96q12 0 41 -2.5t45 -1.5z" />
<glyph unicode="G" horiz-adv-x="1443" d="M1374 766q12 -2 12 -21q-3 -15 -2.5 -39.5t-1.5 -39.5q0 -6 -1 -19t-1 -20q0 -25 -2 -37q-6 -23 -14 -76q-2 -11 -5.5 -23t-9 -26.5t-8.5 -22.5q-5 -15 -28 -73q-3 -6 -8.5 -18.5t-8.5 -18.5q-2 -5 -8 -15.5t-8 -15.5q-3 -5 -9 -16.5t-9 -16.5q-6 -18 -17 -32 q0 -1 -1 -2.5t-1 -2.5q-2 -2 -5 -6t-5 -6q-5 -7 -16.5 -21.5t-16.5 -21.5l-12 -18q-4 -7 -17 -15q-3 -2 -9 -8t-9 -8q-1 0 -2 -1t-2 -1q-13 -17 -23 -23q-6 -8 -14 -14l-33 -22q-6 -3 -20.5 -9.5t-20.5 -9.5q-13 -5 -43 -19t-47 -20q-16 -4 -26 -6q-7 0 -23 -4 q-18 -5 -45 -16q-29 -7 -49 -5q-15 0 -21 -2h-20h-8q-23 0 -35 2q-2 1 -8 1.5t-10.5 1.5t-8.5 4q-29 0 -43 -2q-9 0 -27.5 -1t-27.5 -1q-19 0 -27 6q-9 6 -16 6q-1 0 -10.5 2t-14.5 4q-3 1 -8.5 6t-7.5 6q-4 1 -12.5 4t-12.5 4q-5 2 -13.5 3t-10.5 2q-14 7 -21 14q-2 1 -5 4 t-5 4q-2 4 -6 8q-21 11 -27 15q-4 2 -7 4.5t-6.5 6t-6.5 5.5q-6 6 -23.5 9.5t-23.5 8.5q-11 8 -17 19q-1 1 -3.5 7t-4.5 7q-2 0 -4 2q-8 4 -10 6q-5 5 -8 11q0 1 -2 2q-2 2 -8 4t-7 2q-10 7 -14 14q-8 12 -10 14q-7 7 -15 19q-4 4 -4 10q-9 9 -18 21q-3 3 -25 36 q-15 18 -22 33q-2 2 -5 8.5t-5 8.5l-13 18q-16 28 -28 84q-5 18 -14.5 51.5t-10.5 38.5q-8 32 -8 45q-2 8 -2 23q-6 18 -6 22q1 16 -0.5 46.5t-1.5 41.5q0 41 2 49q0 1 6 41q0 4 5.5 38.5t6.5 52.5q6 45 18 92l13 49q9 27 14 37q2 5 6.5 18.5t9.5 20.5q0 3 5 8l2 2v2 q8 12 12 16q6 6 13 19.5t9 17.5q2 3 5.5 9.5t5.5 9.5q1 2 3 5t3 5q14 27 20 31q0 4 4 8q3 3 9.5 13t13.5 15q28 14 35 21q3 2 7 8t7 8q4 2 8 6q3 3 10.5 8.5t10.5 8.5q9 9 18 24q28 36 49 45q5 3 16.5 8.5t16.5 8.5q2 1 12.5 8.5t16.5 9.5q3 1 8 4t8 4q2 1 7 2.5t7 2.5 q15 12 25 14q3 1 8.5 2t7.5 2q4 1 9 4.5t6 3.5q6 2 16.5 2.5t13.5 1.5l31 6h25q14 7 20 7h13q12 4 36 8q38 3 76 0q7 -1 21.5 -4t21.5 -4l43 -7q8 -1 23.5 -6.5t17.5 -5.5q18 -4 23 -8h2q6 0 14 -4q0 -2 2 -2q16 0 39 -15q20 -3 45 -10q4 -2 12.5 -4t12.5 -4q12 -6 22 -16 l2 -2q15 -15 19 -17t10 -8h2v-2q2 -1 6 -4t6 -4q8 -6 21 -19q2 -2 6 -5t6 -5q10 -1 19.5 -7t13.5 -10.5t13 -16.5t11 -15q15 -15 23 -31l12 -12q4 -4 4 -6q12 -9 21 -21q4 -4 11 -12t11 -12l25 -25q8 -11 2.5 -22t-16.5 -11q-31 -32 -54 -45q-8 -4 -35 -22q-2 -2 -7.5 -4 t-6.5 -2q-9 -6 -14 -11q-11 -8 -35.5 -18t-32.5 -14q-44 -22 -57 -9q-7 7 0 13l-4 2q-6 3 -6 8q0 1 -1 3t-1 3q-2 1 -11 10q-6 5 -13.5 14.5t-10.5 12.5q-5 5 -14 15t-13 14q-3 3 -9 10t-9 10l-31 19q-5 4 -14.5 12t-14.5 12q-13 13 -28 19q-3 1 -8.5 3t-8.5 3l-16 8 q-21 7 -35 14q-13 8 -31 8q-6 0 -17 1.5t-17 1.5q-20 0 -33 -5q-18 -4 -60 -4h-6q4 -4 -4 -4l-6 -4q-7 -3 -22.5 -8t-22.5 -8q-20 -9 -43 -25q-10 -5 -19 -8q-1 -1 -2 -3t-2 -3q-3 -3 -18.5 -20.5t-24.5 -24.5q-7 -18 -16 -29q-1 -2 -8.5 -12.5t-9.5 -16.5q-3 -5 -10.5 -15 t-10.5 -15q-21 -27 -35 -74q-11 -28 -22 -80q-17 -68 -19 -92v-47q0 -5 1 -17t1 -18t-2 -8q2 -7 2.5 -19t1.5 -16q2 -8 5.5 -24.5t5.5 -24.5q8 -31 10 -47q12 -47 27 -66q3 -6 8 -19.5t8 -19.5q3 -5 7 -10t9 -11t8 -9q11 -11 26.5 -35t23.5 -33q15 -19 30 -29q3 -2 15 -7.5 t18 -10.5q18 -15 33 -33q14 -14 26 -20q7 -3 20.5 -5t18.5 -4q15 -5 19 -6q3 0 10.5 -1t11.5 -1q28 -4 41 -4q17 0 23 -2h49q25 0 35 4q42 17 72 35q39 23 59 49q7 7 20 29q5 7 11.5 22t7.5 17q0 1 8 13.5t12 19.5q2 4 13 36q5 12 14 43q6 14 10 41q-6 -2 -18 -2 q-8 -2 -25 -2q-18 0 -26 2h-58q-35 0 -51 6q-2 1 -7.5 3t-8 2h-7.5q-4 0 -12 -1t-12 -1q-8 2 -25 2q-3 0 -10 -1t-10 -1q-33 0 -39 6q-12 4 -12 14v49q0 7 2 22t2 23q1 8 1 17.5t-0.5 21t-0.5 17.5v47q0 8 6 12.5t12 1.5q4 0 8 -4h9q14 2 45 2h47q31 0 45 2q17 0 48 1t46 1 q35 1 99 -1.5t89 -2.5q29 0 43 2q2 0 17.5 4t23.5 4q6 2 19 -2q3 0 8.5 -2t7.5 -2q31 0 45 -2z" />
<glyph unicode="H" horiz-adv-x="1339" d="M1194 131v-98q0 -15 -14 -19q-12 -8 -21 -2h-2q-2 2 -4 2q-4 0 -8 2q-6 0 -12 -2q-3 -1 -9.5 -2t-9.5 -2q-3 0 -9 2t-9 2t-10.5 -1t-10.5 -1h-59q-16 -4 -23 -4h-20q-16 -3 -29 2q-8 4 -29 4q-11 0 -12.5 10t4.5 15v78q0 57 -2 84q-2 14 -2 39q0 6 -1 17t-1 17 q0 11 -1 34t-1 36q0 5 -1 17t-1 18q-1 6 -2 19.5t-2 19.5q-2 15 -2 84q0 57 2 86v47h-4q-5 0 -15.5 2t-15.5 2h-12q-3 0 -9 2.5t-8 1.5q-5 0 -14 -1t-14 -1t-31 2.5t-31 -0.5q-25 -4 -69 -4q-47 0 -72 4q-12 3 -35 -2h-35q-48 0 -73 2q-7 0 -23 4q-8 -4 -16 -4h-15 q0 -8 -2 -12q3 -16 0 -33v-80q-4 -20 -4 -33t1 -39t1 -40q-4 -50 -4 -74q0 -14 1 -40t1 -40q0 -11 1 -34t1 -36q0 -12 1 -36t1 -37q-1 -13 -2 -38t-2 -38q0 -4 -2 -4v-4q-5 -13 -8 -17q-8 -8 -16 0q-1 0 -5.5 -2t-5.5 -2q-10 -4 -30 0q-36 11 -66 2l-4 -2q-1 0 -3 -1t-3 -1 q-6 -4 -19 -4h-34q-6 1 -18.5 1t-18.5 1q-5 0 -12.5 3.5t-10.5 4.5q-4 0 -4 2q-6 0 -6 2h-2q-8 8 -8 19q0 7 1 20.5t1 20.5t1 20.5t1 20.5q1 1 0.5 42t-0.5 42v137q0 29 -2 43q0 15 1 43t1 43v43q0 6 -1 19t-1 20q0 10 -1.5 38.5t-0.5 45.5q2 12 2 39q0 7 1 20.5t1 20.5 q2 31 2 94q0 10 -1.5 42t-0.5 50q1 16 3 47.5t3 46.5v47q2 14 2 43q0 8 -2 24t-2 23q0 31 -2 45q-4 16 -4 25t-4 21v45q0 11 1.5 44t0.5 52v47v20q-2 5 2.5 9.5t11.5 3.5l4 -2h8q7 0 9 -2h2l2 -2q4 1 8.5 1t9.5 -0.5t8 -0.5q8 -1 24.5 -1t24.5 -1q17 0 25 2q4 1 11.5 3 t11.5 3q9 1 25 -1.5t22 -2.5q14 0 20 2q8 4 14 4q20 0 29 -15v-6v-22q0 -6 1 -17.5t1 -17.5v-74q0 -12 -1 -38t-1 -38t-1 -35t-1 -34v-39q0 -6 1 -17.5t1 -17.5q-4 -24 -4 -37q0 -6 1 -17.5t1 -17.5q0 -13 1 -35.5t1 -33.5q2 -16 2 -49q15 -5 19 -5h28q4 0 13 1.5t14 1.5 q35 4 55 -3q8 -2 53 3h54q8 0 24.5 -1.5t24.5 -1.5t25.5 1.5t25.5 1.5q3 0 9.5 -1.5t9.5 -1.5h10q8 0 30 -1.5t35 -0.5q21 0 31 2q5 1 29 7q12 0 16 -2v4q1 13 0 40t0 40q1 7 3 20.5t3 20.5q1 0 1 18l-1 18q0 6 -2 18t-2 17v41q1 26 2 79t2 79q0 6 1 17.5t1 17.5v39 q0 42 -6 65q-3 10 8 17q0 4 4 8q10 4 35 4q15 3 33 0h31q20 0 30 2q7 0 23 1.5t27.5 1t21.5 -4.5q4 -1 9.5 -1t12 0.5t9.5 0.5q22 0 26 -2q5 0 9 -4.5t4 -10.5q-2 -2 -2 -8q2 -23 2 -63v-80q0 -14 2 -41t2 -41q0 -66 2 -80q2 -30 2.5 -86t1.5 -74q0 -9 0.5 -26t0.5 -30.5 t-1 -25.5q-4 -28 -4 -41v-38q-2 -29 -2 -91v-24q-1 -4 -2 -11.5t-2 -11.5v-245q0 -8 3 -23.5t3 -22.5q2 -16 2 -45v-92q0 -15 1 -47t1 -47z" />
<glyph unicode="I" horiz-adv-x="600" d="M461 555q0 -33 -2 -49q-3 -22 0 -43q0 -7 -2 -20.5t-2 -20.5q0 -6 -1 -18.5t-1 -18.5v-90v-51q4 -31 2 -45q-1 -8 -4.5 -24.5t-4.5 -24.5q0 -34 -2 -48v-51q-2 -6 -2 -14l4 -4q2 -5 0 -10l-6 -7q0 -8 -6 -8h-4q-6 -2 -16 -2q-7 0 -21.5 1t-21.5 1q-10 -2 -31 -2 q-4 1 -12.5 2t-12.5 2h-2h-26q-8 2 -27 2q-3 -6 -10 -6q-4 0 -11.5 -1t-11.5 -1q-8 4 -14 6h-6q-13 0 -17 -2q-2 0 -5.5 1t-4.5 1h-4q-6 0 -10 5t-4 10q0 6 2 8v37q0 11 -8 39q-1 8 0.5 22t1.5 19q0 4 -0.5 11.5t-0.5 14t1 12.5q0 6 2 17.5t2 17.5v213q0 15 -1 42.5t-1 41.5 v84v37q0 6 -1 17.5t-1 17.5v98q4 32 4 47q0 6 1 20t1 21v86q0 7 1 21.5t1 21.5q2 14 2 45q0 36 -2 54q-1 7 -6 47q-2 31 2 96q2 17 2.5 46.5t1.5 39.5q4 36 4 51q0 19 -2 27q0 2 -2 4t-6 10q0 6 2 8q2 8 10.5 11t13.5 -3l4 -2h41q6 0 17.5 2.5t17.5 2.5t17 1t16 1 q6 0 17 -2.5t16 -2.5q15 0 30 3q47 0 72 2q6 1 11.5 -5t5.5 -12q0 -4 -1 -12t-1 -12v-78q-1 -9 -3.5 -26.5t-3.5 -26.5q-2 -2 -2 -9q-2 -31 -2 -92q0 -3 6 -33v-39q-1 -10 0 -30t0 -29t9 -70q0 -24 2 -36q0 -5 1 -15.5t1 -15.5q0 -26 -3 -77t-3 -75v-145q1 -3 2 -9.5t2 -9.5 q2 -8 6 -20z" />
<glyph unicode="J" horiz-adv-x="956" d="M772 793v-93v-96q0 -65 -2 -98v-51q-4 -28 -4 -43q0 -18 -4 -50q-5 -35 -8 -47q-13 -44 -13 -45q-4 -8 -8 -25t-4 -18q-4 -30 -8 -43q-5 -17 -16 -34q-2 -5 -8 -12.5t-7 -8.5q-3 -2 -7 -8.5t-5 -7.5q-2 -2 -6 -7.5t-6 -7.5q-2 -1 -5.5 -3t-5.5 -3q-1 -1 -4 -3t-4 -3 q-1 0 -2 -1t-2 -1q-3 -5 -8 -8q0 -4 -4 -8q-16 -21 -21 -25q-10 -8 -30 -16q-2 -1 -14 -10t-19 -11q-4 -2 -8 -6q-2 -1 -6 -2t-5 -2q-2 -1 -6 -1t-6 -1q-6 0 -14 -4q-9 -4 -31 -8l-2 -2q-11 -7 -33 -11q-14 -4 -43 -4q-8 0 -20 -4h-4q-13 -2 -47 8q-21 0 -25 2q-6 4 -14 4 q-17 -2 -43 5q-5 2 -18.5 7.5t-20.5 8.5q-22 10 -41 22q-6 4 -17.5 13.5t-17.5 13.5q-3 2 -14.5 9.5t-16.5 13.5q-12 12 -10 22l2 2q-2 15 16 33q3 3 8.5 9t8.5 9l2 2q2 2 5 7.5t5 7.5q2 4 10 12q4 11 13 14q3 4 9 11.5t9 11.5q4 6 29 31q6 6 10 14q11 17 12 20q8 16 19 19 h2q2 8 10 8.5t10 -6.5q1 -6 8 -13l7 -8q12 -12 18 -20q1 -1 5 -6.5t7 -7.5q7 -7 19 -15q5 -4 13.5 -6t20.5 -3t15 -1q20 -4 26 -4l13 6q17 11 18 14q3 7 12.5 17.5t12.5 15.5q2 4 6 13.5t6 13.5q1 4 2.5 11.5t2.5 13.5t1 10v41q2 29 2 84q0 57 -2 88q-1 13 -2 41t-2 41 q0 27 -2 41v22q2 4 2 14q0 12 1 37t1 39v45v39q2 14 2 43v23q0 3 1 10t1 10q0 31 -2 45q-6 42 -6 43v92q0 62 2 95q2 16 2 49q0 17 4 45q0 16 2 24q2 6 2 21q0 6 -2 10v4q0 4 -2 4q-16 8 -16 21q2 15 18 24q10 4 33 4q28 -4 41 -4h20q16 4 21 4q8 1 23.5 0t23.5 0h16 q20 5 21 5h39q15 8 26 -7q3 0 7 -4q4 -9 10 -53v-63q0 -19 1 -40t2.5 -46.5t2.5 -40.5v-127q0 -10 1 -31t1 -33q0 -37 -6 -47v-47q0 -33 4 -49q2 -8 2 -25q0 -4 1 -12t1 -12z" />
<glyph unicode="K" horiz-adv-x="1310" d="M1233 41q10 -3 7.5 -15t-11.5 -14q-4 -4 -6 -4l1 1q-2 0 -3 -3q-2 0 -5 -1t-4 -1h-24q-7 -7 -17 -4q-8 1 -24.5 -1t-24.5 -1q-4 0 -12.5 3t-13.5 3q-4 0 -6 2q-21 -8 -50 -8q-5 0 -13.5 2t-12.5 2q-17 0 -27 2q-12 4 -20 4q-4 0 -11.5 -1t-11.5 -1h-14q-1 0 -4 2t-4 2 q-2 0 -9 -1.5t-10 -0.5q-8 4 -10 6q-7 -3 -16.5 -0.5t-12.5 11.5q-1 5 -6 9.5t-6 6.5q-2 3 -4 10.5t-4 11.5q-9 9 -13 11q-33 28 -47 45q-11 11 -26 37q-1 3 -3 8t-3 8q-7 7 -13 16q-7 15 -10 25q-4 6 -12 17.5t-12 17.5q-20 26 -46 55q-16 17 -24 29l-6 12q-9 6 -21 23 q-2 3 -5 9t-5 9t-5 10.5t-5 10.5q-10 15 -15 20q-6 4 -14 16q-4 6 -11 19.5t-11 19.5q-2 2 -12.5 18t-16.5 23q-28 34 -29 35t-10.5 14t-15.5 19q-10 15 -11 18q-3 6 -12 15l-2 2v-156q-1 -2 -1.5 -7t-2 -9t-4.5 -7q2 -10 2 -32q1 -15 3 -41t3 -41q0 -26 -1 -81t-1 -83 q0 -51 2 -78q2 -10 2 -33v-14q0 -8 -2 -12q0 -1 -1 -2t-1 -2q0 -9 -2 -11q-10 -12 -35 -12q-6 0 -17.5 -1t-17.5 -1t-10 -4h-16h-35q-13 0 -41 1t-43 1q-2 0 -6.5 2t-7.5 2q-9 0 -13 2l-4 2h-4q-14 -4 -24 6q-12 10 -7 43q1 9 1 19.5t-0.5 23t-0.5 19.5l2 63q0 42 2 62v16 q-1 7 -2 22t-2 23q0 4 4 8q-4 8 -4 15q0 148 -2 178q0 16 -1 45t-1 45q0 1 -0.5 42t0.5 42q1 16 1 47t1 47q2 16 2 49q1 7 2 21.5t2 21.5v23q5 15 5 18v41q-5 36 -5 88v97q0 8 1.5 23.5t1.5 23.5q0 7 -1.5 20.5t-1.5 20.5q-1 15 -2 47t-2 47q-4 68 -2 100q0 11 11 15 q3 6 9.5 7t10.5 -3q3 0 9 1t9 1q19 0 29 2q4 1 10.5 1t14.5 -0.5t12 -0.5h37q21 0 31 -2q5 -2 30 -2q3 0 10 0.5t13 0.5t10 -1h27q10 0 13.5 -10t-1.5 -17v-6q2 -12 2 -35v-84q0 -13 2 -40t2 -42v-84q0 -28 1 -87t1 -87q0 -6 1 -18.5t1 -18.5v-53q5 6 33 45q18 25 35 45 q4 5 12.5 18.5t13.5 18.5q2 5 11 14q0 2 4 6q2 0 2 2q0 3 4 7q2 7 10.5 16.5t11.5 13.5q15 23 27 37q4 5 14 16t15 17q4 6 16 18q2 2 2 4q12 17 12 19q5 9 23 31q21 20 25 28q3 8 10 15q4 4 12 8q2 3 7 9t7 9l5 15q2 2 5 7t5 7q4 6 10 20.5t10 20.5q12 18 27 33q3 2 8.5 9 t7.5 9q1 2 6.5 6.5t6.5 5.5q3 3 6 9q4 16 10 22q4 8 10 8q3 0 9.5 3t9.5 3h22q8 0 24 1.5t23 1.5q12 -3 23 0q3 0 9.5 2t10.5 2h39q65 -9 86 -9q27 0 39 2h16q3 0 8.5 1.5t8.5 1.5q7 -2 11.5 -8.5t0.5 -12.5l-2 -2v-2q0 -12 -16 -16h-2q-2 -1 -3.5 -2l-3 -2t-2.5 -1l-2 -4 q-12 -14 -26 -26q-21 -21 -29 -31q-3 -5 -8 -8l-2 -2v-2q-2 -8 -10 -15q-11 -15 -13 -22l-6.5 -6.5t-5.5 -7.5q-3 -8 -25 -35q-4 -5 -13 -18t-15 -19q-8 -10 -29 -31q-5 -5 -14.5 -16.5t-14.5 -16.5q-3 -3 -14 -12t-16 -16q-11 -11 -27 -35q-2 -3 -11 -15.5t-13 -19.5 q-7 -14 -27 -37t-27 -37q-8 -16 -26 -34q-5 -5 -13.5 -16.5t-13.5 -16.5q-17 -24 -59 -72q-5 -6 -14.5 -17.5t-14.5 -17.5q-6 -6 -10 -8q0 -2 -2 -2q6 -8 14 -14q24 -20 35 -43q4 -6 11 -18.5t11 -18.5l2 -2q13 -13 19 -21q12 -20 18 -28q18 -32 37 -54q4 -6 13.5 -17 t13.5 -17q2 -2 12 -17q8 -4 10 -8q1 -2 4 -5t4 -5q16 -22 17 -23q13 -13 18 -26q9 -9 13 -15q6 -9 25.5 -31t27.5 -36q6 -6 12 -15q2 -2 6 -7t6 -7q3 -4 13.5 -15t15.5 -18q36 -42 53 -74q5 -13 14 -25t21.5 -25.5t18.5 -20.5l30 -37q13 -13 15 -16q2 -1 5 -4.5t5 -4.5 q3 -4 9.5 -16t12.5 -18q2 -2 6.5 -7.5t6.5 -7.5q1 -1 3 -4t3 -4z" />
<glyph unicode="L" horiz-adv-x="913" d="M809 240q14 -7 14 -19q0 -4 -4 -12q4 -24 4 -39q0 -37 -2 -57q0 -36 -2 -54q-1 -7 -2 -23t-2 -24q0 -1 -1 -2t-1 -2q0 -10 -12 -10q-6 0 -8 2q-8 -8 -37 -8h-37q-45 0 -68 4q-50 9 -65 10h-8q-3 0 -5 -2q-16 -4 -26 -4q-9 -1 -27.5 -2t-27.5 -2h-27q-4 0 -12.5 2t-12.5 2 q-9 1 -28.5 0t-28.5 0q-10 2 -29 2h-22q-10 -2 -29 -2q-12 4 -22 4q-20 -4 -31 -4q-4 0 -13 2t-14 2q-3 0 -15.5 -1.5t-19.5 -0.5q-2 -2 -4 -2q-14 -6 -21 -0.5t-9 20.5q-5 5 4 9v2q0 8 2 10v76q0 73 -2 88v84v88q0 3 -1 7.5t-1 6.5v25v43q3 9 0 18q0 4 -1 12.5t-1 12.5v39 q1 4 2 11.5t2 10.5v21q0 14 2 20l-2 4q0 63 -2 94q0 15 -4 43v23q0 5 -5 20q-1 6 -1 13.5t0.5 16t0.5 13.5q0 4 1.5 11t1.5 10v18q0 7 1 21.5t1 21.5q0 27 2 41q1 1 3 4.5t3 4.5v2v43q-4 20 -4 36v86q2 8 2 25q0 3 -1 10.5t-1 10.5v45v49q0 3 1 10t1 10q0 4 -1 11t-1 10v49 q-4 28 -4 41q0 4 6 10q0 10 4 14q6 5 13.5 3t10.5 -9l-1 1l1 1h4q2 -2 9 -2q4 1 13 2t13 2h33q5 0 15.5 -1t15.5 -1h61h19q4 -2 10 -2q3 0 9 1t9 1h6q1 0 3.5 1t3.5 1q8 3 14 -4q8 0 8 -10q4 -7 0 -14q-4 -28 -4 -43q2 -18 2 -60q0 -80 2 -121q2 -20 2 -63q0 -9 1 -26.5 t1 -26.5q2 -39 2 -119q-1 -7 -6 -47v-23q-2 -6 -2 -20q0 -10 -1.5 -29t-1.5 -33.5t3 -27.5q0 -7 4 -23q1 -2 4 -8.5t4 -11.5q1 -8 -0.5 -23t-1.5 -20q0 -8 1 -24.5t1 -24.5q0 -7 1 -23t1 -23q0 -63 2 -94q1 -17 -3.5 -46.5t-4.5 -43.5q0 -8 2 -23t2 -22q1 -6 2 -18.5 t2 -18.5q3 -21 3 -47v-22h2q8 0 25 -1t26 -1q5 0 16 0.5t20 0.5t17 -1q27 -5 43 0q1 0 53 6q19 0 27 2h24q5 -1 14.5 -3t14.5 -3h10q2 0 7 -1t8 -1t9 1t9 1h6q3 0 9.5 1t11 1t8.5 -2z" />
<glyph unicode="M" horiz-adv-x="1705" d="M1614 25q3 -10 -2.5 -18.5t-16.5 -8.5q-20 0 -30 2q-2 0 -6.5 1t-6.5 1q-10 0 -14 2q-5 0 -15.5 -1t-15.5 -1q-18 0 -26 -4q-12 -4 -37 -4h-88q-6 0 -8 2h-2q-7 0 -13 6t-6 14q-4 28 -4 43v4l-2 3q-1 2 -2 6t-2 6q-1 4 -2 11t-2 11q-1 7 -3 22.5t-3 22.5q-1 5 -4.5 17.5 t-4.5 17.5l-12 99q-2 8 -4 24.5t-4 24.5q-2 6 -2 20q-4 16 -4 25q0 8 -4 24v23q0 8 -2 23t-2 22v51q0 31 -4 45q-1 4 -4.5 12.5t-4.5 12.5q-2 8 -2 22q-3 28 -10 41q-2 8 -4 25.5t-2 19.5q-2 14 -2 43v23q0 8 -6 14q-8 12 -15 37q-4 20 -4 33q-5 -12 -14 -43q-2 -11 -7 -31 t-7 -27q-2 -5 -5.5 -14t-5.5 -14q-2 -4 -7 -12.5t-7 -12.5q-6 -14 -15.5 -44.5t-15.5 -45.5q-11 -23 -37 -90q-2 -9 -9.5 -27t-8.5 -20t-8 -17.5t-12 -23.5q-8 -19 -15 -43q-1 -3 -4 -9.5t-4 -9.5q0 -4 -4 -20q-3 -10 -16 -45q-1 -6 -1.5 -20t-1.5 -21q-9 -31 -14 -43 q-1 -4 -6.5 -17.5t-7.5 -21.5q-9 -22 -31 -90q-3 -13 -16 -47q-1 -2 -1.5 -6.5t-1.5 -7.5t-3 -5l-7 -14q2 -7 -3 -13.5t-13 -6.5q-12 2 -37 2q-4 0 -16 4q-2 2 -7 2t-6 -2h-36q-15 4 -19 8q-2 4 -6 8q-2 3 -8 21q0 2 -1 7.5t-1 6.5q-5 10 -8 22q-2 6 -7.5 21t-7.5 24 q-3 7 -7 22.5t-5 18.5q-1 4 -14 41q-2 7 -8 20.5t-7 22.5q-1 4 -2 12.5t-2 12.5l-6 18q-9 18 -12 37q-4 14 -8 23q-1 3 -2 9t-2 9q-2 8 -7 23q-3 12 -8 22q-5 18 -8 49q-2 12 -10 41q0 2 -5.5 19t-7.5 26q-12 41 -12 43q-4 26 -12 31q-17 14 -23 31q-8 16 -22 80l-12 43 q0 4 -1 7.5t-3 7t-3 5.5q-1 3 -2 9.5t-2 9.5q-4 27 -14 37q-8 11 -12 32q0 7 -2 11l-4 8q0 3 -3 6v-19q-2 -6 -6 -22q-2 -7 -4 -21.5t-4 -21.5q-1 -5 -5 -18.5t-5 -20.5q0 -35 2 -41q1 -7 0 -15.5t-3 -18.5l-3 -15q-1 -7 -4 -21.5t-4 -21.5q-2 -9 -2.5 -26.5t-1.5 -22.5 q0 -11 -3 -23q0 -3 -2 -9t-2 -9q-2 -21 -10 -78q0 -3 -2 -9t-2 -9q0 -11 -4 -23q-1 -8 -3 -23.5t-3 -23.5q-6 -42 -6 -47q0 -17 -4 -45q-1 -7 -17 -96q-1 -3 -2.5 -8t-2.5 -8.5t-1 -6.5q-1 -3 -1 -9t-1 -9q0 -15 -2 -21q0 -14 -2 -20q-4 -16 -4 -27q-2 -6 -2 -21 q-1 -3 -3 -10t-3 -10q0 -2 -1 -5t-1 -5q0 -12 -5 -17q-5 -8 -12 -8q-1 0 -4 -1t-4 -1q-6 0 -10 -2h-17q-27 0 -32 2q-5 1 -16 2t-17 2h-25q-2 0 -8.5 1.5t-9.5 0.5q-13 0 -19 -2q-1 0 -4 -0.5t-6 -0.5t-6 1q-4 0 -12 -4h-27q-8 0 -20 4q-7 -4 -16 0.5t-9 12.5q0 6 4 18 q1 2 3 5t3 5q0 11 2 15q2 2 2 12q0 15 4 43q2 15 10.5 42.5t10.5 37.5q3 14 4.5 38.5t3.5 34.5q0 29 2 41q1 7 3 20.5t3 20.5q2 13 13.5 69t13.5 87q1 7 3 35.5t7 44.5q1 5 4 17t4 20q0 13 7 30v15q0 3 1 10.5t1 11.5q0 13 8 41q6 18 6 23q0 12 2 20q0 29 4 41q0 15 2 23 q1 4 2 11t2 11q2 6 6 19.5t6 19.5q2 7 7.5 21.5t7.5 21.5q6 18 6 19q0 3 -1 10t-1 10q-2 9 2 25q0 14 2 22q4 30 8 45q1 8 4 24.5t4 24.5q1 5 5 20t4 23q1 17 5 49t5 48q6 46 6 47q0 3 1 10t1 10q1 3 1 10.5t1 10.5q2 7 4 22.5t4 22.5q8 27 10 45q-6 4 -3 12t12 8q6 0 20 -2 t21 -2q5 0 13.5 0.5t16 0.5t13.5 -1q18 -2 49 -1.5t51 -0.5q7 0 10 -7t0 -11q15 -30 17 -35q11 -21 28 -70q4 -10 12.5 -35.5t14.5 -39.5q4 -13 14.5 -38.5t14.5 -39.5q19 -49 32 -92q1 -2 6.5 -21.5t6.5 -28.5q1 -3 4.5 -20t7.5 -25q5 -19 33 -86q7 -26 14 -39 q12 -24 16 -38q1 -9 11 -43q2 -5 7.5 -17t8.5 -18q8 -8 12 -19q3 -9 9 -18q5 -6 11 -21t7 -18q17 -46 18 -49l7 -19q9 -18 10 -22q3 -13 16 -47q0 -1 1 -4t1 -4q1 2 4 8.5t4 11.5q2 8 23 74q2 5 5 17.5t5 17.5q2 7 7.5 17.5t7.5 14.5q5 8 10 33q2 7 7.5 18.5t6.5 14.5 q13 52 27 94q6 18 20.5 51t16.5 37q4 14 10 27q2 6 10 18q1 2 14 41q2 7 5.5 22.5t5.5 22.5q12 41 12 43q8 34 16 47q3 7 8.5 21.5t8.5 21.5q29 84 30 88q13 44 13 45q1 9 12 41q2 12 10 27q4 12 10 21q1 3 2.5 8t2.5 8q-7 10 -0.5 20.5t18.5 8.5q3 0 10 -1t10 -1 q5 0 15.5 1t15.5 1q61 0 72 2q6 0 17.5 1t17.5 1q29 0 34 -2q6 0 9 -7q2 0 2 -6v-2l-2 -4q2 -10 2 -26v-29q1 -7 12 -64q4 -35 10 -53q11 -33 11 -55q0 -39 2 -47q1 -7 4 -22.5t4 -22.5q2 -30 18 -92q6 -21 6 -46q0 -24 4 -36q3 -13 6 -46t7 -51q1 -7 3 -15t5 -17t4 -15 q1 -5 2.5 -14.5t2.5 -17.5t1 -15q4 -34 8 -49q1 -5 2.5 -14.5t2.5 -17.5t1 -15v-2q1 -2 3 -2q4 -28 4 -43l6 -43q1 -9 4 -38.5t6 -45.5q1 -7 2 -21t2 -20q3 -19 10 -41q11 -52 13 -84q1 -4 2 -12t2 -11q0 -3 1 -9t1 -9q0 -13 4 -37q4 -15 8 -41q1 -5 4 -16.5t4 -16.5 t1.5 -19t2.5 -22q1 -7 3 -20.5t3 -20.5q6 -22 9 -41q4 -10 8 -34q0 -4 -2 -4z" />
<glyph unicode="N" d="M1313 86q0 -4 1 -18.5t0.5 -25t-3.5 -17.5q2 -3 0 -10t-11 -14t-26 -7h-14q-11 0 -33 -2t-27 -2q-12 0 -38.5 6t-41.5 6q-20 -8 -30 -8q-27 5 -93 84q-30 19 -66.5 85.5t-51.5 84.5q-40 48 -108 149t-97 140q-25 29 -47.5 60t-37 52.5t-41 62.5t-44.5 68q-13 24 -69 75 t-66 73q0 -12 -2 -33t-2 -33q0 -14 2 -37t2 -37q0 -5 -1 -15t-1 -15q0 -2 6 -62q0 -20 -4 -60t-4 -61q0 -12 1 -32.5t1 -30.5q0 -16 -5 -94q-5 -71 -1.5 -125.5t2.5 -126t-13 -125.5l2 -5q2 -6 2 -9q0 -15 -14 -15q-4 0 -13.5 1t-13.5 1h-73q-50 2 -50 6q-20 -8 -88 -8 q-12 0 -18 19q0 9 6 18q0 3 -1 11t-1 12q0 51 3 149t3 150q0 21 -5 75t-5 86q0 29 2 86t2 82q0 19 -4 55t-4 58q0 102 12 266q-8 50 -8 74q0 4 1 12.5t1 12.5q0 24 -1 68.5t-1 66.5q0 18 4 18q-6 5 -10 44.5t-4 60.5q0 6 5 11t11 5q10 0 40.5 -4.5t41.5 -5.5q46 0 90 6 q13 0 19 -6l2 -4q1 0 9.5 -12t19 -27t14.5 -19q19 -19 65.5 -92t81.5 -104q18 -18 46.5 -58.5t47.5 -58.5q14 -24 56.5 -71.5t56.5 -75.5q7 -15 38 -54.5t83 -105t90 -117.5q12 -14 37 -53t35 -49q8 -8 21.5 -37t25.5 -43q0 51 2 76q0 13 -4 34.5t-4 32.5q0 51 8 139.5 t8 180.5q0 17 -2 48t-2 46q0 52 1 156.5t1 156.5v33q0 23 2 33q-4 4 -4 6q0 5 5 9.5t9 4.5q5 0 8 -6q6 0 53 6t83 6q6 0 16 -1t14 -1h43h6.5h7h6.5t7 -0.5t6.5 -1.5t5.5 -2.5t4 -3.5t3 -5t1 -7q0 -15 -10 -15q6 -46 7.5 -98t0 -130.5t-1.5 -102.5q0 -15 -1 -40t-1 -40v-27 q0 -12 -2 -31.5t-2 -29.5q0 -13 3 -36.5t3 -31.5q-2 -27 -2 -80q0 -33 1 -96t1 -96q0 -17 -1 -48t-1 -46q0 -54 12.5 -179.5t12.5 -187.5z" />
<glyph unicode="O" horiz-adv-x="1542" d="M1477 760q0 -63 -2 -96q-6 -47 -15 -95q-8 -60 -18 -86q-5 -14 -23 -45q-9 -22 -10 -28q-4 -22 -8 -31t-13.5 -27.5t-13.5 -27.5q-8 -13 -22 -27q-5 -8 -19 -27q-12 -16 -18 -26q-2 -3 -6 -10.5t-6 -10.5l-14.5 -14.5t-16.5 -20.5q-9 -17 -21 -22q-1 -2 -4.5 -6.5 t-5.5 -7.5q-5 -5 -17.5 -12.5t-17.5 -12.5q-10 -10 -16 -12q-2 -1 -5 -3t-5 -3q-18 -18 -35 -21l-19 -12q-10 -5 -22 -13q-20 -10 -23 -12q-4 -2 -12 -5t-12 -5q-20 -10 -23 -12q-6 -3 -26 -11q-6 -3 -15 -6q-20 -12 -32 -14q-11 -2 -31 -6t-36.5 -7t-31.5 -5q-21 -3 -45 -3 q-1 0 -59 -6q-49 0 -74 2q-32 0 -74 11q-6 2 -28.5 6.5t-32.5 9.5q-28 11 -35 18q-2 1 -8 7q-21 8 -76 26q-10 5 -28.5 18.5t-28.5 18.5q-18 6 -33 21q-1 2 -12 13t-13 17q-1 1 -2 3t-2 3q-10 5 -26 17q-3 2 -9.5 7t-9.5 7q-16 10 -18 14q-1 2 -4 4.5t-4 4.5q-4 3 -13 16 q1 -1 0 -2q-2 1 -4 4q-2 1 -5 3t-5 3q-2 2 -5 6.5t-5 6.5q-15 18 -21 36q-2 8 -8 21t-8 18q0 3 -1.5 5.5t-3.5 5.5t-3 4q-2 3 -5.5 9t-5.5 9q-6 14 -15 40.5t-15 39.5q-19 43 -19 45q-9 27 -14 37q-12 32 -12 88v192q-1 8 0 16.5t3 18.5l3 15q1 8 2 24t2 23q7 54 20 96 q7 29 15 47q3 8 10.5 20.5t9.5 16.5q1 3 23 41q14 28 20 37q9 14 28.5 36t27.5 33q3 3 10.5 15t13.5 18q3 5 12 10l4 4q0 10 11 17q5 2 12 7.5t8 6.5q9 6 27.5 17.5t27.5 17.5q6 5 50 43q10 6 32.5 16.5t32.5 16.5q5 3 16.5 4.5t14.5 3.5q25 10 29 12q28 17 30 17 q3 1 14 1.5t17 2.5q10 2 31 2l12 6q6 3 16.5 5t14.5 3q21 5 47 2h10q8 2 23 2q22 0 34 2q21 4 31 2t33.5 -7t36.5 -7q36 -3 71 -12q26 -6 50 -23h4q2 0 5 -1t5 -1h4q14 -3 23 -8q2 -2 20 -14q21 -15 45 -27q2 -1 12 -5t15 -7q4 -2 12 -5.5t12 -5.5q20 -10 23 -12l18 -12 q16 -12 23 -19q2 -3 7 -8t7 -8q16 -27 27 -41q9 -12 14 -22q2 -1 12 -11q1 -2 6.5 -6.5t6.5 -5.5q8 -12 12 -16q9 -11 25 -34.5t24 -33.5q8 -12 25 -45q3 -7 9 -20.5t9 -20.5v-2l6 -12q12 -19 19 -51q2 -9 10.5 -34.5t12.5 -44t5 -36.5q0 -7 3 -22t4 -19q4 -28 4 -45z M1182 674q4 46 2 71q0 13 -2 19q0 6 -4 18l-13 43q-9 32 -14 45q-2 6 -3 19.5t-3 19.5q-14 32 -17 45q-2 7 -18 33q-1 1 -4.5 8t-7.5 11q-1 1 -6 4.5t-7 7.5q-4 3 -12 12t-14 12q-23 19 -31 29q-5 5 -16.5 15.5t-16.5 15.5l-30 31q-17 12 -37 20q-7 4 -45 23l-2 2 q-8 -4 -13 -4q-6 0 -17.5 2.5t-14.5 3.5q-6 2 -19 4t-14 2q-7 1 -27 6t-31 4q-13 -1 -36.5 -6t-28.5 -6q-2 0 -7 -1t-7 -1q-3 -2 -21 -8q-12 -6 -24 -9q-1 0 -8 -2t-11 -4q-12 -4 -16 -8l-2 -2q0 -10 -11 -10q-1 -1 -3 -2t-3 -2t-5.5 -6.5t-6.5 -6.5q-3 -2 -8 -7t-8 -7 q-2 -1 -6.5 -4t-6.5 -4q-6 -6 -18 -15t-14 -10q-17 -14 -27 -26q-29 -29 -47 -66q-2 -5 -5 -16.5t-5 -16.5q-12 -24 -17 -39q-10 -24 -16 -47q0 -8 -4 -20q0 -4 -3 -10t-3 -9v-24q-5 -20 -5 -23q-2 -8 -4 -25t-2 -18q-4 -55 6 -92q1 -7 5.5 -21.5t5.5 -21.5q4 -30 8 -41 q2 -8 8 -21t8 -18q3 -12 17 -39q18 -27 26 -41l4 -8q5 0 5 -4q1 -1 5.5 -3.5t6.5 -4.5t5 -6t5 -6q5 -5 14.5 -15.5t14.5 -15.5q3 -3 10.5 -10t11.5 -11l4 -4q2 -4 6 -8q2 -3 15 -16q4 -4 14 -9.5t14 -9.5q2 -2 6 -4t10 -4.5t9 -3.5q10 -7 10 -14q24 -14 45 -19q9 -2 27 -8 t27 -8q19 -6 59 -2q37 0 57 2h13q4 8 8 4h2q4 0 6 2q4 0 16 4q3 1 14 4.5t17 3.5l5 2h1q1 0 2 1t2 1q4 4 9 4q2 2 6 2q1 0 2 1.5t2 1.5q3 2 10 6t10 6l31 24q2 2 5 6.5t5 6.5q7 7 13 4l4 4q2 3 6 8t6 8q1 2 4 6.5t4 6.5q2 5 9.5 12t9.5 10q8 12 12 16q13 24 28 41 q16 23 29 45q20 28 29 46q10 13 18 47q16 62 17 67q2 8 2 25z" />
<glyph unicode="P" horiz-adv-x="1105" d="M911 1274q7 -14 22 -43t22.5 -45t14.5 -41.5t7 -50.5q0 -143 -16 -260q-5 -37 -29 -82t-53 -70q-13 -9 -17 -10q-54 -76 -213 -111q-25 -5 -72.5 -6.5t-68.5 -5.5q-60 -9 -123 0q-2 -92 -2 -275q0 -36 4.5 -115.5t3.5 -121.5v-2q0 -2 -2 -4v-2l-4 -4q0 -7 -6 -13 q-22 -8 -33.5 -7.5t-35 5t-36.5 4.5q-14 0 -42 3t-42 3h-34q-8 -4 -11 -4t-9 1t-9 1q-7 -7 -18 0l-7 7l-2 2q-9 6 -6 16q0 2 1 6t1 6q0 5 6 11q0 7 -2.5 36.5t-2 36t2.5 37.5q13 73 9 207v119q-3 120 -3 239q0 51 -5 179.5t-3 199.5q1 59 11 310q0 3 2.5 4.5t3.5 -0.5 q60 -2 223 2t223 -2q109 -5 223 -41q28 -9 71 -50t56 -69zM653 852q41 62 41 117q-1 36 -4.5 62.5t-14 55.5t-31 49t-52.5 31q-81 30 -209 37q-3 -16 -3.5 -35.5t0.5 -46t1 -35.5v-116q10 -170 10 -203q27 -7 53 -4q12 1 34 9.5t34 8.5q20 1 39.5 7t47.5 19.5t36 16.5 q9 12 18 27z" />
<glyph unicode="Q" horiz-adv-x="1583" d="M1487 14q6 -3 4.5 -11.5t-10.5 -8.5h-8q-16 -5 -33 -2q-4 -4 -8 -4h-31q-8 -4 -19 -4q-12 4 -16 4q-6 0 -10 -2q-2 -1 -8 -1t-9 -1h-14q-2 -1 -6 -1t-6 -1h-29q-2 0 -5 -1t-5 -1q-6 -3 -12 -3h-9q-8 0 -12 -2h-12q-2 -2 -8 -2h-7q-2 0 -10 4q-6 7 -10 17q-8 8 -10 12 q-3 6 -11 14t-10 11l-12 18l-12 12q-2 3 -7.5 9.5t-7.5 9.5q-2 -2 -6 -5t-6 -5q-17 -9 -50 -20t-46 -17h-2q-4 -2 -11.5 -5t-11.5 -5q-15 -6 -33 -9l-4 4l-24 -6q-26 -5 -33 -4q-7 -2 -21.5 -4t-21.5 -4q-8 0 -16 -4q-5 0 -13 -4h-28q-11 0 -23 4l-4 -2q-5 0 -14.5 -1 t-14.5 -1q-65 0 -96 10q-4 1 -13.5 2t-13.5 2q-6 0 -18 4q-8 2 -20 6q-4 1 -11.5 3.5t-11.5 3.5q-6 3 -20 6t-21 6q-16 5 -20 8l-9 8q-15 0 -20 8q-4 0 -4 2q-2 1 -5 3.5t-5 3.5q-9 9 -11 10q-2 0 -4 2q-6 0 -10 4q-8 4 -12 4q-15 0 -19 12q-7 4 -10 9q-2 2 -2 4q-1 0 -3 1 t-3 1q-14 5 -33 20q-2 2 -11.5 10t-12.5 13l-21 20q-6 6 -14 10q-4 4 -43 48q-7 9 -21.5 25.5t-21.5 25.5q-26 27 -39 49v10q-2 2 -2 4q-9 9 -13 15q-14 28 -16 34q-2 4 -5 14.5t-5 14.5q-9 15 -12 33q-1 4 -5.5 12.5t-5.5 13.5q-18 41 -24 84q-4 36 -4 52l-7 43 q-2 16 -2 51q0 31 2 47q0 8 2.5 24.5t2.5 24.5t3 25t3 20q8 39 24 90q4 12 11 43t14 47q3 7 10 20.5t10 20.5q2 4 11 13q4 16 8 22q7 20 18 29l6 6q0 5 7 8l2 2l2 4q10 16 20 29q2 0 2 2q15 25 19 29q1 1 2 3t2 3q2 6 10 14q9 15 18 27q27 31 49 43q7 11 17 16q9 7 59 37 q1 0 2 1t2 1q4 4 4 6q10 10 27 17q8 4 27 16t30 16l19 7l12 6q6 2 29 8.5t35 13.5q15 6 34 6q8 4 15 4q10 5 16 5q57 14 78 12q6 -1 19.5 -3t19.5 -3h16h25q6 0 8 -2h10q4 2 11 2q8 2 20 2l18 -6h5q12 2 23.5 -0.5t27 -9.5t22.5 -9q2 0 4 -2h11q12 -4 16 -6h6q5 -2 16.5 -7 t16.5 -7q5 -4 33 -15q7 -1 19 -6t15 -6q8 -2 20 -7t17 -7q26 -13 35 -19q10 -7 10 -16q32 -24 43 -37q2 -2 6.5 -7t6.5 -7l32 -33q1 -1 7 -5.5t8 -8.5q18 -27 22 -35q2 0 2 -2q8 -4 15 -11q4 -8 8 -10q1 0 9.5 -8t12.5 -14q16 -24 33 -58q7 -13 10 -30q14 -23 17 -31 q2 -4 11 -28t15 -38q17 -43 21 -65q12 -35 18 -68q1 -7 5 -25t4 -28v-51q2 -35 2 -103q0 -35 -19 -98q-2 -6 -5 -18.5t-5 -18.5q-1 -5 -4 -15.5t-4 -15.5q-9 -34 -17 -49q-2 -5 -9.5 -21t-12.5 -24q-3 -11 -15 -22q0 -5 -4 -13q-7 -19 -26.5 -52.5t-22.5 -39.5 q-1 -2 -12 -16.5t-18 -20.5q-3 0 -3 -2q3 0 3 -2q5 -5 30 -34q22 -26 31 -39q2 -3 6 -8.5t6 -8.5t7 -6t6 -4q4 -6 14 -16q2 -1 10 -9q-1 0 4 -6q5 -3 14 -13t13 -13q12 -12 26 -33q2 -3 13 -14q4 -4 4 -9zM1174 653q0 4 1 12t1 11v63q0 54 -9 84q-2 7 -5 25t-6.5 31t-8.5 24 q-4 7 -14 33.5t-19 38.5q-11 11 -14 22q-2 4 -5 11l-3 6l-10 20t-11 21q-4 5 -12 16t-12 16l-29 29q-5 6 -17.5 13t-15.5 10q-15 10 -35 26q-19 11 -37 29q-2 1 -5 4t-5 4q-4 1 -29 6q-3 1 -19 6.5t-24 6.5q-32 4 -47 4q-8 -1 -22 -4t-19 -4q-42 -5 -49 -7q-6 -2 -19.5 -4 t-19.5 -4q-33 -5 -45 -10q-3 -1 -10 -5t-10 -5q-3 -2 -21 -11q-4 -4 -16 -12q-12 -4 -18 -8q-1 0 -5 -4q-5 -4 -18 -21q-2 -3 -23 -24q-15 -14 -22 -27q-16 -21 -70 -117q-31 -60 -37 -81q-10 -52 -10 -93v-24q-2 -6 -2 -19q0 -8 1 -23.5t1 -23.5q4 -58 12 -90q4 -17 14 -47 t13 -43q4 -12 6 -16q2 -6 8 -15t7 -12q13 -17 14 -22q2 -3 6 -7.5t6 -7.5q9 -18 10 -22q1 -3 6.5 -8.5t6.5 -8.5q1 -1 2 -4t2 -4l14 -14q3 -2 9.5 -5.5t9.5 -5.5q2 -1 22 -16q2 -2 19 -14q5 -8 16 -15q9 0 12 -6l17 -8q2 -1 6 -2t6 -2q10 -4 30.5 -11.5t30.5 -11.5 q19 -8 31 -10q18 -6 33 -6h35q18 0 26 4q9 3 30 7.5t30 7.5q5 2 14 4t14 4q8 3 19 10q4 2 13 7t13 7q-4 5 -11 15.5t-11 15.5q-5 5 -14 13t-16.5 15.5t-12.5 14.5l-19 18q-2 2 -5 6.5t-5 6.5q-13 13 -33 41q-3 3 -7 10t-7 10q-10 10 -16 19q-11 20 -29 41q-3 3 -9 8t-9 8 q-1 1 -3.5 4t-3.5 4q1 1 -2 4q-6 0 -7.5 5.5t1.5 9.5q0 10 13 10h79q45 0 70 4q23 4 70 4q24 5 28 4q7 -2 11 -10q4 0 8 -4l-1 1l3 -3q4 0 4 -4q2 -1 12 -11q21 -21 25 -26q12 -13 45 -56q8 -8 24 -28q3 -6 13 -21l2 2q19 23 33 68q3 13 12 37.5t12 36.5q5 30 8 39 q6 15 9 30z" />
<glyph unicode="R" horiz-adv-x="1191" d="M729 598h2q0 -4 4 -4q10 -14 15 -23l2 -2v-2l4 -2q6 -6 8 -10q2 -3 7 -9t7 -9q18 -21 39 -52q22 -43 23 -47q0 -1 1 -2t1 -2q4 -6 12 -19.5t12 -19.5q12 -18 13 -20q9 -5 12 -13q8 -12 16 -20q12 -12 17 -25q3 -4 7 -12t7 -12q3 -5 8 -14.5t8 -14.5q2 -4 7.5 -12t7.5 -12 q5 -7 15 -23t17 -24q8 -16 17 -23q11 -9 20 -20q4 -4 31 -48q8 -8 10 -14q1 -1 3.5 -4.5t4.5 -5.5q4 -4 7 -10q1 -1 2 -5t2 -6q5 -9 10 -12q6 -6 6 -12v4l2 -4q10 -5 6 -17q0 -2 -2 -2q-3 -15 -18 -10h-17q-5 2 -10 0h-43h-43q-11 0 -35 -4q-12 -2 -41 -2q-6 0 -18 -2 t-18 -2t-17.5 5t-17.5 5q-15 0 -23 2h-4q-4 -4 -8 -4t-8 2q-2 2 -4 2q-1 1 -2 4t-2 4q-7 7 -7 15q-2 4 -5 11t-5 11q-19 29 -26 37q-25 25 -31 39q-1 3 -4 8t-4 8q-3 5 -8.5 14t-6.5 11q-1 3 -6 8.5t-6 7.5q-4 3 -8 17q-4 9 -23 32q-10 20 -20 35q-18 27 -23 37 q-10 15 -20 35q-2 6 -7.5 18.5t-7.5 18.5q-1 3 -5 9t-5 7l-12 19q-12 28 -23 41q-16 24 -22 36q-12 24 -21 33q-10 7 -10 15l-6 6q-9 9 -12 24q-2 0 -2 2v-10q0 -27 -2 -39q0 -5 -1 -17t-1 -18q4 -20 4 -30q-1 -6 -4.5 -18.5t-4.5 -18.5q0 -5 1.5 -16.5t1.5 -16.5 q0 -6 1 -18.5t1 -18.5q0 -1 -0.5 -4t-0.5 -6t1 -6q0 -2 1 -6.5t1 -6.5q1 -5 1 -11t-0.5 -13t-0.5 -10q0 -27 2 -39v-72q2 -29 2 -82q-1 -12 -1 -35t-1 -34q3 -6 -0.5 -12.5t-10.5 -6.5h-2q-4 -4 -10 -4q-8 0 -12 -2h-12q-4 -1 -16 -0.5t-15 -1.5q-29 -8 -70 -4h-35 q-18 0 -26 2q-6 -2 -17 -2l-30 6q-6 -5 -16.5 -1.5t-10.5 13.5q0 55 2 84v45q0 6 -1 17.5t-1 17.5v35q0 13 -1 40t-1 40q0 15 1 42t1 42v76q-4 50 -2 75q0 6 1 17.5t1 17.5q0 12 6 21q0 6 -1 18t-1 18q-4 33 -2 50q-3 22 -3.5 29t2.5 29.5t3 29.5v86v90v82q0 39 2 47v18 q0 15 2 21v39q0 9 -1 27.5t-1 27.5q0 6 -1 17.5t-1 17.5v33q-6 38 -6 73q-4 50 -4 72q-4 4 0 8q2 10 16 10q9 0 11 2q7 1 22 1t21 1q7 0 21.5 -1t21.5 -1q23 -3 45 0q7 0 21.5 -2t21.5 -2q27 0 39 2q7 3 39.5 0.5t39.5 -2.5q9 0 21 -4q12 2 39 2q6 0 17.5 0.5t20.5 0.5 t17 -1h53q11 -1 30 -7t22 -7q16 -8 24 -10q28 -6 29 -6h2q8 0 22 -9q19 -10 21 -10q1 0 3 -1t3 -1q0 -2 4 -2q4 4 8 0q3 0 27 -12l2 -2h2q1 -1 4.5 -2t5.5 -2t7.5 -4.5t7.5 -4.5q3 -2 7 -7.5t5 -6.5q8 -6 14 -14q7 -7 27 -37q5 -8 17.5 -24t20 -28.5t11.5 -25.5 q11 -22 14 -39q0 -4 2 -6q1 -2 2 -7.5t2 -8.5q6 -25 9 -56q4 -16 4 -26q1 -4 2 -12.5t2 -12.5q0 -6 1 -20t1 -21v-39q0 -4 -1 -10.5t-1 -9.5q0 -15 -2 -21q-4 -29 -10 -43q0 -17 -19 -55q-8 -19 -16 -33q-3 -5 -17 -14q-3 -15 -12 -27q-13 -22 -33 -39q-3 -7 -10 -10 l-12 -12q-20 -20 -68 -41q-4 -4 -6 -4q-8 -4 -10 -4q-2 -1 -6.5 -4.5t-6.5 -4.5q-16 -8 -26 -10q-3 -1 -11 -4t-14 -4h-6l1 1zM692 829q32 35 41 64q4 11 8 37q0 2 1 7.5t1 8.5q0 8 2.5 25.5t2.5 25.5q0 4 -1.5 12.5t-1.5 12.5q0 6 -2 8q-7 50 -20 76q-10 25 -18 31 q-3 2 -8.5 5t-8.5 5l-2 2q-9 6 -18 6q-7 2 -21.5 8t-21.5 8q-4 1 -12.5 2.5t-12.5 2.5q-11 0 -27 4q-39 11 -45 12q-10 2 -28 2h-25q-1 0 -9.5 -1t-8.5 1h-6q1 -10 1 -29.5t1 -29.5q5 -114 4 -138q-2 -43 -2 -131q0 -12 2 -34t2 -33q2 -10 2 -29q14 2 37 2h39q22 0 34 4l7 3 l10 5q3 1 9.5 2t10.5 2q5 1 15.5 5.5t15.5 5.5q12 4 20 6q1 0 5.5 1t5.5 1q13 9 22 22z" />
<glyph unicode="S" horiz-adv-x="1017" d="M958 477v-45q0 -35 -2 -53q0 -9 -10 -49q-1 -4 -2 -12.5t-2 -12.5t-4 -11t-4 -11q-4 -18 -8 -27q-5 -5 -8 -14q0 -2 -1.5 -6t-1.5 -5v-2q0 -2 -2 -2v-4q-2 -2 -2 -4q-2 -8 -10 -24q-1 -3 -4.5 -10.5t-5.5 -10.5q-14 -14 -17 -16q-3 -3 -9 -8.5t-9 -8.5q0 -8 -14 -22 q-4 -5 -11.5 -14.5t-11.5 -14.5q-18 -18 -28 -20q-4 -7 -11 -11q-35 -30 -47 -34q-47 -16 -53 -17q-11 -3 -29 -10q-13 -3 -20 -8q-20 -8 -31 -8q-10 0 -16 2q-2 -2 -6 -2q-4 -1 -12.5 -2.5t-12.5 -2.5q-9 -1 -27.5 -2t-27.5 -2q-32 -4 -47 -2q-5 0 -21 4q-2 0 -22 5 q-1 0 -9.5 3t-13.5 3q-2 0 -6.5 1t-7.5 1q-4 4 -9 4q-15 3 -24 10q-15 8 -25 10q-3 2 -9 5.5t-9 5.5q-2 1 -5 2t-5 2q-3 2 -11.5 5t-11.5 5q-4 2 -8 10q-1 1 -4 2t-4 2q-4 3 -12.5 8.5t-12.5 8.5q-10 10 -16 14l-8 8q-1 1 -11 6q-2 2 -6 5t-6 5q-9 6 -18 15q-9 6 -21 18 q-4 2 -10 8.5t-8 8.5q-8 5 -15 16q-6 12 -12 21q-11 16 -12 20q-1 5 -8 17t-7 20v8q6 12 13 8h2l6 6q5 2 8 9l4 2l15 14q4 4 12 8q1 1 3 2t3 2q15 15 21 23l20 20q18 18 20 23q15 20 17 24q7 15 14 19h2q9 4 15 -2q6 -3 6 -13l12 -24q6 -18 23 -35l12 -18q2 -3 5 -9.5 t5 -9.5q2 -2 7 -6t7 -6q0 -2 2 -2q20 -16 35 -21q7 -1 21 -12l14 -10q10 -5 37 -14q4 -1 11 -4.5l9 -4.5q7 0 9 -2q22 -5 28 -4q1 0 12 3t17 3t17.5 1t17.5 1h10q7 7 16 13q5 3 15.5 8.5t18.5 10.5t13 11q12 12 27 52q2 5 7 15t7 15q5 11 9 29q5 25 6 29v12q-2 4 -2 12 q0 7 -4 19v4q-4 5 -6.5 13t-5 17.5t-3.5 12.5q-3 6 -8 26h-2q-19 29 -49 52q-3 2 -8 7t-8 7q-2 1 -7 2t-8 2q-46 23 -61 27q-26 9 -37 16q-18 11 -31 16q-30 12 -33 13q-4 1 -32 12q-15 5 -37 16q-6 2 -16 11.5t-11 9.5q-22 9 -29 14q-7 2 -18.5 9.5t-15.5 9.5q-14 7 -21 14 q-8 6 -14 14q-15 18 -23 35q-4 5 -10 16.5t-10 16.5q-2 3 -6 8t-6 8q-1 1 -2 5t-2 6.5t-3 3.5q-15 18 -18 41q-6 40 -6 41q-1 6 -4 21t-4 24q-2 7 -2 43q0 18 2 26q4 6 4 19q4 22 10 41q4 8 8 25t4 18q10 23 15 41l18 43q2 6 10 18q4 4 4 6l4 6q0 1 2 2t3 2q0 2 6 2 q0 5 4 13q11 16 18 16q0 2 2 2q1 1 2 4.5t2 5.5q4 8 21 21q4 4 12 8q2 1 5 5t5 5q5 3 15.5 8.5t15.5 8.5q2 1 12.5 8.5t16.5 9.5q19 11 33 17q5 2 14 7t14 7q40 19 94 16q13 4 23 2q5 0 15.5 1t15.5 1q6 0 16.5 -1t15.5 -1q13 0 19 -2q2 0 10 -4q15 -3 33 -6q4 -1 14 -2 t15 -2q4 -2 12 -2t12 -2q4 -1 12.5 -5t12.5 -5q20 -10 35 -15q5 -2 15 -5t15 -5q9 -3 25.5 -13.5t25.5 -13.5q16 -7 52 -34q3 -2 11 -7t12 -8t6.5 -9.5t0.5 -14.5q-3 -6 -6 -9q0 -6 -4 -8q-6 -6 -13.5 -18t-10.5 -15t-13 -18q-1 -2 -4 -5t-4 -5q0 -1 -1 -3.5t-1 -4.5 q-4 -9 -15 -25.5t-12 -19.5q-6 -12 -12 -21l-12 -12q3 -7 -0.5 -13t-9.5 -8q-9 -9 -13 2q-6 0 -10 11q-2 4 -14 16q-10 15 -13 18q-4 2 -11 7.5t-11 7.5q-5 5 -23 14q-10 6 -31 12t-28 9q-11 4 -55 4h-33q-26 0 -31 -2q-22 -5 -49 -25q-6 -4 -14 -16l-19 -19q-4 0 -4 -4 q-2 -2 -8 -14q-8 -14 -16 -33q-6 -8 -9 -23v-26q6 -16 9 -29q1 -4 5 -11t5 -11q2 -3 3 -10.5t3 -10.5q6 -12 37 -35q1 0 3.5 -2.5t4.5 -3.5q1 0 4.5 -1t5.5 -1q3 -2 8.5 -5t8.5 -5q16 -8 26 -14q3 -2 21 -11q4 -2 16 -6q3 -1 8.5 -4t8.5 -4q24 -7 38 -16q5 0 9 -4q2 2 8 2 l14 -7q6 -3 19.5 -7t19.5 -7q5 -3 15.5 -11t15.5 -11l24 -13q14 -7 15 -8q6 -4 20 -10t17 -8q37 -18 65 -49q10 -15 14 -19l13 -18q2 -5 9 -16t9 -17q18 -18 25 -47q2 -5 8 -29q8 -15 10 -27q2 -10 2.5 -29.5t1.5 -25.5q2 -6 2 -16q1 -4 3 -13.5t3 -13.5z" />
<glyph unicode="T" horiz-adv-x="923" d="M897 1284q0 -4 -1 -11t-1 -11v-56q0 -5 -6 -8q-2 -8 -9.5 -13t-15.5 -1q-5 2 -37 2q-2 0 -8.5 -1t-9.5 -1h-43q-3 0 -9 -1t-9 -1h-37h-45q-7 0 -22.5 -1t-22.5 -1q-4 0 -12.5 1t-12.5 1v-33q0 -11 1 -34t1 -34q-1 -19 -1 -40.5t0.5 -48.5t0.5 -42q0 -52 2 -61 q2 -12 2 -33q1 -4 2 -14t2 -15q0 -19 -1 -58t-1 -56q0 -6 -2 -8q0 -3 -4 -7q0 -5 1 -15t1 -15q0 -6 1 -20t1 -21q0 -16 1 -44t1 -42q0 -31 2 -45q0 -15 -4 -43v-45q6 -42 6 -43v-46q0 -5 1 -15t1 -15q4 -27 4 -84v-92q1 -6 -4 -41v-21q7 -14 -6 -24q9 -9 2 -19 q-6 -12 -33 -12q-8 -2 -22 -2q-16 -4 -23 -4h-47q-6 0 -14 4q-6 -2 -14 -2q-3 0 -9.5 -1t-9.5 -1q-6 2 -18 2h-35h-16q-1 0 -8 1.5t-9 0.5q-16 -4 -24 0q-12 8 -2 18q2 2 4 2v4q0 18 -1.5 76.5t-0.5 89.5q0 27 -2 41q0 6 -1.5 19.5t-1.5 19.5q0 12 -1 37t-1 37 q-1 13 -1 40.5t-1 41.5q0 15 -1 41.5t-1 38.5q0 7 1 20t1 19v39q0 24 2 36q-2 8 -2 27q-2 21 2 61v17q0 7 -1 21t-1 20v41q0 1 0.5 39t-0.5 39q-2 27 -2 159q0 49 2 74v16q-3 12 0 21v18q1 3 2 9t2 8h-75q-8 0 -25.5 1t-25.5 1h-15q-24 -8 -37 -8q-24 -3 -47 0q-8 1 -23.5 2 t-23.5 2q-23 5 -14 22v2v23v55q-4 24 -4 29v28q1 4 1 9.5t-0.5 12t-0.5 9.5v41l-2 2v8l2 2q3 9 12 9h2q8 2 25 2h26q35 0 49 -2q43 -11 45 -11q12 -4 19 -2q4 0 10.5 2t9.5 2q8 2 24.5 3t20.5 2q18 4 50 4q8 0 23.5 2t23.5 2q42 -6 43 -6q8 0 24.5 1t24.5 1q31 0 45 2 q7 0 22.5 1t22.5 1t20 -1t19 -1q18 2 53 2q29 0 41 -2q9 -1 26 1.5t23 2.5h119q12 0 18 -2q12 0 15 -8h2q3 0 4.5 -3t-0.5 -4v-6q0 -1 1 -4.5t1 -5.5q0 -21 2 -33q0 -9 1 -27.5t1 -27.5v-35z" />
<glyph unicode="U" horiz-adv-x="1345" d="M1221 1366q0 -130 -2 -156q-2 -65 2 -196q0 -162 -2 -195q-1 -8 -2.5 -23t-2.5 -22v-74q0 -35 -2 -53v-147q0 -2 -1 -7.5t-1 -7.5v-28q-4 -26 -8 -39q0 -3 -18 -76q-1 -6 -4 -18.5t-4 -18.5q0 -9 -9 -22q0 -2 -1 -5t-1 -4q-2 -7 -7 -21.5t-7 -21.5q-5 -16 -23 -38 q-5 -10 -6 -11q-8 -16 -14 -22q-16 -22 -18 -23q-25 -20 -27 -22q-5 -5 -14 -15t-13 -14q-4 -3 -13 -8t-13 -8q-2 -3 -5 -6t-7.5 -7t-6.5 -6q-2 -1 -6 -2t-6 -2l-37 -24q-4 -2 -13.5 -7t-17 -8t-14.5 -4h-10q-6 -6 -13 -6q-7 -4 -26 0q-1 -1 -4 -2t-4 -2h-4q-30 -12 -66 -12 q-4 0 -10.5 1t-9.5 1h-17q-12 -4 -14 -4q-9 -3 -19 -3q-32 -3 -57 5q-7 -1 -22 -1t-23 -1q-35 0 -51 6q-2 1 -9 4t-12 4q-1 0 -4.5 1t-5.5 1q-8 2 -24 10q-11 8 -29 19q-2 1 -7 4t-7 4q-3 1 -10.5 2t-10.5 2q-24 3 -43 16q-5 4 -13.5 13.5t-13.5 13.5q-5 5 -16 14.5 t-16 14.5q-18 15 -33 30q-2 2 -6 7.5t-6 7.5l-13 12q-11 27 -12 33q-4 4 0 4q-4 4 -4 6q-1 3 -5 11t-5 11q0 1 -1 4.5t-1 4.5q-6 6 -9 14q0 6 -2 8q-2 5 -7 16.5t-7 16.5v4l-12 31q-1 7 -6.5 19t-6.5 16q-2 5 -4 16t-4 16q0 2 -2 16.5t-4 22.5q-8 24 -8 41q0 23 -2 35 q-3 6 0 14v47v66q4 16 4 25v75q0 5 0.5 13.5t0.5 16t-1 13.5q0 4 -1 11t-1 10v24q0 8 1 23.5t1 23.5q-4 28 -4 46v143v96q-2 16 -2 47q0 27 2 39q4 24 4 41q-4 8 -4 12t1 12.5t1 12.5v88q-4 12 2 16q11 9 53 9q51 0 78 2q28 0 33 -2q4 -1 10 -1t13 0.5t10 0.5q5 0 13.5 -2 t12.5 -2q21 0 31 2q6 3 12 0q13 0 13 -13q2 -23 2 -67q0 -10 -5 -68v-53v-43q-2 -16 -2 -92q2 -31 2 -94q-2 -23 -2 -72q7 -4 7 -14q0 -8 -3.5 -24.5t-3.5 -19.5q-1 -7 -1 -21.5t-1 -21.5q-2 -16 -2 -45v-141q4 -4 6 -8q2 -6 2 -13.5t-1 -16t-1 -13.5v-49q3 -43 17 -99 q5 -16 8 -40l6 -13q12 -35 12 -37q1 -4 11 -24v-2q1 -1 2 -4t2 -4q1 -2 12 -23v-2q12 -10 33 -31q12 -12 41 -20l18 -6q21 -10 23 -11q16 -4 49 -4h18q4 1 13.5 2t13.5 2h29l8 4q2 1 7 1.5t7 1.5q6 0 21 10q22 11 26 14q9 6 19 16q17 17 20 21q11 13 29 53q3 8 20 64l19 67 q1 3 3 8.5t3 8.5v57q0 9 1 29t1 30v29q-3 15 0 27q2 2 2 4v196q0 15 4 35q-6 27 -6 56q0 8 -2 23.5t-2 23.5q0 6 1 19.5t1 19.5q0 1 1 45t-1 45q0 8 -2 23.5t-2 23.5q0 7 1 21.5t1 21.5q3 47 6 96q0 57 2 88l-4 8q0 10 8 13q1 0 3.5 1t4.5 1h2q0 2 2 2q4 2 13 -2 q12 -4 18 -4h72q13 0 37 -1.5t35 -1.5h41q3 0 10.5 1.5t11.5 1.5q4 3 11 1.5t10 -8.5v-4h2q0 -4 2 -6v-16q-1 -4 -1 -9.5t0.5 -12t0.5 -9.5z" />
<glyph unicode="V" horiz-adv-x="1339" d="M1284 1456q8 0 13.5 -7.5t2.5 -14.5q0 -5 -6 -11q-2 0 -6 -4q-2 -2 -5 -7t-5 -7q0 -1 -1 -2t-1 -2q-2 -14 -10 -37q-23 -96 -62 -176q-33 -80 -35 -86q-1 -5 -6.5 -20.5t-7.5 -24.5q-4 -8 -8 -25t-4 -18q-5 -15 -15.5 -42.5t-15.5 -41.5q-5 -13 -19.5 -39t-19.5 -41 q-6 -17 -26 -90q-21 -66 -33 -92q-5 -10 -17.5 -32.5t-17.5 -35.5l-31 -86q-17 -61 -22 -86q-2 -7 -7.5 -22.5t-7.5 -22.5q-4 -12 -6 -16l-6 -19q-6 -21 -16 -41q-12 -24 -17 -39q-7 -23 -16 -45q-7 -14 -14 -35l-29 -90q-2 -5 -5.5 -14t-4.5 -12t-4.5 -8.5t-4.5 -8.5 q-3 -12 -8 -22q-1 -2 -4 -5t-4 -5t-2 -5.5t-2 -5.5q-3 -18 -25 -14q-2 -2 -6 -2h-37h-20q-2 0 -6 -2t-6 -2q-18 -3 -37 0q-21 0 -31 2q-11 -5 -22 6q-10 15 -21 37q-3 7 -7 21.5t-7 21.5q-13 19 -19 41q-3 7 -7 21t-7 20q-6 18 -25 80q-5 16 -20 40t-19 35q-3 6 -14 50 q-1 5 -12 45q-5 19 -29 88q-19 55 -33 80q-16 24 -22 36q-4 7 -8 21q-1 2 -3 8t-3 8q-3 8 -6.5 24.5t-4.5 20.5q-1 7 -7 19t-7 16q-3 6 -5 19.5t-5 19.5q-4 12 -6 16q-2 5 -4.5 13.5t-2.5 9.5q-11 40 -12 41q-2 6 -7 17.5t-7 17.5q-2 5 -7.5 18t-7.5 21q-2 6 -12 41 q-21 62 -28 86q-4 26 -11 43q-5 15 -16 37l-6 18q-1 2 -4 7t-4 7q-2 8 -7.5 20t-7.5 17q-3 7 -8 20.5t-8 20.5q-14 27 -17 39q-5 11 -14 41l-6 25q-1 1 -2 4t-2 4l-2 4q-10 18 -21 43q-3 15 -6 27q-5 4 -2 12t10 8q3 0 8.5 -1t8.5 -1q5 -2 12 0q3 0 14 -1.5t17 -0.5 q6 2 17 2.5t14 1.5q24 4 36 4q6 -1 17.5 -2t17.5 -2q10 -2 31 -2q20 -3 39 0q3 0 12 1.5t14 0.5q6 6 15 2q8 -6 14 -14q1 -2 4.5 -8t3.5 -9q9 -27 15 -51l6 -31q1 -4 4 -12t4 -12q1 -3 3 -13.5t3 -13.5q2 -4 6 -11t6 -11q1 -6 11 -25q8 -16 14 -24q5 -11 12.5 -32t7.5 -22 q2 -5 10 -24.5t13 -28.5q3 -8 7 -24.5t7 -24.5q23 -83 25 -88q5 -13 17.5 -39.5t17.5 -40.5q11 -26 19.5 -53t19.5 -71t14 -54q9 -35 31 -88q4 -13 17.5 -43t17.5 -47q0 -1 4 -18t8 -25v-2q3 12 8 22q6 13 10 27q4 16 8 24q9 19 11 27q2 6 6 22q3 7 11 22.5t11 22.5 q3 8 10.5 24t10.5 24q1 1 12 47q3 8 9.5 23.5t9.5 23.5q3 6 8 20.5t8 20.5q5 12 14 43q2 6 8.5 18.5t8.5 18.5q1 3 4.5 17.5t7.5 21.5l12 36q1 7 5 21.5t5 21.5q1 5 11 41q5 14 13 44.5t13 45.5q4 10 12 28t13.5 33t9.5 30q3 11 13.5 37.5t13.5 41.5q3 8 7 24.5t7 23.5 q4 10 8 30q0 13 2 19l6 6q4 4 9 4q15 7 39 4q6 0 20 1t21 1t22.5 -1t22.5 -1h20q2 0 6 -1t6 -1q12 6 25 6h92z" />
<glyph unicode="W" horiz-adv-x="1937" d="M1898 1419v-4q0 -8 -2.5 -16t-7.5 -20t-6 -15q-4 -9 -10 -29t-10 -30q-2 -2 -2 -7l-13 -36q-3 -7 -8 -22.5t-8 -22.5q6 -3 2 -11q-5 -10 -8 -22q-3 -16 -13 -33q-2 -6 -7 -17.5t-7 -17.5q-17 -57 -22 -80q-2 -9 -23 -80q-4 -11 -13.5 -34t-13.5 -35q-1 -9 -12 -35 q-5 -30 -8 -39q-2 -6 -10 -10q-4 -9 -8 -31q-1 -6 -2.5 -17.5t-2.5 -17.5q-2 -8 -12 -18q-4 -14 -12 -41.5t-12 -40.5q-17 -40 -19 -45q-7 -13 -14 -39q-2 -6 -7.5 -19.5t-7.5 -19.5q-1 -3 -3 -10t-3 -10l-6 -19q-3 -18 -13 -47.5t-13 -38.5q-2 -8 -6.5 -23.5t-6.5 -23.5 q-2 -7 -9.5 -20t-8.5 -15q-3 -6 -7 -19.5t-7 -19.5q-2 -6 -7.5 -18.5t-7.5 -18.5q-15 -54 -26 -84q-2 -2 -5 -8q-2 -16 -10 -43q-6 -18 -8 -22q0 -4 -2 -6q10 -10 0 -17q0 -1 -1 -2t-1 -2q-1 -2 -3 -7t-3 -7q3 0 6 -6q4 -12 -6 -15v-16q-4 -11 -17 -8q-2 2 -4 2h-45 q-8 0 -24 -1t-23 -1q-8 -1 -24 -1t-23 -1q-21 -6 -43 -6q-16 0 -16 16l-2 4q-6 6 -9 12q-8 13 -8 35q0 7 -3.5 19t-4.5 16l-12 37q-2 7 -6.5 20.5t-6.5 20.5q-9 31 -14 43q-5 17 -16 43q-5 14 -12.5 43t-12.5 43q-6 14 -10 47q-2 6 -6 19.5t-6 19.5q-2 7 -5.5 21.5 t-5.5 21.5t-6 20.5t-6 20.5q-4 12 -8 18q-1 3 -4 9.5t-4 9.5q-3 6 -13 41q-4 14 -13 43t-13 43q-10 50 -23 84q-2 7 -16 36.5t-16 47.5q0 1 -3 4q0 5 3 8q-8 16 -15 37l-6 37q-1 4 -2 12t-2 12q-2 -10 -6 -26l-12 -50q-9 -18 -9 -22q-5 -20 -6 -23q-5 -10 -8 -22 q-3 -15 -6 -27q-4 -8 -8 -24q-6 -15 -9 -27q0 -11 -4 -27q-1 -4 -2 -11.5t-2 -10.5q-6 -16 -10 -47q-7 -25 -10 -45q-10 -40 -13 -47q-1 -5 -12 -39q-6 -17 -12.5 -48.5t-11.5 -44.5q-12 -47 -21 -90q-8 -37 -30 -104t-25 -78q-13 -31 -19 -41q-3 -6 -7 -19.5t-7 -19.5 q-4 -11 -8 -37q-2 0 -2 -4q9 -9 0 -22q-4 -4 -9.5 -5t-13 -1.5t-10.5 -1.5h-31q-42 0 -65 2h-12l-7 -2q-4 0 -10.5 -1.5t-9.5 -1.5q-16 0 -27 11q-6 2 -12 8l-6 6l-4 8v13q0 4 -4 8q-4 12 -4 18v2q-8 12 -11 21q-6 14 -16 41.5t-16 40.5q-13 26 -15 41q-8 27 -10 45 q-2 7 -7 21.5t-7 21.5q-2 5 -7.5 18t-7.5 21q-8 36 -24 79q-4 16 -10.5 48t-10.5 47q-11 54 -22 90l-13 39q-7 13 -14 39q0 10 -4 22q-1 3 -4 9.5t-4 9.5q-8 24 -10 36q-3 15 -13.5 42t-13.5 40q-10 40 -12 47q-16 37 -17 41q-2 14 -10 37q-8 13 -8 31q-7 25 -14 41 q-26 76 -29 86q-10 35 -12 41q-3 6 -8.5 17.5t-8.5 17.5q-9 18 -12 43q-8 27 -10 43q-3 22 -9 47q-6 21 -12 45q-1 3 -3 10t-3 10q-1 1 -8 15q0 4 -2 6q-4 4 -4 12q-5 5 -2 10v2q-3 3 -1.5 6t5 4t6.5 -1v-2q14 7 55 2q5 0 16.5 1t16.5 1q26 0 31 -2q16 -4 22 -4h35 q5 0 14 1.5t16.5 1.5t12.5 -3q4 1 10.5 2t9.5 2q1 0 4.5 1t4.5 1q7 6 14 4q7 0 10 -8v-2q4 -4 4 -9q2 -10 8.5 -29.5t8.5 -29.5q1 -6 5 -19.5t5 -19.5q4 -26 8 -41q11 -50 23 -82q12 -24 14 -37q1 -3 2 -10t2 -10t4 -9.5t4 -9.5q2 -8 7.5 -24.5t7.5 -24.5q2 -5 7 -20.5 t7 -24.5q3 -10 29 -92q2 -6 14.5 -39t17.5 -51q5 -16 12.5 -47t12.5 -47q21 -81 23 -92q1 -9 7 -26.5t7 -19.5q2 -16 10 -43q1 -9 6.5 -24t7.5 -21q10 -34 11 -43l6 -30q1 3 24 92q2 9 7.5 24t7.5 21l6 24q2 3 5 9.5t5 9.5q1 3 3 10t3 10t4 9.5t4 9.5q1 2 2 9.5t3 12.5 q0 1 3.5 9.5t4.5 13.5q1 4 3 11t3 11l6 19q4 30 8 43q4 16 10.5 48.5t10.5 47.5q7 27 28 87.5t29 94.5q12 47 27 93q15 60 30 90q9 21 23 90q4 33 10 47q2 3 5 9t5 9q2 2 2 11q-5 4 -2 12.5t13 9.5q7 0 20.5 2t20.5 2q12 2 39 2q12 0 36 -4l9 -2q6 2 16 2h2q15 5 18 -8 q3 -17 13 -37q6 -15 10 -41q4 -15 11.5 -43.5t11.5 -42.5l12 -43q12 -35 12 -37q2 -6 5 -18.5t5 -18.5q1 -3 7 -15.5t8 -19.5q9 -26 17 -56t17.5 -67.5t14.5 -56.5q14 -56 26 -92q16 -42 17 -47q2 -7 5 -20t5 -19q16 -96 45 -178q3 -9 17 -37q3 -6 8 -18.5t8 -18.5 q3 -9 16 -35v4q0 1 1 2.5t1 2.5l6 12q2 3 4.5 12.5t4.5 13.5q4 22 8 31q2 5 7 16.5t7 16.5q1 3 2 7.5t2 6.5q4 12 4 19q1 3 11 18q6 15 12.5 44t9.5 38q2 7 12 47q2 7 5.5 21.5t5.5 19.5q2 7 6 20.5t6 20.5q0 1 6 19q1 3 2 8.5t2 7.5q0 1 2 8.5t4 11.5q4 8 4 13q10 35 11 41 q4 15 11 45.5t11 46.5l13 43q4 7 8 21.5t4 15.5t4 18t8 25q1 3 4 10t4 10q8 12 8 19q5 19 16.5 51.5t14.5 40.5q8 27 10 43q0 2 5 12q0 4 4 16v5q0 6 3 18t3 18q0 15 14 15q6 0 8 -2q8 -4 16.5 -5t23.5 0t18 1q10 1 29.5 3t29.5 3h37q4 0 13 2t14 2q11 0 33.5 -1t35.5 -1 q8 0 12 -8t2 -15z" />
<glyph unicode="X" horiz-adv-x="1368" d="M1278 10q6 -10 -2 -18t-16 -2q-6 -2 -19 -2q-4 -1 -10 -1t-13.5 0.5t-11.5 0.5h-4q-5 1 -15.5 2t-15.5 2q-23 2 -63 2q-43 0 -66 -4l-86 12h-4q-4 4 -6 8q-4 4 -6.5 9t-4.5 11l-3 9q-5 13 -23 39q-9 18 -16 39q-3 7 -7 19.5t-5 15.5q-7 17 -21 34q-6 7 -20 31 q-3 6 -10.5 19.5t-10.5 19.5q-16 32 -20 37q-23 35 -25 39q-12 29 -14 33q-4 6 -8 18q-8 8 -11 16q-5 13 -16 31q-2 2 -5 7t-5 7l-13 19q-15 19 -20 33q-4 8 -6 14q-29 -42 -39 -64q-17 -33 -37 -81q-16 -40 -43 -70q-8 -10 -15 -23t-15.5 -29t-12.5 -24q-3 -6 -9 -19.5 t-9 -19.5l-19 -37q-3 -6 -7 -18.5t-7 -18.5q-3 -5 -10 -16t-9 -16q-13 -27 -20 -35q-2 -2 -6 -7t-6 -7q0 -1 -1 -2.5t-1 -2.5q2 -6 -3 -12.5t-14 -7.5h-67q-12 1 -35 2t-35 2q-16 4 -23 4q-28 -4 -38 -4h-25q-4 0 -11.5 -1t-11.5 -1h-51q-7 0 -10 6t0 10v5q0 6 2 8q0 2 2 2 q0 2 2 4v4q0 4 4 4v2q1 2 4 5t4 5q16 27 17 29q7 13 21.5 34.5t19.5 29.5q11 16 41 65q6 10 17.5 26.5t15.5 22.5l24 37q21 35 37 59q16 21 41 58q6 8 18 28q2 6 8.5 15t8.5 12q1 2 4 7t4 7t7 16t11 21q4 4 7 4q0 1 1 3.5t1 3.5q6 10 18 26q1 2 6 10t6 13q2 6 8 14.5t7 11.5 l2 2q2 3 10 19q2 4 6 8q4 12 8 18q5 7 12.5 25t12.5 25q2 4 16 28l6 13q-2 2 -2 6q-1 2 -4 6t-4 6l-6 12q-5 21 -8 25q-3 8 -17 31q-14 21 -32 57q-5 10 -14.5 30.5t-14.5 30.5q-14 31 -70 109q-5 8 -14 24.5t-14 24.5l-13 18q-24 34 -45 72q-3 7 -10 21.5t-10 21.5 q-3 6 -8.5 18.5t-8.5 18.5q-4 6 -11 19.5t-11 19.5q-2 3 -7 9t-7 9t-5.5 9.5t-5.5 9.5q-1 2 -6 7.5t-6 8.5q-2 3 -5 8.5t-5 8.5q-1 1 -2.5 4l-3 6t-2.5 6q-5 2 -8.5 7t-2.5 9q7 16 23 13q8 0 10 -2h68q8 0 31 -3.5t36 -1.5q7 0 21 1.5t20 1.5t17 2t16 2h41q30 0 37 -4 q1 -1 2 -3.5t2 -3.5q4 0 8 -4q4 0 4 -6q4 -4 4 -8l4 -4v-2q3 -4 10.5 -12.5t10.5 -12.5q9 -12 35 -65q30 -58 57 -135q4 -8 4 -15q14 -23 17 -31l2 -2q2 -4 7 -12t7 -12q2 -3 5 -8.5t5 -8.5l19 -30l2 -2q5 -7 11.5 -19.5t8.5 -15.5q4 -6 14 -25l25 56q5 12 16.5 34t16.5 33 q7 12 18.5 35.5t14.5 28.5q3 7 13 30.5t17 34.5q5 8 9.5 18.5t8.5 24t7 19.5l37 67q1 2 7 13.5t11 17.5q0 4 4 4q0 4 2 6q0 2 4 2l5 2q7 0 21.5 -1t21.5 -1l18 1q18 0 18 -1q26 -5 33 -4q4 1 15 4t18 4q10 2 31.5 4.5t31.5 4.5q31 5 33 6q12 2 37 2q7 1 11.5 -3.5t4.5 -11.5 q7 0 11 -2q8 -5 4 -14q0 -4 -4 -4l-2 -2q0 -4 -2 -6q0 -1 -1 -2t-1 -2q-2 -3 -6.5 -8.5t-6.5 -8.5q-4 -4 -7 -9t-6 -12t-5 -10q-1 -2 -6.5 -13.5t-10.5 -16.5q-11 -18 -16 -31q-9 -18 -10 -22q-5 -14 -8 -19q-9 -9 -11 -16q-1 -1 -8 -15q-2 -4 -20 -34q-2 -5 -11 -19 q-3 -3 -8 -18q-5 -11 -20 -36t-21 -40q-13 -30 -22 -41q-4 -6 -9.5 -19.5t-9.5 -19.5q-33 -64 -102 -156q-29 -36 -49 -75q0 -1 -1 -2t-1 -2q3 -3 6 -9q2 -4 7 -12t7 -12q23 -32 31 -45q11 -14 27 -41q5 -9 15 -26t11 -19q12 -20 27 -49v-3q1 -2 3.5 -5t4.5 -6t4 -7 q3 -3 14 -25q2 -3 12.5 -21t16.5 -26q2 -4 6 -11t6 -11q5 -5 11 -14q2 -2 5.5 -8.5t4.5 -8.5q4 -4 24 -39q1 -2 9 -17.5t12 -23.5l41 -82q5 -7 12.5 -21.5t9.5 -17.5q6 -17 17 -36q3 -4 5.5 -7.5t5 -7.5t3.5 -6l6 -12q35 -31 43 -45q1 -3 4 -9.5t4 -9.5q0 -3 7 -10 q6 -8 8 -18v-2q6 -6 6 -13v-2z" />
<glyph unicode="Y" horiz-adv-x="1308" d="M1214 1425q7 3 12.5 -4t0.5 -12q0 -6 -2 -8q-9 -17 -27 -43q-3 -4 -8 -11.5t-8 -11.5q-2 -4 -8 -10l-7 -6q-3 -9 -10 -16q-7 -8 -17.5 -25t-13.5 -21q-4 -5 -8 -13t-8.5 -18.5t-7.5 -15.5q0 -1 -3.5 -5.5t-4.5 -8.5l-7.5 -15t-7.5 -18q-8 -19 -45 -76q-31 -51 -47 -67 q-9 -10 -16.5 -23t-15 -29t-13.5 -26q-4 -7 -13.5 -20.5t-13.5 -20.5q-11 -25 -20 -39q-7 -13 -47 -76q-4 -6 -11.5 -19t-11.5 -19l-18 -37q-3 -9 -16 -35v-6q-1 -7 -2.5 -22.5t-2.5 -22.5l-6 -50q-1 -5 -1 -11.5t0.5 -14.5t0.5 -12v-185q0 -75 -2 -114q4 -90 4 -136 q0 -12 -1 -34t-1 -33v-12q0 -1 1 -3.5t1 -3.5q3 -8 -2.5 -14t-13.5 -8h-57h-54q-20 4 -28 4q-9 0 -21 4h-26q-15 0 -23 2h-4q-11 -4 -21 0q-4 0 -12 4q-4 0 -7 6t-1 11v14q0 3 1 9t1 9q0 11 -4 35v41q-2 12 -2 39q0 15 -4 39q0 29 2 43q0 6 0.5 20.5t0.5 22.5t-1.5 20 t-5.5 21q-2 6 -2 43l2 37q0 10 -0.5 29t-0.5 33.5t1 27.5q0 16 1 47t1 47l1 20q1 21 -1 21q0 4 1 11t1 10q-1 4 -4.5 8.5t-3.5 5.5q-22 30 -29 45q-23 45 -27 51q-25 35 -30 45q-3 6 -8.5 19.5t-8.5 19.5q-2 2 -5 7t-5 7q-9 24 -12 27q-4 8 -6 10q-5 6 -33 45l-2 4 q-3 6 -8 11q-23 32 -27 43q-4 5 -12.5 16t-12.5 16q-3 6 -11 17.5t-11 17.5q-2 4 -8 19t-9 22q-9 18 -16 39q-4 10 -22 41q-10 17 -23 33q-2 4 -6 11t-6 11q-2 3 -5.5 8.5t-5.5 8.5l-12 24q-10 15 -14 23q-2 4 -6 13.5t-6 13.5q-1 1 -17 28q-1 2 -4 6t-4 6q-9 13 -10 17 q-2 4 -2 8q-5 6 1 14t15 2q10 3 12 3q3 0 17 -7h20q15 0 21 2q7 0 22.5 2.5t22.5 2.5q11 0 20 -3h2q3 0 9.5 -0.5t12 -0.5t9.5 1q10 0 55 5q14 2 47 2q34 -4 43 -17q2 -2 2 -8l5 -4q11 -19 16 -33q7 -12 18 -35t15 -30q19 -31 35 -68q4 -8 11 -21t13 -23.5t10 -20.5 q38 -89 72 -142q6 -10 18.5 -31.5t18.5 -31.5q8 10 20.5 31t18.5 30q8 13 39.5 55t42.5 68q6 12 15 37t15 37l37 71q19 32 41 60q4 5 17 31q6 12 16 22q1 1 2 4t2 4q0 6 6 6q1 0 2 1t2 1l2 -2q5 0 5 -2q4 0 12 1l8 1q14 -2 41 -2h18q2 0 8 -1t9 -1h41q7 0 23 1t24 1h43 q3 0 9 -2t9 -2q6 2 21 2q20 0 30 4z" />
<glyph unicode="Z" horiz-adv-x="1134" d="M1067 1430q9 3 15 -4t1 -15q-2 -6 -10 -18q-4 -18 -8 -23q-6 -14 -17.5 -41t-17.5 -41q-3 -7 -9 -20.5t-9 -20.5q-4 -6 -12.5 -17.5t-12.5 -17.5q-23 -34 -26 -38l-19 -25q-3 -5 -8 -15.5t-8 -15.5q-19 -32 -45 -86q-10 -18 -21 -43q-9 -21 -18 -39q-15 -36 -43 -80 q-8 -13 -21.5 -40.5t-21.5 -41.5q-7 -14 -23 -38q-3 -6 -10 -17.5t-10 -17.5q-4 -4 -6 -4q-3 -10 -11 -23q-1 -2 -8.5 -15t-9.5 -20q-3 -8 -14 -21t-13 -16q-12 -16 -16 -24q-7 -12 -27 -51q-34 -62 -45 -86q-7 -16 -19 -46.5t-16 -39.5q-5 -8 -14 -25t-14 -25 q-1 -4 -5.5 -11t-5.5 -11q-2 -2 -8 -14q-4 -15 -8 -19q-1 -3 -2 -9t-2 -9q-2 -2 -2 -4h25q6 0 22 -4h16q3 6 9 6q5 2 26 -2h23q4 2 10 2q10 2 31 -2h30q6 0 17.5 3t17.5 3h103q20 0 32 2l15 1q14 1 14 -1q10 -2 31 -2l31 6q13 1 37 -0.5t32 -1.5q42 0 53 -8q6 2 12.5 -2 t6.5 -11q0 -9 1 -26t1 -25v-59v-31q0 -4 1 -11.5t1 -10.5q-4 -20 -4 -27q4 -4 4 -12q0 -11 -6 -17q-3 -7 -11 -9t-14 3h-37q-31 -3 -61 0q-17 0 -25 2q-3 0 -8.5 -1t-7.5 -1q-48 -8 -72 0q-10 4 -32 4h-11q-14 -2 -43 -2q-4 0 -11 -2t-11 -2q-8 -2 -23 -2q-4 0 -12 1t-12 1 q-3 0 -8.5 -1t-8.5 -1q-7 -1 -21.5 -2t-21.5 -2q-27 0 -41 4l-4 4q-3 -1 -9.5 -2t-10.5 -2q-8 0 -24.5 -2t-24.5 -2q-17 0 -45 4q-8 1 -24.5 2t-23.5 2q-4 0 -10.5 1t-9.5 1h-2h-25q-27 0 -39 -2q-27 -4 -39 -2q-6 0 -18 4q-6 0 -10 -2h-23q-7 0 -22.5 -1t-22.5 -1 q-17 -1 -46.5 0.5t-39.5 1.5q-4 0 -12.5 -1t-16 -1t-12.5 2q-5 -4 -11.5 -2t-6.5 8v11q0 2 4 6q3 18 16 34q4 7 13.5 20.5t13.5 20.5t11 21.5t11 21.5q1 2 19 37q4 11 17.5 34t17.5 36q11 34 20 41q15 31 29 49q0 1 1 3t1 3q1 5 4 11t7.5 13t6.5 11q9 16 27 41q2 2 6 10 q10 20 19 41l8 8q1 2 3 5.5t3 5.5q11 26 22 45q3 7 10.5 20.5t10.5 20.5q12 24 20 36q4 7 12.5 20.5t12.5 20.5q9 14 20 39q17 31 43 90t39 84q21 44 45 84l50 86q25 52 45 88q18 31 26 41q5 10 8 13q-20 0 -28 -4q-27 -5 -62 -2q-37 0 -55 2q-25 0 -37 2q-20 4 -29 4 q-28 3 -59 0q-36 -4 -55 -4h-35q-19 0 -59 -4q-45 -5 -109 2q-17 -8 -20 10v6l2 4v4h2v43v49q6 54 6 56q1 0 1 26l-1 27l2 2v4q4 11 14 6q37 4 109 4q18 0 28 2q15 5 23 7q27 0 51 -3q8 0 25.5 -2t25.5 -2h52q6 0 22 -5t25 -3q40 5 47 6q23 2 63 -2q6 6 10 6q3 0 9.5 -2 t9.5 -2q6 2 20 2q6 0 18.5 -3t18.5 -3q25 0 37 2q6 0 18 3t19 3q13 1 27 1t31 -0.5t26 -0.5q7 0 20 -1t19 -1h33q4 2 12 2q4 -1 4 0q1 1 4 2.5t4 2.5q3 2 19 2q6 0 14 4q38 0 45 -2q10 -4 33 -4q1 0 4 -3q3 3 4 3h2z" />
<glyph unicode="[" horiz-adv-x="579" d="M532 18q3 -7 3 -32q-3 -18 -3 -37q0 -7 -1 -22.5t-1 -22.5v-25q0 -1 -2 -3t-2 -3v-6q0 -2 -2 -2q0 -17 -14 -17q-33 0 -47 2q-25 7 -43 7h-45q-6 0 -19 2t-20 2q-5 0 -12 1t-15.5 2.5t-13.5 2.5q-13 0 -45 -4q-5 0 -13.5 -0.5t-15.5 -0.5t-12 1q-7 0 -19 4l-2 2 q-5 -5 -10 -2h-4q-7 0 -9.5 7.5t3.5 12.5q-2 8 -2 27q-1 5 -2 15.5t-2 15.5q-2 6 -2 37v41q0 7 2 19.5t2 18.5v41q1 15 -2.5 40.5t-3.5 37.5q4 111 2 170q0 66 4 84l6 43q-12 8 -6 21q3 3 3.5 6.5t-0.5 9.5t-1 8v43q0 27 -2 41t-2 43q0 15 2 46t2 46v43q0 4 2 11.5t2 11.5 v18q-5 40 -6 47q0 30 -2 46q-2 29 -2 88v200v101q1 17 6 94v194q0 3 4 7h-2q-2 6 1 11t9 5h2q2 2 8 2h2l5 -2l2 -2q4 -4 12 -4h88q23 2 70 2q11 0 33.5 -2t35.5 -2h68q14 0 22.5 -8t8.5 -21q-3 -34 -3 -68q0 -7 1 -19.5t1 -22.5t-2 -19q-1 -8 -9.5 -9.5t-14.5 3.5h-14 q-3 -1 -10.5 -3t-10.5 -3q-33 0 -47 2q-49 5 -57 4q-13 0 -19 2v-4v-10v-19q0 -57 -2 -86q0 -4 -1 -13t-1 -13q1 0 2 -1.5t2 -1.5q12 -17 8 -57l-6 -37v-35q3 -39 0 -75q-2 -8 -3 -17.5t-1.5 -21t-1.5 -17.5q8 -4 8 -14v-139q0 -12 -1 -33t-1 -31q-2 -23 -2 -63 q0 -66 1 -201t1 -201v-53v-20q2 -6 2 -19q2 -14 1.5 -46t2.5 -44q4 -32 2 -49v-47q0 -5 0.5 -13.5t0.5 -16t-1 -13.5v-6h27q21 -6 45 -6h51h19q4 4 6 4h10q10 2 14 -11z" />
<glyph unicode="\" horiz-adv-x="890" d="M889 35q8 -17 6 -29q-4 -8 -8 -10q-1 0 -3.5 -1t-4.5 -1q-17 -3 -31 8q-9 6 -23 6q-17 3 -30 -2q-3 0 -15 -3t-18 -3q-49 -5 -62 14q-3 5 -18 35q-2 5 -7 16.5t-7 16.5q-27 69 -31 76q-4 10 -10 21t-13.5 24.5t-11.5 21.5q-7 13 -17.5 37.5t-15.5 34.5q-13 34 -14 37 q-8 16 -14 24q-31 55 -31 56q-2 4 -25 61q-10 25 -12 29q-2 5 -5 14t-5 14q-3 9 -12.5 25t-12.5 21q-9 22 -10 28q0 4 -2 6q-7 17 -10 33q-11 39 -33 82q-5 11 -18.5 38.5t-20.5 43.5q-8 11 -16 41q-3 7 -19 39l-18 43q-3 5 -6 17.5t-6 17.5q-4 7 -8.5 20.5t-6.5 18.5 q-5 7 -16 41q-23 59 -41 92q-5 8 -21 35.5t-24 42.5q-2 4 -9 16t-10 20q-1 4 -5.5 14.5t-4.5 16.5v4q0 1 -1 3t-1 3q-29 60 -35 78q-4 14 -16.5 38t-16.5 34q-6 15 -17 40.5t-15 35.5l-19 36q-6 18 -6 21l-4 4q-4 7 2 13.5t14 4.5q3 0 8.5 -1t8.5 -1q2 2 2 5q2 4 6 3.5 t6 -3.5q34 4 51 0q35 -5 41 -5h25h22q4 1 10.5 1t12 -3.5t2.5 -9.5q12 0 12 -10q1 -7 6.5 -19.5t6.5 -19.5q5 -11 14 -41q3 -7 35 -74q5 -12 18.5 -37t18.5 -38q2 -4 5 -13.5t5 -13.5q7 0 10 -8q2 -10 6 -20.5t10 -22.5t9 -19q2 -5 5 -18.5t5 -18.5q8 -16 14 -34 q2 -6 7.5 -17.5t7.5 -17.5q2 -5 5 -16.5t5 -16.5q2 -12 10 -31l12 -30q7 -21 15 -37l6 -13q0 -1 1 -2t1 -2q2 -1 5 -5l3 -5q2 -5 5 -14.5t5 -14.5q5 -22 23 -51q6 -8 14 -28q6 -22 8 -27q3 -9 10.5 -28.5t10.5 -28.5q16 -37 53 -113q4 -7 12.5 -23t14.5 -24q19 -33 22 -45 q3 -4 7 -12.5t6 -10.5q11 -17 18 -37q5 -13 16.5 -38t16.5 -37q6 -16 19.5 -45t15.5 -33q6 -12 15 -38t15 -38q18 -31 39 -76q20 -46 33 -80q4 -13 13.5 -38t13.5 -39z" />
<glyph unicode="]" horiz-adv-x="583" d="M487 1350q0 -64 -2 -95q-2 -33 -2 -96v-244v-47q-4 -24 -4 -39v-43q0 -9 -6 -12q2 -20 2 -61q2 -25 2 -74q2 -133 2 -401v-201q0 -31 -2 -47q-4 -24 -4 -37q-2 -31 2 -92q2 -8 -2.5 -14.5t-13.5 -6.5q-47 0 -72 -2q-13 0 -37 8q-6 1 -31 -4q-10 -2 -28 -2q-12 -2 -35 -2 q-2 0 -7.5 -2t-8.5 -2h-56q-11 1 -32 2t-33 2q-19 0 -21 10v13v14q-6 23 -2 68v53q-2 4 2 12v2q6 11 13 4h2q18 4 84 4h82v142v18q-5 22 -5 80q0 14 -1 40t-1 40q-2 31 -2.5 89.5t-1.5 76.5v84v43q0 6 2 18.5t2 18.5v192v203v92q4 32 4 49v45q0 27 1.5 83.5t1.5 84.5 q-4 2 -13 2q-18 0 -26 2q-9 1 -28 4.5t-28 4.5q-3 0 -13.5 1.5t-16.5 0.5h-17q-27 0 -35 10q-4 2 -4 10q-2 2 -2 6q-6 6 -6 33v39q0 23 2 35q0 6 4 18q-2 0 -2 4q-2 10 4 23l4 2q8 4 13 2q36 -8 57 -8q24 0 55 -7q31 -3 62 0h61q79 0 105 3q26 4 32 -15q2 -10 -3 -21 t-13 -14q-2 0 -2 -2v-16q0 -19 2 -27q4 -12 4 -20v-25q1 -3 3 -10t3 -10q6 -47 6 -92z" />
<glyph unicode="^" horiz-adv-x="1150" d="M1065 655q3 -11 -4 -18q-4 -16 -17 -16q-29 0 -59 -3q-8 0 -24 -8q-4 -1 -13.5 -3t-13.5 -3q-9 -4 -31 0q-6 0 -16 -1t-15 -1q-17 -3 -32 0q-21 0 -31 2t-10 19q1 2 1 5t1 5q-1 1 -3 2t-3 2t-0.5 3.5t2.5 2.5q0 2 -4 6q-5 5 -9 17l-4 16q-1 5 -5 18.5t-5 20.5q-1 4 -4 18 t-6 21q-3 5 -11 15.5t-10 17.5q-5 8 -11 24.5t-7 18.5v2q-3 9 -10 16q-4 5 -12.5 14.5t-12.5 14.5q-18 24 -20 26q-15 17 -41 60q-13 21 -17 32q-3 6 -6 17.5t-4 15.5q-4 12 -10 35t-10 35v2l-31 -55q-12 -29 -33 -70q-38 -69 -41 -74q-7 -13 -22.5 -35.5t-22.5 -35.5 q-8 -18 -31 -74q-3 -8 -10 -19l-6 -18q-5 -6 -9.5 -19t-6.5 -16q-3 -5 -17 -33q0 -4 -4 -8q5 -6 3 -13.5t-9 -8.5q-4 -4 -12 -4q-2 -5 -8 -6.5t-11 1.5q-1 1 -2 4.5t-2 4.5q-6 0 -8 4q-17 13 -45 4q-10 -4 -27 -4q-16 0 -24 -2h-60q-20 -4 -30 -2h-9q-4 -4 -8 0q-5 -2 -10 2 t-4 10q2 6 7 18.5t7 18.5q6 18 12 39q6 16 21 44.5t16 31.5q2 4 19 43q6 12 22 36q4 7 12 22.5t11 20.5q16 26 18 33q15 35 17 43q1 3 5 8.5t5 8.5q2 3 4 9t4 9q10 20 16 41q3 6 7.5 19t7.5 20q1 3 18 43q1 2 7 15.5t12 19.5q2 3 11 16t15 19q2 4 10.5 16.5t10.5 19.5 q3 7 8 20.5t8 20.5q2 5 8.5 18t8.5 21q3 8 14 45q3 6 8 21l6 18l2 2q4 8 13 11q3 0 9.5 3t10.5 3q5 0 15.5 -1t15.5 -1q22 0 32 -2q17 0 25 2q5 2 31 2q13 0 33 8q20 4 32 4h29q6 0 10.5 -5.5t3.5 -12.5q2 0 2 -5q6 -5 9 -16q2 -2 2 -6q2 -6 2 -14q0 -1 1 -3.5t1 -3.5 q17 -33 20 -47q4 -8 4 -12q14 -18 17 -25q8 -12 34 -71q16 -32 17 -35l12 -25q5 -10 14 -37q4 -11 15 -30q17 -34 18 -37q2 -5 6.5 -16.5t6.5 -16.5t7 -15.5t7 -15.5q12 -24 16 -36q8 -20 17 -27q10 -14 16 -25q5 -7 8 -20q12 -9 19 -23q3 -5 7 -15t7 -15q1 -1 4.5 -13 t7.5 -18l13 -25q5 -10 14 -32t16 -33q26 -52 29 -62z" />
<glyph unicode="_" horiz-adv-x="1171" d="M1065 -135q7 -10 -0.5 -18.5t-17.5 -6.5h-58h-49q-5 0 -14 -1t-13 -1h-24q-5 1 -14.5 2t-14.5 2q-32 -4 -51 -4h-43q-24 -4 -37 -4q-77 0 -92 2q-3 0 -20 3t-25 3h-92q-17 0 -45 -4q-33 -2 -95 -2q-31 0 -45 2h-16q-4 -1 -8 -4q-3 -1 -4 -2h-25h-18q-31 0 -47 2 q-14 2 -43 2q-2 0 -8.5 1t-12.5 1t-10 -2q0 -2 -2 -4q-4 -4 -6 -2h-6q-9 4 -5 12q-3 33 0 66q0 5 1 15.5t1 15.5q0 14 3 26q-5 3 -5.5 8.5t5.5 8.5q14 8 49 8h20q4 0 12.5 -3t12.5 -3h53h51q32 -4 47 -4h8q6 2 23 2h43q15 -1 44.5 0t43.5 0q41 -3 184 2q28 4 43 4h41 q14 0 44 1t44 1q28 4 41 4h45q7 0 21.5 1t21.5 1h37q17 0 17 -14q5 -3 5.5 -9.5t-3.5 -11.5q0 -2 -2 -2q4 -8 4 -14q-2 -6 -2 -19v-14q4 -12 4 -14q6 -12 0 -27l4 -4v-2z" />
<glyph unicode="`" horiz-adv-x="980" d="M659 1174q3 -10 -4 -17q7 -14 -6 -27q-12 -16 -39 -32q-9 -5 -57 -29q-9 -6 -21 2q-2 1 -5 2t-5 2q-23 18 -45 51q-1 1 -3 4.5t-3 4.5q-7 7 -37 32q-40 34 -41 35q-8 5 -22 16.5t-19 14.5q-25 20 -35 33q-9 13 -16 18q-28 20 -39 33q-2 0 -4 2.5t-2 3.5h-2q-4 4 -6 8 q0 2 -2 4q-6 2 -9.5 9t-0.5 14q8 11 22 14h2q0 2 2 2l6 6q1 0 17 11q5 3 15 8t15 8q0 11 15 14q14 5 16 6q2 2 7.5 7t8.5 8q1 1 4.5 3t4.5 3q2 2 8 2.5t8 1.5h6l13 6q3 1 7.5 3t8.5 3t8 0q4 0 8 -4q12 4 17 -4q22 -26 51 -74q3 -4 9.5 -16t12.5 -18q1 -1 29 -35 q9 -13 29.5 -38.5t29.5 -39.5q10 -15 13 -18l12 -13q2 -3 6.5 -9t7.5 -11t4 -10z" />
<glyph unicode="a" horiz-adv-x="1097" d="M1028 76q0 -3 -1 -9.5t-1 -9.5q-1 -8 0.5 -23t1.5 -20q-1 -12 -10.5 -16.5t-18.5 0.5q-5 -8 -20 -8q-10 2 -29 2h-35q-1 0 -8 1t-8 -1h-8q-10 -2 -31 2q-3 0 -8 1t-8 1h-13q-3 0 -17.5 3t-18.5 2.5t-17 -3.5q-6 -3 -13 0.5t-7 11.5q0 10 6 19q-2 12 -2 34q-2 -2 -7 -5 t-7 -5q-3 -1 -10.5 -3t-10.5 -3q-4 -4 -10 -4q-4 -8 -8 -10q-7 -10 -17 -15q-6 -3 -17.5 -11t-17.5 -11q-2 0 -9.5 -3t-12.5 -3q-3 0 -9.5 1t-9.5 1q-4 -4 -8 -6q-6 -6 -16 -9q-34 -12 -74 -12h-51q-21 -3 -43 0q-4 0 -10.5 2t-10.5 2q-16 0 -22 2q-17 2 -43 15 q-47 25 -76 47q-13 11 -32 35t-27 32q-28 28 -53 80q-10 14 -21 41q-7 11 -10 19q-2 3 -5 9t-5 9q-25 49 -33 88q-6 32 -10 96v52q3 21 6 45q0 4 1 13t1 13q0 19 2 27q4 15 8 45q3 22 16 41q4 6 11.5 17.5t11.5 17.5q4 8 13 23t11 18q15 23 27 37l12 16t15 18q14 14 28 35 q13 20 35 29q6 3 18 7t17 7q21 12 45 21q24 12 39 14q23 7 45 4h10q5 1 15.5 4t15.5 4q20 3 41 0q6 -1 19.5 -2t19.5 -2l18 -6h8q2 0 6.5 -1t6.5 -1q22 0 35 -8q2 0 5.5 -2.5t4.5 -3.5h12q2 -1 7 -4.5t7 -4.5h5q18 -9 45 -32q2 -2 7.5 -7t8.5 -8q6 0 10 -4q18 -9 21 -10 q0 15 4 39q0 3 1 8t1 8v13q-3 6 6 10q25 9 53 0q5 -1 16.5 0.5t14.5 1.5q4 0 12.5 -1t12.5 -1h32q13 0 33 -4q10 -2 33 -2h22q4 4 9 4q10 0 10 -8q4 -14 4 -43q0 -7 1 -20.5t1 -20.5q4 -25 2 -41q0 -6 -1 -19t-1 -20t-1 -22.5t-1 -22.5q0 -31 2 -45q0 -7 1 -22.5t1 -22.5 v-146q1 -18 -0.5 -51t-1.5 -43q-1 -15 -1 -31.5t0.5 -37t0.5 -31.5q0 -15 1 -47.5t1 -49.5q-4 -28 -2 -45q6 -36 6 -41v-24zM762 580q-2 5 -5 15t-5 15q-8 15 -15 25q-7 8 -22.5 22t-20.5 19q-2 2 -11.5 7.5t-14.5 10.5q-11 11 -17 15q-6 0 -18 4q-16 4 -21 4l-18 6 q-6 2 -19 2q-1 0 -8 0.5t-8 -0.5q-15 -5 -33 -8q-4 -4 -8 -6q-10 -6 -20 -9q-22 -4 -31 -8q-16 -10 -29 -20q-4 -2 -12 -10q-1 -1 -3.5 -5t-4.5 -6q-14 -17 -25 -37q-2 -3 -16 -36q-1 -4 -7.5 -17t-7.5 -20t-4 -20.5t-4 -20.5q-1 -4 -4.5 -20.5t-3.5 -24.5q0 -7 1 -22t1 -23 q5 -31 10 -41q2 -5 6 -19t9 -20q9 -16 26 -37q14 -14 17 -16l12 -19q4 -4 13.5 -16.5t15.5 -16.5q15 -9 32 -12q4 -1 11.5 -4t11.5 -4q12 -4 20 -4q4 -1 12 -2t11 -2q12 -4 16 -4q19 0 35 8q17 10 33 10q8 4 23 14q10 6 24 13q4 0 8 4q3 5 23 30q2 3 10.5 11t11.5 14 q21 35 27 72q4 30 8 41q4 24 12 32v15q0 21 -4 33q0 5 -2 14t-2 14q0 11 -8 27q-3 7 -8 33z" />
<glyph unicode="b" horiz-adv-x="1191" d="M1092 449q0 -15 -2 -23q-3 -6 -3 -16q0 -11 -4 -23q-1 -7 -4 -22.5t-4 -22.5q-1 -2 -6.5 -17.5t-7.5 -23.5q0 -8 -4 -20q-3 -5 -8 -19l-11 -22q-1 -3 -3 -8.5t-3 -8.5q-17 -40 -20 -45l-25 -37q-19 -31 -53 -55q-4 -4 -13.5 -11.5t-13.5 -11.5t-13 -10t-13 -10 q-56 -50 -138 -66q-5 -1 -19 -4t-22 -4h-38q-42 3 -80 17q-3 1 -9.5 4t-9.5 4t-7.5 2t-6.5 2q-12 6 -14 8q-19 0 -39 10q-11 4 -43 27q-13 8 -29 33q-8 8 -10 14q0 -2 1 -4.5t1 -3.5q4 -20 4 -27q0 -13 -2 -12q4 -29 -19 -35q-7 -2 -47 -2h-51h-47q-28 -4 -43 -4 q-27 -4 -43 4q1 -1 0 -1q1 -1 -4 1q-1 1 -4 2t-4 2q-9 6 -13 17q-3 15 0 30q0 7 1 21.5t1 21.5q-2 16 -2 47v48q-4 62 -4 92q0 17 4 49v145v203q0 2 5 12q0 2 -1.5 8t-1.5 9q-2 10 -2 30q6 57 5 64q-1 12 -1 43.5t-2 50.5v96q0 8 -1 25.5t-1 26.5v45q0 67 2 100v100v49 q-6 42 -6 43q0 8 1 25t1 25v49q2 33 2 100q3 9 11 12q2 8 8 11.5t14 -0.5q11 -6 29 -2h76q12 -2 32 -2q6 0 18.5 1t18.5 1q30 6 31 6q5 1 9.5 0t7.5 -3.5t5 -5t3.5 -7.5t2.5 -8.5t1 -9v-8.5v-8.5v-7.5q0 -53 -4 -155v-4q2 -6 2 -19q2 -14 2 -39q1 -13 2 -37.5t2 -37.5 q4 -54 0 -162v-119q0 -5 1 -17t1 -18q0 -13 4 -41v-39q-2 -2 -2 -6q4 4 4 6q9 15 22 23l3 2q10 10 22 16q25 15 33 19q3 1 12.5 7.5t15.5 8.5q23 4 33 8q18 4 25 8h16q3 0 8 1.5t7 1.5q10 2 30 2q9 0 33.5 3t38.5 1q2 0 6 -2t6 -2q5 0 15 -5q6 -1 15.5 -6t12.5 -6 q5 -2 15.5 -4t15.5 -4q22 -9 29 -16q20 -15 24 -17q18 -7 27 -14q10 -4 31 -21q11 -9 28 -30q16 -22 17 -23q35 -17 55 -76q3 -7 10 -21.5t10 -21.5q15 -29 19 -49q1 -3 8.5 -36t9.5 -50q0 -4 2 -13t2 -13t2 -11.5t2 -11.5v-18q5 -20 5 -23t1.5 -11t0.5 -13zM633 211v2 q33 0 67 12q37 19 48 49q3 2 16 15q17 20 24 39q1 4 5.5 12.5t5.5 13.5q1 4 3 13.5t3 13.5q0 2 3 9.5t3 12.5v23q0 3 -6 51l-6 55q-9 33 -15 46q-4 14 -16 38q-2 4 -5 11.5t-5 11.5q-2 2 -10 14q-4 5 -13.5 16.5t-13.5 16.5q-8 12 -29 33q-10 10 -28 10q-7 0 -23 2t-23 2 q-16 -4 -22 -4q-12 0 -18 -2q-28 -5 -35 -10q-9 -9 -11 -10q-7 -10 -16 -13q-8 -4 -33 -24q-2 0 -14 -13q-2 -2 -7 -5t-7 -5q-22 -18 -27 -26q0 -5 -2 -7q0 -2 -6 -14q-4 -12 -6 -16q-1 -4 -6.5 -18.5t-6.5 -22.5q-1 -9 -5 -28t-5 -27t0 -27q2 -16 10 -43q4 -14 13 -41 q2 -5 6 -19.5t8 -21.5q3 -8 10 -19q4 -8 8 -10q16 -20 27 -31q5 -4 15.5 -13t15.5 -13q31 -31 61 -39q5 -1 12 -1t15.5 0.5t13.5 0.5q3 0 9.5 -1t9.5 -1q1 0 4 1t4 1z" />
<glyph unicode="c" horiz-adv-x="888" d="M774 166q2 -41 2 -123q0 -4 -2 -6q-4 -8 -10 -10h-2q-2 0 -2 -2q-5 -3 -17.5 -7.5t-17.5 -7.5q-4 -1 -16 -7t-19 -7q-7 -2 -35 -8q-8 -2 -20 -2h-17q-10 0 -34 -4q-5 -1 -18.5 -0.5t-18.5 -1.5q-18 -3 -37 -3q-9 3 -18 3q-2 2 -7 2q-2 0 -2 2q-6 0 -10 4h-10q-20 4 -27 4 h-33q-9 1 -30 10q-4 1 -13.5 4t-13.5 4q-28 12 -35 29v2q-1 0 -2 1t-2 1q-1 1 -8 6.5t-12 7.5q-23 14 -47 35q-19 12 -41 41q-4 4 -6 8q-12 9 -21 21q-2 2 -5.5 5t-6 5.5t-4.5 5.5t-6.5 8.5t-6.5 8.5q-20 30 -22 34q-17 30 -19 43q-1 7 -5 20.5t-5 20.5q-2 15 -10 41.5 t-10 40.5q-4 16 -4 25v18q-4 32 -2 47q1 4 0 12.5t0 12.5q0 6 4 22v19q0 4 2 12t2 12q9 31 14 43q5 9 14 35q4 15 9 23q1 2 6 22q9 28 18 39q12 16 21 25q2 8 16 22q5 5 14.5 15.5t14.5 15.5q5 7 18 16q10 15 12 17q6 8 29 26q4 3 15.5 13.5t19.5 13.5q5 2 16.5 9t16.5 10 q8 3 45 14q21 9 43 12q24 6 49 6q2 0 10 4h10q8 2 23 2q7 1 21.5 4.5t21.5 4.5q6 1 14 1t17 -0.5t14 -0.5q31 0 47 -4q8 -2 22 -10.5t19 -10.5q21 -11 23 -12q6 -6 10 -6q12 0 24 -6l9 -9q4 -4 2 -4q6 -6 6 -12q0 -2 1 -4.5t1 -3.5q1 -3 2 -11.5t2 -11.5q2 -1 1 -33.5 t-1 -33.5q3 -18 0 -39q0 -5 1 -14.5t1 -14.5q1 -5 2 -16.5t2 -16.5q4 -21 2 -32q-4 -9 -8 -9q-2 -2 -8 -2q-9 5 -11 8q-2 0 -2 3q-5 3 -8 8l-16 16q-10 10 -17 12q-3 1 -10 3.5t-10 3.5q-4 2 -11.5 6t-11.5 6q-1 1 -41 12q-18 6 -40 6q-7 -1 -23 -3t-23 -3q-9 -2 -24.5 -2.5 t-20.5 -1.5q-3 -1 -10 -3t-10 -3q-2 -3 -6 -8.5t-6 -8.5q-2 -2 -7.5 -6t-7.5 -6q-6 -6 -26 -31q-36 -36 -52 -69q-12 -35 -12 -37l-6 -43v-25q-1 -3 -2 -10t-2 -10v-45q-3 -32 12 -74l4 -8q3 -4 9.5 -13.5t9.5 -13.5q10 -20 14 -24q10 -17 43 -37q28 -22 29 -23q8 -5 16 -8 q1 -1 5 -3l1 -1q13 0 19 -2q12 -4 16 -4h33q30 0 57 6q23 6 66 21q12 4 18 4q4 0 6 2q5 1 12 4t9 4q8 8 12 10q-3 5 2 14q1 0 5.5 3.5t6.5 3.5q7 10 19 2q8 -8 8 -25q0 -5 1 -15.5t1 -15.5v-61z" />
<glyph unicode="d" horiz-adv-x="1128" d="M1036 57l4 -8q0 -16 -4 -20q-6 -9 -18 -9q-1 -3 -12 -8q-4 0 -11.5 1t-11.5 1q-2 0 -9.5 3t-12.5 3h-9q-4 0 -10 -2t-10 -2h-17q-3 0 -20.5 -4t-26.5 -4q-7 0 -21.5 2t-21.5 2q-31 4 -47 2q-24 0 -30 21v35q-4 -9 -9 -9q-8 -4 -20 -12q-14 -5 -19 -8q-18 -18 -26 -21 q-15 -13 -53 -30q-48 -17 -68 -15q-11 0 -34 3.5t-34 3.5q-10 0 -16 2q-3 1 -8 3t-8 3h-15l-12 4q-24 3 -47 16q-19 11 -27 13q-27 5 -28 6q-24 5 -31 10q-10 10 -19 16q-19 14 -24 21q-9 9 -21 18q-16 13 -34 35l-5 10l-8 8q-19 25 -20 27q-14 32 -31 57q-5 7 -9.5 23 t-6.5 20q-13 26 -15 41q-7 25 -10 45q-4 32 -6 46q-4 34 -2 49v47q0 51 8 92q10 40 12 47q7 26 15 41q11 26 45 74q15 22 22 39q2 7 11 16q7 3 10 10q6 6 8 10l4 3q4 8 8 10h2q7 17 19 24h4l2 4q12 16 18 19q11 7 33 14v2q15 15 23 19q6 4 32 14l12 4t15 4q9 4 31 8q4 2 9 3 t10.5 2t8.5 2q7 1 20 -0.5t17 -1.5q5 0 15.5 1t15.5 1q9 0 29 -5q9 3 18 0q13 0 21 -2q7 -2 20.5 -7t20.5 -7q14 -3 43 -16q10 -4 38 -23q5 -3 17.5 -9.5t17.5 -10.5q6 -4 19 -17q0 13 1 36.5t1 35.5q-1 14 -1 29.5t0.5 35.5t0.5 31q0 74 2 90q2 14 2 88q0 24 -6 45v23 q-2 6 -2 18q-5 42 -2 91q1 34 5 101t5 99q0 1 1 2t1 2l-4 4q-4 12 6 19q6 6 14 6q9 0 13 -8q3 0 9 1t9 1q21 6 47 6q4 0 11.5 -1t11.5 -1q5 -1 13 -2t13 -2q18 -6 21 -6t10 -1t10 -1q7 0 25 2.5t28 1.5q24 -4 29 -21q0 -25 -2 -35q-2 -8 -2 -22q-1 -4 -2 -12.5t-2 -12.5v-47 q-2 -14 -2 -45q0 -65 2 -98v-150q0 -8 -1 -23t-1 -22q0 -15 1 -47t1 -49q0 -13 -1 -39t-1 -41v-14q2 -18 2 -53q2 -37 2 -111q0 -33 2 -47v-12q1 -3 2 -10t2 -11q0 -16 2 -24q2 -4 2 -17q3 -9 -2 -14v-8q2 -8 2 -23q0 -14 2 -20q1 -7 1 -22.5t1 -22.5q2 -14 2 -45v-68 q0 -3 -1 -10t-1 -10q0 -7 -1 -23t-1 -23v-102q4 -28 4 -45q0 -63 -2 -96v-45q0 -1 -1 -7.5t-1 -7.5zM360 440v-47q3 -15 17 -37q2 -3 9.5 -14t10.5 -18q4 -8 25 -29q14 -12 37 -27q9 -9 26 -16q31 -9 43 -14q21 -7 37 -7h25q5 1 12 4t8 3q2 0 17.5 5.5t23.5 6.5q10 1 39 16 q3 1 9.5 4t9.5 4q1 2 4 6.5t4 6.5q9 15 20 26q5 9 23 31q1 4 5.5 21t5.5 22.5t4.5 21t4.5 23t2.5 20.5t1 22t-1.5 20.5t-4 21.5q-2 8 -6.5 28t-8.5 33t-9 25q-16 37 -17 41q0 2 -4 6q-2 3 -6 10.5t-6 10.5q-8 8 -14 10q-5 5 -11 8q-4 0 -8 4q-1 1 -3 2t-3 2l-4 4 q-7 3 -22.5 8.5t-22.5 8.5q-8 4 -43 14q-24 4 -39 4t-21 -2q-6 -4 -18 -8q-3 -2 -17.5 -7.5t-21.5 -10.5q-5 -4 -16.5 -12.5t-16.5 -12.5q-8 -5 -16 -8q-1 -1 -4 -2t-4 -2l-4 -8q-2 -5 -11 -19q-13 -26 -16 -35q-3 -24 -12 -45q-10 -29 -11 -37q-5 -38 -2 -86z" />
<glyph unicode="e" horiz-adv-x="1081" d="M985 479l3 -12t2 -11t-1 -10q-3 -14 -18 -14q-6 -6 -25 -6q-12 0 -28 4q-2 -2 -5 -2q-5 -1 -15 0t-15 0h-37q-6 0 -17.5 2t-17.5 2h-39q-7 -1 -20 -2t-19 -2q-3 0 -15 -3t-18 -3q-10 -1 -21.5 -1t-24.5 0.5t-19 0.5q-9 0 -24.5 1.5t-28 1.5t-23.5 -3q-24 -4 -35 -4 q-6 0 -26 4q-4 1 -10 1t-13.5 -0.5t-11.5 -0.5h-37q-5 1 -15 1.5t-18.5 1.5t-15.5 3l2 -2q0 -19 2 -27q0 -4 1 -13t1 -13q0 -9 4 -25q1 -4 2 -12t2 -12q1 -5 2 -14.5t2 -14.5q1 -8 9 -22.5t10 -20.5q10 -26 32 -39q32 -23 43 -27q4 -1 7.5 -3t8 -5t7.5 -4q9 -6 18 -6 q5 0 14 -1t13 -1t12 4h6q5 3 19 8q27 16 29 17q4 2 20.5 7.5t24.5 10.5q21 15 41 35q4 2 14 18l6 13l2 2q0 11 8 14q9 7 25 -4q7 -4 31 -4q10 2 30 -2q10 -2 37 -0.5t39 0.5q7 0 19 -4q2 -1 8 -2.5t8 -2.5q12 -6 14 -6h15q8 0 13.5 -6.5t2.5 -13.5v-2q-2 -4 -8 -10 q-4 -21 -10 -29q-3 -6 -9.5 -17.5t-9.5 -17.5q-10 -20 -22 -35q-5 -6 -11.5 -20t-11.5 -19q-3 -3 -8 -9t-8 -9q-2 -2 -8.5 -5t-8.5 -5q-3 -2 -8 -5.5t-8 -5.5q-18 -6 -21 -8q-12 -8 -18 -10q-4 0 -8 -4q-8 -2 -22 -10t-15 -9q-24 -10 -47 -16q-2 0 -6 -1t-6 -1 q-11 -2 -31 -7t-27 -7q-44 -11 -49 -11h-14h-13q-2 0 -6 -1t-6 -1h-10q-38 -5 -51 0h-13l-10 5q-4 2 -22 8q-17 0 -25 2q-4 0 -8 4l-4 2q-4 0 -11.5 1t-11.5 1q-3 1 -8 4t-8 4q-4 4 -6 4q-2 2 -8 2q-21 9 -39 21l-4 2l-19 6q-50 25 -59 31q-26 19 -45 45q-11 13 -19 41 q-8 20 -20 37q-17 29 -33 86q-18 56 -23 94q-6 48 -6 51q0 29 -2 43q-7 49 4 88q4 27 9 45q2 8 8 22t8 19q11 32 37 82q2 4 7.5 14.5t8.5 14.5q8 12 15 14q2 2 2 4q4 4 4 6l2 2q0 1 1 4t1 4q5 5 6 5l12 18q6 5 18.5 16.5t18.5 16.5q2 2 11.5 10t15.5 12q4 2 8.5 8t5.5 7 q24 21 53 37q27 14 29 14q5 1 35 6q5 1 16 2t17 2q10 4 32 4q23 0 35 2q20 4 33 4h8q3 0 8 1t8 1t11 -1t12 -1q17 0 49 -8q3 -1 10.5 -3t10.5 -3t9 -2t9 -2q2 -1 10 -4.5t11 -5.5q3 -1 10 -3t10 -3q21 -6 37 -19q12 -9 38 -26.5t38 -26.5q33 -23 39 -31q15 -22 22 -39 q5 -15 16 -37q5 -18 15 -41q1 -3 4 -10t4 -10q2 -3 4 -10.5t4 -10.5q1 -3 4 -8t4 -8q0 -1 3 -8t4 -12q1 -7 5 -23t5 -23q4 -15 8 -49q1 -8 3 -23.5t3 -23.5zM406 657q2 -9 -5 -26.5t-8 -22.5q0 -20 -2 -30l2 -3h4h19q19 6 47 9h47q32 4 47 2q18 -2 53 -2q32 4 47 2 q10 -1 70 4q-2 4 -2 10q0 10 -7.5 26t-8.5 21q-5 17 -22.5 43t-22.5 39q-3 6 -11 10q-5 5 -16 9q-10 5 -37 14q-36 6 -39 6q-6 0 -17.5 -2t-17.5 -2q-2 -1 -5 -2t-5 -2h-16q-25 -10 -29 -10q0 -2 -6 -2q-1 -1 -16 -21q-6 -8 -17.5 -25.5t-17.5 -25.5q-1 -3 -4 -9.5t-4 -9.5z " />
<glyph unicode="f" horiz-adv-x="722" d="M608 745q12 -6 8 -19t-16 -15h-29q-3 0 -10.5 1t-11.5 1q-9 0 -28.5 -1t-28.5 -1q-40 0 -60 -2q-2 0 -6.5 0.5t-8.5 0.5t-7 -1q0 -68 -2 -103q-5 -45 -5 -59q-4 -16 -4 -27q-3 -16 0 -31v-194v-49q0 -6 1 -17.5t1 -17.5q0 -17 5 -94q2 -18 2 -51v-19q4 -8 4 -14 q-1 -12 -9.5 -19.5t-19.5 -5.5h-8h-6q-3 0 -8.5 -1t-8.5 -1q-4 0 -10.5 -1t-9.5 -1h-62h-90q-28 0 -33 4q-10 6 -10 29q2 17 2 96v391q-6 48 -6 49q0 29 -2 41q-4 32 -4 48v38h-25h-30q-2 0 -17 5q-10 0 -10 12v63q0 20 4 60v57v25v4q3 11 14.5 12.5t18.5 -4.5q2 0 4 -2h2 q10 0 14 2h41q0 12 -2 16q0 3 -1 9.5t-1 9.5q0 8 -2.5 49.5t0.5 50.5q0 3 1 10t1 11v20q0 6 -2 19t-2 20v33q-4 8 -4 22q0 4 -1 12.5t-1 12.5q0 14 2.5 28.5t7.5 34.5t6 27q5 36 9 45q2 5 7 17t7 20q5 17 16 41q4 23 11 35q4 6 11 18t11 18q17 17 25 27q25 25 34 31 q8 8 17 14q2 1 8 4.5t8 5.5q4 4 10.5 7.5t14.5 6.5t12 5q11 5 41 14q35 5 47 8q5 1 16.5 2t16.5 2q7 2 47 2q13 0 37 -8q18 0 29 -8h2q2 -2 8 -2q4 -2 8 -6q6 -3 6 -10q2 -2 0 -4l2 -2q6 0 6 -9t1 -28.5t1 -28.5v-27q0 -10 -4 -26v-58v-45q2 -2 2 -8q0 -12 -12 -12t-12 12 q0 2 -1 3t-3.5 2.5t-3.5 2.5q-5 0 -9 4q-2 0 -6 -1t-6 -1q-4 2 -10 2q-1 1 -4.5 1t-5.5 1q-16 6 -35 3q-45 -7 -74 -25q-20 -11 -33 -51q-6 -30 -6 -31v-37q-2 -6 -2.5 -18t-1.5 -15q-2 -4 -2 -12v-31q1 -14 1 -43t1 -43q0 -15 1 -47t1 -49q0 -6 1 -19.5t1 -19.5v-16h27h26 q1 0 12 -3t17 -3q29 0 59 6q35 4 54 2q22 -2 22 -35q-1 -10 -2 -29.5t-2 -29.5v-62q0 -30 4 -33z" />
<glyph unicode="g" horiz-adv-x="1185" d="M1030 414q0 -32 -1 -95t-1 -94q0 -7 -2 -20.5t-2 -20.5q0 -5 0.5 -13.5t0.5 -16t-1 -13.5q-3 -14 -3.5 -28.5t0.5 -35t1 -28.5v-51q-1 -7 -1 -22.5t-1 -22.5q0 -9 -4 -25q-2 -6 -2 -20q-4 -8 -8 -12q0 -2 -1 -6.5t-1 -6.5l-13 -39q-6 -25 -26 -71q-4 -8 -15 -30.5 t-16 -35.5q-14 -36 -41 -49q-6 -3 -12 0q-1 -1 -3.5 -4t-3.5 -4q-24 -21 -51 -33q-4 -1 -13 -5.5l-13 -6.5q-3 -1 -23 -6q-2 -1 -8 -2.5t-8 -2.5q-6 0 -8 -2h-2l-7 -6q-7 -7 -22 -10q-7 0 -19 -6q-19 -8 -45 -8q-8 0 -24.5 -3.5t-20.5 -4.5q-38 -10 -51 -11q-27 -2 -96 11 q-15 0 -27 6q-3 0 -8.5 1t-9.5 1q-15 0 -35 8q-8 3 -20 11.5t-17 10.5q-10 4 -16 9q-7 7 -13 10q-16 8 -34 20q-6 3 -18.5 10.5t-18.5 10.5q-34 16 -62 57q-14 17 -24 37q-10 23 -15 41l-14 35q-4 12 -6 14q-1 2 -4 7t-4 7q-4 4 -5 10t-1.5 14t-1.5 11q-5 30 -5 37 q-2 2 -2 8q-3 9 9 13q10 0 29.5 -3t29.5 -3q14 0 29 -3q10 -2 28 -2h68q5 1 15.5 1t15.5 1q6 0 26 5q9 3 17 -5q3 3 6.5 2.5t3.5 -6.5q4 -12 6 -20q2 -2 2 -4q1 -2 2 -6t2 -6q1 -1 3 -2.5t3 -2.5q0 -1 1 -3t1 -3l13 -24q5 -14 37 -37q18 -18 20 -19q4 -2 14.5 -5t14.5 -5 q16 -8 24 -8q5 0 15.5 -1t15.5 -1q40 -4 63 -4q14 0 25 8q4 2 10 9t8 9q4 2 11.5 6.5t11.5 6.5q0 2 2 4q6 8 16.5 26t12.5 21q7 15 10 25q0 4 1 12t1 12q1 9 8.5 52.5t9.5 66.5q2 20 2 63v23q-2 -4 -6 -8q-2 -7 -14 -15q-7 -6 -31 -20q-5 -3 -14 -11.5t-14 -11.5 q-5 -5 -11 -8q-2 -2 -7 -4t-7 -4q-10 -9 -35 -18q-30 -9 -41 -7q-5 0 -16.5 -2t-16.5 -2q-6 0 -10 4h-2h-22q-11 0 -27 4h-8q-4 0 -53 5q-62 12 -86 34q-3 3 -7.5 8t-7.5 8.5t-7.5 7t-8.5 5.5t-20 9.5t-23 13.5q-3 2 -9.5 7t-9.5 7q-3 5 -14 12q-6 3 -15.5 13.5t-13.5 13.5 q-18 17 -22 31q-4 8 -14 38q-7 15 -20.5 40.5t-18.5 35.5q-25 57 -31 84q-8 30 -4 94v52q0 8 1 24t1 23q2 37 20 88q11 31 41 82q2 3 6.5 10t6.5 10q1 3 3.5 7t2.5 5q1 0 2 2t2 3l4 4q3 5 10 14t10 14q7 10 9 17q2 6 6 14q8 14 22 31q4 4 13.5 11t13.5 11q5 5 11 14t7 11 q7 10 25 14q3 1 23.5 13.5t31.5 17.5q28 11 33 12q6 3 31 8q21 7 35 7q22 0 32 2t22 2t27 -1t23 -1q4 -1 16.5 -1.5t18.5 -2.5q15 -3 28 -13q8 -5 26 -12t26 -12q12 -9 24 -21q2 0 4 -2q16 -6 29 -18q1 -2 3 -5.5t3 -5.5q0 -2 2 -2q11 -5 12 -8q6 -6 7 -8q0 5 1 14t1 13 q0 2 -1 6.5t-1 7.5q0 1 -1 4.5t-1 5.5q-8 6 -5.5 17.5t15.5 11.5q4 0 13.5 2t14.5 2q23 0 33 2h62q19 0 59 4q18 4 27 2q18 0 26 -2q9 0 13 -4q10 5 14 -6q4 -16 4 -23q2 -6 2 -20q0 -17 -4 -45q0 -17 -1 -48t-1 -48v-197q1 -17 1 -50.5t1 -49.5q0 -27 4 -39q2 -14 2 -43z M754 645q0 10 -11 17l-17.5 17.5t-20.5 22.5t-13 21q-4 6 -30 27q-3 0 -7 4h-6q-8 4 -14 8q-4 4 -10 4q-13 0 -17 2q-6 2 -37 2q-3 0 -10 1t-12.5 1t-9.5 -2q-22 -7 -33 -14q-18 -6 -33 -15l-24 -18q-21 -15 -27 -18q-22 -16 -23 -19q-12 -20 -14 -33q-1 -2 -2 -7t-2 -7 t-3.5 -8t-2.5 -8l-13 -39q-1 -4 -4.5 -19.5t-3.5 -23.5v-2q4 -9 4 -19t-2 -22.5t-2 -20.5v-14q6 -3 6 -12q1 -9 11 -43q10 -26 24 -46q2 -3 19 -26q9 -18 16 -25q6 -5 14.5 -9t14.5 -6t17.5 -5t15.5 -4q22 -4 34 -11q16 -8 25 -8q12 -2 33 -2q5 0 15 1t15 1q4 0 9 1.5t11 5 t9 4.5q15 6 27 12q32 18 49 37q26 31 33 37q20 40 26 63q1 5 2.5 14.5t2.5 17.5t1 15v41q0 3 1 11t1 15t-2 11q-5 9 -10 41q-4 12 -6 16q-7 11 -10 19q-1 3 -2 8t-2 8z" />
<glyph unicode="h" horiz-adv-x="1099" d="M969 643q4 -32 4 -51q0 -7 -1 -23t-1 -24q-4 -66 -8 -99q-2 -6 -2 -18q0 -17 4 -41q2 -15 2 -30.5t-1 -34.5t-1 -29v-92v-27q0 -6 -4 -22q0 -32 4 -46q4 -18 0 -53v-22q0 -7 -4 -23q-1 -6 -8.5 -6.5t-10.5 4.5q-32 4 -53 4q-9 0 -27.5 -1t-27.5 -1q-54 -6 -58 -6 q-6 0 -25.5 1.5t-29.5 0.5q-9 -1 -14 7t0 14v8q0 2 1 6t1 6q3 16 0 29q-1 15 4 92q1 15 1 31t-0.5 35.5t-0.5 29.5v23q-4 12 -6 20v41q0 65 -2 98q-1 14 -1 30t0.5 35.5t0.5 29.5t-5 45q-6 37 -8 41q0 1 -2 8.5t-4 11.5q-7 14 -8 17q-2 4 -6 16q-2 6 -10 14q-6 6 -17.5 13 t-15.5 10q-1 2 -5.5 5.5t-5.5 6.5v2q-1 0 -3 1t-3 1h-4l-4 4q-4 1 -29 6q-12 4 -18 4q-4 -1 -11 -3t-11 -3q-11 0 -17 -4q-12 -8 -20 -12q-14 -5 -19 -8q-9 -6 -16 -13q-6 -6 -19 -10q-7 -4 -10 -18q-13 -31 -20 -39q-4 -8 -6 -10v-17q-4 -59 -2 -88q3 -45 -3 -88 q-4 -12 -4 -16q0 -3 1 -9.5t1 -9.5q0 -13 -4 -37q0 -33 2 -47q0 -7 -2 -20.5t-2 -20.5q0 -16 -1 -46t-1 -46v-96q0 -7 2 -21.5t2 -21.5v-35q0 -10 -7.5 -17t-18.5 -7h-37q-16 2 -45 2q-3 0 -8 -2t-7 -2q-12 -3 -20 -3h-45q-26 0 -33 7q-4 0 -6 2q-6 -5 -14 -2.5t-9 12.5v12 q-4 4 -4 17q-1 5 -1 11.5t0.5 14.5t0.5 12q0 18 -1 51.5t-1 49.5v100q-1 10 -2.5 29t-2.5 34t-1 29v187q3 24 0 51q0 7 -2 21.5t-2 21.5q0 15 1 46t1 48q0 7 1 22t1 23v45q7 114 0 187q-2 16 -2 96q0 16 -2 46t-2 46q0 8 -1 24t-1 23v41q4 16 4 25v73q0 16 1 48t1 49 q0 8 1 23.5t1 23.5q0 4 1.5 13t1.5 16.5t-3 11.5v4q-5 3 -3 9.5t9 6.5q5 0 9 -2h4q0 1 15 1l15 -1q21 0 31 -2h123q13 0 45 8q8 2 14 -5.5t0 -14.5v-4q0 -2 -1 -4.5t-1 -3.5v-13q0 -7 -1 -21t-1 -20v-49q0 -30 4 -92q0 -25 -2 -35v-61q0 -3 1 -9.5t1 -9.5v-49q2 -31 2 -96 q0 -16 1 -46t1 -46q0 -25 -2 -35q0 -27 -2 -41v-47v-51l4 4q3 6 11 14q4 0 4 4q3 8 14 12q9 13 14 15q6 2 15.5 10t13.5 10q7 3 18.5 11t14.5 10q16 12 33 12h2q8 4 12 4q24 8 41 8q7 1 22.5 0t22.5 0q27 4 39 2q17 0 41 -4q27 -6 82 -32q5 -4 18.5 -10.5t18.5 -10.5 q7 -4 17.5 -14t12.5 -11q2 -2 8.5 -5t8.5 -5q6 -2 16 -12q23 -23 27 -31q6 -9 16 -39q7 -16 14 -41q4 -15 5.5 -30.5t3 -34.5t2.5 -31z" />
<glyph unicode="i" horiz-adv-x="583" d="M424 870q-1 -11 -2 -34t-2 -35q-1 -15 -1 -32t0.5 -37.5t0.5 -31.5v-96q0 -64 -4 -196q-2 -35 -1.5 -96.5t-0.5 -96.5q-1 -8 -2 -24.5t-2 -24.5q-4 -30 -2 -45q2 -20 2 -66q6 0 6 -4q8 -8 8 -20q1 -6 -4.5 -11.5t-11.5 -5.5q-18 0 -63 -6t-69 -4q-15 0 -30 6q-1 1 -6 1 t-7 1h-16q-45 0 -65 4h-5q-6 1 -7.5 7.5t3.5 9.5q0 12 4 16q3 0 3 4v21q0 27 2 41q2 29 2 84v39q0 7 1 19.5t1 18.5q0 2 6 62q0 35 -2 51q0 15 -1 47t-1 47q0 11 1 31t1 36t-2 30q-4 32 -4 49q4 29 2 43q-1 5 -1.5 19.5t-2.5 21.5q-2 14 -2 43q0 11 1.5 45t0.5 53 q0 4 -1 11.5t-1 11.5v20q0 4 1 11.5t1 11.5q0 1 -1 3t-1 3q-3 3 -3 6q-3 8 3 16q8 6 30 6h45q19 0 29 2q3 0 9.5 2.5t10.5 2.5q9 2 58 2q13 3 26 0q3 0 8.5 -1t8.5 -1h20q3 0 8.5 -2.5t8.5 -2.5q2 -2 6 -2q7 -1 10 -7.5t0 -12.5q0 -10 -2 -32t-2 -32zM440 1346q0 -5 2 -17 t2 -18q-3 -47 -34 -78q-14 -17 -35 -31q-3 -2 -9.5 -8t-12.5 -10.5t-11 -7.5q-9 -3 -18 -9l-19 -6q-11 -2 -33 2q-30 3 -63 19q-18 9 -27 18q0 1 -3.5 5.5t-4.5 8.5l-12 13q-9 12 -21 24q-16 16 -18 27v35v4q0 1 -1 3t-1 3q-5 9 4 27v2q0 2 2 4l2 6q2 3 5 12t5 12 q1 3 5.5 8.5t5.5 6.5q8 16 16 20q3 6 6 9q18 26 39 36q12 4 18 4t9 3h2q1 1 4 2t4 2l6 2h2q10 5 12 4q13 4 13 -6h18q51 -7 76 -35q6 -6 15.5 -19t10.5 -14q9 -9 21 -25q18 -22 18 -38z" />
<glyph unicode="j" horiz-adv-x="536" d="M410 -449q3 -18 -7 -30q-8 -10 -28 -10q-23 0 -35 2h-6q-25 -5 -33 -5h-27q-10 -2 -30 -2q-5 1 -14.5 3.5t-14.5 3.5h-25q-8 0 -28 4q-1 0 -3 1t-3 1q-9 0 -13 2q-1 0 -2 1t-2 1q-10 0 -10 10v2q0 6 -2 8q0 9 4 17q1 0 1 20l-1 21q-2 14 2 45v139q0 7 -1 21.5t-1 21.5 q0 31 2 45v102q0 77 -2 93q0 4 1.5 20.5t0.5 24.5q-2 14 -2 45q0 67 2 100v53q0 4 1 11.5t1 11.5q0 6 2 8v2q0 47 -4 70q-2 13 -2 78q0 10 -2.5 34t-1.5 37q0 47 4 70v45q0 11 1 34t1 36q-4 24 -4 38q0 6 2 18.5t2 18.5v37q0 3 -1 9.5t-1 9.5q-3 14 0 28q0 33 16 33 q18 0 21 -2q0 -2 2 -2q10 0 16 -2q9 6 21 6q8 0 25.5 1t25.5 1q9 0 29 -4h24h27q4 0 8 1t8 1q3 0 11 -4q2 2 6 2q2 4 10 4q9 0 12 -6v-6q4 -23 4 -70q2 -23 2 -72q3 -70 0 -139q0 -16 4.5 -62t2.5 -71q-1 -12 -2.5 -55t-6.5 -66q0 -13 4 -33q3 -43 0 -88q-6 -75 -6 -77v-64 q0 -107 2 -160v-86q0 -10 2 -14v-66q4 -90 4 -135q5 -57 5 -63q0 -5 1 -15.5t1 -15.5v-27zM424 1358q3 -26 -2 -45q-3 -11 -8 -45q-2 -14 -15 -39q-21 -48 -65 -60q-8 -1 -23.5 -3t-23.5 -3q-31 0 -45 2q-3 1 -9.5 2t-9.5 2l-18 7q-3 1 -8.5 2t-8.5 2q-15 5 -18 8 q-4 2 -20 24l-13 19q-1 3 -5 8t-5 8q-6 9 -6 17q-6 4 -10 16q-2 8 2 20q-4 16 -4 25q0 27 2 31q3 13 14 28q2 3 7.5 11.5t8.5 11.5v2q3 10 27 29q34 34 82 43q19 5 49 -2q32 -9 41 -15q44 -25 63 -61q19 -28 21 -45z" />
<glyph unicode="k" horiz-adv-x="1128" d="M1049 41q8 -5 5 -14t-12 -9q-14 0 -22 -2l-4 4l-2 -2q-7 -2 -20.5 -2.5t-18.5 -1.5q-19 0 -27 4l-4 -2q-6 -2 -37 -2q-2 0 -8 -1t-8 -1q-1 0 -3 1t-3 1h-2q-5 -4 -9 0q-12 3 -26 0q-7 0 -21.5 1t-21.5 1h-45h-19q-8 0 -10 2q-13 -3 -24 11l-7 14q-4 5 -12 16.5t-12 16.5 q-2 6 -8.5 14.5t-8.5 11.5q-21 31 -28 37q-4 5 -12 13t-14.5 15.5t-10.5 14.5q-30 45 -35 54q-4 6 -31 38q-20 26 -34 52q-18 18 -19 22q-1 5 -7 10t-7 7q-26 22 -39 43q-4 4 -4 6v-23q4 -16 4 -26q0 -9 2 -28t2 -28q0 -7 0.5 -19t0.5 -22t-1 -18v-57q0 -40 2 -58 q5 -81 4 -96v-2q4 -16 -14 -23h-68q-10 0 -30.5 -1t-30.5 -1q-40 4 -60 4q-7 0 -26.5 2.5t-30.5 1.5q-5 -2 -10 2.5t-2 10.5v4q0 2 -1 5t-1 5v41q2 10 -2 35q0 11 2.5 39t1.5 43q-2 27 -2 80v6v16v19q0 11 -1 33t-1 34q-2 61 -2 185q0 15 1 30.5t2.5 35t2.5 30.5v6v25 q0 3 1 8.5t1 7.5q-2 23 -2 67v76q0 10 1 30t1 30v18q0 5 -1 16t-1 17v37q0 6 -1 16.5t-1 15.5q0 14 -1 41t-1 41v78q0 9 2 13q-5 45 -6 53v43q0 7 2 20.5t2 20.5v43q4 24 4 39v12q-1 6 -1 18t-1 17q-4 20 -4 28v62q-2 8 -2 24q-3 9 0 19q0 4 4.5 6.5t7.5 -0.5h2q0 2 26 1 l27 -1h117q8 2 26 2q6 2 21 2q13 4 23 -2q10 -5 14 -20v-54v-268q0 -35 -2 -51v-2q0 -13 4 -41q2 -27 2 -80q-1 -33 0.5 -94t1.5 -80v-176q0 -14 -1 -43t-1 -43q0 -7 1 -21.5t1 -21.5v-25q0 -2 -2 -2h2q6 6 16.5 20.5t16.5 20.5q4 5 13 18t15 19q-2 5 5 12v2l2 5v1 q5 10 14 19q22 33 24 35q18 15 29 28q4 5 13.5 16.5t13.5 16.5q9 11 24 35.5t21 32.5q9 15 22 28q1 1 4 3.5t4.5 4t2.5 3.5q0 7 6 10q2 1 7.5 4.5t8.5 3.5q6 2 21 2h39q3 0 10 -1t10 -1h23q9 -3 18 0q6 2 18 2q14 2 41 2q28 4 43 4q4 0 11.5 1t11.5 1h24q3 0 10.5 1t10.5 1 h18h23q6 -2 10 -6q6 -3 6 -8v-12q-2 -4 -6 -8q-7 -7 -10 -7h-6q-1 -1 -2 -3t-2 -3q-3 -6 -11 -10q-26 -26 -32 -31t-15 -15t-12 -13q-9 -9 -29 -21q-2 -2 -11 -12.5t-13 -16.5q-3 -3 -15 -19.5t-20 -23.5q-6 -6 -18.5 -19t-18.5 -19q-1 0 -6 -5q-2 0 -2 -2l-8 -8 q-3 -3 -10.5 -9t-10.5 -9l-37 -37q-3 -3 -10 -9.5t-10 -9.5q-1 -2 -16 -22l-19 -19l-10 -10q-2 -4 -10 -12q-15 -20 -19 -23h-2q3 -4 9.5 -11t9.5 -11q12 -9 22 -19q5 -6 15.5 -19t15.5 -19q4 -5 24 -35q5 -7 15.5 -18.5t13.5 -14.5q2 -2 10 -15.5t13 -19.5q3 -4 13 -14 t15 -17q1 -1 5 -6t5 -8q3 -6 9 -12q5 -5 13 -16.5t13 -16.5q21 -21 31 -33q1 -2 8.5 -13.5t12.5 -16.5q22 -15 34 -29q5 -6 15.5 -19.5t15.5 -19.5q3 -4 6.5 -12.5t5.5 -10.5v-2q2 -4 6 -8l5 -4q6 -6 8 -10q13 -10 24 -29l6 -6q0 -1 2 -2q1 -1 1.5 -1t1.5 -1z" />
<glyph unicode="l" horiz-adv-x="489" d="M377 618v-47q0 -31 -1 -95t-1 -95q0 -15 -1 -47t-1 -47v-260q-2 -2 -2 -4q4 -21 -11 -29q-7 -3 -12 2q-12 0 -16 -2h-10q-5 -1 -15.5 -2t-15.5 -2q-6 -2 -19 -2h-12q-10 -2 -29 -2q-23 2 -67 2q-25 -3 -51 8q-14 5 -4 20v19q-1 2 -7 26q-2 18 -2 58q0 8 3 55t-1 53v56 q0 39 -2 57q0 7 -2.5 27.5t-1.5 31.5q2 4 2 13v6q0 4 4 12q2 4 2 14v88q0 124 2 185q0 64 -4 182q-3 47 0 90q0 47 2 72q-2 6 -2 16q-2 20 -2 60q0 9 1 29t1 30v49v78q0 8 1 23.5t1 23.5q0 13 -4 41q-2 15 -2 90v21q-2 6 -2 20q0 1 2 15.5t4 21.5q0 6 7 6q4 4 12 4.5t19 -1 t14 -1.5q6 0 18 -1t18 -1q5 0 15 1t16 1h37q3 0 15 1.5t18 0.5q13 0 37 -4h20l2 2q2 0 6 -4h6q14 -7 7 -18q4 -16 4 -27q2 -14 2 -43v-86q0 -115 -2 -172q0 -15 -1 -43t-1 -41q4 -57 2 -84q-2 -14 -2 -39q0 -4 -1 -11t-1 -11v-17v-8q6 -21 6 -49q1 -9 1 -28t1 -29 q0 -19 -1 -57t-1 -56q0 -16 -1 -47t-1 -47q0 -20 4 -52z" />
<glyph unicode="m" horiz-adv-x="1581" d="M1450 68q3 -12 0 -25q0 -4 -2 -6v-2q-4 -12 -16 -8h-33q-10 2 -29 -2q-2 -1 -7 -1t-7 -1q-9 -3 -17 -3q-3 -1 -26 5q-16 5 -37 2q-4 0 -16 -4h-21q-2 -2 -8 -5q-4 0 -12.5 -1t-12.5 -1q-1 0 -3 -1t-3 -1h-2q-4 0 -8 4t-4 9q-6 6 -2 14q0 13 -4 33q0 27 -2 41v41 q0 7 1 20.5t1 20.5q0 27 -2 41q0 3 -3.5 19t-3.5 24q0 44 5 75q4 30 0 45q-1 7 -5.5 20.5t-5.5 20.5q0 7 1 21t1 20v43q0 6 1 19.5t1 19.5v23q0 3 -1 10t-1 10q-2 6 -2 19v22q-1 7 -4 21.5t-4 21.5q-5 22 -6 23q-2 6 -10 14q-3 3 -15 9.5t-16 11.5q-2 1 -16 6q-2 0 -9.5 1.5 t-9.5 0.5q-6 0 -19 -3t-20 -3q-12 0 -18 -2q-8 -5 -19 -9q-3 -1 -7 -4t-5 -4l-16 -8q-2 -2 -8.5 -7.5t-8.5 -8.5q-2 -2 -4 -8t-2 -7q0 -2 -5.5 -17.5t-6.5 -23.5q-3 -11 -8 -45q-4 -29 -2 -43q0 -4 1 -12t1 -12v-66q-1 -8 -1 -24.5t-1 -24.5q0 -8 -1 -23.5t-1 -23.5 q-4 -28 -4 -41q0 -6 -5 -21q1 0 2.5 -1t2.5 -1q4 -4 4 -12l2 -2q0 -51 -2 -78q0 -11 -1 -33t-1 -34q0 -6 -1 -18t-1 -17q0 -21 2 -31q2 -12 -2 -33v-18q2 -2 2 -4q4 -8 -2 -8v-4q-2 0 -5 -3q-6 -6 -16 0h-2h-8q-10 0 -19 3q-3 0 -9.5 1t-10.5 1q-2 0 -6.5 -2.5t-7.5 -2.5 q-18 -4 -84 -4q-11 0 -31 4h-4q-6 0 -19.5 -1t-19.5 -1l-2 -2q-1 0 -3 1t-3 1q-11 0 -11 13q0 6 -1 18t-1 17q0 6 -1 17t-1 17q0 7 -1.5 32.5t-0.5 39.5t-2.5 37.5t-3.5 34.5q0 14 1 38.5t1 36.5q0 8 2 24t2 24q0 7 -2 20.5t-2 20.5q-1 8 -1 23.5t-1 23.5q-2 14 -2 43 q0 73 -4 94q-6 40 -8 45q-4 8 -8 25t-4 18q-5 29 -17 41q-24 14 -33 18q-8 3 -22.5 3.5t-20.5 2.5q-21 4 -39 0q-13 -3 -20 -8q-6 -2 -18 -10q-4 -2 -8 -7.5t-5 -6.5q-2 -3 -6 -8.5t-6 -8.5q-2 -4 -16 -28q-1 -4 -2 -12t-2 -11q-5 -40 -5 -45v-22q0 -3 -1 -9.5t-1 -9.5 q0 -15 -1 -44t-1 -44q0 -7 -1 -21.5t-1 -21.5q0 -6 -1 -18.5t-1 -18.5q0 -7 -2 -21.5t-2 -21.5v-135q-2 -30 2 -88q5 -34 2 -76q7 -6 4 -14q-4 0 -4 -4q-4 -4 -6 -4q0 -9 -2 -11q-13 -10 -27 -10q-7 1 -16.5 4t-13.5 4q-20 4 -31 4q-4 0 -9 -1t-11 -2.5t-9 -2.5 q-10 -2 -22 -2t-26.5 1t-22.5 1q-10 1 -32 3t-32 3q-6 0 -7.5 5t1.5 10q-1 1 -3 4t-3 4q-1 5 -2 14.5t-2 14.5q-4 32 -4 47q0 6 -1.5 24.5t-0.5 28.5q2 18 2 55q0 14 2 42.5t2 43.5q0 17 1 50t1 49q0 62 4 188q0 18 1 51t1 51v50q0 6 -1 20t-1 21v98q-3 24 0 45q0 10 4 12 q4 9 10 6q2 0 4 -2q4 0 4 -2h11q6 0 16.5 -1t15.5 -1q3 0 10.5 -1t10.5 -1h18q5 0 15.5 1t15.5 1q2 1 7.5 1t8.5 1q3 0 15 4q18 0 28 -2q23 -2 66 -2q9 0 11 -7t-3 -13v-21v-47q6 19 21 31q46 40 71 53q12 6 27 6q0 2 4 6q4 1 13.5 3.5t13.5 3.5t22 10q8 4 29 4h31 q48 0 57 -2q4 -1 11.5 -2t10.5 -2h3q4 0 6 -2l6 -4q2 0 14 -4l8 -7q3 0 11 -4q2 0 2 -2q13 2 32 -12q7 -6 19.5 -18.5t19.5 -18.5q12 -9 25 -22q20 -15 22 -17l13 -12q5 5 17 19.5t20 21.5q12 8 20 12q3 2 9 7t9 7q4 4 39 21q4 1 11.5 4t11.5 4q4 7 12 10q3 2 25 7 q2 1 8.5 4t11.5 4q4 0 12.5 1t12.5 1q3 1 10.5 1t9.5 1q5 3 11 3.5t10.5 0t12 -2t11.5 -1.5q5 0 9 -2q10 7 20 4q5 0 8 -6q25 0 39 -2q7 -1 14.5 -4t15.5 -8t13 -7q13 -9 17 -10v-2q6 0 24 -12q8 -6 21 -19q6 0 8 -4q4 -4 8 -4l6 -6l12 -19q12 -19 19 -45q4 -16 8 -24 q2 -5 5 -16.5t5 -16.5q8 -16 15 -37q0 -2 1 -5t1 -5v-6q1 -3 2 -9.5t2 -9.5q0 -3 6 -45q2 -16 2 -47v-53q0 -7 -2 -21.5t-2 -21.5v-211q2 -6 2 -18q-2 -2 -2 -9q0 -41 -2 -61q-2 -16 -2 -45t2 -43v-12q4 0 4 -7q4 -12 4 -36zM864 821q0 2 -4 6l2 -4q0 -4 2 -6v4z" />
<glyph unicode="n" horiz-adv-x="1062" d="M948 469q-4 -58 -4 -86q0 -3 -1 -8t-1 -8q2 0 2 -2q3 -5 3.5 -11.5t-0.5 -16t-1 -13.5v-50q-4 -28 -4 -45v-45l1 -46q1 -46 -1 -46v-26v-17v-22q5 -6 1 -15.5t-13 -9.5q-11 0 -17 4h-6q-4 0 -6 2h-33q-42 0 -65 -2q-5 0 -15.5 -1t-15.5 -1h-16q-2 0 -6.5 -1t-6.5 -1h-30 q-2 -2 -11 -2q0 -4 -8 -8h-4q-8 0 -8 8q-10 3 -10 12v8q-4 4 -4 11q0 10 4 14v12v201q0 11 -1 34t-1 36q-4 20 -4 37q1 6 2 19t2 19q0 4 1 11.5t1 11.5q-1 3 -2 9t-2 9q-4 27 -2 41q0 4 1 13t1 14q0 3 1 10t1 10q4 14 4 46q0 14 -2 20q-5 7 -8 20l-13 39q-1 4 -10 17 q-1 2 -3 7t-3 7l-6 19q-5 5 -15 8q-1 1 -4.5 2t-5.5 2q-4 0 -8 4q-3 1 -10.5 3t-10.5 3q-3 0 -8 1t-8 1q-4 0 -7 1t-6.5 2.5t-6.5 2.5q-35 5 -41 4h-29l-10 -10q-5 -4 -13.5 -14.5t-13.5 -14.5q0 -2 -2 -2v-2q0 -4 -4 -8v-2q-2 -2 -5 -9t-5 -9q-17 -22 -23 -35 q-10 -20 -16 -41q-6 -18 -6 -19q0 -4 1 -11t1 -11q4 -58 2 -86q0 -7 -1 -21.5t-1 -21.5v-90q0 -3 -1 -10t-1 -11q0 -3 -1 -10.5t-1 -11.5q0 -6 1 -18.5t1 -18.5v-43q1 -6 1 -13.5t-0.5 -16t-0.5 -13.5v-96q0 -38 -2 -45q4 -9 -4 -17q-6 -4 -21 -4q-2 0 -7 3t-9 3 q-11 0 -17 -2h-12q-5 -1 -29 4h-4q-4 0 -13 -1t-13 -1t-12 -1t-11 -1h-10q-1 0 -3.5 -1t-4.5 -1h-19q-6 -2 -16 -2q-13 0 -17 -2q-3 0 -8.5 -1t-7.5 -1t-10 4q-6 0 -6 4q-1 1 -3 2t-3 2q-7 9 -7 27v59q0 13 4 29v59q6 53 7 58v6q0 9 -1 26.5t-1 26.5v107q0 4 -1 13.5 t-1 14.5v86q0 7 -3 13v30v25q4 4 5 4q-5 20 -5 23v16q0 3 -1 7.5t-1 6.5q-1 14 0 39.5t0 38.5q0 5 -1 17t-1 18t-2 18.5t-2 18.5q-2 23 -2 71q2 10 2 31q-5 14 4 23q1 2 9 6q17 8 26 6q6 0 17 -1t16 -1h31q16 -4 28 -4q34 3 68 0q14 -1 38.5 0.5t31.5 1.5q5 0 8.5 -4t3.5 -8 q0 -6 -2 -18.5t-2 -18.5v-17q11 11 14 13q9 6 19 16q6 6 18 14q4 2 10 7.5t10 7.5q1 1 23 12q23 12 25 12q28 8 45 8q7 0 22 1.5t23 1.5q25 0 49 -3q3 0 9 -2t9 -2q13 0 19 -2q2 0 17 -2t22 -4q4 -1 15 -4t17 -6q18 -12 39 -18q24 -8 33 -19q3 -2 8 -6t8 -6q2 -1 6 -6.5 t5 -6.5q4 -3 14 -9.5t14 -10.5q9 -11 21 -39q4 -12 8 -18q6 -9 6 -19q4 -16 8 -22q1 -3 2 -10.5t2 -10.5q0 -1 3 -8t4 -12q0 -15 2 -21q4 -16 4 -24v-2q1 -3 2 -10t2 -11q2 -16 7 -45.5t7 -44.5q0 -10 1.5 -40.5t0.5 -47.5z" />
<glyph unicode="o" horiz-adv-x="1058" d="M1010 530q4 -27 2 -41q-1 -7 -2 -19.5t-2 -18.5q0 -32 -4 -39q0 -24 -5 -39q-9 -20 -12 -43q-2 -7 -6.5 -25t-9 -31t-10.5 -24q-4 -12 -9 -17q-9 -14 -10 -16l-18 -31q-6 -17 -19 -30q-5 -4 -13 -14.5t-13 -14.5q-17 -17 -25 -23q-12 -12 -20 -14q-12 -14 -41 -24 q-6 -6 -15 -9q-2 -2 -6 -2h-2l-2 -4q-1 -1 -4.5 -3.5t-5.5 -4.5l-25 -12q-41 -24 -47 -25q-10 -2 -29 -2q-4 -1 -13 -2t-13 -2q-6 -1 -25 -4t-28 -6q-4 -1 -12.5 -2t-12.5 -2q-10 -4 -29 -4q-5 1 -14 3t-14 3q-4 0 -9 1t-11 2.5t-9 2.5q-17 0 -23 2q-8 4 -10 4q-8 0 -10 2 q-2 1 -5 2t-5 2h-6q-26 0 -31 2q-2 1 -7.5 3.5t-7.5 2.5q-12 4 -16 4q-34 10 -57 23q-5 3 -16.5 6t-16.5 6q-4 2 -13.5 6.5t-13.5 6.5q-20 12 -26 18q-2 3 -7.5 9t-7.5 9q-12 9 -20 25q-2 5 -8 13.5t-8 13.5q-10 20 -25 32q-4 5 -12.5 14.5t-12.5 14.5q-2 3 -11 15.5 t-13 19.5q-5 6 -8.5 22t-3.5 17q-5 18 -9 45l-12 43q-6 24 -6 51q0 8 1 24.5t1 24.5q-2 13 2 43q0 17 4 41q2 6 2 21q1 2 2 8t2 8q4 14 13 41q2 7 7 20.5t7 20.5q2 14 14 37q1 4 4 10t4 10q2 2 6 9t5 8q1 2 3 5t3 5q-2 4 2 12q3 2 8 8.5t8 8.5q5 12 19 26q2 1 6 4t6 4 q5 10 6 11q12 9 21 18q2 2 8 11t10 12q3 3 11.5 7t11.5 7q12 12 20 16q2 1 9.5 4.5t10.5 6.5q13 11 56 20q23 4 33 8t30 8q50 13 66 13q28 4 43 4q1 0 3.5 1t4.5 1h10q2 0 6.5 1t6.5 1q22 0 34 -4q6 -2 39 -2q5 0 16 -3t17 -3q11 0 29 -9h2q40 2 94 -41q13 3 27 -8 q2 -1 6 -5t6 -5l12 -6q4 -3 8 -6.5t8 -8.5t7 -8q6 -6 26 -22q6 -5 14.5 -15t12.5 -14q4 -5 25 -26q4 -5 14 -16.5t17.5 -21.5t11.5 -20q3 -4 5 -10.5t4 -14.5l3 -12q12 -35 12 -37q10 -30 10 -57q6 -18 9 -33q2 -4 2 -12q1 -1 2 -4.5t2 -5.5v-17zM315 514q2 -2 2 -6v-33 q1 -7 1 -20.5t1 -20.5l13 -43q2 -5 12 -35q0 -1 27 -34q2 -3 6 -8.5t6 -8.5q2 -2 5 -7t5 -7l17 -17l4 -5q4 -5 8 -7q12 -9 33 -20q18 -6 20 -6q3 0 9.5 -1.5t9.5 -1.5t9 -1t9 -1q10 3 20 0h39q10 5 13 5q3 1 8 3t8 3q6 4 18.5 13t18.5 13q17 8 35 23q13 9 28 31q1 1 11 16 q1 2 10 16v2l6 19q2 7 7.5 21t6.5 22q4 28 4 39q0 29 -2 41q-2 8 -2.5 23t-1.5 20q-4 52 -22 82q-5 7 -17 17.5t-14 12.5q-5 4 -15.5 11.5t-15.5 11.5q-8 7 -37 26q-14 14 -26 19q-1 0 -9.5 3t-13.5 3q-8 2 -20 2h-43q-31 0 -45 -4q-25 -4 -35 -10q-5 -5 -8 -2 q-2 -2 -5 -7.5t-5 -7.5q-4 -6 -13.5 -18t-13.5 -18l-25 -37l-14 -21q-6 -4 -10 -16q-4 -6 -6.5 -13.5t-4 -18t-2.5 -15.5q-4 -16 -4 -27z" />
<glyph unicode="p" horiz-adv-x="1181" d="M1096 469q8 -13 4 -35v-37q0 -23 -13 -82q-5 -15 -16.5 -38.5t-15.5 -32.5q-7 -16 -37 -66q-3 -4 -10 -15.5t-11 -15.5q-4 -7 -20 -28q-32 -45 -47 -56q-5 -3 -14 -11t-13 -11q-4 -2 -12 -10q-5 -5 -14 -8q-2 -1 -5.5 -3.5t-5.5 -3.5q-6 -2 -14 -6q-12 -4 -16 -4 q-6 -3 -9 -6l-24 -12q-7 -5 -17 -8l-12 -7q-4 -2 -14 -2q-24 -6 -25 -6h-16h-25q-37 0 -55 4q-15 0 -23 2q-3 1 -10 4.5t-10 4.5q-1 0 -8.5 4t-12.5 4q-6 0 -22 8q-10 2 -25 10q-3 2 -10 5t-10 5q-4 2 -11.5 5.5t-11.5 5.5q-7 2 -14 12q-12 12 -12 16q-12 8 -19 15v-4 q-2 -12 -2 -35v-41q2 -29 2 -86q0 -13 -4 -41q-2 -12 -2 -37q0 -15 -2 -23q0 -3 -1 -8t-1 -8v-39q0 -13 -1 -40t-1 -42q0 -53 -2 -82v-53q0 -8 2 -12q3 -6 1 -13t-9 -8q-20 -2 -62 -2h-73q-12 2 -35 2q-3 0 -8.5 2t-8.5 2q-8 0 -14 -2q-18 0 -26 2q-12 6 -13 6h-2 q-4 -8 -14 -4.5t-10 13.5v73q0 6 1 17.5t1 17.5v103q0 13 1 35.5t1 33.5q0 16 -1 46t-1 53.5t2 44.5q0 5 1 15t1 15v99q0 1 1 2t1 2v8q0 4 2 6v2q-2 2 -2 6q-2 10 -2 29q-2 8 -2 27q0 8 1 24.5t1 24.5v26v17q-5 19 -2 43q0 7 1 22.5t1 22.5q0 5 -0.5 14t-0.5 17t1 14 q2 8 2.5 25t1.5 22v20q0 4 -1 11t-1 10q-2 16 -2 51q1 5 1.5 21t2.5 24v21q0 3 1 9t1 9q0 31 -4 45v27q-2 6 -2 22v45q3 48 -2 86q-3 7 -0.5 41t2.5 41v2q-3 7 0 13q2 6 8 10t12 2h29q44 0 67 -2q12 -2 35 -2q21 0 31 -2q36 -4 57 -4t25 -2q8 -5 8 -17q0 -14 -2 -20 q0 -6 -2 -8q0 -9 -2 -15v-16q2 0 2 2l12 12q5 3 14.5 11.5t14.5 11.5q4 3 18 10.5t21 13.5q5 4 15.5 11.5t15.5 11.5q7 5 20 8q12 4 21 4q3 1 9 1t9 1q16 4 20 4q9 -1 46 4q12 2 38 2q16 -2 43 -10q12 -2 37 -2q20 0 41 -12q2 -1 9 -4t12 -4q4 0 16 -4q7 -5 14 -15 q2 -2 7 -2q12 -4 28 -20q16 -11 17 -11q2 -2 6 -7t6 -7q4 -5 12.5 -14.5t12.5 -14.5q4 -8 10 -14q0 -4 4 -4q4 -4 11 -12.5t11 -12.5q1 -2 6.5 -10.5t6.5 -13.5q11 -11 16 -21q8 -8 8 -16q1 -2 2 -6t2 -6q10 -20 15 -35q4 -18 8 -29q4 -4 4 -8q4 -6 8 -18v-5q4 -8 4 -14v-2 q6 -9 6 -20v-2q3 -4 4 -10.5t1.5 -14.5t1.5 -12q2 -12 2 -37v-33zM823 510v25q-6 12 -6 22q0 15 -2 21q-4 4 -6 8l-25 30l-10 15q-8 8 -12 14q-2 2 -6 10q0 2 -2 2q0 2 -2 2q0 1 -2.5 8t-4.5 9q-8 4 -12 10q-4 4 -12 8q-2 1 -16.5 8.5t-22.5 8.5q-12 2 -41 2q-27 0 -41 -4 q-12 -2 -41 -2q-15 0 -37 -13q-6 -2 -14 -10l-10 -10q-7 -7 -23.5 -20.5t-23.5 -20.5q-2 -2 -2 -4q-30 -45 -35 -54v-4q-1 -3 -2 -9t-2 -9q-4 -12 -4 -16q-1 -2 -2.5 -8.5t-2.5 -8.5q-2 -6 -2 -20q0 -2 -1 -6.5t-1 -6.5q4 -27 2 -41l-1 -9q0 -9 1 -9q2 -3 7 -18q0 -11 4 -23 l4 -8l2 -6q1 -2 1 -6.5t1 -6.5q1 -3 3 -8t3 -8q5 -16 8 -20q2 -5 10 -13q13 -26 19 -32q2 -3 6 -8.5t6 -8.5q8 -4 14 -10q17 -17 29 -21q4 -1 12.5 -2t12.5 -2q3 0 10 -2.5t10 -3.5q18 -6 39 -6q9 0 25 -4h20q16 0 19 2q3 1 10 3t10 3q3 2 9 5t9 5q2 1 19 7q15 6 27 18 q1 3 6 7.5t6 6.5l10 15q4 3 6.5 6.5t5 8t4.5 7.5q7 11 39 84q1 3 3 10.5t3 10.5q0 14 -2 20q-1 4 -1 13.5t-1 13.5v26q-1 4 -2 13.5t-2 13.5z" />
<glyph unicode="q" horiz-adv-x="1157" d="M1042 129q-6 -48 -6 -51v-45q0 -43 -2 -51v-2q8 -96 8 -222q0 -15 -4 -51v-41q2 -4 2 -12v-16q0 -13 2 -21q0 -2 1 -7t1 -7q0 -8 1 -22t1 -24.5t-2 -19.5q5 -7 1.5 -15.5t-13.5 -8.5h-2q-2 -2 -6 -2q-3 -3 -8 -3q-9 0 -15 -2q-12 -4 -36 -4q-8 0 -23 1t-22 1h-21 q-12 0 -16 -2q-6 -2 -21 -2h-18q-15 0 -21 2q-4 2 -14 2q-27 4 -27 21v14v19v47q2 14 2 39q0 8 -2 23t-2 22q2 16 2 47q0 33 -2 49q-1 7 -1 22.5t-1 22.5q0 8 -1 24.5t-1 24.5q0 15 -4 43q-2 16 -2 49q1 5 2.5 13.5t2.5 15.5t1 12q0 33 2 49q0 19 2 27l-4 -4q-3 -3 -6 -5 t-6.5 -4t-5.5 -3l-15 -15q-7 -7 -16 -10q-3 -2 -8 -5t-8 -5q-5 -4 -14.5 -13.5t-14.5 -13.5q-12 -6 -14 -8q-4 -4 -15 -8q-24 -5 -32 -8q-10 -7 -17 -9q-13 -6 -63 -10q-6 -1 -17.5 0.5t-15.5 1.5q-18 3 -33 6q-12 2 -37 2q-18 0 -30 9q-19 10 -21 10q-3 1 -12 2t-13 2 q-2 1 -7 3t-7 3l-10 10q-5 2 -12.5 9.5t-10.5 9.5q1 -1 1 -2l-5 2q-1 1 -3 2t-3 2q-2 0 -14 6q-9 9 -21 18q-10 5 -22 17q-6 6 -15 24q-1 2 -4 6t-5.5 7.5t-4.5 7.5l-14 14q-2 0 -2 2q-2 0 -6 4q-6 6 -9 15q-1 2 -4 6t-4 6q-9 12 -12 27l-4 4q-4 6 -7.5 13.5t-6.5 16.5 t-5 13q-15 34 -16 39q0 1 -2 15.5t-4 21.5q-3 10 -17 43q-1 4 -2 11.5t-2 10.5q0 9 -4 21q-4 16 -4 47q0 29 2 41q1 8 2 23t2 22q0 18 15 37q1 3 4.5 10.5t3.5 11.5q2 6 2 21l12 43q9 21 19 41q5 13 18 26q0 5 3 11t8.5 13.5t7.5 10.5q1 1 12 16.5t18 20.5l2 2q7 14 15 22 q4 5 13 13.5t13 13.5q15 15 27 20q2 1 5.5 5.5t4.5 5.5q2 1 6 4t6 4q9 5 11 8q2 2 10 6q4 3 8.5 8t9 8t8.5 5q6 2 18 4t13 2q6 1 17 2t16 2q14 0 36.5 9t31.5 11q7 1 19 -1.5t17 -2.5q3 0 10.5 1t10.5 1l18 -6q15 0 21 -2q4 0 8 -4h2h2q6 0 8 -2q15 -6 27 -12q15 -5 35 -15 q3 -2 12.5 -9t15.5 -9l7 -6h2q11 -5 12 -8l14.5 -14.5t18 -17t16.5 -11.5v4q0 6 1 20t1 21v30q3 10 12 7q13 7 41 2q30 -6 31 -6h18h15q25 0 37 2q10 2 30 2q10 2 31 2q2 0 7 -1t7 -1t7.5 1t7.5 1q17 -3 20 -17v-8q2 -2 2 -8q6 -15 6 -33q0 -31 -2 -45q0 -17 -1 -49t-1 -49 q0 -153 4 -197q1 -8 2.5 -25t2.5 -26q0 -8 1 -24.5t1 -24.5q4 -62 4 -92q0 -68 -4 -101q-7 -28 -7 -49q0 -31 -2 -47zM365 453q5 -5 2 -11q1 -9 4 -27.5t4 -27.5q0 -4 2 -6q4 -10 12 -29.5t12 -29.5v-3q3 -4 8.5 -12t8.5 -12q2 -3 4.5 -5.5t6 -5.5t5.5 -5q5 -3 10 -10t7 -9 q17 -11 20 -12q9 -4 27.5 -13.5t27.5 -13.5q3 -1 17 -8h10q4 -1 10.5 -2t9.5 -2h60q26 4 39 8l4 4q9 9 29 25q14 14 22 20q7 9 14 31q1 3 5.5 10t5.5 10q1 4 4 11.5t4 11.5q26 51 35 82q4 16 4 45v41q-1 3 -1 11t-1 11q0 7 -4 19q-5 18 -19 39q-1 2 -11.5 15t-12.5 20 q-11 22 -17 32l-6 7q-10 6 -16 16l-4 3q-4 3 -5 5q-2 2 -4 2q-3 1 -9 5t-7 5q-4 0 -12 4q-32 13 -80 13q-22 3 -49 -4q-9 0 -21 -4q-3 0 -8.5 -3t-7.5 -4q-3 -1 -8.5 -4t-8.5 -4q-3 0 -7.5 -2.5t-6.5 -3.5h-2l-8 -8q-10 -8 -31 -29q-10 -10 -16 -14q-6 -9 -10 -21 q-6 -6 -9 -12q-3 -7 -8 -21.5t-8 -21.5q-5 -7 -8 -20q0 -13 -4 -37q-4 -32 -4 -49z" />
<glyph unicode="r" horiz-adv-x="794" d="M705 934q4 0 4 -8q0 -6 -3.5 -17.5t-3.5 -13.5q0 -17 -4 -25q-2 -9 -4 -26.5t-4 -26.5q0 -1 -6 -59q-2 -4 -2 -15q-2 -4 -2 -12q0 -12 -4 -16q3 -3 0 -8q-4 -12 -14 -5q-5 5 -13 9q-10 0 -14 4h-4q-1 1 -3 2t-3 2h-13q-12 0 -16 2q-3 0 -6.5 1t-5.5 1q-4 0 -18 -1.5 t-21 -0.5q-23 0 -35 -4q-13 -2 -39 -15q-4 -2 -11 -6t-11 -6q0 -1 -1.5 -2t-1.5 -2q-13 -9 -22 -22q-6 -6 -12 -15q-1 -2 -4.5 -6t-4.5 -6q-2 -5 -4.5 -11.5t-5.5 -13.5t-4 -10q-1 -6 -3 -17.5t-3 -17.5q0 -6 -4 -6v-18q-1 -4 -4.5 -19.5t-3.5 -23.5q0 -10 -0.5 -29.5 t-0.5 -35t1 -29.5q4 -16 4 -25q0 -17 -2 -23q0 -8 -1 -23t-1 -22q0 -16 -1 -46t-1 -44q0 -65 2 -96q4 -32 4 -51v-49q0 -3 -1 -9.5t-1 -9.5q-1 -6 -7.5 -6t-9.5 6q-2 0 -2 -2h-61q-9 -2 -19.5 -2t-24.5 1t-22 1h-67q-9 0 -25 -4q-5 -1 -12 1.5t-8 2.5q-7 1 -11 7t-2 12 q0 2 -1 6t-1 6q1 5 5.5 13.5t5.5 12.5q0 3 1 8.5t1 8.5q0 4 -4 16v19q-5 10 -5 16v49v150q0 16 -1 46t-1 44v100q0 68 2 103v51q0 6 -1 20t-1 21q0 63 2 96v49q5 20 5 25v4v10v2q-5 20 -5 23q0 10 11 10h6q6 0 8 -4q6 2 18 2q20 -4 31 -4q8 -1 18 -1t22 0.5t18 0.5q9 0 27 1 t26 1h43l6 4q6 0 8 -2l2 2q6 2 11.5 -2t5.5 -10q0 -14 1 -43t1 -45q3 3 10 0q12 28 24 38q13 19 39 37q4 3 12.5 7.5t12.5 7.5q1 1 4 2.5l6 3t6 2.5q12 4 19 4l8 4l12 6h25l2 2q8 1 27 5.5t30 4.5h27q12 -4 18 -4q5 0 13 -4h10q9 2 24 -8q6 -3 6 -6q3 0 3 -2z" />
<glyph unicode="s" horiz-adv-x="841" d="M750 276q0 -31 -2 -45q-4 -24 -11 -38q-2 -6 -6 -19.5t-6 -19.5q-2 -4 -2 -13q-2 -2 -6 -10q-6 -12 -8 -14q-12 -18 -33 -27l-2 -2q-2 -3 -8.5 -9t-8.5 -9q-4 -6 -30 -27q-11 -8 -29 -12h-2q-2 -2 -4 -2q-4 -4 -6 -4l-6 -7q-8 -5 -31 -14q-5 -1 -13.5 -5t-13.5 -5 q-5 -2 -17 -4t-18 -4q-13 -7 -26 -4h-8q-3 0 -13 -5q-4 -1 -12.5 -1t-11.5 -1q-4 -2 -13.5 -1.5t-13.5 -0.5h-22q-4 1 -13 2t-12 2l-8 4t-10 3q-9 0 -13 2q-34 0 -43 4q-3 1 -8 4t-8 4q-3 2 -6 3t-7 1.5t-6 1.5q-12 2 -36 14q-19 5 -21 17v2q-2 0 -10 4l1 -1l-3 3 q-8 4 -10 6q-1 0 -3.5 1t-3.5 1l-4 2h-2q-14 7 -22 15q-15 15 -19 18q-1 1 -2 3t-2 3q-4 0 -10 6q-4 4 -4 6h-2q-1 1 -3 2.5t-3 2.5q-7 3 -8 6q0 1 -1.5 2t-1.5 2v6v4q0 4 3 4q1 2 18 31q5 7 16.5 21.5t16.5 21.5q16 27 24 33q19 13 29 32q3 10 14 7q6 3 9 0q5 0 8 -5 q17 -21 37 -32q13 -4 20 -9q4 -4 16 -12q14 -12 50 -20q42 -6 43 -6q33 -4 47 0q8 2 22 2q14 5 17 8q4 2 11 7t11 7q1 5 4 12t4 9q1 4 4.5 12t4.5 12v19q0 19 -11 36q-18 33 -61 50q-22 9 -29 14q-10 2 -28 12.5t-23 12.5q-10 5 -33.5 9.5t-30.5 6.5q-6 3 -17 8t-17 8 l-13 13q-1 0 -3 1t-3 1q-8 0 -12 4q-1 1 -2 3t-2 3q-3 3 -8.5 10t-8.5 10q-12 9 -24 21q-13 15 -27 57q-8 21 -10 31q-1 5 -5 14.5t-5 14.5q-3 18 0 36v29q1 4 1 11.5t1 13.5t4 10q2 4 4 15t4 16q8 20 14 28q4 16 13 25q6 8 17.5 25.5t17.5 25.5q15 20 22 27q2 0 6 4l4 4 q22 18 33 22l4 3l4 4q2 0 2 2q4 2 11.5 7t11.5 7q3 1 13 7.5t16 6.5q0 2 2 2q2 2 6 2q4 2 14 2q5 0 15.5 1.5t15.5 1.5q10 2 31 2q2 -1 13 -4t17 -3q1 0 4 -1t4 -1h25q4 0 8 -2q13 0 19 -2q12 0 18 -2h4q17 0 23 -4h2q5 -1 14 -3t14 -3q25 -10 29 -12q8 -4 33 -19q1 0 3 -1 t3 -1q12 0 27 -6l18 -12q12 -12 14 -15h2q2 0 2 -2q5 0 5 -2q6 -3 8 -9t-2 -11l-6 -6q-3 0 -8.5 -7t-8.5 -8q-4 -4 -8 -6q-2 -2 -6 -7t-6 -7q-1 0 -25 -31q-2 -3 -20 -33q-2 -3 -5.5 -9t-5.5 -9l-8 -8q-2 -2 -8 -2q-7 -7 -12 2v2q-4 0 -8.5 4.5t-6.5 5.5q-6 3 -15.5 13 t-14.5 14q-2 0 -2 2q-3 1 -8.5 3t-8.5 3h-18q-10 2 -33 2q-14 0 -20 -2q-9 0 -17 -4q-15 -3 -22 -15q-25 -42 -29 -67q0 -19 4 -25q1 -2 4 -7t4 -7q6 0 6 -4l7 -6h2q2 -1 6 -4t6 -4q5 -1 19.5 -5t21.5 -6l24 -12l31 -12q25 -7 57 -29q2 -2 6.5 -5t6.5 -5q4 0 8 -4 q4 -3 15.5 -7.5t15.5 -7.5l18 -12q2 -1 6 -5t6 -5q4 -1 6.5 -3t5.5 -5t5 -4q3 -2 8 -6.5t8 -6.5q27 -25 41 -71q2 -6 5 -20.5t5 -20.5q4 -16 4 -23q0 -10 3 -16q2 -18 2 -54z" />
<glyph unicode="t" horiz-adv-x="647" d="M600 741q0 -2 0.5 -8t0 -8.5t-2.5 -6.5t-6 -5q-12 -7 -35 -11q-15 -1 -43.5 -2t-42.5 -2q-21 -4 -35 -2q1 -4 2 -12t2 -12v-45q2 -29 2 -86q0 -7 -1 -22.5t-1 -22.5q0 -6 -1 -19.5t-1 -19.5q-2 -29 -2 -84q0 -15 -1 -43t-1 -43v-90v-47q0 -6 1 -19t1 -20v-45 q0 -6 1 -19.5t1 -19.5q0 -5 -4 -9v-2q0 -12 -12 -12q-23 0 -27 2t-8.5 2t-9.5 -1t-8 -1q-11 0 -34 1t-34 1q-7 0 -28.5 -1.5t-32.5 -0.5h-33q-19 8 -31 2q-8 0 -8 6q0 19 10 21q-4 8 -4 12q-2 4 -2 16q0 5 -4 17q-2 6 -2 16q-4 29 -2 41q0 7 -1 21.5t-1 21.5v43q5 32 4 41 q0 7 -1 20.5t-1 20.5q0 29 -2 45q-2 29 -2 88q0 63 2 94v97q0 55 6 82h-43q-3 0 -18 2.5t-17 -0.5q-14 -3 -18 10q-1 6 0.5 16t1.5 13q0 20 2 28v27q0 10 6 22q4 9 2 11q-4 8 -2 10v27v49q0 2 1 6t1 6q0 8 8 8q20 3 39 0q13 0 33 -4q2 -2 6 -2q-1 10 -2 29.5t-2 29.5 q-2 24 2 76q0 57 -2 86q-2 12 2 39v35q0 4 2 8l2 2q3 6 10 6q3 0 8.5 -1t8.5 -1h18q21 0 31 -2q5 0 28 -3t35 -3q6 0 17.5 1t17.5 1q5 0 14 -2t13 -2q23 0 28 2q13 4 23 2q2 0 2 -2q8 4 8 -4q8 -35 2 -76q0 -1 -3 -32.5t-3 -47.5v-125v-22h10q31 0 37 -2q5 -3 12 -3 t15.5 1.5t13.5 1.5q6 1 17.5 1t17.5 1q4 1 11.5 4t11.5 3.5t12 -1.5q8 -3 8 -25q2 -15 1.5 -42t0.5 -42q2 -31 2 -90z" />
<glyph unicode="u" horiz-adv-x="1026" d="M930 461q-4 -28 -4 -45q0 -43 -2 -51q-2 -6 -2 -23q-1 -3 -2 -10t-2 -10q0 -2 -7 -23q-1 -4 -2 -10.5t-2 -9.5q-7 -22 -10 -41q0 -9 -4 -25l-6 -18q-3 -22 -17 -39q-10 -15 -12 -17q-2 -3 -4.5 -5.5t-5.5 -5t-4 -3.5q-20 -25 -25 -29l-12 -12q-6 -6 -14 -10 q-14 -10 -23 -15q-4 -2 -8 -6q-12 -7 -29 -14q-5 -3 -31 -8l-24 -13q-5 -2 -24 -5t-27 -9q-17 -10 -31 -8h-31q-1 0 -11 -1t-17 0t-11 5h-37q-7 0 -21.5 -2t-21.5 -2q-4 1 -14 1.5t-17 1.5t-12 5q-1 0 -6 3.5t-10 2.5q-12 0 -18 2q-4 4 -7 4h-4q-12 -3 -24 0q-3 2 -11 3.5 t-12 3.5l-12 6q-12 4 -16 8q-2 1 -6.5 4t-6.5 4l-12 6q-20 10 -27 17q-4 4 -20 16q-7 7 -19.5 22.5t-19.5 22.5q-16 12 -18 21q-7 14 -15 22q-12 12 -22 57q-5 26 -8 66q0 6 -1.5 17t-1.5 16v8q-1 10 -3 31.5t-3 31.5q-10 68 -10 82v133v39q2 15 1.5 41t0.5 41q0 6 1 19.5 t1 19.5q0 13 2 19q-2 4 -2 12q-5 44 -2 98q0 6 1 19t1 20q3 17 19 14q4 0 8 -4h10q6 0 17.5 -1t17.5 -1q6 -1 17 -1t16 -1q5 0 15 -1t15 -1q28 0 33 2q5 1 14.5 3t14.5 3q11 0 35 -4h34q9 0 11.5 -7t-2.5 -13q-1 -2 -1 -8.5t-1 -8.5q0 -2 -1 -7t-1 -7q-1 -8 -4 -23.5 t-3 -17.5q0 -33 7 -80q8 -62 6 -92q0 -8 -2 -24.5t-2 -24.5q0 -29 2 -45q0 -4 -1.5 -21t-0.5 -26q1 -7 2 -21.5t2 -21.5t2 -21.5t2 -21.5q0 -5 -0.5 -13.5t-0.5 -15.5t1 -12q2 -17 1.5 -44.5t0.5 -43.5q0 -19 12 -47q2 -1 5 -4.5t5 -4.5q4 -4 4 -6q4 0 5 -1l-2 -1 q9 -3 14 -8q3 -3 9.5 -8.5t12 -9.5t9.5 -7q4 -2 32 -8q5 -1 13.5 -3t16 -3t13.5 0q3 0 8.5 2t8.5 2q0 -1 6 0q6 6 12 6q2 0 7.5 4t6.5 5q2 1 17 6l10 10l12 12q6 8 15 39q9 21 12 45q4 15 8 49q4 15 8 45q1 5 2 23.5t3 28.5v163q0 28 -3 52v45q0 48 3 100q0 44 -3 59 q-3 9 -6 21q-3 9 4.5 18t16.5 7q3 0 18 -5q2 -1 7 -1t8 -1q12 -4 20 -4h70q4 0 11 -2t11 -2q0 -1 4 -2q4 4 8 4q37 5 39 6q18 8 43 4q13 0 13 -12v-74q3 -36 0 -73q-4 -32 -4 -51v-52q1 -1 2 -3t2 -3q2 -6 2 -24q3 -12 0 -23q-2 -14 -2 -43v-49v-41q4 -16 4 -49z" />
<glyph unicode="v" horiz-adv-x="1019" d="M985 946q10 0 10 -8q0 -13 -6 -25l-12 -24l-4 -12t-4 -15q-10 -15 -13 -16h-2q-2 -12 -10 -31l-2 -2q0 -6 -4 -14q0 -5 -12 -23q-18 -27 -27 -61l-18 -62q-11 -25 -21 -43q-3 -6 -10 -18.5t-10 -18.5q-22 -54 -29 -86q-5 -18 -16 -45q-3 -7 -13 -20t-12 -16 q-25 -38 -27 -41q-9 -18 -18 -39q-14 -28 -20 -37q-6 -19 -9 -23q-10 -30 -14 -35l-10 -12q-3 -8 -8 -16q-7 -7 -9 -8q-1 -3 -3 -10.5t-3 -10.5q-8 -27 -10 -45q-3 -17 -14 -39q-1 -4 -4.5 -11t-4.5 -11q-4 -14 -8 -21q-1 -3 -5 -8t-5 -8q-5 -15 -6 -17q-3 -8 -12 -8 q0 -4 -5 -4q-4 -5 -8.5 -5.5t-12 0.5t-9.5 1q-5 0 -16.5 -2t-16.5 -2q-3 0 -12 -0.5t-14.5 -0.5t-12.5 1.5t-12 5.5q-11 0 -17 2q-6 0 -8 2q-9 3 -20 35q-2 11 -15 47q-1 3 -4.5 20t-7.5 25q-3 7 -9 20.5t-9 20.5q-1 3 -5.5 9t-5.5 9q-1 2 -4.5 10t-5.5 11q-8 13 -16 39 q0 1 -2 9t-4 13t-11 19q-10 30 -14 35q-1 2 -4 5.5t-5 6.5t-3 6q-2 3 -5 9t-5 9q-2 4 -10 14t-11 17q-2 7 -8 20.5t-8 20.5q-3 22 -13 45q-9 30 -16 43q-2 4 -9 13.5t-9 15.5q-3 9 -9 18q-3 5 -8 19q-2 4 -9 15t-9 18q-8 24 -10 34q-1 2 -4.5 6.5t-4.5 6.5q0 4 -2 6 q-2 3 -5.5 11t-4.5 11q-10 17 -16 37q-4 4 -6 8q-2 5 -11 19q0 1 -3.5 5.5t-4.5 8.5q-2 10 -10 21q-2 3 -5 9t-5 9q-3 5 -5 12t-4.5 15t-3.5 12q-2 7 -9 21.5t-9 21.5q-4 12 -8 18q-3 10 -8 17q-3 5 2 10q0 4 8 8q12 6 28 -2l2 -2h9q15 -3 32 0q4 0 13 2t14 2q4 0 14 2t15 2 q46 -4 71 -2q28 3 56 0q1 1 4 3t4 3q12 3 16 -8l6 -18q0 -11 2 -17q2 -4 7.5 -14.5t7.5 -17.5q3 -6 14 -39q9 -13 10 -17l7 -14q20 -38 30 -70q5 -12 12.5 -36.5t12.5 -36.5q12 -38 33 -72q3 -5 18 -35q1 -2 8.5 -12.5t9.5 -16.5q4 -7 13.5 -20.5t16.5 -25t11 -23.5 q4 -14 9 -25v4q2 5 6 16.5t6 16.5l12 37q6 12 8 14q2 4 2 15q11 22 15 32q7 22 14 33q10 21 19 70l12 37l5.5 16.5t4.5 15.5q4 10 13.5 31t13.5 31q8 19 26 70q1 3 5 15.5t6 18.5q2 4 5 13.5t5 13.5q3 15 16 6l2 2q4 2 13 2h4q3 3 13.5 0.5t12.5 -2.5q5 0 16.5 -1t16.5 -1 q28 -5 33 -4q20 4 33 4q19 0 65 4h10h2q4 2 15 2l12 -6q0 2 4 2z" />
<glyph unicode="w" horiz-adv-x="1593" d="M1550 938q4 -4 4 -8q0 -14 -6 -29q-3 -7 -16 -29q-3 -4 -8 -13t-8 -13q-14 -18 -17 -25q-2 -6 -7.5 -15t-6.5 -11q-2 -2 -15 -29q-6 -12 -13 -36.5t-9 -29.5q-9 -20 -29.5 -61t-29.5 -61q-4 -10 -13.5 -32t-13.5 -32q-4 -8 -6 -10q-13 -35 -33 -80q-6 -12 -18.5 -37.5 t-18.5 -38.5q-6 -10 -16 -32t-13 -27q-3 -15 -10 -29q0 -1 -1 -3t-1 -3q-1 -2 -2 -5.5t-2 -4.5l-6 -19q-1 -2 -4 -5t-4 -5q-3 -12 -8 -22q-1 -1 -7 -12t-8 -17q-1 -6 -6 -16.5t-6 -12.5q-2 -8 -10 -29l-13 -24q0 -2 -2 -2v-2q-7 -18 -14 -27q-1 -1 -2 -3t-2 -3l-6 -18 q-1 -1 -2 -5t-2.5 -7t-3.5 -5q2 -1 2.5 -3t-0.5 -3.5t-4 -1.5h-5q0 -4 -6 -4q-11 -4 -32 0q-10 2 -33 2q-19 0 -29 2q-6 2 -20 2l-4 -2q-9 0 -11 2q-13 6 -18 37q-2 11 -7 30.5t-7 26.5q-1 5 -7 29q-8 15 -10 27q-1 2 -18 53q-3 9 -10.5 26.5t-10.5 26.5q-1 2 -18 59 q-4 9 -11.5 27t-11.5 27q-4 8 -4 10q0 8 -2 10l-4 12t-4 15q-2 2 0 4q-18 42 -25 68q-1 6 -7 25.5t-7 29.5q-1 3 -4 12.5t-4 15.5q-4 -8 -6 -10q-1 -3 -3 -10t-3 -10q-9 -27 -15 -41q-17 -46 -35 -78l-12 -25q-6 -18 -19 -53t-18 -49q-19 -56 -20 -59q-3 -11 -12.5 -31 t-12.5 -27q-7 -17 -20 -61q-1 -6 -4.5 -15t-4.5 -12q-1 -2 -4 -8.5t-4 -11.5q0 -4 -6 -4q0 -5 -4 -13q-5 -16 -8 -20q0 -2 -2 -6t-2 -6q0 -5 -2 -9q-2 0 -2 -2l-2 -2v-2q0 -17 -21 -12q-2 0 -7 1t-7 1q-13 0 -19 -2q-24 0 -36 2q-3 1 -10.5 1t-10.5 1q-2 0 -10 4 q-9 -10 -17 -2q-14 8 -18 25q-7 13 -14 39q-2 6 -6.5 19t-6.5 19q0 1 -4 13.5t-8 17.5q-19 19 -35 74q-6 18 -6 20l-6 19q-12 29 -14 33q-17 26 -21 39q-10 22 -20 38q-2 5 -18 36t-23 48q-20 44 -35 91q-11 37 -14 43q-1 1 -23 40q-2 4 -7.5 19t-10.5 22q-9 21 -19 41 q-2 7 -18 39q-1 3 -4 9.5t-4 9.5t-3.5 10t-3.5 10l-12 19q-2 3 -3 6t-1.5 6.5t-1.5 5.5t-10 16q-1 3 -4 10.5t-4 10.5q0 1 -1.5 3t-1.5 3q-2 2 -5.5 8t-4.5 8q-2 5 -7 19.5t-9 21.5q-1 1 -6 11q0 8 2 14h4q14 0 20 2q4 -2 15 -2q5 -1 16 -3t16 -3h19q1 1 22 6q14 2 48 2 q37 0 55 2h47q14 3 20 -12q1 -7 6.5 -19t6.5 -16q4 -19 12 -33q26 -60 29 -69q11 -26 12 -35q8 -25 10 -35q4 -11 10.5 -35.5t10.5 -36.5q12 -38 28 -71q13 -22 17 -33q3 -17 10 -35q5 -13 14.5 -39t14.5 -39q4 -4 4 -10q2 2 2 6q1 3 5 16t7 19q25 41 33 65q5 12 35 70 q5 12 14 34t14 34q1 4 11 24v6q1 7 7 20t7 17q3 6 7 18.5t7 18.5q8 15 15 41q7 18 14 27q2 4 5 14t5 14q6 15 12 33q4 15 11 25q0 2 2 2l6 18q-4 11 4 15q3 10 12 6h2q4 0 11 -1t10 -1q4 0 12 1t12 1h4q11 5 27 2l2 -2q8 -2 21 -2q2 0 4 2q14 0 14 -13v-2q4 -10 13.5 -30.5 t13.5 -30.5q5 -13 18.5 -38.5t18.5 -39.5q5 -10 14 -37q2 -6 7 -18.5t7 -18.5q12 -24 17 -39t8 -18q1 -2 4 -7t4 -7q5 -17 16 -43q2 -6 7.5 -18.5t7.5 -18.5q4 -13 12.5 -40.5t13.5 -41.5q26 -54 33 -78q1 -3 4 -9t4 -9q2 8 6 20q25 50 27 60q4 17 47 131q24 59 43 135 q10 33 25 63q2 4 6 11.5t6 11.5q4 12 8 18q3 6 7 19t5 16q11 18 11 33q3 12 12 8h23q12 4 18 4q4 0 6 -2q2 2 8 2q11 0 15 2t16 2h109q24 0 36 2q11 0 31 -4q1 0 3 -1t3 -1l2 -2v-2z" />
<glyph unicode="x" horiz-adv-x="1165" d="M1118 12q7 -3 6.5 -12.5t-8.5 -11.5q-10 0 -16 2q-2 1 -10 -0.5t-9 -1.5q-7 0 -20.5 1t-20.5 1q-22 0 -34 2q-6 2 -19 2h-18q-6 1 -18.5 1t-18.5 1q-14 2 -39 2q-14 0 -39 2t-37 2t-16 2q-1 1 -19 25l-18 24q-15 24 -33 45q-7 8 -18 22t-15 19q-13 18 -28 47 q-4 8 -14.5 23.5t-14.5 21.5q-1 2 -7 11t-11 14q-2 3 -7.5 9t-7.5 9q-26 30 -35 43q-3 6 -6 9q-6 -9 -12 -21q-10 -20 -12 -22q-7 -7 -15 -19q-10 -18 -30 -50t-27 -44q-9 -19 -14 -25q-2 -3 -7.5 -9t-7.5 -9q-15 -26 -28 -39q-3 -3 -9.5 -10t-9.5 -10q-3 -2 -5 -4.5 t-4.5 -7t-4.5 -7.5q-20 -25 -23 -35q-4 -4 -8 -4q-6 -10 -20 -12q-8 0 -8 2q-4 -4 -7 -4t-9.5 2t-10.5 2h-53q-8 0 -24.5 1t-24.5 1h-48q-2 0 -8.5 1.5t-11.5 0.5h-21q-4 0 -8 2q-6 0 -8 -2h-39q-1 0 -2 1t-2 1q-4 0 -4 4v10q3 7 8 9h4q4 4 6 8q8 8 9 10q3 4 9 13.5t9 13.5 q35 40 41 49q42 70 66 92l10 10q7 14 8 15q2 3 4.5 5.5t6 5.5t5.5 5q12 16 19 23q3 4 9 11t9 11t16 20.5t21 24.5l6 12q5 10 8 13q6 12 15 24l12 25q3 3 5.5 6.5t5.5 8l5 7.5q7 8 21 20.5t18 16.5q9 9 25 29l-2 2q-8 10 -23 25q-3 3 -22 26q-2 4 -11 14t-12 17l-22 33 q-9 23 -21 30q-13 13 -20 25q-2 3 -7.5 9t-7.5 9q-1 1 -3.5 5t-4.5 6h-2l-4 4q-8 6 -20 22q-2 4 -11 13q-6 4 -14 12q-21 27 -41 57q-4 6 -13 26.5t-16 30.5q-13 21 -18 25l-14 14q-3 3 0 7q-2 5 1 8t7 2q4 0 12 -4q4 1 12.5 2t12.5 2q8 0 24 -4h25q17 -2 45 2h27 q8 -2 22 -2q7 0 19.5 -0.5t22.5 -0.5t19 1q2 0 8 -0.5t11.5 -0.5t9.5 1q8 2 25 2q12 0 12 -10q5 -2 8 -9q12 -9 26.5 -32.5t18.5 -28.5q3 -3 11 -16t14 -19q4 -3 20 -31q5 -8 14.5 -20.5t12.5 -16.5q3 -7 22 -30q2 -2 6.5 -9t6.5 -8h2q2 3 12 23q20 33 43 59q20 25 23 29 q4 5 10.5 16.5t9.5 14.5q2 3 7 8t7 8q5 10 9 14q2 3 7.5 15t10.5 18q0 4 6 4q0 1 1 5q2 4 1 3q5 9 13 9q4 3 9 3.5t12 -0.5t9 -1q7 0 21.5 -1t21.5 -1h39q3 0 10.5 0.5t14 0.5t10.5 -1q2 -2 6 -2q6 0 10 2q13 7 21 4q2 -1 7.5 -1.5t8.5 -2.5q1 0 3.5 -1t4.5 -1h7q3 1 10 2 t10 2q22 4 41 -6q3 6 12 2h2q4 4 11 0l2 -2q9 -13 -6 -19q-3 -2 -5 -2q-3 -4 -9.5 -20t-12.5 -23q-15 -18 -33 -33q-6 -8 -14 -14q-1 -1 -7 -5.5t-8 -8.5h-2q-10 -15 -16 -21q-2 0 -2 -2v-2q-1 -1 -4 -3t-4 -3q-4 -5 -13 -18.5t-14 -18.5l-4 -4q0 -4 -4 -8q-9 -18 -23 -35 q-2 -3 -6 -10.5t-6 -10.5q-12 -17 -31 -36q-5 -7 -17 -19.5t-17 -19.5q-24 -30 -27 -33q-24 -30 -27 -33l-4 -4l-2 -2q4 -4 8 -12q7 -7 19 -23q9 -6 6 -16l6 -6q7 -7 15 -17t16.5 -22.5t13.5 -18.5q3 -7 11 -18t10 -14q12 -15 24 -27q28 -39 45 -59q17 -22 23 -33 q20 -25 22 -27q4 -5 11.5 -15.5t11.5 -15.5q4 -4 12 -13t12 -13t7.5 -8.5t8 -11t7.5 -9.5q19 -19 27 -29q6 -10 22 -26q1 -2 3 -5.5t3.5 -5.5t3.5 -4t2 -8q2 -2 2 -6v-4h3l10 -10l3 -5q3 -4 7 -5q2 -2 2 -9l2 -2h2q0 -2 2 -2z" />
<glyph unicode="y" horiz-adv-x="1142" d="M1090 926q3 6 11 3.5t7 -9.5q0 -7 -2 -11v-2q-2 -5 -8 -19t-8 -22q-8 -23 -21 -53q-3 -7 -10 -21.5t-10 -21.5q-4 -8 -12.5 -23.5t-12.5 -23.5q-18 -36 -23 -51q-1 -1 -4.5 -10.5t-7.5 -14.5q-2 -4 -5 -12t-5 -12q-8 -23 -27 -50q-6 -8 -14 -24.5t-10 -20.5q0 -4 -2 -8 q-17 -31 -31 -53q-2 -4 -2 -10q-1 -1 -2 -3t-2 -3q0 -3 -2 -5q-2 -4 -17 -24l-8 -16q-4 -8 -12 -26t-12 -26q-15 -40 -19 -47q-1 -5 -4 -13t-4 -9q-1 -2 -4.5 -8.5t-5.5 -8.5h-2q-1 -3 -3 -10t-3 -10q-4 -15 -9 -23l-6 -12l-4 -8h-2q-7 -18 -14 -27q-28 -46 -35 -63 q-3 -6 -8 -18.5t-8 -18.5q-5 -12 -23 -49l-6 -13q0 -6 -8 -18q-2 -6 -10 -20t-11 -23q-7 -12 -20 -47q-1 -3 -8 -17q-1 -3 -2.5 -9t-2.5 -9q-1 -1 -2 -3t-2 -3q-10 -25 -12 -29q-2 -7 -8 -18t-8 -15l-13 -30q-15 -25 -18 -29q-3 -5 -7 -16.5t-7 -16.5l-4.5 -9t-6.5 -10.5 t-6 -8.5q-3 -6 -6 -15q-8 -13 -19 -42t-14 -36q-9 -14 -10 -16l-6 -18q-1 -2 -2 -7.5t-2 -7.5t-4 -6t-4 -6q0 -6 -6 -6q-4 -12 -15 -12h-67q-3 0 -8.5 1t-8.5 1h-39q-2 0 -12.5 -1.5t-15.5 -0.5q-15 6 -35 2h-19h-47q-12 0 -18 4h-2q0 2 -2 2q-4 4 0 12q1 1 3 2t3 2q2 0 2 2 q3 3 7 12t5 11q4 16 8 24q1 4 4.5 11.5t4.5 11.5q2 8 10 20q1 5 4 12t4 9q4 8 12 20q1 3 4.5 9.5t4.5 9.5q12 15 22 35q3 7 10.5 21.5t10.5 21.5q8 24 14 34q1 0 2 1t2 1q3 9 6 15l8 16q12 24 13 25q2 2 4 7t4 7q1 3 4 9t4 9q11 18 16 31q4 9 13.5 27.5t13.5 27.5 q2 5 7 14.5t7 14.5q6 15 13 29q4 9 15.5 27.5t14.5 29.5q1 7 11 31q5 8 8 16q-6 9 -10 21q-10 14 -21 41q-23 48 -31 73q-6 14 -19.5 36.5t-17.5 29.5q-3 6 -10 18.5t-10 18.5q-2 4 -2 10q-2 2 -2 6q-1 2 -4 6.5t-4 6.5q-18 27 -21 36l-12 37q-9 27 -14 37q-3 6 -10.5 17.5 t-10.5 17.5q-1 2 -2 6t-2 6q-10 0 -10 8q0 3 -3.5 10l-4.5 9q0 2 -5 12q0 1 -1 3t-1 3q-1 1 -3 4t-3 4v2q-3 2 -8 19h-2q-9 26 -14 35q-1 3 -5.5 9.5t-5.5 10.5q-16 27 -18 29q-6 6 -2 10q-4 5 -10 17.5t-10 17.5q-9 12 -21 39q-3 12 -8 22q-1 3 -10 21q-9 21 -21 45 q-4 8 -6 10l-2 2q-2 4 -6 8q0 1 -1 4t-1 5q-1 6 3 9.5t9 0.5h4l2 2q9 3 14 -6h3q6 -4 16 -4q23 0 33 2q3 0 9 1t9 1t8.5 -1t8.5 -1h32q16 3 35 0q3 0 13 -1.5t16 -0.5q3 0 7.5 1t6.5 1t5 2t5 2q10 2 31 2q4 0 8 -3.5t4 -6.5h6q3 2 7 -0.5t4 -6.5q4 -12 6 -14q1 -2 4 -7t4 -7 q5 -8 14 -31q4 -11 14.5 -31.5t14.5 -33.5q4 -14 16.5 -39t16.5 -35q27 -61 29 -68q5 -10 8 -22q0 -5 4 -17l12 -30q5 -10 14 -37q1 -6 8.5 -15.5t8.5 -11.5q14 -34 18 -39l19 -37q4 -6 12 -22l4 8q2 2 14 33q3 10 14.5 32t14.5 35q9 26 29 66q9 22 14 29l4 8v-2v2q0 6 4 14 q2 3 8 21q7 12 11 34q1 2 5 9.5t5 11.5q4 6 8 18q10 20 19 35q16 27 38 72q14 27 17 39q2 3 5 9t5 9q1 3 3.5 7.5t2.5 6.5q3 9 10 9q5 5 11 2q6 -4 26 -4q15 -3 31 0q10 3 23 0h24q1 0 2 -1t2 -1q7 0 11 2q39 0 47 -2q0 2 4 2q5 0 14 1t14 1t16.5 1t16.5 1h17z" />
<glyph unicode="z" horiz-adv-x="999" d="M905 930q4 -4 4 -6v-2q0 -3 -4 -7l-4 -4q-8 -12 -10 -18q-14 -28 -23 -39q-8 -12 -28.5 -38t-30.5 -42q-27 -38 -51 -78q-5 -6 -27 -39q-2 -4 -11.5 -15.5t-12.5 -18.5q-28 -48 -45 -80q-6 -11 -54 -78q-17 -22 -34 -48.5t-36 -60.5t-30 -51q-8 -14 -26 -38.5t-21 -28.5 q28 4 43 2l18 -7h21h57q14 0 29 3q3 1 11.5 4t14.5 4h31q3 0 11 -1t12 -1q19 0 51 4q36 4 53 2q4 -2 12 -2h11q15 8 24 6l6 -6h4q5 0 9 -2q1 0 3.5 -2t2.5 -4q4 -4 4 -9q0 -8 -2 -10v-2q4 -11 4 -51q0 -5 1.5 -22.5t0.5 -26.5q-2 -12 -2 -33q1 -6 1 -17.5t1 -17.5v-22 q1 -7 -6 -10.5t-13 -0.5q-4 -4 -10 -4h-22q-9 0 -13 2q-2 2 -6 2q-8 1 -24.5 -0.5t-20.5 -1.5h-49q-23 0 -29 6q-3 0 -8 -1t-8 -1h-25q-24 0 -36 2q-13 0 -19 -2h-20q-8 0 -23.5 1t-23.5 1q-29 0 -43 -2h-27h-51h-10h-25h-4q-1 0 -4 1t-4 1t-4.5 -1t-4.5 -1q-27 -2 -79 -2 q-6 0 -18.5 -1t-18.5 -1q-7 0 -20 -1t-19 -1h-41q-13 0 -37 4q-17 0 -25 -2q-22 -3 -43 0q-3 1 -12 1.5t-14 2.5q0 -2 -2 -2q-3 -6 -8 -2t0 9l8 8q-3 3 0 6q20 32 37 49q2 2 9.5 10.5t10.5 14.5q3 4 7 12t7 12q6 9 16 28t15 27q13 26 35 48l4 4q1 1 2 4t2 4l12 18 q22 26 31 39q4 6 14 25q6 12 19.5 34t19.5 33q9 9 11 15q2 3 5 9t5 9q10 20 22 35q12 18 27 33q0 1 1 3t1 3q4 6 12.5 19.5t12.5 19.5q24 41 51 78q40 51 53 73q3 3 6 9q-1 0 -3 1t-3 1q-4 0 -13.5 -1t-13.5 -1h-55q-1 0 -9 1.5t-13 0.5q-7 -2 -23 2q-32 4 -49 2 q-18 -2 -55 -2h-56q-7 0 -28 -1.5t-31 -0.5q-31 0 -41 12q-5 5 -2 14v10v13q4 16 4 24v27q0 4 1 12t1 12q0 36 2 54q0 4 1 12.5t1 13.5v7q-5 5 0 10v4q4 4 8 4l2 -2q4 4 7 0h4q4 4 8 0h33q4 0 16 -4h4q5 0 15.5 2t15.5 2q4 0 14 -1t15 -1h57q10 -2 31 -2h2q3 0 8.5 -1 t7.5 -1h12q17 0 25 2q5 2 29 2q4 -1 13.5 0t14.5 0h78q19 0 29 2q3 0 9 1t9 1q6 -2 19 -2q3 0 9 -1t9 -1h47q4 0 11.5 2t11.5 2h4q16 4 49 4q1 0 36 1t36 -1h67q2 0 8.5 0.5t11.5 0.5t11 -0.5t9.5 -3t4.5 -7.5z" />
<glyph unicode="{" horiz-adv-x="649" d="M573 -193q5 -10 0 -20t-18 -10q-10 -1 -29 -2.5t-34 -2.5t-29 -1h-49q-27 0 -39 4q-9 -3 -19 0q-6 2 -18 10q-5 4 -15.5 11t-15.5 11q-36 22 -45 64q-5 16 -14 76q-4 13 -8 47l-7 43v51v43q0 10 1 28.5t1 33.5t-2 28q-2 8 -2 45v23q-4 12 -4 18q-1 16 0 47.5t0 46.5 q0 21 -6 39q-1 3 -2 8.5t-2 8.5q-4 8 -4 12q-3 8 -7 26.5t-7 26.5q-12 27 -27 51q-28 39 -33 45q-9 9 -10 11q-3 2 -9 5t-9 5q-13 0 -21 8t-8 21q1 9 2 27.5t2 27.5v39q0 16 6 22q-1 3 1 7t5 4q36 8 52 22q22 16 40 49q3 6 9.5 19.5t9.5 19.5q0 3 1 8.5t1 8.5q2 23 2 67 q2 47 2 139q4 32 4 48v43q-4 61 0 94q2 14 2 47q0 6 1 18t1 19q2 25 15 94q0 11 4 27q0 2 3.5 9.5t4.5 12.5q4 25 14 37q21 26 27 31l6 6q1 0 5 2h1q3 2 5.5 4.5t5.5 6t5 5.5t10 5t11 5q3 1 9 4.5t9 4.5q18 5 41 2l86 -6q28 8 41 8q5 0 16.5 -2t16.5 -2t8 -3.5t2 -7.5 q0 -8 -4 -12q1 -8 1 -17t-0.5 -20t-0.5 -16q0 -65 2 -78q1 -13 -9.5 -16.5t-16.5 4.5h-13q-24 -4 -32 -4q-2 0 -9 0.5t-13.5 0.5t-10.5 -1q-3 -4 -9.5 -11.5t-9.5 -11.5q-10 -16 -12 -28q2 -1 1.5 -5.5t-3.5 -5.5v-2q0 -4 -2 -6v-12q0 -4 -1 -13.5t-1 -13.5q0 -7 1 -21.5 t1 -21.5q0 -5 1 -15t1 -18.5t-2 -15.5v-8q4 -16 4 -29q1 -7 4 -21.5t4 -21.5v-45q4 -32 4 -45q1 -9 3.5 -23t3.5 -20q3 -28 -2 -47q-2 -11 -17 -86q-4 -14 -8 -23q-1 -3 -2 -10t-2 -10q-3 -6 -14 -39q-4 -9 -11 -20t-12.5 -17.5t-16.5 -17.5t-14 -15q-3 -3 -12 -12.5 t-12 -15.5q-12 -17 -29 -29q-12 -8 -18 -10q12 -9 22 -19l10 -10q2 -2 7 -8t8 -8q5 -5 13.5 -16.5t10.5 -14.5q26 -30 36 -43t24.5 -42.5t15.5 -55.5q6 -12 6 -31q1 -6 6 -41v-43v-352q1 -2 2.5 -14.5t3.5 -18.5q1 -3 4.5 -9t4.5 -9q1 -1 2 -5t2 -6v-2l2 -2l6 -4q2 -1 7 -4 t7 -4q18 -8 68 -8q9 1 16.5 -6.5t5.5 -16.5q0 -6 -1 -18.5t-1 -18.5q4 -20 4 -30v-2q2 -2 2 -11v-14q0 -15 -2 -21z" />
<glyph unicode="|" horiz-adv-x="516" d="M391 20q0 -34 -6 -43q-10 -17 -35 -28q-12 -8 -22 -2q-2 0 -6.5 2t-6.5 2h-157q-7 0 -13 6t-6 14q-2 14 -2 45q0 7 -1 23t-1 24q6 42 6 43v197q0 7 -2 21.5t-2 21.5t1 22.5t1 22.5v293q0 17 -1 48t-1 46v51q0 6 -1 19.5t-1 19.5q0 8 1 28.5t0.5 35.5t-3.5 29 q-2 8 -1.5 22t-0.5 23q-2 14 -2 43q0 61 -2 92q-3 97 6 192q0 33 2 49q0 7 1 22t1 23q0 64 2 97v2q0 8 4 12q6 4 13 5.5t16.5 1.5t13.5 1q31 7 58 4q5 0 10 -1t11 -2.5t9 -2.5h60q3 0 10.5 -1t9.5 -1q10 0 15.5 -7.5t-0.5 -16.5q-1 -1 -1 -6t-1 -7q0 -4 -1 -11t-1 -11 q0 -2 -1.5 -7.5t-1.5 -7.5q5 -62 5 -75q0 -17 1 -50t1 -49t-1 -48t-1 -48q0 -15 4 -47q1 -6 1 -14t-0.5 -18t-0.5 -15q4 -32 4 -47v-49q0 -16 -2 -47t-2 -46q1 -8 1 -25t1 -26q0 -7 1 -20.5t1 -20.5q0 -15 1 -46t1 -46q1 -16 1 -48.5t1 -49.5q4 -62 4 -92q0 -66 2 -97 q4 -42 4 -192v-51q0 -7 1 -20.5t1 -20.5v-140z" />
<glyph unicode="}" horiz-adv-x="655" d="M557 801q2 -8 2 -25q0 -4 -1 -11t-1 -11v-97q0 -29 -14 -41q-10 -11 -33 -27t-31 -24q-6 -7 -20 -35q-2 -5 -9.5 -15t-9.5 -17q-22 -68 -24 -78q-2 -14 -2 -45q0 -6 -1 -20t-1 -21q-2 -33 -2 -98q0 -64 2 -97q0 -31 2 -47q1 -7 1 -21.5t1 -21.5q0 -4 1 -11.5t1 -10.5 q2 -9 -2 -21q-1 -5 -1.5 -19t-2.5 -22q-1 -11 -15 -47q-17 -34 -22 -39t-13.5 -17.5t-13.5 -17.5q-4 -5 -13 -15t-13 -15q-27 -27 -33 -31q-15 -12 -37 -12q-11 -2 -24.5 -2t-29.5 1t-24 1h-51q-3 1 -11.5 1.5t-15 1.5t-10.5 5q-5 4 -6 10.5t0 14.5t0 12q0 6 -1 17t-1 17 q1 16 1 48t1 47q2 7 8 11t12 1q2 0 6.5 1t6.5 1q6 4 22 4q10 2 31 2q1 0 4.5 -1t5.5 -1q3 2 8.5 7t8.5 7q7 7 8 9q2 0 2 4q1 3 4 8t4 8q3 15 6 27q0 3 1 9t1 9l-1 17q0 18 1 18q1 4 1 9.5t-0.5 12t-0.5 9.5q0 23 2 35q-4 36 -4 57q-1 14 -2 42t-2 42v43v37q1 6 2 18t2 17 q-2 10 -2 28q-4 47 0 70q4 16 6 26q1 2 6 12.5t6 16.5q3 6 11 27.5t14 32.5q14 23 35 47q8 8 25 21t24 20q12 12 18 16q-11 5 -18 16l-25 25q-5 4 -26 25q-13 11 -25 30q-5 6 -10.5 18t-7.5 15q-14 30 -25 74q-6 24 -6 47l-2 6q-2 2 -2 10q0 13 -2 21q1 -2 1 1l-1 5 q0 2 -1 6t-1 6q0 3 -1 10t-1 11q0 5 1.5 20t0.5 23q-1 6 -4 20t-4 23q0 29 2 43q4 16 4 18v23q0 7 1 21.5t1 21.5q0 19 4 47q2 6 2 37q2 8 2 24v12q1 -1 1 0q0 2 -3 5v4q-7 15 -4 39q0 12 -12 36q-4 10 -21 23q-5 4 -10.5 5t-15 1.5t-13.5 1.5q-6 1 -41 6q-9 0 -13 8.5 t-1 14.5q-2 7 -2 47v41q4 8 4 12v17q0 13 12 16q12 4 23 4q45 4 69 2q36 -5 46 -8q4 0 4 2l24 -6q26 -4 43 -15q20 -13 31 -30q21 -21 33 -60q24 -79 26 -96q5 -39 7.5 -111.5t3.5 -82.5v-52q4 -28 4 -39v-14q0 -1 1 -3t1 -3v-25q0 -1 6 -43v-14v-4q4 -12 4 -21v-22 q0 -7 4 -19q0 -4 1 -13t1 -13q0 -2 1 -4.5t1 -5.5q1 -3 1 -9.5t1 -9.5q4 -12 4 -18q7 -25 19 -39q2 -3 6 -8.5t6 -8.5q2 -2 5 -7t5 -7q13 -16 31 -22q26 -7 35 -21h2q7 -5 10 -14z" />
<glyph unicode="~" horiz-adv-x="972" d="M885 956q16 5 29.5 -6.5t3.5 -27.5q-5 -6 -7.5 -20.5t-3.5 -16.5q-7 -25 -14 -41q-12 -32 -23 -43q-2 -3 -20 -21q-1 -1 -4.5 -3.5t-6 -5t-3.5 -5.5q-15 -26 -37 -37q-21 -12 -45 -27q-8 -5 -25 -12q-6 -2 -24 -2h-13q-12 -4 -24 -4q-36 0 -56 10q-4 1 -12 2t-12 2 q-3 1 -19 5.5t-24 5.5q-8 2 -23 5t-22 5q-26 7 -39 16q-2 1 -7.5 5t-7.5 5q-15 5 -18 7l-6 4q-5 0 -21 4q-2 1 -3.5 1.5t-4 1t-4.5 1.5h-4q-3 1 -7.5 2t-6.5 2h-33q-8 0 -10 2q-10 -5 -13 -8q-19 -13 -47 -60q-5 -9 -12 -14t-17 -6.5t-18 -1.5t-21 1t-20 1q-19 1 -54.5 2 t-53.5 2q-13 0 -16.5 7.5t1.5 13.5q-4 2 -4 4q-4 18 1.5 39t23.5 24l6 6q6 14 33 54q2 6 24 38q9 15 27 33q17 12 47 19q8 3 20 11.5t17 10.5q8 5 17.5 7.5t21 3.5t19 1.5t22.5 0t20 -0.5q59 0 107 -26q5 -2 38 -16.5t50 -20.5q6 -2 21.5 -7t22.5 -7t23.5 -5t24.5 1q2 1 5 2 t7 2t6 2q13 8 19 10q4 4 6 4h4l6 18q0 1 1 4.5t1 4.5l4 2q2 2 2 4q2 2 2 6q0 6 7 12t16 6q7 -1 21.5 0.5t19.5 1.5q3 0 8.5 1t9.5 1h90q9 0 11 -2z" />
<glyph unicode="&#xa1;" horiz-adv-x="538" d="M137 965q-14 5 -12.5 19.5t18.5 14.5q24 0 60 -4q10 -2 61 -2q12 0 34 -1t34 -1q20 0 30 -2q4 -1 12.5 -2t12.5 -2q8 -3 10.5 -12t-4.5 -15l-4 -4v-8v-16q2 0 2 -6q6 -18 6.5 -54t1.5 -45q2 -31 2 -90q0 -9 2.5 -26t2.5 -25v-47q0 -51 -3 -100q0 -5 -4 -13v-231 q2 -17 1.5 -46t0.5 -46q2 -17 1.5 -46.5t0.5 -48.5v-90v-8q0 -6 -2 -6q0 -14 -4 -20q0 -5 -4 -5q0 -11 -10 -14q-13 -3 -29 4q-8 4 -22 4h-62q-12 0 -33 2t-32 2h-41q-5 -6 -13 -7t-14 3q-17 10 -6 29v4v43q0 6 0.5 18t0.5 22t-1 19q-4 36 -4 54q0 41 2 59q6 99 6 195 q0 34 4 100v96q0 11 0.5 31t0.5 36t-1 30q-2 31 -2 92q0 15 -1 47t-1 49q0 8 1 24.5t1 24.5q-3 12 0 21zM104 1223v34q0 43 9 66q15 38 37 57q35 30 79 45t84 5q41 -10 68 -44q26 -29 39 -59q14 -33 14 -43q2 -14 -2 -41q-4 -52 -20 -78q-6 -9 -29 -32q-26 -21 -33 -23 q-2 -2 -4 -2q-1 -1 -4 -3t-4 -3q-27 -15 -55 -12q-4 -7 -13 2q-5 0 -15 1t-15 1q-21 0 -29 4q-22 7 -33 16q-11 7 -22 25q-3 4 -17.5 22t-21.5 29q-10 17 -13 33z" />
<glyph unicode="&#xa2;" horiz-adv-x="888" d="M653 -106q0 -27 -4 -35q-15 -19 -28 -23q-12 -4 -19 -2q-1 0 -3.5 2t-4.5 2q-14 0 -39 0.5t-46 0.5t-40 -1q-10 0 -10 17q-4 10 -4 34q0 6 -1 19.5t-1 19.5q1 4 2.5 11.5t2.5 13.5t1 10v27q-8 2 -23 2h-33q-9 1 -30 10q-4 1 -13.5 4t-13.5 4q-28 12 -35 29v2q-1 0 -2 1 t-2 1q-1 1 -8 6.5t-12 7.5q-23 14 -47 35q-19 12 -41 41q-4 4 -6 8q-12 9 -21 21q-2 2 -5.5 5t-6 5.5t-4.5 5.5t-6.5 8.5t-6.5 8.5q-20 30 -22 34q-17 30 -19 43q-1 7 -5 20.5t-5 20.5q-2 15 -10 41.5t-10 40.5q-4 16 -4 25v18q-4 32 -2 47q1 4 0 12.5t0 12.5q0 6 4 22v19 q0 4 2 12t2 12q9 31 14 43q5 9 14 35q4 15 9 23q1 2 6 22q9 28 18 39q12 16 21 25q2 8 16 22q5 5 14.5 15.5t14.5 15.5q5 7 18 16q10 15 12 17q6 8 29 26q4 3 15.5 13.5t19.5 13.5q5 2 16.5 9t16.5 10q8 3 45 14q21 9 43 12q15 3 33 6q0 21 4 29q0 5 1 17t1 20q0 49 4 76v12 q6 5 21 6h16q26 4 41 2q8 0 28 -4h45l7 -1q7 -1 10 -1q6 0 9.5 -7t0.5 -14q-1 0 -1 -1v-4t-1 -5q0 -3 -1 -8t-1 -8v-12q0 -10 1 -30.5t1 -29.5v-24q1 0 3.5 -1t4.5 -1q8 -2 22 -10.5t19 -10.5q21 -11 23 -12q6 -6 10 -6q12 0 24 -6l9 -9q4 -4 2 -4q6 -6 6 -12q0 -2 1 -4.5 t1 -3.5q1 -3 2 -11.5t2 -11.5q2 -1 1 -33.5t-1 -33.5q3 -18 0 -39q0 -5 1 -14.5t1 -14.5q1 -5 2 -16.5t2 -16.5q4 -21 2 -32q-4 -9 -8 -9q-2 -2 -8 -2q-9 5 -11 8q-2 0 -2 3q-5 3 -8 8l-16 16q-10 10 -17 12q-3 1 -10 3.5t-10 3.5q-4 2 -11.5 6t-11.5 6l-18 6v-41 q0 -13 -2 -38t-2 -36q1 -6 1 -20.5t1 -22.5q0 -3 1 -12.5t1 -17.5v-74q1 -13 1 -38.5t1 -37.5q6 -41 6 -78v-80q14 3 25 9q12 4 18 4q4 0 6 2q5 1 12 4t9 4q8 8 12 10q-3 5 2 14q1 0 5.5 3.5t6.5 3.5q7 10 19 2q8 -8 8 -25q0 -5 1 -15.5t1 -15.5v-61q2 -41 2 -123 q0 -4 -2 -6q-4 -8 -10 -10h-2q-2 0 -2 -2q-5 -3 -17.5 -7.5t-17.5 -7.5q-4 -1 -16 -7t-19 -7q-7 -2 -35 -8h-2v-94zM432 250q17 -17 27 -23v197q0 11 -2 37t-2 41q0 3 1 10.5t1 14.5t-2 12q0 6 -1 16.5t-1 15.5q0 6 1 22.5t0.5 28t-5.5 23.5v51q-6 -3 -9 -6q-6 -6 -26 -31 q-36 -36 -52 -69q-12 -35 -12 -37l-6 -43v-25q-1 -3 -2 -10t-2 -10v-45q-3 -32 12 -74l4 -8q3 -4 9.5 -13.5t9.5 -13.5q10 -20 14 -24q10 -17 43 -37z" />
<glyph unicode="&#xa3;" horiz-adv-x="1148" d="M1108 262q6 -13 0 -26q-6 -18 -8 -21q-1 -3 -6.5 -8.5t-6.5 -7.5t-2 -7.5t-2 -7.5q-2 -6 -7 -18.5t-7 -18.5q-3 -18 -16 -38q-18 -22 -25 -33q-2 -3 -7.5 -11t-11 -14t-10.5 -10l-18 -12q-1 -1 -3 -2t-3 -2q-15 -15 -35 -25q-7 -5 -21.5 -10.5t-17.5 -7.5 q-30 -13 -45 -13q-19 0 -29 2h-20q-7 2 -21.5 5.5t-21.5 5.5l-4 2q-4 2 -12 2q-4 1 -15.5 4t-17.5 6q-6 2 -17.5 8t-17.5 8q-3 1 -9 4t-9 4q-3 2 -10 3t-9 2q-15 2 -39 14q-15 10 -35 20q-3 1 -9 2t-9 2q-3 0 -9.5 1.5t-9.5 1.5q-35 0 -45 8l-4 2q-2 1 -5 2t-5 2q-4 0 -11 2 t-11 2q-3 0 -5.5 1t-6 2.5t-5.5 2.5h-16q-3 -3 -6 0q2 -2 1.5 -5t-3.5 -3h-2q-7 -4 -7 4q-1 0 -2 -1t-2 -1q-4 -2 -12 -2h-16q-1 0 -3.5 -1t-3.5 -1h-12h-2q-4 -4 -8 -4q-13 0 -21 -4q-7 -8 -20 -35q0 -9 -4 -21q0 -10 -8 -14v-2q-13 -8 -25 0h-37h-51q-22 0 -43 12 q-8 4 -16 4q-1 0 -4 2t-5 2h-4l-4 3h-4q-8 3 -12 10q-6 6 -4 10q2 2 2 4q-4 0 2 6q-1 13 12 53q1 4 4 12.5t4 12.5q6 11 9 25q14 32 32 47q2 2 11.5 8.5t13.5 9.5q10 7 20 21q32 32 48 39q15 9 53 22q16 4 24 4q7 3 25 8v9q2 4 6 13t6 13q10 20 10 27q3 40 -2 72 q-1 9 -16 73q-8 25 -10 35v6h-47l-68 -6q-44 -4 -65 -2q-5 0 -29 4t-37 4q-10 0 -14 15q-2 30 2 84q-9 3 -9 13.5t9 12.5q1 9 10 10.5t12 -4.5h10q4 0 14 1t15 1q33 -4 49 -2q18 4 58 4h16q-10 16 -16 35q-2 9 -8.5 27.5t-8.5 27.5q-7 7 -10 13q-4 8 -8 25t-4 18 q-2 7 -6.5 20.5t-6.5 20.5q-12 44 -6 88q4 20 4 24q0 17 2 25q5 35 5 43q0 23 18 88q21 65 33 90q17 39 47 72q6 6 31 26q2 2 9.5 11t12.5 12q33 29 55 29l2 2q5 3 17 3.5t16 2.5q5 1 16.5 6.5t16.5 7.5q28 11 33 12q27 9 39 9q16 3 28 8q23 8 39 10q5 0 16 2t17 2h23 q16 -4 20 -4h18q7 0 23 -4q16 -8 23 -8q6 0 22 -4q6 -2 17.5 -7.5t17.5 -7.5q7 -3 22.5 -6t22.5 -6q30 -13 39 -20q24 -20 33 -29q5 -4 16 -12.5t16 -12.5q25 -25 35 -39q3 6 12 2q10 -8 16.5 -18t15 -31.5t9.5 -23.5t9 -18.5t10 -24.5q4 -14 4 -41q1 -10 6 -39.5t4 -46.5 v-25q0 -2 4 -14q2 -6 2 -19v-14q12 -17 -8 -29q-1 -1 -2 -3t-2 -3q-6 -4 -18 -4q0 -2 -2 -2q-4 -2 -13 -2h-16q-8 0 -22 -4t-17 -4q-28 -4 -41 -4q-32 -5 -41 -4q-6 0 -18.5 1t-18.5 1q-22 0 -26 2q-8 4 -5 10q-6 3 -6 10q0 9 4 21q0 12 -2 18q0 21 -2 33q-9 17 -12 37 q-1 3 -2 9t-2 9q0 2 -1 9t-1 8q-18 18 -23 28q-2 2 -8 14t-10 17q-2 3 -8.5 9.5t-10.5 12.5t-6 11q-4 12 -8 16q-54 19 -67 21h-70q-6 -2 -14 -6q-3 -2 -8.5 -6.5t-8.5 -6.5t-10 -5t-10 -5q-7 0 -10 -6h-3q-9 -12 -18 -27q-27 -37 -45 -78q-19 -50 -25 -79v-25q0 -2 -4 -10 q0 -2 2 -19t4 -26q0 -4 5 -19q1 -4 5 -12t5 -12q3 -6 8 -18.5t8 -18.5q2 -7 10 -21t9 -16q12 -29 14 -33q11 -25 20 -39q12 -25 13 -28h71q4 0 22 -1.5t26 -0.5q14 2 38 2h82q6 0 10.5 -4.5t4.5 -10.5v-74q0 -8 -4 -20q0 -14 -15 -14q-8 0 -20 -4l-10 -5q-6 -2 -17 -2h-31 h-24q-10 -2 -33 -2q-5 0 -14.5 -2t-14.5 -2q-4 1 -12 2t-12 2q2 -16 2 -47q2 -18 2 -57q0 -35 -2 -51q-1 -7 -4.5 -24t-3.5 -27q0 -1 -2 -20.5t-4 -29.5q-1 -5 -4.5 -14t-4.5 -12q2 -1 5.5 -3t5.5 -3q13 -6 26 -9q19 -8 31 -10q5 -1 14.5 -3t14.5 -3q22 -4 61 -20l21 -7 q6 0 10 -2q5 0 12.5 -3t9.5 -3q4 -1 12.5 -3.5t13.5 -3t15 0.5q14 2 51 14q7 3 27 23q3 3 8 18q10 15 11 19q5 15 16 12q45 -3 78 -14q5 -1 18 -4t21 -4q6 -2 18 -2q5 0 10 -5q23 0 29 -12z" />
<glyph unicode="&#xa5;" horiz-adv-x="1153" d="M1133 1413q3 3 7.5 1t4.5 -7q-1 -8 -7 -19.5t-8 -17.5q-2 -7 -11.5 -20.5t-10.5 -14.5q-5 -7 -10.5 -21.5t-7.5 -17.5q-8 -13 -23 -32q-6 -6 -16 -21q-7 -11 -9 -16q-9 -23 -14 -31q-8 -16 -22 -37q-12 -14 -27 -37q-12 -18 -37 -69q-5 -13 -16 -31q-6 -6 -8 -10 q-8 -12 -27 -51q-5 -10 -17.5 -29t-17.5 -29q-18 -31 -35 -49q-16 -22 -18 -23q4 0 12 -1t12 -1h43q6 0 18.5 -2t18.5 -2h56q6 2 14 2h12q10 0 31 1t31 1q6 1 11.5 -4.5t4.5 -11.5v-12q5 -15 6 -17q2 -20 2 -57q1 -7 -4 -11.5t-12 -4.5q-3 0 -9.5 -1t-9.5 -1q-12 4 -18 4 q-6 2 -18 2q-13 4 -17 2l-43 -6q-14 -2 -45 -2q-17 0 -49 1t-49 1q-37 0 -53 2h-19q-4 -4 -4 -8q-2 -3 -7.5 -12.5t-10.5 -14.5q0 -2 -2 -2v-37q-5 -35 -5 -43q0 -19 2 -27q6 2 23 2q8 0 23 1t22 1q8 0 23 1t22 1q17 2 45 -2q16 -2 92 -2h27q19 0 22 -2q12 -4 15 -4h6h4 q26 4 35 -10q8 -8 4 -27q0 -20 -2 -28q-2 -4 -2.5 -16t-3.5 -17q-10 -12 -33 -16q-40 -5 -47 -5q-18 -1 -52 -2t-51 -2h-167q0 -7 1 -20t1 -19q4 -66 4 -100v-96q0 -63 -2 -94v-72q1 -1 3 -4t3 -4q0 -2 1 -5t1 -5q1 -6 -3.5 -12.5t-10.5 -8.5h-13q-4 0 -8 4h-6h-23h-51 q-8 0 -31 -1.5t-36 -0.5q-6 0 -18.5 -2t-18.5 -2h-31q-24 0 -33 14q-6 12 -6 37v197q1 9 -0.5 42t2.5 42q4 31 4 96v23h-24q-15 -5 -37 -5h-35q-11 0 -31 5q-12 2 -37 2q-4 0 -12 4h-12q-4 2 -15 2q-16 0 -24 -2h-2q-1 0 -4 1t-4 1q-4 0 -12.5 -1t-12.5 -1q-11 -4 -18 -2 q-13 0 -21 2q-38 -4 -59 0q-12 4 -8 16q1 3 -0.5 10t-1.5 9v18q-5 29 2 39l2 2q-2 2 -2 8q-2 8 5.5 15t14.5 6q6 0 46.5 -0.5t62.5 -4.5q3 0 17 -4t22 -4h8q5 1 35 6q17 2 98 2q8 -2 24 -2h2q6 2 21 2q4 0 10 3v43q0 5 -1.5 18t-0.5 20v19v8q-7 7 -10 16h-43q-47 0 -94 3 h-54q-33 0 -47 4q-6 0 -18 4h-12l-2 -2q-4 -3 -9 -3.5t-12 0.5t-10 1q-40 5 -49 18q-2 4 -2 12q2 0 2 9q-4 0 -4 4q-2 3 -1.5 13t-0.5 15q0 3 -1 16t0 21.5t5 13.5q7 7 10 7h4q29 2 88 -2q15 0 43 1t41 1q1 0 36 1t36 -1q-4 0 -4 4q-5 6 -25 41q-22 38 -23 41q-2 4 -19 35 t-24 47q-5 12 -12.5 23.5t-19 26.5t-15.5 21q-31 43 -47 74q-3 5 -10 19.5t-12 21.5q-20 30 -23 37q-4 6 -10 19.5t-10 19.5q-11 22 -21 37q-2 2 -9.5 13.5t-10.5 18.5q-10 14 -13 27q-11 -4 -14 10v2q0 2 -4 10q-4 5 -3.5 11.5t5.5 9.5q-2 2 -2 8q0 8 4 10l10 5 q21 2 127 -3h31q17 -4 29 -2h51q4 9 10 9q3 0 10.5 -2t10.5 -2q6 -3 8 -3q0 -2 4 -2t8 -3.5t4 -6.5q4 -26 8 -35q1 -6 6.5 -15.5t6.5 -12.5q3 -5 14.5 -27t17.5 -35q9 -22 37 -67q6 -9 41 -66q23 -34 39 -55q36 -46 43 -58q8 -14 35 -65q2 -4 8 -14t8 -17l7 -35q4 8 4 13 q8 20 14 30q4 12 13.5 34t13.5 34q15 35 32 63q6 9 11 19l2 4q7 11 13 24.5t12 30t10 25.5q3 6 28 41q5 6 10.5 19.5t6.5 15.5q3 8 12 21t12 18q2 7 8.5 20.5t8.5 20.5q3 7 9 22.5t9 22.5q2 0 2 4q0 2 4 6l2 4q1 2 4 6t4 6q4 4 11 4l4 -2q4 0 6 -3.5t0 -6.5h12q7 0 21.5 1 t21.5 1q50 -4 78 -2q4 0 12 -0.5t15.5 -0.5t13.5 1q24 4 37 4h45q3 3 4 2q6 6 14 6q11 -4 13 -8z" />
<glyph unicode="&#xa6;" horiz-adv-x="516" d="M375 823q-7 -33 -18.5 -37.5t-47.5 0.5q-17 1 -45.5 -0.5t-47.5 -2t-39 2t-30 13.5t-10 30q0 6 -1 19.5t-1 19.5q0 8 1 28.5t0.5 35.5t-3.5 29q-2 8 -1.5 22t-0.5 23q-2 14 -2 43q0 61 -2 92q-3 97 6 192q0 33 2 49q0 7 1 22t1 23q0 64 2 97v2q0 8 4 12q6 4 13 5.5 t16.5 1.5t13.5 1q31 7 58 4q5 0 10 -1t11 -2.5t9 -2.5h60q3 0 10.5 -1t9.5 -1q10 0 15.5 -7.5t-0.5 -16.5q-1 -1 -1 -6t-1 -7q0 -4 -1 -11t-1 -11q0 -2 -1.5 -7.5t-1.5 -7.5q5 -62 5 -75q0 -17 1 -50t1 -49t-1 -48t-1 -48q0 -15 4 -47q1 -6 1 -14t-0.5 -18t-0.5 -15 q4 -32 4 -47v-49q0 -16 -2 -47t-2 -46q1 -8 1 -25t1 -26q0 -7 1 -20.5t1 -20.5zM156 674q16 0 53.5 2t62 2t52.5 -3t42 -13.5t13 -28.5q-1 -17 1.5 -48.5t2.5 -43.5q0 -66 2 -97q4 -42 4 -192v-51q0 -7 1 -20.5t1 -20.5v-140q0 -34 -6 -43q-10 -17 -35 -28q-12 -8 -22 -2 q-2 0 -6.5 2t-6.5 2h-157q-7 0 -13 6t-6 14q-2 14 -2 45q0 7 -1 23t-1 24q6 42 6 43v197q0 7 -2 21.5t-2 21.5t1 22.5t1 22.5q-2 105 -2.5 161t2 84t6 33t11.5 5z" />
<glyph unicode="&#xa8;" horiz-adv-x="931" d="M815 1356q8 -11 8 -31v-53q0 -20 -10 -43q-7 -17 -22 -39q-3 -10 -19 -31q-32 -36 -72 -39q-22 -3 -45 0q-12 2 -41 10q-26 6 -47 17q-11 4 -26 29q-4 8 -6 14q-9 4 -9 16q0 9 -4 29q-2 2 -2 6v2q-2 6 -2 21v26q0 4 2 13t2 14v10q3 16 8 23q1 2 5 5l4 3q10 25 18 33 q36 24 64 24h4q29 15 49 12q49 0 69 -12q4 -2 13.5 -6t13.5 -6q14 -5 23 -21q16 -16 22 -26zM418 1305q9 -29 -6 -76q-2 -4 -25 -39q-14 -24 -20 -31q-28 -31 -74.5 -39t-83.5 8q-58 23 -86 121q-2 7 -4 22t-2 17q-4 26 2 35q1 2 4 5t4 5q3 22 20 39q7 9 27 21q14 11 25 16 q3 1 15 6t19 6q12 4 39 4q33 0 60 -12q8 -3 16 -10t12.5 -12t12 -14.5t10.5 -12.5q32 -41 35 -59z" />
</font>
</defs>
</svg>
