<?xml version="1.0" encoding="UTF-8"?>
<!DOCTYPE svg PUBLIC "-//W3C//DTD SVG 1.1//EN" "http://www.w3.org/Graphics/SVG/1.1/DTD/svg11.dtd">
<svg version="1.1" xmlns="http://www.w3.org/2000/svg" xmlns:xlink="http://www.w3.org/1999/xlink" width="1428" height="468"  xml:space="preserve">
    <g id="logo-2">
        <path id="bezier" stroke="none" fill="rgb(0, 0, 0)" d="M 335.34,326.95 C 321.35,325.4 298.41,328.51 280.14,327.34 L 279.37,327.34 C 292.97,285.4 312.41,238.42 329.9,193.76 329.9,193.76 329.9,193.37 329.9,192.98 319.02,147.55 292.19,103.28 281.31,59.4 297.64,59.4 324.46,53.96 340.39,60.18 345.84,83.09 353.61,107.94 363.33,127.36 373.44,108.72 385.1,81.92 394.04,60.95 394.04,60.95 394.43,60.57 394.82,60.57 409.2,58.62 439.91,57.07 449.24,59.01 449.24,59.4 449.24,59.4 449.24,59.4 420.47,151.82 366.05,236.09 335.34,326.95 L 335.34,326.95 Z M 610.94,241.52 C 610.94,241.91 610.55,241.91 610.55,242.3 600.44,272.59 580.62,300.55 561.18,324.62 526.97,325.4 491.21,325.79 458.95,325.79 458.95,325.79 458.95,326.18 458.56,326.18 447.67,244.24 454.28,149.88 452.34,59.79 452.73,59.4 453.12,58.62 453.51,58.24 482.66,50.47 517.26,55.52 547.19,54.35 563.51,58.24 580.23,72.22 589.56,86.97 600.83,104.45 608.22,123.47 612.88,144.05 615.21,152.21 615.99,160.36 616.38,168.52 615.6,192.59 615.6,217.83 610.94,241.52 L 610.94,241.52 Z M 563.12,179.39 C 560.01,163.47 555.35,144.05 537.86,137.84 529.31,136.68 518.03,136.29 508.7,138.23 508.31,138.23 508.31,138.23 507.93,138.23 L 507.54,138.23 C 507.54,138.62 507.54,139.39 507.54,139.78 509.48,167.74 506.37,205.02 508.31,240.36 514.14,245.41 525.42,243.46 534.75,242.69 537.08,243.08 539.41,241.52 541.74,240.36 546.8,237.25 550.68,232.59 553.79,227.93 562.35,214.73 567.01,198.42 563.12,179.39 L 563.12,179.39 Z M 736.1,326.56 L 735.71,326.56 C 730.27,292 734.16,252.78 729.88,219.39 L 729.5,219 C 714.72,216.67 699.18,216.28 684.4,219.78 681.29,255.89 687.51,290.84 682.07,323.85 669.24,331.22 638.15,320.74 629.21,326.18 625.32,282.68 621.82,134.73 623.76,55.52 L 623.76,55.13 624.15,55.13 C 624.54,55.13 624.54,55.13 624.93,55.13 640.87,57.85 659.91,52.41 674.3,56.29 678.96,92.02 676.24,125.03 682.46,158.42 L 682.85,158.42 C 695.68,161.53 712,158.81 724.83,158.03 L 725.22,158.03 C 728.33,122.31 728.33,93.96 726.77,56.68 739.6,52.41 764.87,50.86 780.03,52.41 L 790.52,324.23 C 773.03,327.34 748.93,325.79 736.1,326.56 L 736.1,326.56 Z M 970.88,157.26 C 966.22,214.34 898.58,214.73 870.6,248.51 868.26,253.56 862.43,268.7 866.32,271.04 901.3,271.81 928.51,270.26 962.33,270.26 966.61,280.74 965.44,294.72 965.05,307.54 965.05,313.36 964.28,319.19 965.83,324.62 965.83,325.01 965.44,325.01 964.28,325.01 L 816.56,326.95 C 810.73,326.95 804.9,326.95 799.07,326.95 798.68,326.56 798.68,326.18 798.68,325.79 801.4,290.45 795.57,256.67 812.29,229.48 836.78,201.53 868.65,191.43 895.08,170.07 916.07,156.87 912.58,117.26 888.48,114.54 863.21,114.54 860.49,142.89 859.71,161.53 859.71,161.92 859.71,161.92 859.71,162.31 L 859.32,162.31 C 836,164.64 819.28,166.19 801.79,164.25 L 801.4,164.25 C 801.4,163.86 801.4,163.86 801.4,163.47 795.18,128.13 801.79,94.74 820.84,73.77 841.44,46.97 904.02,45.81 932.01,57.46 954.95,69.5 967.38,94.35 970.11,122.31 970.5,133.18 971.27,146.77 970.88,157.26 L 970.88,157.26 Z M 1154.74,142.5 C 1154.36,142.5 1154.36,142.5 1154.36,142.5 1136.47,145.61 1114.32,147.16 1096.05,142.11 1102.66,113.77 1051.73,102.89 1047.46,132.4 1046.68,135.9 1047.07,139.39 1047.46,142.89 1051.34,155.32 1061.84,158.03 1072.73,159.59 1099.93,162.69 1124.81,178.23 1139.97,200.36 1158.24,223.66 1158.63,257.06 1146.19,283.85 1133.75,315.69 1103.05,329.28 1071.17,328.51 1026.08,326.95 975.93,298.61 979.43,248.9 979.43,248.51 979.43,248.12 979.43,247.74 979.43,247.35 979.43,246.96 979.43,246.57 997.7,243.85 1021.41,246.57 1038.91,246.18 1040.85,279.19 1097.6,279.97 1091.38,243.85 1088.27,219 1057.56,215.51 1035.8,211.23 1025.3,209.29 1016.75,204.24 1009.36,198.03 961.94,152.6 984.88,82.31 1035.02,61.34 1060.29,50.86 1096.44,54.35 1121.32,65.61 1146.19,78.43 1162.13,103.67 1154.74,142.5 L 1154.74,142.5 Z M 1154.74,142.5" />
        <g id="group2" clip-path="url(#bezier2)">
            <clipPath id="bezier2">
                <path d="M 335.34,326.95 C 321.35,325.4 298.41,328.51 280.14,327.34 L 279.37,327.34 C 292.97,285.4 312.41,238.42 329.9,193.76 329.9,193.76 329.9,193.37 329.9,192.98 319.02,147.55 292.19,103.28 281.31,59.4 297.64,59.4 324.46,53.96 340.39,60.18 345.84,83.09 353.61,107.94 363.33,127.36 373.44,108.72 385.1,81.92 394.04,60.95 394.04,60.95 394.43,60.57 394.82,60.57 409.2,58.62 439.91,57.07 449.24,59.01 449.24,59.4 449.24,59.4 449.24,59.4 420.47,151.82 366.05,236.09 335.34,326.95 L 335.34,326.95 Z M 610.94,241.52 C 610.94,241.91 610.55,241.91 610.55,242.3 600.44,272.59 580.62,300.55 561.18,324.62 526.97,325.4 491.21,325.79 458.95,325.79 458.95,325.79 458.95,326.18 458.56,326.18 447.67,244.24 454.28,149.88 452.34,59.79 452.73,59.4 453.12,58.62 453.51,58.24 482.66,50.47 517.26,55.52 547.19,54.35 563.51,58.24 580.23,72.22 589.56,86.97 600.83,104.45 608.22,123.47 612.88,144.05 615.21,152.21 615.99,160.36 616.38,168.52 615.6,192.59 615.6,217.83 610.94,241.52 L 610.94,241.52 Z M 563.12,179.39 C 560.01,163.47 555.35,144.05 537.86,137.84 529.31,136.68 518.03,136.29 508.7,138.23 508.31,138.23 508.31,138.23 507.93,138.23 L 507.54,138.23 C 507.54,138.62 507.54,139.39 507.54,139.78 509.48,167.74 506.37,205.02 508.31,240.36 514.14,245.41 525.42,243.46 534.75,242.69 537.08,243.08 539.41,241.52 541.74,240.36 546.8,237.25 550.68,232.59 553.79,227.93 562.35,214.73 567.01,198.42 563.12,179.39 L 563.12,179.39 Z M 736.1,326.56 L 735.71,326.56 C 730.27,292 734.16,252.78 729.88,219.39 L 729.5,219 C 714.72,216.67 699.18,216.28 684.4,219.78 681.29,255.89 687.51,290.84 682.07,323.85 669.24,331.22 638.15,320.74 629.21,326.18 625.32,282.68 621.82,134.73 623.76,55.52 L 623.76,55.13 624.15,55.13 C 624.54,55.13 624.54,55.13 624.93,55.13 640.87,57.85 659.91,52.41 674.3,56.29 678.96,92.02 676.24,125.03 682.46,158.42 L 682.85,158.42 C 695.68,161.53 712,158.81 724.83,158.03 L 725.22,158.03 C 728.33,122.31 728.33,93.96 726.77,56.68 739.6,52.41 764.87,50.86 780.03,52.41 L 790.52,324.23 C 773.03,327.34 748.93,325.79 736.1,326.56 L 736.1,326.56 Z M 970.88,157.26 C 966.22,214.34 898.58,214.73 870.6,248.51 868.26,253.56 862.43,268.7 866.32,271.04 901.3,271.81 928.51,270.26 962.33,270.26 966.61,280.74 965.44,294.72 965.05,307.54 965.05,313.36 964.28,319.19 965.83,324.62 965.83,325.01 965.44,325.01 964.28,325.01 L 816.56,326.95 C 810.73,326.95 804.9,326.95 799.07,326.95 798.68,326.56 798.68,326.18 798.68,325.79 801.4,290.45 795.57,256.67 812.29,229.48 836.78,201.53 868.65,191.43 895.08,170.07 916.07,156.87 912.58,117.26 888.48,114.54 863.21,114.54 860.49,142.89 859.71,161.53 859.71,161.92 859.71,161.92 859.71,162.31 L 859.32,162.31 C 836,164.64 819.28,166.19 801.79,164.25 L 801.4,164.25 C 801.4,163.86 801.4,163.86 801.4,163.47 795.18,128.13 801.79,94.74 820.84,73.77 841.44,46.97 904.02,45.81 932.01,57.46 954.95,69.5 967.38,94.35 970.11,122.31 970.5,133.18 971.27,146.77 970.88,157.26 L 970.88,157.26 Z M 1154.74,142.5 C 1154.36,142.5 1154.36,142.5 1154.36,142.5 1136.47,145.61 1114.32,147.16 1096.05,142.11 1102.66,113.77 1051.73,102.89 1047.46,132.4 1046.68,135.9 1047.07,139.39 1047.46,142.89 1051.34,155.32 1061.84,158.03 1072.73,159.59 1099.93,162.69 1124.81,178.23 1139.97,200.36 1158.24,223.66 1158.63,257.06 1146.19,283.85 1133.75,315.69 1103.05,329.28 1071.17,328.51 1026.08,326.95 975.93,298.61 979.43,248.9 979.43,248.51 979.43,248.12 979.43,247.74 979.43,247.35 979.43,246.96 979.43,246.57 997.7,243.85 1021.41,246.57 1038.91,246.18 1040.85,279.19 1097.6,279.97 1091.38,243.85 1088.27,219 1057.56,215.51 1035.8,211.23 1025.3,209.29 1016.75,204.24 1009.36,198.03 961.94,152.6 984.88,82.31 1035.02,61.34 1060.29,50.86 1096.44,54.35 1121.32,65.61 1146.19,78.43 1162.13,103.67 1154.74,142.5 L 1154.74,142.5 Z M 1154.74,142.5" />
            </clipPath>
        </g>
    </g>
</svg>
