<?xml version="1.0" encoding="UTF-8"?>
<!DOCTYPE svg PUBLIC "-//W3C//DTD SVG 1.1//EN" "http://www.w3.org/Graphics/SVG/1.1/DTD/svg11.dtd">
<svg version="1.1" xmlns="http://www.w3.org/2000/svg" xmlns:xlink="http://www.w3.org/1999/xlink" width="965" height="300"  xml:space="preserve">
    <path id="text" stroke="none" fill="rgb(255, 255, 255)" d="M 175.87,10.01 C 166.52,7.94 135.76,9.6 121.35,11.67 120.96,11.67 120.57,12.08 120.57,12.08 111.62,34.42 99.94,62.97 89.81,82.82 80.08,62.14 72.29,35.66 66.84,11.25 50.88,4.63 24.01,10.42 7.65,10.42 18.56,57.17 45.42,104.34 56.33,152.74 56.33,153.15 56.33,153.57 56.33,153.57 38.81,201.14 19.34,251.2 5.71,295.88 L 6.49,295.88 C 24.79,297.12 47.76,293.82 61.78,295.47 92.54,198.66 147.05,108.89 175.87,10.42 175.87,10.42 175.87,10.42 175.87,10.01 Z M 332.01,39.8 C 322.66,24.08 305.92,9.18 289.57,5.05 259.58,6.29 224.93,0.91 195.72,9.18 195.34,9.6 194.95,10.42 194.56,10.84 196.5,106.82 189.88,207.35 200.79,294.64 201.18,294.64 201.18,294.23 201.18,294.23 233.49,294.23 269.32,293.82 303.58,292.99 323.05,267.34 342.91,237.55 353.03,205.28 353.03,204.87 353.42,204.87 353.42,204.45 358.1,179.22 358.1,152.33 358.87,126.68 358.49,117.99 357.71,109.3 355.37,100.61 350.7,78.69 343.3,58.41 332.01,39.8 Z M 296.18,189.97 C 293.07,194.94 289.18,199.9 284.11,203.21 281.78,204.45 279.44,206.11 277.11,205.7 267.76,206.52 256.47,208.59 250.63,203.21 248.68,165.57 251.8,125.85 249.85,96.06 249.85,95.65 249.85,94.82 249.85,94.41 L 250.24,94.41 C 250.63,94.41 250.63,94.41 251.02,94.41 260.36,92.34 271.65,92.75 280.22,93.99 297.74,100.61 302.41,121.3 305.53,138.26 309.42,158.53 304.75,175.91 296.18,189.97 Z M 538.38,2.98 C 523.19,1.32 497.88,2.98 485.03,7.53 486.59,47.24 486.59,77.45 483.48,115.51 L 483.09,115.51 C 470.24,116.33 453.88,119.23 441.03,115.92 L 440.64,115.92 C 434.41,80.34 437.14,45.18 432.47,7.12 418.06,2.98 398.98,8.77 383.02,5.87 382.63,5.87 382.63,5.87 382.24,5.87 L 381.85,5.87 381.85,6.29 C 379.9,90.68 383.41,248.31 387.3,294.64 396.26,288.85 427.41,300.02 440.25,292.16 445.71,257 439.48,219.76 442.59,181.29 457.39,177.56 472.96,177.98 487.76,180.46 L 488.15,180.87 C 492.43,216.45 488.54,258.24 493.99,295.06 L 494.38,295.06 C 507.23,294.23 531.37,295.88 548.89,292.57 L 538.38,2.98 Z M 738.52,293.4 C 739.69,293.4 740.08,293.4 740.08,292.99 738.52,287.2 739.3,280.99 739.3,274.78 739.69,261.13 740.86,246.24 736.57,235.07 702.7,235.07 675.44,236.72 640.4,235.9 636.5,233.41 642.34,217.28 644.68,211.9 672.71,175.91 740.47,175.49 745.14,114.68 745.53,103.51 744.75,89.03 744.36,77.45 741.63,47.66 729.17,21.18 706.2,8.36 678.17,-4.06 615.48,-2.81 594.84,25.73 575.76,48.07 569.14,83.65 575.37,121.3 575.37,121.71 575.37,121.71 575.37,122.13 L 575.37,122.13 575.76,122.13 C 593.28,124.19 610.02,122.54 633.39,120.06 L 633.78,120.06 C 633.78,119.64 633.78,119.64 633.78,119.23 634.56,99.37 637.28,69.17 662.59,69.17 686.73,72.07 690.24,114.27 669.21,128.33 642.73,151.09 610.8,161.84 586.27,191.63 569.53,220.59 575.37,256.58 572.64,294.23 572.64,294.64 572.64,295.06 573.03,295.47 578.87,295.47 584.71,295.47 590.56,295.47 L 738.52,293.4 Z M 944.89,98.96 C 952.29,57.59 936.32,30.7 911.4,17.04 886.48,5.05 850.27,1.32 824.96,12.49 774.73,34.83 751.76,109.71 799.26,158.12 806.66,164.74 815.23,170.12 825.74,172.18 847.55,176.74 878.31,180.46 881.42,206.94 887.65,245.41 830.8,244.58 828.86,209.42 811.33,209.83 787.58,206.94 769.28,209.83 769.28,210.25 769.28,210.66 769.28,211.07 769.28,211.49 769.28,211.9 769.28,212.31 765.78,265.27 816.01,295.47 861.17,297.12 893.1,297.95 923.86,283.47 936.32,249.55 948.78,221 948.39,185.42 930.09,160.6 914.91,137.02 889.99,120.47 862.73,117.16 851.83,115.51 841.32,112.61 837.42,99.37 837.03,95.65 836.64,91.93 837.42,88.2 841.7,56.76 892.71,68.34 886.09,98.54 904.39,103.92 926.59,102.27 944.5,98.96 944.5,98.96 944.5,98.96 944.89,98.96 Z M 944.89,98.96" />
</svg>
