<?xml version="1.0" encoding="UTF-8"?>
<!DOCTYPE svg PUBLIC "-//W3C//DTD SVG 1.1//EN" "http://www.w3.org/Graphics/SVG/1.1/DTD/svg11.dtd">
<svg version="1.1" xmlns="http://www.w3.org/2000/svg" xmlns:xlink="http://www.w3.org/1999/xlink" width="1428" height="468"  xml:space="preserve">
    <path id="ydh2s-logo" stroke="none" fill="rgb(255, 255, 255)" d="M 543.34,121.91 C 537.87,120.77 519.86,121.68 511.42,122.82 511.2,122.82 510.97,123.05 510.97,123.05 505.72,135.36 498.88,151.09 492.96,162.04 487.26,150.64 482.7,136.04 479.5,122.59 470.16,118.94 454.42,122.14 444.85,122.14 451.23,147.9 466.96,173.89 473.35,200.57 473.35,200.8 473.35,201.02 473.35,201.02 463.09,227.24 451.69,254.83 443.71,279.46 L 444.16,279.46 C 454.88,280.14 468.33,278.32 476.54,279.23 494.55,225.88 526.47,176.4 543.34,122.14 543.34,122.14 543.34,122.14 543.34,121.91 Z M 634.77,138.32 C 629.3,129.66 619.5,121.45 609.92,119.17 592.36,119.86 572.07,116.89 554.97,121.45 554.74,121.68 554.52,122.14 554.29,122.36 555.43,175.26 551.55,230.66 557.94,278.77 558.16,278.77 558.16,278.54 558.16,278.54 577.09,278.54 598.06,278.32 618.13,277.86 629.53,263.72 641.16,247.31 647.08,229.52 647.08,229.3 647.31,229.3 647.31,229.07 650.05,215.16 650.05,200.34 650.5,186.2 650.28,181.42 649.82,176.63 648.45,171.84 645.72,159.76 641.38,148.58 634.77,138.32 Z M 613.8,221.09 C 611.97,223.82 609.69,226.56 606.73,228.38 605.36,229.07 603.99,229.98 602.62,229.75 597.15,230.21 590.54,231.35 587.12,228.38 585.98,207.64 587.8,185.75 586.66,169.33 586.66,169.1 586.66,168.65 586.66,168.42 L 586.89,168.42 C 587.12,168.42 587.12,168.42 587.35,168.42 592.82,167.28 599.43,167.51 604.45,168.19 614.71,171.84 617.44,183.24 619.27,192.59 621.55,203.76 618.81,213.34 613.8,221.09 Z M 755.61,118.03 C 746.72,117.12 731.9,118.03 724.38,120.54 725.29,142.43 725.29,159.07 723.46,180.05 L 723.24,180.05 C 715.71,180.5 706.14,182.1 698.61,180.28 L 698.38,180.28 C 694.74,160.67 696.33,141.29 693.6,120.31 685.16,118.03 673.99,121.22 664.64,119.63 664.41,119.63 664.41,119.63 664.18,119.63 L 663.96,119.63 663.96,119.86 C 662.82,166.37 664.87,253.24 667.15,278.77 672.39,275.58 690.63,281.74 698.16,277.4 701.35,258.02 697.7,237.5 699.52,216.3 708.19,214.25 717.31,214.48 725.97,215.84 L 726.2,216.07 C 728.71,235.68 726.43,258.71 729.62,279 L 729.85,279 C 737.37,278.54 751.51,279.46 761.77,277.63 L 755.61,118.03 Z M 872.8,278.09 C 873.49,278.09 873.72,278.09 873.72,277.86 872.8,274.67 873.26,271.25 873.26,267.83 873.49,260.3 874.17,252.1 871.66,245.94 851.83,245.94 835.87,246.85 815.35,246.4 813.07,245.03 816.49,236.14 817.86,233.17 834.27,213.34 873.94,213.11 876.68,179.59 876.91,173.44 876.45,165.46 876.22,159.07 874.63,142.66 867.33,128.06 853.88,121 837.46,114.16 800.76,114.84 788.67,130.57 777.5,142.88 773.62,162.49 777.27,183.24 777.27,183.47 777.27,183.47 777.27,183.7 L 777.27,183.7 777.5,183.7 C 787.76,184.84 797.56,183.92 811.24,182.56 L 811.47,182.56 C 811.47,182.33 811.47,182.33 811.47,182.1 811.93,171.16 813.52,154.51 828.34,154.51 842.48,156.11 844.53,179.36 832.22,187.12 816.72,199.66 798.02,205.58 783.66,222 773.85,237.96 777.27,257.8 775.68,278.54 775.68,278.77 775.68,279 775.9,279.23 779.32,279.23 782.74,279.23 786.16,279.23 L 872.8,278.09 Z M 993.64,170.93 C 997.98,148.13 988.63,133.31 974.04,125.78 959.44,119.17 938.24,117.12 923.42,123.28 894.01,135.59 880.56,176.86 908.37,203.53 912.7,207.18 917.72,210.14 923.88,211.28 936.64,213.79 954.66,215.84 956.48,230.44 960.13,251.64 926.84,251.18 925.7,231.8 915.44,232.03 901.53,230.44 890.82,232.03 890.82,232.26 890.82,232.49 890.82,232.72 890.82,232.94 890.82,233.17 890.82,233.4 888.76,262.58 918.18,279.23 944.62,280.14 963.32,280.6 981.33,272.62 988.63,253.92 995.92,238.19 995.7,218.58 984.98,204.9 976.09,191.9 961.5,182.78 945.54,180.96 939.15,180.05 933,178.45 930.72,171.16 930.49,169.1 930.26,167.05 930.72,165 933.22,147.67 963.09,154.06 959.22,170.7 969.93,173.66 982.93,172.75 993.42,170.93 993.42,170.93 993.42,170.93 993.64,170.93 Z M 993.64,170.93" />
</svg>
